<?xml version="1.0" encoding="UTF-8"?><svg xmlns="http://www.w3.org/2000/svg" xmlns:xlink="http://www.w3.org/1999/xlink" height="323pt" style="width:1566px;height:323px;" version="1.1" viewBox="0 0 1566 323" width="1566pt">
    <defs>
        <filter height="300%" id="f1" width="300%" x="-1" y="-1">
            <feGaussianBlur result="blurOut" stdDeviation="2.0"/>
            <feColorMatrix in="blurOut" result="blurOut2" type="matrix" values="0 0 0 0 0 0 0 0 0 0 0 0 0 0 0 0 0 0 .4 0"/>
            <feOffset dx="4.0" dy="4.0" in="blurOut2" result="blurOut3"/>
            <feBlend in="SourceGraphic" in2="blurOut3" mode="normal"/>
        </filter>
    </defs>
    <g>
        <polygon fill="#FFFFFF" filter="url(#f1)" points="424,232,584,232,591,255.6094,703,255.6094,703,316,424,316,424,232" style="stroke: #000000; stroke-width: 2.0;"/>
        <line style="stroke: #000000; stroke-width: 2.0;" x1="424" x2="591" y1="255.6094" y2="255.6094"/>
        <text fill="#000000" font-family="sans-serif" font-size="14" font-weight="bold" lengthAdjust="spacingAndGlyphs" textLength="154" x="427" y="249.5332">de.mash1t.chat.config</text>
        <polygon fill="#FFFFFF" filter="url(#f1)" points="14,232,162,232,169,255.6094,172,255.6094,172,316,14,316,14,232" style="stroke: #000000; stroke-width: 2.0;"/>
        <line style="stroke: #000000; stroke-width: 2.0;" x1="14" x2="169" y1="255.6094" y2="255.6094"/>
        <text fill="#000000" font-family="sans-serif" font-size="14" font-weight="bold" lengthAdjust="spacingAndGlyphs" textLength="142" x="17" y="249.5332">de.mash1t.chat.core</text>
        <polygon fill="#FFFFFF" filter="url(#f1)" points="702,124,871,124,878,147.6094,881,147.6094,881,208,702,208,702,124" style="stroke: #000000; stroke-width: 2.0;"/>
        <line style="stroke: #000000; stroke-width: 2.0;" x1="702" x2="878" y1="147.6094" y2="147.6094"/>
        <text fill="#000000" font-family="sans-serif" font-size="14" font-weight="bold" lengthAdjust="spacingAndGlyphs" textLength="163" x="705" y="141.5332">de.mash1t.chat.logging</text>
        <polygon fill="#FFFFFF" filter="url(#f1)" points="258,16,481,16,488,39.6094,694,39.6094,694,208,258,208,258,16" style="stroke: #000000; stroke-width: 2.0;"/>
        <line style="stroke: #000000; stroke-width: 2.0;" x1="258" x2="488" y1="39.6094" y2="39.6094"/>
        <text fill="#000000" font-family="sans-serif" font-size="14" font-weight="bold" lengthAdjust="spacingAndGlyphs" textLength="217" x="261" y="33.5332">de.mash1t.chat.server.console</text>
        <polygon fill="#FFFFFF" filter="url(#f1)" points="722,232,883,232,890,255.6094,1047,255.6094,1047,316,722,316,722,232" style="stroke: #000000; stroke-width: 2.0;"/>
        <line style="stroke: #000000; stroke-width: 2.0;" x1="722" x2="890" y1="255.6094" y2="255.6094"/>
        <text fill="#000000" font-family="sans-serif" font-size="14" font-weight="bold" lengthAdjust="spacingAndGlyphs" textLength="155" x="725" y="249.5332">de.mash1t.networking</text>
        <polygon fill="#FFFFFF" filter="url(#f1)" points="180,232,406,232,413,255.6094,416,255.6094,416,316,180,316,180,232" style="stroke: #000000; stroke-width: 2.0;"/>
        <line style="stroke: #000000; stroke-width: 2.0;" x1="180" x2="413" y1="255.6094" y2="255.6094"/>
        <text fill="#000000" font-family="sans-serif" font-size="14" font-weight="bold" lengthAdjust="spacingAndGlyphs" textLength="220" x="183" y="249.5332">de.mash1t.networking.methods</text>
        <polygon fill="#FFFFFF" filter="url(#f1)" points="1066,232,1286,232,1293,255.6094,1559,255.6094,1559,316,1066,316,1066,232" style="stroke: #000000; stroke-width: 2.0;"/>
        <line style="stroke: #000000; stroke-width: 2.0;" x1="1066" x2="1293" y1="255.6094" y2="255.6094"/>
        <text fill="#000000" font-family="sans-serif" font-size="14" font-weight="bold" lengthAdjust="spacingAndGlyphs" textLength="214" x="1069" y="249.5332">de.mash1t.networking.packets</text>
        <rect fill="#FEFECE" filter="url(#f1)" height="48" style="stroke: #A80036; stroke-width: 1.5;" width="122" x="573" y="260"/>
        <ellipse cx="588" cy="276" fill="#ADD1B2" rx="11" ry="11" style="stroke: #A80036; stroke-width: 1.0;"/>
        <path d="M590.7656,271.875 Q590.9219,271.6563 591.1094,271.5469 Q591.2969,271.4375 591.5156,271.4375 Q591.8906,271.4375 592.125,271.6953 Q592.3594,271.9531 592.3594,272.5625 L592.3594,274.0156 Q592.3594,274.625 592.125,274.8906 Q591.8906,275.1563 591.5156,275.1563 Q591.1719,275.1563 590.9688,274.9531 Q590.7656,274.7656 590.6563,274.25 Q590.6094,273.8906 590.4219,273.7031 Q590.0938,273.3281 589.4844,273.1094 Q588.875,272.8906 588.25,272.8906 Q587.4844,272.8906 586.8516,273.2188 Q586.2188,273.5469 585.7266,274.2969 Q585.2344,275.0469 585.2344,276.0781 L585.2344,277.1719 Q585.2344,278.4063 586.125,279.2266 Q587.0156,280.0469 588.6094,280.0469 Q589.5469,280.0469 590.2031,279.7969 Q590.5938,279.6406 591.0156,279.2031 Q591.2813,278.9375 591.4297,278.8594 Q591.5781,278.7813 591.7813,278.7813 Q592.1094,278.7813 592.3672,279.0391 Q592.625,279.2969 592.625,279.6406 Q592.625,279.9844 592.2813,280.3906 Q591.7813,280.9688 590.9844,281.2969 Q589.9063,281.75 588.6094,281.75 Q587.0938,281.75 585.8906,281.125 Q584.9063,280.625 584.2188,279.5547 Q583.5313,278.4844 583.5313,277.2031 L583.5313,276.0469 Q583.5313,274.7188 584.1484,273.5703 Q584.7656,272.4219 585.8594,271.8047 Q586.9531,271.1875 588.1875,271.1875 Q588.9219,271.1875 589.5703,271.3516 Q590.2188,271.5156 590.7656,271.875 Z "/>
        <text fill="#000000" font-family="sans-serif" font-size="12" lengthAdjust="spacingAndGlyphs" textLength="90" x="602" y="280.9102">ConfigController</text>
        <line style="stroke: #A80036; stroke-width: 1.5;" x1="574" x2="694" y1="292" y2="292"/>
        <line style="stroke: #A80036; stroke-width: 1.5;" x1="574" x2="694" y1="300" y2="300"/>
        <rect fill="#FEFECE" filter="url(#f1)" height="48" style="stroke: #A80036; stroke-width: 1.5;" width="105" x="432.5" y="260"/>
        <ellipse cx="447.5" cy="276" fill="#ADD1B2" rx="11" ry="11" style="stroke: #A80036; stroke-width: 1.0;"/>
        <path d="M450.2656,271.875 Q450.4219,271.6563 450.6094,271.5469 Q450.7969,271.4375 451.0156,271.4375 Q451.3906,271.4375 451.625,271.6953 Q451.8594,271.9531 451.8594,272.5625 L451.8594,274.0156 Q451.8594,274.625 451.625,274.8906 Q451.3906,275.1563 451.0156,275.1563 Q450.6719,275.1563 450.4688,274.9531 Q450.2656,274.7656 450.1563,274.25 Q450.1094,273.8906 449.9219,273.7031 Q449.5938,273.3281 448.9844,273.1094 Q448.375,272.8906 447.75,272.8906 Q446.9844,272.8906 446.3516,273.2188 Q445.7188,273.5469 445.2266,274.2969 Q444.7344,275.0469 444.7344,276.0781 L444.7344,277.1719 Q444.7344,278.4063 445.625,279.2266 Q446.5156,280.0469 448.1094,280.0469 Q449.0469,280.0469 449.7031,279.7969 Q450.0938,279.6406 450.5156,279.2031 Q450.7813,278.9375 450.9297,278.8594 Q451.0781,278.7813 451.2813,278.7813 Q451.6094,278.7813 451.8672,279.0391 Q452.125,279.2969 452.125,279.6406 Q452.125,279.9844 451.7813,280.3906 Q451.2813,280.9688 450.4844,281.2969 Q449.4063,281.75 448.1094,281.75 Q446.5938,281.75 445.3906,281.125 Q444.4063,280.625 443.7188,279.5547 Q443.0313,278.4844 443.0313,277.2031 L443.0313,276.0469 Q443.0313,274.7188 443.6484,273.5703 Q444.2656,272.4219 445.3594,271.8047 Q446.4531,271.1875 447.6875,271.1875 Q448.4219,271.1875 449.0703,271.3516 Q449.7188,271.5156 450.2656,271.875 Z "/>
        <text fill="#000000" font-family="sans-serif" font-size="12" lengthAdjust="spacingAndGlyphs" textLength="73" x="461.5" y="280.9102">ConfigParam</text>
        <line style="stroke: #A80036; stroke-width: 1.5;" x1="433.5" x2="536.5" y1="292" y2="292"/>
        <line style="stroke: #A80036; stroke-width: 1.5;" x1="433.5" x2="536.5" y1="300" y2="300"/>
        <rect fill="#FEFECE" filter="url(#f1)" height="48" style="stroke: #A80036; stroke-width: 1.5;" width="84" x="80" y="260"/>
        <ellipse cx="95" cy="276" fill="#ADD1B2" rx="11" ry="11" style="stroke: #A80036; stroke-width: 1.0;"/>
        <path d="M97.7656,271.875 Q97.9219,271.6563 98.1094,271.5469 Q98.2969,271.4375 98.5156,271.4375 Q98.8906,271.4375 99.125,271.6953 Q99.3594,271.9531 99.3594,272.5625 L99.3594,274.0156 Q99.3594,274.625 99.125,274.8906 Q98.8906,275.1563 98.5156,275.1563 Q98.1719,275.1563 97.9688,274.9531 Q97.7656,274.7656 97.6563,274.25 Q97.6094,273.8906 97.4219,273.7031 Q97.0938,273.3281 96.4844,273.1094 Q95.875,272.8906 95.25,272.8906 Q94.4844,272.8906 93.8516,273.2188 Q93.2188,273.5469 92.7266,274.2969 Q92.2344,275.0469 92.2344,276.0781 L92.2344,277.1719 Q92.2344,278.4063 93.125,279.2266 Q94.0156,280.0469 95.6094,280.0469 Q96.5469,280.0469 97.2031,279.7969 Q97.5938,279.6406 98.0156,279.2031 Q98.2813,278.9375 98.4297,278.8594 Q98.5781,278.7813 98.7813,278.7813 Q99.1094,278.7813 99.3672,279.0391 Q99.625,279.2969 99.625,279.6406 Q99.625,279.9844 99.2813,280.3906 Q98.7813,280.9688 97.9844,281.2969 Q96.9063,281.75 95.6094,281.75 Q94.0938,281.75 92.8906,281.125 Q91.9063,280.625 91.2188,279.5547 Q90.5313,278.4844 90.5313,277.2031 L90.5313,276.0469 Q90.5313,274.7188 91.1484,273.5703 Q91.7656,272.4219 92.8594,271.8047 Q93.9531,271.1875 95.1875,271.1875 Q95.9219,271.1875 96.5703,271.3516 Q97.2188,271.5156 97.7656,271.875 Z "/>
        <text fill="#000000" font-family="sans-serif" font-size="12" lengthAdjust="spacingAndGlyphs" textLength="52" x="109" y="280.9102">RoleType</text>
        <line style="stroke: #A80036; stroke-width: 1.5;" x1="81" x2="163" y1="292" y2="292"/>
        <line style="stroke: #A80036; stroke-width: 1.5;" x1="81" x2="163" y1="300" y2="300"/>
        <rect fill="#FEFECE" filter="url(#f1)" height="48" style="stroke: #A80036; stroke-width: 1.5;" width="83" x="710.5" y="152"/>
        <ellipse cx="725.5" cy="168" fill="#ADD1B2" rx="11" ry="11" style="stroke: #A80036; stroke-width: 1.0;"/>
        <path d="M728.2656,163.875 Q728.4219,163.6563 728.6094,163.5469 Q728.7969,163.4375 729.0156,163.4375 Q729.3906,163.4375 729.625,163.6953 Q729.8594,163.9531 729.8594,164.5625 L729.8594,166.0156 Q729.8594,166.625 729.625,166.8906 Q729.3906,167.1563 729.0156,167.1563 Q728.6719,167.1563 728.4688,166.9531 Q728.2656,166.7656 728.1563,166.25 Q728.1094,165.8906 727.9219,165.7031 Q727.5938,165.3281 726.9844,165.1094 Q726.375,164.8906 725.75,164.8906 Q724.9844,164.8906 724.3516,165.2188 Q723.7188,165.5469 723.2266,166.2969 Q722.7344,167.0469 722.7344,168.0781 L722.7344,169.1719 Q722.7344,170.4063 723.625,171.2266 Q724.5156,172.0469 726.1094,172.0469 Q727.0469,172.0469 727.7031,171.7969 Q728.0938,171.6406 728.5156,171.2031 Q728.7813,170.9375 728.9297,170.8594 Q729.0781,170.7813 729.2813,170.7813 Q729.6094,170.7813 729.8672,171.0391 Q730.125,171.2969 730.125,171.6406 Q730.125,171.9844 729.7813,172.3906 Q729.2813,172.9688 728.4844,173.2969 Q727.4063,173.75 726.1094,173.75 Q724.5938,173.75 723.3906,173.125 Q722.4063,172.625 721.7188,171.5547 Q721.0313,170.4844 721.0313,169.2031 L721.0313,168.0469 Q721.0313,166.7188 721.6484,165.5703 Q722.2656,164.4219 723.3594,163.8047 Q724.4531,163.1875 725.6875,163.1875 Q726.4219,163.1875 727.0703,163.3516 Q727.7188,163.5156 728.2656,163.875 Z "/>
        <text fill="#000000" font-family="sans-serif" font-size="12" lengthAdjust="spacingAndGlyphs" textLength="51" x="739.5" y="172.9102">Counters</text>
        <line style="stroke: #A80036; stroke-width: 1.5;" x1="711.5" x2="792.5" y1="184" y2="184"/>
        <line style="stroke: #A80036; stroke-width: 1.5;" x1="711.5" x2="792.5" y1="192" y2="192"/>
        <rect fill="#FEFECE" filter="url(#f1)" height="48" style="stroke: #A80036; stroke-width: 1.5;" width="93" x="507.5" y="152"/>
        <ellipse cx="522.5" cy="168" fill="#ADD1B2" rx="11" ry="11" style="stroke: #A80036; stroke-width: 1.0;"/>
        <path d="M525.2656,163.875 Q525.4219,163.6563 525.6094,163.5469 Q525.7969,163.4375 526.0156,163.4375 Q526.3906,163.4375 526.625,163.6953 Q526.8594,163.9531 526.8594,164.5625 L526.8594,166.0156 Q526.8594,166.625 526.625,166.8906 Q526.3906,167.1563 526.0156,167.1563 Q525.6719,167.1563 525.4688,166.9531 Q525.2656,166.7656 525.1563,166.25 Q525.1094,165.8906 524.9219,165.7031 Q524.5938,165.3281 523.9844,165.1094 Q523.375,164.8906 522.75,164.8906 Q521.9844,164.8906 521.3516,165.2188 Q520.7188,165.5469 520.2266,166.2969 Q519.7344,167.0469 519.7344,168.0781 L519.7344,169.1719 Q519.7344,170.4063 520.625,171.2266 Q521.5156,172.0469 523.1094,172.0469 Q524.0469,172.0469 524.7031,171.7969 Q525.0938,171.6406 525.5156,171.2031 Q525.7813,170.9375 525.9297,170.8594 Q526.0781,170.7813 526.2813,170.7813 Q526.6094,170.7813 526.8672,171.0391 Q527.125,171.2969 527.125,171.6406 Q527.125,171.9844 526.7813,172.3906 Q526.2813,172.9688 525.4844,173.2969 Q524.4063,173.75 523.1094,173.75 Q521.5938,173.75 520.3906,173.125 Q519.4063,172.625 518.7188,171.5547 Q518.0313,170.4844 518.0313,169.2031 L518.0313,168.0469 Q518.0313,166.7188 518.6484,165.5703 Q519.2656,164.4219 520.3594,163.8047 Q521.4531,163.1875 522.6875,163.1875 Q523.4219,163.1875 524.0703,163.3516 Q524.7188,163.5156 525.2656,163.875 Z "/>
        <text fill="#000000" font-family="sans-serif" font-size="12" lengthAdjust="spacingAndGlyphs" textLength="61" x="536.5" y="172.9102">ChatServer</text>
        <line style="stroke: #A80036; stroke-width: 1.5;" x1="508.5" x2="599.5" y1="184" y2="184"/>
        <line style="stroke: #A80036; stroke-width: 1.5;" x1="508.5" x2="599.5" y1="192" y2="192"/>
        <rect fill="#FEFECE" filter="url(#f1)" height="48" style="stroke: #A80036; stroke-width: 1.5;" width="103" x="424.5" y="44"/>
        <ellipse cx="439.5" cy="60" fill="#ADD1B2" rx="11" ry="11" style="stroke: #A80036; stroke-width: 1.0;"/>
        <path d="M442.2656,55.875 Q442.4219,55.6563 442.6094,55.5469 Q442.7969,55.4375 443.0156,55.4375 Q443.3906,55.4375 443.625,55.6953 Q443.8594,55.9531 443.8594,56.5625 L443.8594,58.0156 Q443.8594,58.625 443.625,58.8906 Q443.3906,59.1563 443.0156,59.1563 Q442.6719,59.1563 442.4688,58.9531 Q442.2656,58.7656 442.1563,58.25 Q442.1094,57.8906 441.9219,57.7031 Q441.5938,57.3281 440.9844,57.1094 Q440.375,56.8906 439.75,56.8906 Q438.9844,56.8906 438.3516,57.2188 Q437.7188,57.5469 437.2266,58.2969 Q436.7344,59.0469 436.7344,60.0781 L436.7344,61.1719 Q436.7344,62.4063 437.625,63.2266 Q438.5156,64.0469 440.1094,64.0469 Q441.0469,64.0469 441.7031,63.7969 Q442.0938,63.6406 442.5156,63.2031 Q442.7813,62.9375 442.9297,62.8594 Q443.0781,62.7813 443.2813,62.7813 Q443.6094,62.7813 443.8672,63.0391 Q444.125,63.2969 444.125,63.6406 Q444.125,63.9844 443.7813,64.3906 Q443.2813,64.9688 442.4844,65.2969 Q441.4063,65.75 440.1094,65.75 Q438.5938,65.75 437.3906,65.125 Q436.4063,64.625 435.7188,63.5547 Q435.0313,62.4844 435.0313,61.2031 L435.0313,60.0469 Q435.0313,58.7188 435.6484,57.5703 Q436.2656,56.4219 437.3594,55.8047 Q438.4531,55.1875 439.6875,55.1875 Q440.4219,55.1875 441.0703,55.3516 Q441.7188,55.5156 442.2656,55.875 Z "/>
        <text fill="#000000" font-family="sans-serif" font-size="12" lengthAdjust="spacingAndGlyphs" textLength="71" x="453.5" y="64.9102">ClientThread</text>
        <line style="stroke: #A80036; stroke-width: 1.5;" x1="425.5" x2="526.5" y1="76" y2="76"/>
        <line style="stroke: #A80036; stroke-width: 1.5;" x1="425.5" x2="526.5" y1="84" y2="84"/>
        <rect fill="#FEFECE" filter="url(#f1)" height="48" style="stroke: #A80036; stroke-width: 1.5;" width="123" x="562.5" y="44"/>
        <ellipse cx="577.5" cy="60" fill="#ADD1B2" rx="11" ry="11" style="stroke: #A80036; stroke-width: 1.0;"/>
        <path d="M580.2656,55.875 Q580.4219,55.6563 580.6094,55.5469 Q580.7969,55.4375 581.0156,55.4375 Q581.3906,55.4375 581.625,55.6953 Q581.8594,55.9531 581.8594,56.5625 L581.8594,58.0156 Q581.8594,58.625 581.625,58.8906 Q581.3906,59.1563 581.0156,59.1563 Q580.6719,59.1563 580.4688,58.9531 Q580.2656,58.7656 580.1563,58.25 Q580.1094,57.8906 579.9219,57.7031 Q579.5938,57.3281 578.9844,57.1094 Q578.375,56.8906 577.75,56.8906 Q576.9844,56.8906 576.3516,57.2188 Q575.7188,57.5469 575.2266,58.2969 Q574.7344,59.0469 574.7344,60.0781 L574.7344,61.1719 Q574.7344,62.4063 575.625,63.2266 Q576.5156,64.0469 578.1094,64.0469 Q579.0469,64.0469 579.7031,63.7969 Q580.0938,63.6406 580.5156,63.2031 Q580.7813,62.9375 580.9297,62.8594 Q581.0781,62.7813 581.2813,62.7813 Q581.6094,62.7813 581.8672,63.0391 Q582.125,63.2969 582.125,63.6406 Q582.125,63.9844 581.7813,64.3906 Q581.2813,64.9688 580.4844,65.2969 Q579.4063,65.75 578.1094,65.75 Q576.5938,65.75 575.3906,65.125 Q574.4063,64.625 573.7188,63.5547 Q573.0313,62.4844 573.0313,61.2031 L573.0313,60.0469 Q573.0313,58.7188 573.6484,57.5703 Q574.2656,56.4219 575.3594,55.8047 Q576.4531,55.1875 577.6875,55.1875 Q578.4219,55.1875 579.0703,55.3516 Q579.7188,55.5156 580.2656,55.875 Z "/>
        <text fill="#000000" font-family="sans-serif" font-size="12" lengthAdjust="spacingAndGlyphs" textLength="91" x="591.5" y="64.9102">RejectionThread</text>
        <line style="stroke: #A80036; stroke-width: 1.5;" x1="563.5" x2="684.5" y1="76" y2="76"/>
        <line style="stroke: #A80036; stroke-width: 1.5;" x1="563.5" x2="684.5" y1="84" y2="84"/>
        <rect fill="#FEFECE" filter="url(#f1)" height="48" style="stroke: #A80036; stroke-width: 1.5;" width="123" x="266.5" y="44"/>
        <ellipse cx="281.5" cy="60" fill="#EB937F" rx="11" ry="11" style="stroke: #A80036; stroke-width: 1.0;"/>
        <path d="M280.3594,60.7969 L280.3594,63.2969 L284.6875,63.2969 L284.6875,62.375 Q284.6875,61.7656 284.9297,61.5 Q285.1719,61.2344 285.5469,61.2344 Q285.9219,61.2344 286.1563,61.5 Q286.3906,61.7656 286.3906,62.375 L286.3906,65 L278.3906,65 Q277.7656,65 277.5078,64.7656 Q277.25,64.5313 277.25,64.1406 Q277.25,63.7656 277.5156,63.5313 Q277.7813,63.2969 278.3906,63.2969 L278.6563,63.2969 L278.6563,56.6406 L278.3906,56.6406 Q277.7656,56.6406 277.5078,56.4063 Q277.25,56.1719 277.25,55.7813 Q277.25,55.4063 277.5078,55.1719 Q277.7656,54.9375 278.3906,54.9375 L286.0156,54.9375 L286.0156,57.5313 Q286.0156,58.1406 285.7891,58.3984 Q285.5625,58.6563 285.1719,58.6563 Q284.7969,58.6563 284.5625,58.3984 Q284.3281,58.1406 284.3281,57.5313 L284.3281,56.6406 L280.3594,56.6406 L280.3594,59.0938 L281.8438,59.0938 Q281.8438,58.4375 281.9688,58.25 Q282.2344,57.8438 282.7031,57.8438 Q283.0781,57.8438 283.3125,58.1016 Q283.5469,58.3594 283.5469,58.9688 L283.5469,60.9375 Q283.5469,61.4844 283.4219,61.6719 Q283.1563,62.0625 282.7031,62.0625 Q282.2344,62.0625 281.9688,61.6563 Q281.8438,61.4688 281.8438,60.7969 L280.3594,60.7969 Z "/>
        <text fill="#000000" font-family="sans-serif" font-size="12" lengthAdjust="spacingAndGlyphs" textLength="91" x="295.5" y="64.9102">ConnectionState</text>
        <line style="stroke: #A80036; stroke-width: 1.5;" x1="267.5" x2="388.5" y1="76" y2="76"/>
        <line style="stroke: #A80036; stroke-width: 1.5;" x1="267.5" x2="388.5" y1="84" y2="84"/>
        <rect fill="#FEFECE" filter="url(#f1)" height="48" style="stroke: #A80036; stroke-width: 1.5;" width="166" x="730" y="260"/>
        <ellipse cx="745" cy="276" fill="#ADD1B2" rx="11" ry="11" style="stroke: #A80036; stroke-width: 1.0;"/>
        <path d="M747.7656,271.875 Q747.9219,271.6563 748.1094,271.5469 Q748.2969,271.4375 748.5156,271.4375 Q748.8906,271.4375 749.125,271.6953 Q749.3594,271.9531 749.3594,272.5625 L749.3594,274.0156 Q749.3594,274.625 749.125,274.8906 Q748.8906,275.1563 748.5156,275.1563 Q748.1719,275.1563 747.9688,274.9531 Q747.7656,274.7656 747.6563,274.25 Q747.6094,273.8906 747.4219,273.7031 Q747.0938,273.3281 746.4844,273.1094 Q745.875,272.8906 745.25,272.8906 Q744.4844,272.8906 743.8516,273.2188 Q743.2188,273.5469 742.7266,274.2969 Q742.2344,275.0469 742.2344,276.0781 L742.2344,277.1719 Q742.2344,278.4063 743.125,279.2266 Q744.0156,280.0469 745.6094,280.0469 Q746.5469,280.0469 747.2031,279.7969 Q747.5938,279.6406 748.0156,279.2031 Q748.2813,278.9375 748.4297,278.8594 Q748.5781,278.7813 748.7813,278.7813 Q749.1094,278.7813 749.3672,279.0391 Q749.625,279.2969 749.625,279.6406 Q749.625,279.9844 749.2813,280.3906 Q748.7813,280.9688 747.9844,281.2969 Q746.9063,281.75 745.6094,281.75 Q744.0938,281.75 742.8906,281.125 Q741.9063,280.625 741.2188,279.5547 Q740.5313,278.4844 740.5313,277.2031 L740.5313,276.0469 Q740.5313,274.7188 741.1484,273.5703 Q741.7656,272.4219 742.8594,271.8047 Q743.9531,271.1875 745.1875,271.1875 Q745.9219,271.1875 746.5703,271.3516 Q747.2188,271.5156 747.7656,271.875 Z "/>
        <text fill="#000000" font-family="sans-serif" font-size="12" lengthAdjust="spacingAndGlyphs" textLength="134" x="759" y="280.9102">AbstractNetworkProtocol</text>
        <line style="stroke: #A80036; stroke-width: 1.5;" x1="731" x2="895" y1="292" y2="292"/>
        <line style="stroke: #A80036; stroke-width: 1.5;" x1="731" x2="895" y1="300" y2="300"/>
        <rect fill="#FEFECE" filter="url(#f1)" height="48" style="stroke: #A80036; stroke-width: 1.5;" width="107" x="931.5" y="260"/>
        <ellipse cx="946.5" cy="276" fill="#ADD1B2" rx="11" ry="11" style="stroke: #A80036; stroke-width: 1.0;"/>
        <path d="M949.2656,271.875 Q949.4219,271.6563 949.6094,271.5469 Q949.7969,271.4375 950.0156,271.4375 Q950.3906,271.4375 950.625,271.6953 Q950.8594,271.9531 950.8594,272.5625 L950.8594,274.0156 Q950.8594,274.625 950.625,274.8906 Q950.3906,275.1563 950.0156,275.1563 Q949.6719,275.1563 949.4688,274.9531 Q949.2656,274.7656 949.1563,274.25 Q949.1094,273.8906 948.9219,273.7031 Q948.5938,273.3281 947.9844,273.1094 Q947.375,272.8906 946.75,272.8906 Q945.9844,272.8906 945.3516,273.2188 Q944.7188,273.5469 944.2266,274.2969 Q943.7344,275.0469 943.7344,276.0781 L943.7344,277.1719 Q943.7344,278.4063 944.625,279.2266 Q945.5156,280.0469 947.1094,280.0469 Q948.0469,280.0469 948.7031,279.7969 Q949.0938,279.6406 949.5156,279.2031 Q949.7813,278.9375 949.9297,278.8594 Q950.0781,278.7813 950.2813,278.7813 Q950.6094,278.7813 950.8672,279.0391 Q951.125,279.2969 951.125,279.6406 Q951.125,279.9844 950.7813,280.3906 Q950.2813,280.9688 949.4844,281.2969 Q948.4063,281.75 947.1094,281.75 Q945.5938,281.75 944.3906,281.125 Q943.4063,280.625 942.7188,279.5547 Q942.0313,278.4844 942.0313,277.2031 L942.0313,276.0469 Q942.0313,274.7188 942.6484,273.5703 Q943.2656,272.4219 944.3594,271.8047 Q945.4531,271.1875 946.6875,271.1875 Q947.4219,271.1875 948.0703,271.3516 Q948.7188,271.5156 949.2656,271.875 Z "/>
        <text fill="#000000" font-family="sans-serif" font-size="12" lengthAdjust="spacingAndGlyphs" textLength="75" x="960.5" y="280.9102">ExtendedTCP</text>
        <line style="stroke: #A80036; stroke-width: 1.5;" x1="932.5" x2="1037.5" y1="292" y2="292"/>
        <line style="stroke: #A80036; stroke-width: 1.5;" x1="932.5" x2="1037.5" y1="300" y2="300"/>
        <rect fill="#FEFECE" filter="url(#f1)" height="48" style="stroke: #A80036; stroke-width: 1.5;" width="148" x="249" y="260"/>
        <ellipse cx="264" cy="276" fill="#ADD1B2" rx="11" ry="11" style="stroke: #A80036; stroke-width: 1.0;"/>
        <path d="M266.7656,271.875 Q266.9219,271.6563 267.1094,271.5469 Q267.2969,271.4375 267.5156,271.4375 Q267.8906,271.4375 268.125,271.6953 Q268.3594,271.9531 268.3594,272.5625 L268.3594,274.0156 Q268.3594,274.625 268.125,274.8906 Q267.8906,275.1563 267.5156,275.1563 Q267.1719,275.1563 266.9688,274.9531 Q266.7656,274.7656 266.6563,274.25 Q266.6094,273.8906 266.4219,273.7031 Q266.0938,273.3281 265.4844,273.1094 Q264.875,272.8906 264.25,272.8906 Q263.4844,272.8906 262.8516,273.2188 Q262.2188,273.5469 261.7266,274.2969 Q261.2344,275.0469 261.2344,276.0781 L261.2344,277.1719 Q261.2344,278.4063 262.125,279.2266 Q263.0156,280.0469 264.6094,280.0469 Q265.5469,280.0469 266.2031,279.7969 Q266.5938,279.6406 267.0156,279.2031 Q267.2813,278.9375 267.4297,278.8594 Q267.5781,278.7813 267.7813,278.7813 Q268.1094,278.7813 268.3672,279.0391 Q268.625,279.2969 268.625,279.6406 Q268.625,279.9844 268.2813,280.3906 Q267.7813,280.9688 266.9844,281.2969 Q265.9063,281.75 264.6094,281.75 Q263.0938,281.75 261.8906,281.125 Q260.9063,280.625 260.2188,279.5547 Q259.5313,278.4844 259.5313,277.2031 L259.5313,276.0469 Q259.5313,274.7188 260.1484,273.5703 Q260.7656,272.4219 261.8594,271.8047 Q262.9531,271.1875 264.1875,271.1875 Q264.9219,271.1875 265.5703,271.3516 Q266.2188,271.5156 266.7656,271.875 Z "/>
        <text fill="#000000" font-family="sans-serif" font-size="12" lengthAdjust="spacingAndGlyphs" textLength="116" x="278" y="280.9102">NetworkProtocolType</text>
        <line style="stroke: #A80036; stroke-width: 1.5;" x1="250" x2="396" y1="292" y2="292"/>
        <line style="stroke: #A80036; stroke-width: 1.5;" x1="250" x2="396" y1="300" y2="300"/>
        <rect fill="#FEFECE" filter="url(#f1)" height="48" style="stroke: #A80036; stroke-width: 1.5;" width="115" x="1435.5" y="260"/>
        <ellipse cx="1450.5" cy="276" fill="#ADD1B2" rx="11" ry="11" style="stroke: #A80036; stroke-width: 1.0;"/>
        <path d="M1453.2656,271.875 Q1453.4219,271.6563 1453.6094,271.5469 Q1453.7969,271.4375 1454.0156,271.4375 Q1454.3906,271.4375 1454.625,271.6953 Q1454.8594,271.9531 1454.8594,272.5625 L1454.8594,274.0156 Q1454.8594,274.625 1454.625,274.8906 Q1454.3906,275.1563 1454.0156,275.1563 Q1453.6719,275.1563 1453.4688,274.9531 Q1453.2656,274.7656 1453.1563,274.25 Q1453.1094,273.8906 1452.9219,273.7031 Q1452.5938,273.3281 1451.9844,273.1094 Q1451.375,272.8906 1450.75,272.8906 Q1449.9844,272.8906 1449.3516,273.2188 Q1448.7188,273.5469 1448.2266,274.2969 Q1447.7344,275.0469 1447.7344,276.0781 L1447.7344,277.1719 Q1447.7344,278.4063 1448.625,279.2266 Q1449.5156,280.0469 1451.1094,280.0469 Q1452.0469,280.0469 1452.7031,279.7969 Q1453.0938,279.6406 1453.5156,279.2031 Q1453.7813,278.9375 1453.9297,278.8594 Q1454.0781,278.7813 1454.2813,278.7813 Q1454.6094,278.7813 1454.8672,279.0391 Q1455.125,279.2969 1455.125,279.6406 Q1455.125,279.9844 1454.7813,280.3906 Q1454.2813,280.9688 1453.4844,281.2969 Q1452.4063,281.75 1451.1094,281.75 Q1449.5938,281.75 1448.3906,281.125 Q1447.4063,280.625 1446.7188,279.5547 Q1446.0313,278.4844 1446.0313,277.2031 L1446.0313,276.0469 Q1446.0313,274.7188 1446.6484,273.5703 Q1447.2656,272.4219 1448.3594,271.8047 Q1449.4531,271.1875 1450.6875,271.1875 Q1451.4219,271.1875 1452.0703,271.3516 Q1452.7188,271.5156 1453.2656,271.875 Z "/>
        <text fill="#000000" font-family="sans-serif" font-size="12" lengthAdjust="spacingAndGlyphs" textLength="83" x="1464.5" y="280.9102">ConnectPacket</text>
        <line style="stroke: #A80036; stroke-width: 1.5;" x1="1436.5" x2="1549.5" y1="292" y2="292"/>
        <line style="stroke: #A80036; stroke-width: 1.5;" x1="1436.5" x2="1549.5" y1="300" y2="300"/>
        <rect fill="#FEFECE" filter="url(#f1)" height="48" style="stroke: #A80036; stroke-width: 1.5;" width="92" x="1074" y="260"/>
        <ellipse cx="1089" cy="276" fill="#ADD1B2" rx="11" ry="11" style="stroke: #A80036; stroke-width: 1.0;"/>
        <path d="M1091.7656,271.875 Q1091.9219,271.6563 1092.1094,271.5469 Q1092.2969,271.4375 1092.5156,271.4375 Q1092.8906,271.4375 1093.125,271.6953 Q1093.3594,271.9531 1093.3594,272.5625 L1093.3594,274.0156 Q1093.3594,274.625 1093.125,274.8906 Q1092.8906,275.1563 1092.5156,275.1563 Q1092.1719,275.1563 1091.9688,274.9531 Q1091.7656,274.7656 1091.6563,274.25 Q1091.6094,273.8906 1091.4219,273.7031 Q1091.0938,273.3281 1090.4844,273.1094 Q1089.875,272.8906 1089.25,272.8906 Q1088.4844,272.8906 1087.8516,273.2188 Q1087.2188,273.5469 1086.7266,274.2969 Q1086.2344,275.0469 1086.2344,276.0781 L1086.2344,277.1719 Q1086.2344,278.4063 1087.125,279.2266 Q1088.0156,280.0469 1089.6094,280.0469 Q1090.5469,280.0469 1091.2031,279.7969 Q1091.5938,279.6406 1092.0156,279.2031 Q1092.2813,278.9375 1092.4297,278.8594 Q1092.5781,278.7813 1092.7813,278.7813 Q1093.1094,278.7813 1093.3672,279.0391 Q1093.625,279.2969 1093.625,279.6406 Q1093.625,279.9844 1093.2813,280.3906 Q1092.7813,280.9688 1091.9844,281.2969 Q1090.9063,281.75 1089.6094,281.75 Q1088.0938,281.75 1086.8906,281.125 Q1085.9063,280.625 1085.2188,279.5547 Q1084.5313,278.4844 1084.5313,277.2031 L1084.5313,276.0469 Q1084.5313,274.7188 1085.1484,273.5703 Q1085.7656,272.4219 1086.8594,271.8047 Q1087.9531,271.1875 1089.1875,271.1875 Q1089.9219,271.1875 1090.5703,271.3516 Q1091.2188,271.5156 1091.7656,271.875 Z "/>
        <text fill="#000000" font-family="sans-serif" font-size="12" lengthAdjust="spacingAndGlyphs" textLength="60" x="1103" y="280.9102">KickPacket</text>
        <line style="stroke: #A80036; stroke-width: 1.5;" x1="1075" x2="1165" y1="292" y2="292"/>
        <line style="stroke: #A80036; stroke-width: 1.5;" x1="1075" x2="1165" y1="300" y2="300"/>
        <rect fill="#FEFECE" filter="url(#f1)" height="48" style="stroke: #A80036; stroke-width: 1.5;" width="69" x="1201.5" y="260"/>
        <ellipse cx="1216.5" cy="276" fill="#ADD1B2" rx="11" ry="11" style="stroke: #A80036; stroke-width: 1.0;"/>
        <path d="M1219.2656,271.875 Q1219.4219,271.6563 1219.6094,271.5469 Q1219.7969,271.4375 1220.0156,271.4375 Q1220.3906,271.4375 1220.625,271.6953 Q1220.8594,271.9531 1220.8594,272.5625 L1220.8594,274.0156 Q1220.8594,274.625 1220.625,274.8906 Q1220.3906,275.1563 1220.0156,275.1563 Q1219.6719,275.1563 1219.4688,274.9531 Q1219.2656,274.7656 1219.1563,274.25 Q1219.1094,273.8906 1218.9219,273.7031 Q1218.5938,273.3281 1217.9844,273.1094 Q1217.375,272.8906 1216.75,272.8906 Q1215.9844,272.8906 1215.3516,273.2188 Q1214.7188,273.5469 1214.2266,274.2969 Q1213.7344,275.0469 1213.7344,276.0781 L1213.7344,277.1719 Q1213.7344,278.4063 1214.625,279.2266 Q1215.5156,280.0469 1217.1094,280.0469 Q1218.0469,280.0469 1218.7031,279.7969 Q1219.0938,279.6406 1219.5156,279.2031 Q1219.7813,278.9375 1219.9297,278.8594 Q1220.0781,278.7813 1220.2813,278.7813 Q1220.6094,278.7813 1220.8672,279.0391 Q1221.125,279.2969 1221.125,279.6406 Q1221.125,279.9844 1220.7813,280.3906 Q1220.2813,280.9688 1219.4844,281.2969 Q1218.4063,281.75 1217.1094,281.75 Q1215.5938,281.75 1214.3906,281.125 Q1213.4063,280.625 1212.7188,279.5547 Q1212.0313,278.4844 1212.0313,277.2031 L1212.0313,276.0469 Q1212.0313,274.7188 1212.6484,273.5703 Q1213.2656,272.4219 1214.3594,271.8047 Q1215.4531,271.1875 1216.6875,271.1875 Q1217.4219,271.1875 1218.0703,271.3516 Q1218.7188,271.5156 1219.2656,271.875 Z "/>
        <text fill="#000000" font-family="sans-serif" font-size="12" lengthAdjust="spacingAndGlyphs" textLength="37" x="1230.5" y="280.9102">Packet</text>
        <line style="stroke: #A80036; stroke-width: 1.5;" x1="1202.5" x2="1269.5" y1="292" y2="292"/>
        <line style="stroke: #A80036; stroke-width: 1.5;" x1="1202.5" x2="1269.5" y1="300" y2="300"/>
        <rect fill="#FEFECE" filter="url(#f1)" height="48" style="stroke: #A80036; stroke-width: 1.5;" width="95" x="1305.5" y="260"/>
        <ellipse cx="1320.5" cy="276" fill="#ADD1B2" rx="11" ry="11" style="stroke: #A80036; stroke-width: 1.0;"/>
        <path d="M1323.2656,271.875 Q1323.4219,271.6563 1323.6094,271.5469 Q1323.7969,271.4375 1324.0156,271.4375 Q1324.3906,271.4375 1324.625,271.6953 Q1324.8594,271.9531 1324.8594,272.5625 L1324.8594,274.0156 Q1324.8594,274.625 1324.625,274.8906 Q1324.3906,275.1563 1324.0156,275.1563 Q1323.6719,275.1563 1323.4688,274.9531 Q1323.2656,274.7656 1323.1563,274.25 Q1323.1094,273.8906 1322.9219,273.7031 Q1322.5938,273.3281 1321.9844,273.1094 Q1321.375,272.8906 1320.75,272.8906 Q1319.9844,272.8906 1319.3516,273.2188 Q1318.7188,273.5469 1318.2266,274.2969 Q1317.7344,275.0469 1317.7344,276.0781 L1317.7344,277.1719 Q1317.7344,278.4063 1318.625,279.2266 Q1319.5156,280.0469 1321.1094,280.0469 Q1322.0469,280.0469 1322.7031,279.7969 Q1323.0938,279.6406 1323.5156,279.2031 Q1323.7813,278.9375 1323.9297,278.8594 Q1324.0781,278.7813 1324.2813,278.7813 Q1324.6094,278.7813 1324.8672,279.0391 Q1325.125,279.2969 1325.125,279.6406 Q1325.125,279.9844 1324.7813,280.3906 Q1324.2813,280.9688 1323.4844,281.2969 Q1322.4063,281.75 1321.1094,281.75 Q1319.5938,281.75 1318.3906,281.125 Q1317.4063,280.625 1316.7188,279.5547 Q1316.0313,278.4844 1316.0313,277.2031 L1316.0313,276.0469 Q1316.0313,274.7188 1316.6484,273.5703 Q1317.2656,272.4219 1318.3594,271.8047 Q1319.4531,271.1875 1320.6875,271.1875 Q1321.4219,271.1875 1322.0703,271.3516 Q1322.7188,271.5156 1323.2656,271.875 Z "/>
        <text fill="#000000" font-family="sans-serif" font-size="12" lengthAdjust="spacingAndGlyphs" textLength="63" x="1334.5" y="280.9102">PacketType</text>
        <line style="stroke: #A80036; stroke-width: 1.5;" x1="1306.5" x2="1399.5" y1="292" y2="292"/>
        <line style="stroke: #A80036; stroke-width: 1.5;" x1="1306.5" x2="1399.5" y1="300" y2="300"/>
        <path d="M571.359,200 C583.644,216.279 600.179,238.1871 613.176,255.4076 " fill="none" style="stroke: #A80036; stroke-width: 1.0; stroke-dasharray: 7.0,7.0;"/>
        <polygon fill="#A80036" points="616.399,259.6784,614.1705,250.085,613.3871,255.6873,607.7848,254.904,616.399,259.6784" style="stroke: #A80036; stroke-width: 1.0;"/>
        <path d="M539.028,200 C528.432,216.279 514.171,238.1871 502.961,255.4076 " fill="none" style="stroke: #A80036; stroke-width: 1.0; stroke-dasharray: 7.0,7.0;"/>
        <polygon fill="#A80036" points="500.181,259.6784,508.4435,254.3182,502.9089,255.4881,501.739,249.9536,500.181,259.6784" style="stroke: #A80036; stroke-width: 1.0;"/>
        <path d="M507.443,190.657 C484.847,196.815 457.198,203.663 432,208 C374.817,217.842 224.406,207.093 172,232 C160.437,237.4956 150.068,246.8543 141.81,256.0659 " fill="none" style="stroke: #A80036; stroke-width: 1.0; stroke-dasharray: 7.0,7.0;"/>
        <polygon fill="#A80036" points="138.403,259.9931,147.3221,255.8157,141.6794,256.2162,141.279,250.5735,138.403,259.9931" style="stroke: #A80036; stroke-width: 1.0;"/>
        <path d="M600.613,191.609 C632.16,201.913 674.561,216.581 711,232 C729,239.6166 748.285,248.9428 765.188,257.5275 " fill="none" style="stroke: #A80036; stroke-width: 1.0; stroke-dasharray: 7.0,7.0;"/>
        <polygon fill="#A80036" points="769.889,259.9271,763.691,252.273,765.4355,257.6542,760.0543,259.3987,769.889,259.9271" style="stroke: #A80036; stroke-width: 1.0;"/>
        <path d="M507.397,193.944 C480.362,204.176 445.862,217.926 416,232 C399.848,239.6125 382.589,248.7754 367.379,257.2219 " fill="none" style="stroke: #A80036; stroke-width: 1.0; stroke-dasharray: 7.0,7.0;"/>
        <polygon fill="#A80036" points="362.728,259.8177,372.5362,258.9238,367.0939,257.3807,368.637,251.9384,362.728,259.8177" style="stroke: #A80036; stroke-width: 1.0;"/>
        <path d="M600.661,189.192 C627.73,195.796 662.58,203.503 694,208 C773.588,219.39 979.921,203.239 1055,232 C1069.08,237.3925 1082.55,246.9525 1093.54,256.3495 " fill="none" style="stroke: #A80036; stroke-width: 1.0; stroke-dasharray: 7.0,7.0;"/>
        <polygon fill="#A80036" points="1097.48,259.7962,1093.3531,250.8537,1093.7216,256.4985,1088.0768,256.8671,1097.48,259.7962" style="stroke: #A80036; stroke-width: 1.0;"/>
        <path d="M424.251,90.893 C361.4,118.762 253.67,170.718 172,232 C162.71,238.9711 153.524,247.6689 145.61,255.8965 " fill="none" style="stroke: #A80036; stroke-width: 1.0; stroke-dasharray: 7.0,7.0;"/>
        <polygon fill="#A80036" points="141.832,259.888,150.9237,256.101,145.269,256.2566,145.1134,250.6019,141.832,259.888" style="stroke: #A80036; stroke-width: 1.0;"/>
        <path d="M527.79,87.009 C533.566,88.795 539.389,90.499 545,92 C613.793,110.404 639.443,89.973 702,124 C712.96,129.962 723.03,139.117 731.215,148.033 " fill="none" style="stroke: #A80036; stroke-width: 1.0; stroke-dasharray: 7.0,7.0;"/>
        <polygon fill="#A80036" points="734.604,151.83,731.5941,142.4523,731.2741,148.1001,725.6263,147.7801,734.604,151.83" style="stroke: #A80036; stroke-width: 1.0;"/>
        <path d="M492.925,92 C504.903,108.279 521.024,130.187 533.696,147.408 " fill="none" style="stroke: #A80036; stroke-width: 1.0; stroke-dasharray: 7.0,7.0;"/>
        <polygon fill="#A80036" points="536.839,151.678,534.7274,142.0582,533.8759,147.6506,528.2835,146.7991,536.839,151.678" style="stroke: #A80036; stroke-width: 1.0;"/>
        <path d="M527.644,87.62 C533.448,89.291 539.316,90.802 545,92 C619.257,107.656 833.914,67.88 885,124 C910.131,151.608 898.934,173.365 885,208 C877.426,226.8268 862.617,243.5827 848.39,256.4555 " fill="none" style="stroke: #A80036; stroke-width: 1.0; stroke-dasharray: 7.0,7.0;"/>
        <polygon fill="#A80036" points="844.399,259.9819,853.7923,257.0213,848.1463,256.6716,848.4959,251.0256,844.399,259.9819" style="stroke: #A80036; stroke-width: 1.0;"/>
        <path d="M527.633,87.669 C533.439,89.331 539.311,90.826 545,92 C626.693,108.862 851.665,74.766 919,124 C961.197,154.854 976.542,217.764 982.03,254.5271 " fill="none" style="stroke: #A80036; stroke-width: 1.0; stroke-dasharray: 7.0,7.0;"/>
        <polygon fill="#A80036" points="982.77,259.7546,985.4689,250.2828,982.0691,254.804,977.5479,251.4042,982.77,259.7546" style="stroke: #A80036; stroke-width: 1.0;"/>
        <path d="M566.423,92.092 C542.676,101.756 514.931,113.228 490,124 C407.106,159.817 391.204,181.109 305,208 C247.659,225.8869 225.085,203.895 172,232 C160.877,237.8888 150.714,247.1251 142.499,256.1288 " fill="none" style="stroke: #A80036; stroke-width: 1.0; stroke-dasharray: 7.0,7.0;"/>
        <polygon fill="#A80036" points="139.1,259.9629,148.0635,255.8818,142.4169,256.2215,142.0772,250.5748,139.1,259.9629" style="stroke: #A80036; stroke-width: 1.0;"/>
        <path d="M659.565,92.068 C673.243,101.451 688.746,112.729 702,124 C710.605,131.317 719.416,139.885 727.199,147.886 " fill="none" style="stroke: #A80036; stroke-width: 1.0; stroke-dasharray: 7.0,7.0;"/>
        <polygon fill="#A80036" points="730.931,151.76,727.567,142.5035,727.4618,148.1594,721.8059,148.0542,730.931,151.76" style="stroke: #A80036; stroke-width: 1.0;"/>
        <path d="M608.811,92 C598.061,108.279 583.593,130.187 572.221,147.408 " fill="none" style="stroke: #A80036; stroke-width: 1.0; stroke-dasharray: 7.0,7.0;"/>
        <polygon fill="#A80036" points="569.401,151.678,577.6972,146.3702,572.1554,147.505,571.0205,141.9632,569.401,151.678" style="stroke: #A80036; stroke-width: 1.0;"/>
        <path d="M685.77,68.584 C782.678,69.397 963.589,77.318 1004,124 C1035.52,160.409 1015.68,220.345 999.561,255.2986 " fill="none" style="stroke: #A80036; stroke-width: 1.0; stroke-dasharray: 7.0,7.0;"/>
        <polygon fill="#A80036" points="997.417,259.8511,1004.8702,253.4129,999.5472,255.3276,997.6326,250.0046,997.417,259.8511" style="stroke: #A80036; stroke-width: 1.0;"/>
        <path d="M685.533,70.634 C822.283,74.87 1147.52,88.467 1251,124 C1336.15,153.24 1420.6,219.387 1463.66,256.4902 " fill="none" style="stroke: #A80036; stroke-width: 1.0; stroke-dasharray: 7.0,7.0;"/>
        <polygon fill="#A80036" points="1467.44,259.7684,1463.2534,250.8537,1463.6597,256.4959,1458.0174,256.9022,1467.44,259.7684" style="stroke: #A80036; stroke-width: 1.0;"/>
        <path d="M685.696,70.267 C787.133,73.467 983.45,84.702 1039,124 C1083.23,155.292 1104.83,218.041 1114.08,254.6592 " fill="none" style="stroke: #A80036; stroke-width: 1.0; stroke-dasharray: 7.0,7.0;"/>
        <polygon fill="#A80036" points="1115.36,259.8653,1117.1032,250.1719,1114.1701,255.009,1109.333,252.0758,1115.36,259.8653" style="stroke: #A80036; stroke-width: 1.0;"/>
        <path d="M685.756,70.788 C796.819,74.886 1025.2,87.592 1095,124 C1152.84,154.169 1198.04,218.512 1220.48,255.4313 " fill="none" style="stroke: #A80036; stroke-width: 1.0; stroke-dasharray: 7.0,7.0;"/>
        <polygon fill="#A80036" points="1223.1,259.7936,1221.8921,250.0191,1220.5243,255.5081,1215.0353,254.1403,1223.1,259.7936" style="stroke: #A80036; stroke-width: 1.0;"/>
        <path d="M685.904,70.646 C809.378,74.677 1081.73,87.534 1167,124 C1236.53,153.736 1299.3,218.999 1331.09,256.0023 " fill="none" style="stroke: #A80036; stroke-width: 1.0; stroke-dasharray: 7.0,7.0;"/>
        <polygon fill="#A80036" points="1334.44,259.9315,1331.6383,250.4895,1331.1935,256.1289,1325.5541,255.684,1334.44,259.9315" style="stroke: #A80036; stroke-width: 1.0;"/>
    </g>
</svg>
