<?xml version="1.0" encoding="UTF-8"?><svg xmlns="http://www.w3.org/2000/svg" xmlns:xlink="http://www.w3.org/1999/xlink" height="215pt" style="width:1196px;height:215px;" version="1.1" viewBox="0 0 1196 215" width="1196pt">
    <defs>
        <filter height="300%" id="f1" width="300%" x="-1" y="-1">
            <feGaussianBlur result="blurOut" stdDeviation="2.0"/>
            <feColorMatrix in="blurOut" result="blurOut2" type="matrix" values="0 0 0 0 0 0 0 0 0 0 0 0 0 0 0 0 0 0 .4 0"/>
            <feOffset dx="4.0" dy="4.0" in="blurOut2" result="blurOut3"/>
            <feBlend in="SourceGraphic" in2="blurOut3" mode="normal"/>
        </filter>
    </defs>
    <g>
        <polygon fill="#FFFFFF" filter="url(#f1)" points="418,16,578,16,585,39.6094,697,39.6094,697,100,418,100,418,16" style="stroke: #000000; stroke-width: 2.0;"/>
        <line style="stroke: #000000; stroke-width: 2.0;" x1="418" x2="585" y1="39.6094" y2="39.6094"/>
        <text fill="#000000" font-family="sans-serif" font-size="14" font-weight="bold" lengthAdjust="spacingAndGlyphs" textLength="154" x="421" y="33.5332">de.mash1t.chat.config</text>
        <polygon fill="#FFFFFF" filter="url(#f1)" points="14,124,66,124,73,147.6094,947,147.6094,947,208,14,208,14,124" style="stroke: #000000; stroke-width: 2.0;"/>
        <line style="stroke: #000000; stroke-width: 2.0;" x1="14" x2="73" y1="147.6094" y2="147.6094"/>
        <text fill="#000000" font-family="sans-serif" font-size="14" font-weight="bold" lengthAdjust="spacingAndGlyphs" textLength="46" x="17" y="141.5332">java.io</text>
        <polygon fill="#FFFFFF" filter="url(#f1)" points="965,124,1026,124,1033,147.6094,1189,147.6094,1189,208,965,208,965,124" style="stroke: #000000; stroke-width: 2.0;"/>
        <line style="stroke: #000000; stroke-width: 2.0;" x1="965" x2="1033" y1="147.6094" y2="147.6094"/>
        <text fill="#000000" font-family="sans-serif" font-size="14" font-weight="bold" lengthAdjust="spacingAndGlyphs" textLength="55" x="968" y="141.5332">java.util</text>
        <rect fill="#FEFECE" filter="url(#f1)" height="48" style="stroke: #A80036; stroke-width: 1.5;" width="122" x="567" y="44"/>
        <ellipse cx="582" cy="60" fill="#ADD1B2" rx="11" ry="11" style="stroke: #A80036; stroke-width: 1.0;"/>
        <path d="M584.7656,55.875 Q584.9219,55.6563 585.1094,55.5469 Q585.2969,55.4375 585.5156,55.4375 Q585.8906,55.4375 586.125,55.6953 Q586.3594,55.9531 586.3594,56.5625 L586.3594,58.0156 Q586.3594,58.625 586.125,58.8906 Q585.8906,59.1563 585.5156,59.1563 Q585.1719,59.1563 584.9688,58.9531 Q584.7656,58.7656 584.6563,58.25 Q584.6094,57.8906 584.4219,57.7031 Q584.0938,57.3281 583.4844,57.1094 Q582.875,56.8906 582.25,56.8906 Q581.4844,56.8906 580.8516,57.2188 Q580.2188,57.5469 579.7266,58.2969 Q579.2344,59.0469 579.2344,60.0781 L579.2344,61.1719 Q579.2344,62.4063 580.125,63.2266 Q581.0156,64.0469 582.6094,64.0469 Q583.5469,64.0469 584.2031,63.7969 Q584.5938,63.6406 585.0156,63.2031 Q585.2813,62.9375 585.4297,62.8594 Q585.5781,62.7813 585.7813,62.7813 Q586.1094,62.7813 586.3672,63.0391 Q586.625,63.2969 586.625,63.6406 Q586.625,63.9844 586.2813,64.3906 Q585.7813,64.9688 584.9844,65.2969 Q583.9063,65.75 582.6094,65.75 Q581.0938,65.75 579.8906,65.125 Q578.9063,64.625 578.2188,63.5547 Q577.5313,62.4844 577.5313,61.2031 L577.5313,60.0469 Q577.5313,58.7188 578.1484,57.5703 Q578.7656,56.4219 579.8594,55.8047 Q580.9531,55.1875 582.1875,55.1875 Q582.9219,55.1875 583.5703,55.3516 Q584.2188,55.5156 584.7656,55.875 Z "/>
        <text fill="#000000" font-family="sans-serif" font-size="12" lengthAdjust="spacingAndGlyphs" textLength="90" x="596" y="64.9102">ConfigController</text>
        <line style="stroke: #A80036; stroke-width: 1.5;" x1="568" x2="688" y1="76" y2="76"/>
        <line style="stroke: #A80036; stroke-width: 1.5;" x1="568" x2="688" y1="84" y2="84"/>
        <rect fill="#FEFECE" filter="url(#f1)" height="48" style="stroke: #A80036; stroke-width: 1.5;" width="105" x="426.5" y="44"/>
        <ellipse cx="441.5" cy="60" fill="#EB937F" rx="11" ry="11" style="stroke: #A80036; stroke-width: 1.0;"/>
        <path d="M440.3594,60.7969 L440.3594,63.2969 L444.6875,63.2969 L444.6875,62.375 Q444.6875,61.7656 444.9297,61.5 Q445.1719,61.2344 445.5469,61.2344 Q445.9219,61.2344 446.1563,61.5 Q446.3906,61.7656 446.3906,62.375 L446.3906,65 L438.3906,65 Q437.7656,65 437.5078,64.7656 Q437.25,64.5313 437.25,64.1406 Q437.25,63.7656 437.5156,63.5313 Q437.7813,63.2969 438.3906,63.2969 L438.6563,63.2969 L438.6563,56.6406 L438.3906,56.6406 Q437.7656,56.6406 437.5078,56.4063 Q437.25,56.1719 437.25,55.7813 Q437.25,55.4063 437.5078,55.1719 Q437.7656,54.9375 438.3906,54.9375 L446.0156,54.9375 L446.0156,57.5313 Q446.0156,58.1406 445.7891,58.3984 Q445.5625,58.6563 445.1719,58.6563 Q444.7969,58.6563 444.5625,58.3984 Q444.3281,58.1406 444.3281,57.5313 L444.3281,56.6406 L440.3594,56.6406 L440.3594,59.0938 L441.8438,59.0938 Q441.8438,58.4375 441.9688,58.25 Q442.2344,57.8438 442.7031,57.8438 Q443.0781,57.8438 443.3125,58.1016 Q443.5469,58.3594 443.5469,58.9688 L443.5469,60.9375 Q443.5469,61.4844 443.4219,61.6719 Q443.1563,62.0625 442.7031,62.0625 Q442.2344,62.0625 441.9688,61.6563 Q441.8438,61.4688 441.8438,60.7969 L440.3594,60.7969 Z "/>
        <text fill="#000000" font-family="sans-serif" font-size="12" lengthAdjust="spacingAndGlyphs" textLength="73" x="455.5" y="64.9102">ConfigParam</text>
        <line style="stroke: #A80036; stroke-width: 1.5;" x1="427.5" x2="530.5" y1="76" y2="76"/>
        <line style="stroke: #A80036; stroke-width: 1.5;" x1="427.5" x2="530.5" y1="84" y2="84"/>
        <rect fill="#FEFECE" filter="url(#f1)" height="48" style="stroke: #A80036; stroke-width: 1.5;" width="145" x="793.5" y="152"/>
        <ellipse cx="808.5" cy="168" fill="#ADD1B2" rx="11" ry="11" style="stroke: #A80036; stroke-width: 1.0;"/>
        <path d="M811.2656,163.875 Q811.4219,163.6563 811.6094,163.5469 Q811.7969,163.4375 812.0156,163.4375 Q812.3906,163.4375 812.625,163.6953 Q812.8594,163.9531 812.8594,164.5625 L812.8594,166.0156 Q812.8594,166.625 812.625,166.8906 Q812.3906,167.1563 812.0156,167.1563 Q811.6719,167.1563 811.4688,166.9531 Q811.2656,166.7656 811.1563,166.25 Q811.1094,165.8906 810.9219,165.7031 Q810.5938,165.3281 809.9844,165.1094 Q809.375,164.8906 808.75,164.8906 Q807.9844,164.8906 807.3516,165.2188 Q806.7188,165.5469 806.2266,166.2969 Q805.7344,167.0469 805.7344,168.0781 L805.7344,169.1719 Q805.7344,170.4063 806.625,171.2266 Q807.5156,172.0469 809.1094,172.0469 Q810.0469,172.0469 810.7031,171.7969 Q811.0938,171.6406 811.5156,171.2031 Q811.7813,170.9375 811.9297,170.8594 Q812.0781,170.7813 812.2813,170.7813 Q812.6094,170.7813 812.8672,171.0391 Q813.125,171.2969 813.125,171.6406 Q813.125,171.9844 812.7813,172.3906 Q812.2813,172.9688 811.4844,173.2969 Q810.4063,173.75 809.1094,173.75 Q807.5938,173.75 806.3906,173.125 Q805.4063,172.625 804.7188,171.5547 Q804.0313,170.4844 804.0313,169.2031 L804.0313,168.0469 Q804.0313,166.7188 804.6484,165.5703 Q805.2656,164.4219 806.3594,163.8047 Q807.4531,163.1875 808.6875,163.1875 Q809.4219,163.1875 810.0703,163.3516 Q810.7188,163.5156 811.2656,163.875 Z "/>
        <text fill="#000000" font-family="sans-serif" font-size="12" lengthAdjust="spacingAndGlyphs" textLength="113" x="822.5" y="172.9102">BufferedInputStream</text>
        <line style="stroke: #A80036; stroke-width: 1.5;" x1="794.5" x2="937.5" y1="184" y2="184"/>
        <line style="stroke: #A80036; stroke-width: 1.5;" x1="794.5" x2="937.5" y1="192" y2="192"/>
        <rect fill="#FEFECE" filter="url(#f1)" height="48" style="stroke: #A80036; stroke-width: 1.5;" width="110" x="648" y="152"/>
        <ellipse cx="663" cy="168" fill="#ADD1B2" rx="11" ry="11" style="stroke: #A80036; stroke-width: 1.0;"/>
        <path d="M665.7656,163.875 Q665.9219,163.6563 666.1094,163.5469 Q666.2969,163.4375 666.5156,163.4375 Q666.8906,163.4375 667.125,163.6953 Q667.3594,163.9531 667.3594,164.5625 L667.3594,166.0156 Q667.3594,166.625 667.125,166.8906 Q666.8906,167.1563 666.5156,167.1563 Q666.1719,167.1563 665.9688,166.9531 Q665.7656,166.7656 665.6563,166.25 Q665.6094,165.8906 665.4219,165.7031 Q665.0938,165.3281 664.4844,165.1094 Q663.875,164.8906 663.25,164.8906 Q662.4844,164.8906 661.8516,165.2188 Q661.2188,165.5469 660.7266,166.2969 Q660.2344,167.0469 660.2344,168.0781 L660.2344,169.1719 Q660.2344,170.4063 661.125,171.2266 Q662.0156,172.0469 663.6094,172.0469 Q664.5469,172.0469 665.2031,171.7969 Q665.5938,171.6406 666.0156,171.2031 Q666.2813,170.9375 666.4297,170.8594 Q666.5781,170.7813 666.7813,170.7813 Q667.1094,170.7813 667.3672,171.0391 Q667.625,171.2969 667.625,171.6406 Q667.625,171.9844 667.2813,172.3906 Q666.7813,172.9688 665.9844,173.2969 Q664.9063,173.75 663.6094,173.75 Q662.0938,173.75 660.8906,173.125 Q659.9063,172.625 659.2188,171.5547 Q658.5313,170.4844 658.5313,169.2031 L658.5313,168.0469 Q658.5313,166.7188 659.1484,165.5703 Q659.7656,164.4219 660.8594,163.8047 Q661.9531,163.1875 663.1875,163.1875 Q663.9219,163.1875 664.5703,163.3516 Q665.2188,163.5156 665.7656,163.875 Z "/>
        <text fill="#000000" font-family="sans-serif" font-size="12" lengthAdjust="spacingAndGlyphs" textLength="78" x="677" y="172.9102">BufferedWriter</text>
        <line style="stroke: #A80036; stroke-width: 1.5;" x1="649" x2="757" y1="184" y2="184"/>
        <line style="stroke: #A80036; stroke-width: 1.5;" x1="649" x2="757" y1="192" y2="192"/>
        <rect fill="#FEFECE" filter="url(#f1)" height="48" style="stroke: #A80036; stroke-width: 1.5;" width="119" x="493.5" y="152"/>
        <ellipse cx="508.5" cy="168" fill="#ADD1B2" rx="11" ry="11" style="stroke: #A80036; stroke-width: 1.0;"/>
        <path d="M511.2656,163.875 Q511.4219,163.6563 511.6094,163.5469 Q511.7969,163.4375 512.0156,163.4375 Q512.3906,163.4375 512.625,163.6953 Q512.8594,163.9531 512.8594,164.5625 L512.8594,166.0156 Q512.8594,166.625 512.625,166.8906 Q512.3906,167.1563 512.0156,167.1563 Q511.6719,167.1563 511.4688,166.9531 Q511.2656,166.7656 511.1563,166.25 Q511.1094,165.8906 510.9219,165.7031 Q510.5938,165.3281 509.9844,165.1094 Q509.375,164.8906 508.75,164.8906 Q507.9844,164.8906 507.3516,165.2188 Q506.7188,165.5469 506.2266,166.2969 Q505.7344,167.0469 505.7344,168.0781 L505.7344,169.1719 Q505.7344,170.4063 506.625,171.2266 Q507.5156,172.0469 509.1094,172.0469 Q510.0469,172.0469 510.7031,171.7969 Q511.0938,171.6406 511.5156,171.2031 Q511.7813,170.9375 511.9297,170.8594 Q512.0781,170.7813 512.2813,170.7813 Q512.6094,170.7813 512.8672,171.0391 Q513.125,171.2969 513.125,171.6406 Q513.125,171.9844 512.7813,172.3906 Q512.2813,172.9688 511.4844,173.2969 Q510.4063,173.75 509.1094,173.75 Q507.5938,173.75 506.3906,173.125 Q505.4063,172.625 504.7188,171.5547 Q504.0313,170.4844 504.0313,169.2031 L504.0313,168.0469 Q504.0313,166.7188 504.6484,165.5703 Q505.2656,164.4219 506.3594,163.8047 Q507.4531,163.1875 508.6875,163.1875 Q509.4219,163.1875 510.0703,163.3516 Q510.7188,163.5156 511.2656,163.875 Z "/>
        <text fill="#000000" font-family="sans-serif" font-size="12" lengthAdjust="spacingAndGlyphs" textLength="87" x="522.5" y="172.9102">FileInputStream</text>
        <line style="stroke: #A80036; stroke-width: 1.5;" x1="494.5" x2="611.5" y1="184" y2="184"/>
        <line style="stroke: #A80036; stroke-width: 1.5;" x1="494.5" x2="611.5" y1="192" y2="192"/>
        <rect fill="#FEFECE" filter="url(#f1)" height="48" style="stroke: #A80036; stroke-width: 1.5;" width="128" x="330" y="152"/>
        <ellipse cx="345" cy="168" fill="#ADD1B2" rx="11" ry="11" style="stroke: #A80036; stroke-width: 1.0;"/>
        <path d="M347.7656,163.875 Q347.9219,163.6563 348.1094,163.5469 Q348.2969,163.4375 348.5156,163.4375 Q348.8906,163.4375 349.125,163.6953 Q349.3594,163.9531 349.3594,164.5625 L349.3594,166.0156 Q349.3594,166.625 349.125,166.8906 Q348.8906,167.1563 348.5156,167.1563 Q348.1719,167.1563 347.9688,166.9531 Q347.7656,166.7656 347.6563,166.25 Q347.6094,165.8906 347.4219,165.7031 Q347.0938,165.3281 346.4844,165.1094 Q345.875,164.8906 345.25,164.8906 Q344.4844,164.8906 343.8516,165.2188 Q343.2188,165.5469 342.7266,166.2969 Q342.2344,167.0469 342.2344,168.0781 L342.2344,169.1719 Q342.2344,170.4063 343.125,171.2266 Q344.0156,172.0469 345.6094,172.0469 Q346.5469,172.0469 347.2031,171.7969 Q347.5938,171.6406 348.0156,171.2031 Q348.2813,170.9375 348.4297,170.8594 Q348.5781,170.7813 348.7813,170.7813 Q349.1094,170.7813 349.3672,171.0391 Q349.625,171.2969 349.625,171.6406 Q349.625,171.9844 349.2813,172.3906 Q348.7813,172.9688 347.9844,173.2969 Q346.9063,173.75 345.6094,173.75 Q344.0938,173.75 342.8906,173.125 Q341.9063,172.625 341.2188,171.5547 Q340.5313,170.4844 340.5313,169.2031 L340.5313,168.0469 Q340.5313,166.7188 341.1484,165.5703 Q341.7656,164.4219 342.8594,163.8047 Q343.9531,163.1875 345.1875,163.1875 Q345.9219,163.1875 346.5703,163.3516 Q347.2188,163.5156 347.7656,163.875 Z "/>
        <text fill="#000000" font-family="sans-serif" font-size="12" lengthAdjust="spacingAndGlyphs" textLength="96" x="359" y="172.9102">FileOutputStream</text>
        <line style="stroke: #A80036; stroke-width: 1.5;" x1="331" x2="457" y1="184" y2="184"/>
        <line style="stroke: #A80036; stroke-width: 1.5;" x1="331" x2="457" y1="192" y2="192"/>
        <rect fill="#FEFECE" filter="url(#f1)" height="48" style="stroke: #A80036; stroke-width: 1.5;" width="97" x="197.5" y="152"/>
        <ellipse cx="212.5" cy="168" fill="#ADD1B2" rx="11" ry="11" style="stroke: #A80036; stroke-width: 1.0;"/>
        <path d="M215.2656,163.875 Q215.4219,163.6563 215.6094,163.5469 Q215.7969,163.4375 216.0156,163.4375 Q216.3906,163.4375 216.625,163.6953 Q216.8594,163.9531 216.8594,164.5625 L216.8594,166.0156 Q216.8594,166.625 216.625,166.8906 Q216.3906,167.1563 216.0156,167.1563 Q215.6719,167.1563 215.4688,166.9531 Q215.2656,166.7656 215.1563,166.25 Q215.1094,165.8906 214.9219,165.7031 Q214.5938,165.3281 213.9844,165.1094 Q213.375,164.8906 212.75,164.8906 Q211.9844,164.8906 211.3516,165.2188 Q210.7188,165.5469 210.2266,166.2969 Q209.7344,167.0469 209.7344,168.0781 L209.7344,169.1719 Q209.7344,170.4063 210.625,171.2266 Q211.5156,172.0469 213.1094,172.0469 Q214.0469,172.0469 214.7031,171.7969 Q215.0938,171.6406 215.5156,171.2031 Q215.7813,170.9375 215.9297,170.8594 Q216.0781,170.7813 216.2813,170.7813 Q216.6094,170.7813 216.8672,171.0391 Q217.125,171.2969 217.125,171.6406 Q217.125,171.9844 216.7813,172.3906 Q216.2813,172.9688 215.4844,173.2969 Q214.4063,173.75 213.1094,173.75 Q211.5938,173.75 210.3906,173.125 Q209.4063,172.625 208.7188,171.5547 Q208.0313,170.4844 208.0313,169.2031 L208.0313,168.0469 Q208.0313,166.7188 208.6484,165.5703 Q209.2656,164.4219 210.3594,163.8047 Q211.4531,163.1875 212.6875,163.1875 Q213.4219,163.1875 214.0703,163.3516 Q214.7188,163.5156 215.2656,163.875 Z "/>
        <text fill="#000000" font-family="sans-serif" font-size="12" lengthAdjust="spacingAndGlyphs" textLength="65" x="226.5" y="172.9102">IOException</text>
        <line style="stroke: #A80036; stroke-width: 1.5;" x1="198.5" x2="293.5" y1="184" y2="184"/>
        <line style="stroke: #A80036; stroke-width: 1.5;" x1="198.5" x2="293.5" y1="192" y2="192"/>
        <rect fill="#FEFECE" filter="url(#f1)" height="48" style="stroke: #A80036; stroke-width: 1.5;" width="140" x="22" y="152"/>
        <ellipse cx="37" cy="168" fill="#ADD1B2" rx="11" ry="11" style="stroke: #A80036; stroke-width: 1.0;"/>
        <path d="M39.7656,163.875 Q39.9219,163.6563 40.1094,163.5469 Q40.2969,163.4375 40.5156,163.4375 Q40.8906,163.4375 41.125,163.6953 Q41.3594,163.9531 41.3594,164.5625 L41.3594,166.0156 Q41.3594,166.625 41.125,166.8906 Q40.8906,167.1563 40.5156,167.1563 Q40.1719,167.1563 39.9688,166.9531 Q39.7656,166.7656 39.6563,166.25 Q39.6094,165.8906 39.4219,165.7031 Q39.0938,165.3281 38.4844,165.1094 Q37.875,164.8906 37.25,164.8906 Q36.4844,164.8906 35.8516,165.2188 Q35.2188,165.5469 34.7266,166.2969 Q34.2344,167.0469 34.2344,168.0781 L34.2344,169.1719 Q34.2344,170.4063 35.125,171.2266 Q36.0156,172.0469 37.6094,172.0469 Q38.5469,172.0469 39.2031,171.7969 Q39.5938,171.6406 40.0156,171.2031 Q40.2813,170.9375 40.4297,170.8594 Q40.5781,170.7813 40.7813,170.7813 Q41.1094,170.7813 41.3672,171.0391 Q41.625,171.2969 41.625,171.6406 Q41.625,171.9844 41.2813,172.3906 Q40.7813,172.9688 39.9844,173.2969 Q38.9063,173.75 37.6094,173.75 Q36.0938,173.75 34.8906,173.125 Q33.9063,172.625 33.2188,171.5547 Q32.5313,170.4844 32.5313,169.2031 L32.5313,168.0469 Q32.5313,166.7188 33.1484,165.5703 Q33.7656,164.4219 34.8594,163.8047 Q35.9531,163.1875 37.1875,163.1875 Q37.9219,163.1875 38.5703,163.3516 Q39.2188,163.5156 39.7656,163.875 Z "/>
        <text fill="#000000" font-family="sans-serif" font-size="12" lengthAdjust="spacingAndGlyphs" textLength="108" x="51" y="172.9102">OutputStreamWriter</text>
        <line style="stroke: #A80036; stroke-width: 1.5;" x1="23" x2="161" y1="184" y2="184"/>
        <line style="stroke: #A80036; stroke-width: 1.5;" x1="23" x2="161" y1="192" y2="192"/>
        <rect fill="#FEFECE" filter="url(#f1)" height="48" style="stroke: #A80036; stroke-width: 1.5;" width="83" x="1097.5" y="152"/>
        <ellipse cx="1112.5" cy="168" fill="#ADD1B2" rx="11" ry="11" style="stroke: #A80036; stroke-width: 1.0;"/>
        <path d="M1115.2656,163.875 Q1115.4219,163.6563 1115.6094,163.5469 Q1115.7969,163.4375 1116.0156,163.4375 Q1116.3906,163.4375 1116.625,163.6953 Q1116.8594,163.9531 1116.8594,164.5625 L1116.8594,166.0156 Q1116.8594,166.625 1116.625,166.8906 Q1116.3906,167.1563 1116.0156,167.1563 Q1115.6719,167.1563 1115.4688,166.9531 Q1115.2656,166.7656 1115.1563,166.25 Q1115.1094,165.8906 1114.9219,165.7031 Q1114.5938,165.3281 1113.9844,165.1094 Q1113.375,164.8906 1112.75,164.8906 Q1111.9844,164.8906 1111.3516,165.2188 Q1110.7188,165.5469 1110.2266,166.2969 Q1109.7344,167.0469 1109.7344,168.0781 L1109.7344,169.1719 Q1109.7344,170.4063 1110.625,171.2266 Q1111.5156,172.0469 1113.1094,172.0469 Q1114.0469,172.0469 1114.7031,171.7969 Q1115.0938,171.6406 1115.5156,171.2031 Q1115.7813,170.9375 1115.9297,170.8594 Q1116.0781,170.7813 1116.2813,170.7813 Q1116.6094,170.7813 1116.8672,171.0391 Q1117.125,171.2969 1117.125,171.6406 Q1117.125,171.9844 1116.7813,172.3906 Q1116.2813,172.9688 1115.4844,173.2969 Q1114.4063,173.75 1113.1094,173.75 Q1111.5938,173.75 1110.3906,173.125 Q1109.4063,172.625 1108.7188,171.5547 Q1108.0313,170.4844 1108.0313,169.2031 L1108.0313,168.0469 Q1108.0313,166.7188 1108.6484,165.5703 Q1109.2656,164.4219 1110.3594,163.8047 Q1111.4531,163.1875 1112.6875,163.1875 Q1113.4219,163.1875 1114.0703,163.3516 Q1114.7188,163.5156 1115.2656,163.875 Z "/>
        <text fill="#000000" font-family="sans-serif" font-size="12" lengthAdjust="spacingAndGlyphs" textLength="51" x="1126.5" y="172.9102">EnumSet</text>
        <line style="stroke: #A80036; stroke-width: 1.5;" x1="1098.5" x2="1179.5" y1="184" y2="184"/>
        <line style="stroke: #A80036; stroke-width: 1.5;" x1="1098.5" x2="1179.5" y1="192" y2="192"/>
        <rect fill="#FEFECE" filter="url(#f1)" height="48" style="stroke: #A80036; stroke-width: 1.5;" width="89" x="973.5" y="152"/>
        <ellipse cx="988.5" cy="168" fill="#ADD1B2" rx="11" ry="11" style="stroke: #A80036; stroke-width: 1.0;"/>
        <path d="M991.2656,163.875 Q991.4219,163.6563 991.6094,163.5469 Q991.7969,163.4375 992.0156,163.4375 Q992.3906,163.4375 992.625,163.6953 Q992.8594,163.9531 992.8594,164.5625 L992.8594,166.0156 Q992.8594,166.625 992.625,166.8906 Q992.3906,167.1563 992.0156,167.1563 Q991.6719,167.1563 991.4688,166.9531 Q991.2656,166.7656 991.1563,166.25 Q991.1094,165.8906 990.9219,165.7031 Q990.5938,165.3281 989.9844,165.1094 Q989.375,164.8906 988.75,164.8906 Q987.9844,164.8906 987.3516,165.2188 Q986.7188,165.5469 986.2266,166.2969 Q985.7344,167.0469 985.7344,168.0781 L985.7344,169.1719 Q985.7344,170.4063 986.625,171.2266 Q987.5156,172.0469 989.1094,172.0469 Q990.0469,172.0469 990.7031,171.7969 Q991.0938,171.6406 991.5156,171.2031 Q991.7813,170.9375 991.9297,170.8594 Q992.0781,170.7813 992.2813,170.7813 Q992.6094,170.7813 992.8672,171.0391 Q993.125,171.2969 993.125,171.6406 Q993.125,171.9844 992.7813,172.3906 Q992.2813,172.9688 991.4844,173.2969 Q990.4063,173.75 989.1094,173.75 Q987.5938,173.75 986.3906,173.125 Q985.4063,172.625 984.7188,171.5547 Q984.0313,170.4844 984.0313,169.2031 L984.0313,168.0469 Q984.0313,166.7188 984.6484,165.5703 Q985.2656,164.4219 986.3594,163.8047 Q987.4531,163.1875 988.6875,163.1875 Q989.4219,163.1875 990.0703,163.3516 Q990.7188,163.5156 991.2656,163.875 Z "/>
        <text fill="#000000" font-family="sans-serif" font-size="12" lengthAdjust="spacingAndGlyphs" textLength="57" x="1002.5" y="172.9102">Properties</text>
        <line style="stroke: #A80036; stroke-width: 1.5;" x1="974.5" x2="1061.5" y1="184" y2="184"/>
        <line style="stroke: #A80036; stroke-width: 1.5;" x1="974.5" x2="1061.5" y1="192" y2="192"/>
        <path d="M689.022,89.203 C716.076,98.788 748.043,110.986 776,124 C791.936,131.4182 808.842,140.6189 823.647,149.1547 " fill="none" style="stroke: #A80036; stroke-width: 1.0; stroke-dasharray: 7.0,7.0;"/>
        <polygon fill="#A80036" points="828.17,151.7797,822.3939,143.8024,823.8456,149.2699,818.3782,150.7215,828.17,151.7797" style="stroke: #A80036; stroke-width: 1.0;"/>
        <path d="M644.274,92 C655.792,108.279 671.293,130.1871 683.477,147.4076 " fill="none" style="stroke: #A80036; stroke-width: 1.0; stroke-dasharray: 7.0,7.0;"/>
        <polygon fill="#A80036" points="686.499,151.6784,684.5657,142.0212,683.6109,147.5969,678.0352,146.6421,686.499,151.6784" style="stroke: #A80036; stroke-width: 1.0;"/>
        <path d="M611.726,92 C600.208,108.279 584.707,130.1871 572.523,147.4076 " fill="none" style="stroke: #A80036; stroke-width: 1.0; stroke-dasharray: 7.0,7.0;"/>
        <polygon fill="#A80036" points="569.501,151.6784,577.9648,146.6421,572.3891,147.5969,571.4343,142.0212,569.501,151.6784" style="stroke: #A80036; stroke-width: 1.0;"/>
        <path d="M570.327,92.064 C563.168,94.799 555.931,97.503 549,100 C516.869,111.576 506.943,109.545 476,124 C460.989,131.0125 445.347,140.2113 431.799,148.8633 " fill="none" style="stroke: #A80036; stroke-width: 1.0; stroke-dasharray: 7.0,7.0;"/>
        <polygon fill="#A80036" points="427.288,151.7726,437.0194,150.2559,431.4898,149.0625,432.6832,143.533,427.288,151.7726" style="stroke: #A80036; stroke-width: 1.0;"/>
        <path d="M575.093,92.03 C566.496,95.11 557.592,97.919 549,100 C446.533,124.8196 411.065,85.287 313,124 C298.831,129.5934 285.096,139.0831 273.789,148.3706 " fill="none" style="stroke: #A80036; stroke-width: 1.0; stroke-dasharray: 7.0,7.0;"/>
        <polygon fill="#A80036" points="269.737,151.7755,279.2004,149.0472,273.5647,148.5586,274.0534,142.9229,269.737,151.7755" style="stroke: #A80036; stroke-width: 1.0;"/>
        <path d="M575.587,92.153 C566.849,95.259 557.772,98.044 549,100 C388.595,135.7763 337.242,76.203 180,124 C161.777,129.5391 143.289,139.464 127.993,149.0957 " fill="none" style="stroke: #A80036; stroke-width: 1.0; stroke-dasharray: 7.0,7.0;"/>
        <polygon fill="#A80036" points="123.766,151.8006,133.5026,150.3175,127.9772,149.105,129.1897,143.5797,123.766,151.8006" style="stroke: #A80036; stroke-width: 1.0;"/>
        <path d="M689.368,72.042 C796.181,78.063 1011.43,93.628 1080,124 C1092.79,129.6634 1104.86,139.059 1114.71,148.2532 " fill="none" style="stroke: #A80036; stroke-width: 1.0; stroke-dasharray: 7.0,7.0;"/>
        <polygon fill="#A80036" points="1118.52,151.8948,1114.7845,142.7818,1114.9081,148.4373,1109.2526,148.5609,1118.52,151.8948" style="stroke: #A80036; stroke-width: 1.0;"/>
        <path d="M689.141,70.079 C756.923,73.325 868.145,84.839 955,124 C968.253,129.9756 981.07,139.4342 991.644,148.5914 " fill="none" style="stroke: #A80036; stroke-width: 1.0; stroke-dasharray: 7.0,7.0;"/>
        <polygon fill="#A80036" points="995.435,151.9444,991.3441,142.9853,991.6899,148.6316,986.0437,148.9774,995.435,151.9444" style="stroke: #A80036; stroke-width: 1.0;"/>
    </g>
</svg>
