<?xml version="1.0" encoding="UTF-8"?><svg xmlns="http://www.w3.org/2000/svg" xmlns:xlink="http://www.w3.org/1999/xlink" height="431pt" style="width:974px;height:431px;" version="1.1" viewBox="0 0 974 431" width="974pt">
    <defs>
        <filter height="300%" id="f1" width="300%" x="-1" y="-1">
            <feGaussianBlur result="blurOut" stdDeviation="2.0"/>
            <feColorMatrix in="blurOut" result="blurOut2" type="matrix" values="0 0 0 0 0 0 0 0 0 0 0 0 0 0 0 0 0 0 .4 0"/>
            <feOffset dx="4.0" dy="4.0" in="blurOut2" result="blurOut3"/>
            <feBlend in="SourceGraphic" in2="blurOut3" mode="normal"/>
        </filter>
    </defs>
    <g>
        <polygon fill="#FFFFFF" filter="url(#f1)" points="60,16,241,16,248,39.6094,457,39.6094,457,100,60,100,60,16" style="stroke: #000000; stroke-width: 2.0;"/>
        <line style="stroke: #000000; stroke-width: 2.0;" x1="60" x2="248" y1="39.6094" y2="39.6094"/>
        <text fill="#000000" font-family="sans-serif" font-size="14" font-weight="bold" lengthAdjust="spacingAndGlyphs" textLength="175" x="63" y="33.5332">de.mash1t.chat.client.gui</text>
        <polygon fill="#FFFFFF" filter="url(#f1)" points="14,232,229,232,236,255.6094,678,255.6094,678,424,14,424,14,232" style="stroke: #000000; stroke-width: 2.0;"/>
        <line style="stroke: #000000; stroke-width: 2.0;" x1="14" x2="236" y1="255.6094" y2="255.6094"/>
        <text fill="#000000" font-family="sans-serif" font-size="14" font-weight="bold" lengthAdjust="spacingAndGlyphs" textLength="209" x="17" y="249.5332">de.mash1t.chat.client.gui.tabs</text>
        <polygon fill="#FFFFFF" filter="url(#f1)" points="536,124,774,124,781,147.6094,784,147.6094,784,208,536,208,536,124" style="stroke: #000000; stroke-width: 2.0;"/>
        <line style="stroke: #000000; stroke-width: 2.0;" x1="536" x2="781" y1="147.6094" y2="147.6094"/>
        <text fill="#000000" font-family="sans-serif" font-size="14" font-weight="bold" lengthAdjust="spacingAndGlyphs" textLength="232" x="539" y="141.5332">de.mash1t.chat.client.gui.userlist</text>
        <polygon fill="#FFFFFF" filter="url(#f1)" points="355,124,515,124,522,147.6094,525,147.6094,525,208,355,208,355,124" style="stroke: #000000; stroke-width: 2.0;"/>
        <line style="stroke: #000000; stroke-width: 2.0;" x1="355" x2="522" y1="147.6094" y2="147.6094"/>
        <text fill="#000000" font-family="sans-serif" font-size="14" font-weight="bold" lengthAdjust="spacingAndGlyphs" textLength="154" x="358" y="141.5332">de.mash1t.chat.config</text>
        <polygon fill="#FFFFFF" filter="url(#f1)" points="728,340,897,340,904,363.6094,907,363.6094,907,424,728,424,728,340" style="stroke: #000000; stroke-width: 2.0;"/>
        <line style="stroke: #000000; stroke-width: 2.0;" x1="728" x2="904" y1="363.6094" y2="363.6094"/>
        <text fill="#000000" font-family="sans-serif" font-size="14" font-weight="bold" lengthAdjust="spacingAndGlyphs" textLength="163" x="731" y="357.5332">de.mash1t.chat.logging</text>
        <polygon fill="#FFFFFF" filter="url(#f1)" points="686,232,940,232,947,255.6094,950,255.6094,950,316,686,316,686,232" style="stroke: #000000; stroke-width: 2.0;"/>
        <line style="stroke: #000000; stroke-width: 2.0;" x1="686" x2="947" y1="255.6094" y2="255.6094"/>
        <text fill="#000000" font-family="sans-serif" font-size="14" font-weight="bold" lengthAdjust="spacingAndGlyphs" textLength="248" x="689" y="249.5332">de.mash1t.chat.networking.packets</text>
        <rect fill="#FEFECE" filter="url(#f1)" height="48" style="stroke: #A80036; stroke-width: 1.5;" width="83" x="208.5" y="44"/>
        <ellipse cx="223.5" cy="60" fill="#ADD1B2" rx="11" ry="11" style="stroke: #A80036; stroke-width: 1.0;"/>
        <path d="M226.2656,55.875 Q226.4219,55.6563 226.6094,55.5469 Q226.7969,55.4375 227.0156,55.4375 Q227.3906,55.4375 227.625,55.6953 Q227.8594,55.9531 227.8594,56.5625 L227.8594,58.0156 Q227.8594,58.625 227.625,58.8906 Q227.3906,59.1563 227.0156,59.1563 Q226.6719,59.1563 226.4688,58.9531 Q226.2656,58.7656 226.1563,58.25 Q226.1094,57.8906 225.9219,57.7031 Q225.5938,57.3281 224.9844,57.1094 Q224.375,56.8906 223.75,56.8906 Q222.9844,56.8906 222.3516,57.2188 Q221.7188,57.5469 221.2266,58.2969 Q220.7344,59.0469 220.7344,60.0781 L220.7344,61.1719 Q220.7344,62.4063 221.625,63.2266 Q222.5156,64.0469 224.1094,64.0469 Q225.0469,64.0469 225.7031,63.7969 Q226.0938,63.6406 226.5156,63.2031 Q226.7813,62.9375 226.9297,62.8594 Q227.0781,62.7813 227.2813,62.7813 Q227.6094,62.7813 227.8672,63.0391 Q228.125,63.2969 228.125,63.6406 Q228.125,63.9844 227.7813,64.3906 Q227.2813,64.9688 226.4844,65.2969 Q225.4063,65.75 224.1094,65.75 Q222.5938,65.75 221.3906,65.125 Q220.4063,64.625 219.7188,63.5547 Q219.0313,62.4844 219.0313,61.2031 L219.0313,60.0469 Q219.0313,58.7188 219.6484,57.5703 Q220.2656,56.4219 221.3594,55.8047 Q222.4531,55.1875 223.6875,55.1875 Q224.4219,55.1875 225.0703,55.3516 Q225.7188,55.5156 226.2656,55.875 Z "/>
        <text fill="#000000" font-family="sans-serif" font-size="12" lengthAdjust="spacingAndGlyphs" textLength="51" x="237.5" y="64.9102">ClientGui</text>
        <line style="stroke: #A80036; stroke-width: 1.5;" x1="209.5" x2="290.5" y1="76" y2="76"/>
        <line style="stroke: #A80036; stroke-width: 1.5;" x1="209.5" x2="290.5" y1="84" y2="84"/>
        <rect fill="#FEFECE" filter="url(#f1)" height="48" style="stroke: #A80036; stroke-width: 1.5;" width="122" x="327" y="44"/>
        <ellipse cx="342" cy="60" fill="#ADD1B2" rx="11" ry="11" style="stroke: #A80036; stroke-width: 1.0;"/>
        <path d="M344.7656,55.875 Q344.9219,55.6563 345.1094,55.5469 Q345.2969,55.4375 345.5156,55.4375 Q345.8906,55.4375 346.125,55.6953 Q346.3594,55.9531 346.3594,56.5625 L346.3594,58.0156 Q346.3594,58.625 346.125,58.8906 Q345.8906,59.1563 345.5156,59.1563 Q345.1719,59.1563 344.9688,58.9531 Q344.7656,58.7656 344.6563,58.25 Q344.6094,57.8906 344.4219,57.7031 Q344.0938,57.3281 343.4844,57.1094 Q342.875,56.8906 342.25,56.8906 Q341.4844,56.8906 340.8516,57.2188 Q340.2188,57.5469 339.7266,58.2969 Q339.2344,59.0469 339.2344,60.0781 L339.2344,61.1719 Q339.2344,62.4063 340.125,63.2266 Q341.0156,64.0469 342.6094,64.0469 Q343.5469,64.0469 344.2031,63.7969 Q344.5938,63.6406 345.0156,63.2031 Q345.2813,62.9375 345.4297,62.8594 Q345.5781,62.7813 345.7813,62.7813 Q346.1094,62.7813 346.3672,63.0391 Q346.625,63.2969 346.625,63.6406 Q346.625,63.9844 346.2813,64.3906 Q345.7813,64.9688 344.9844,65.2969 Q343.9063,65.75 342.6094,65.75 Q341.0938,65.75 339.8906,65.125 Q338.9063,64.625 338.2188,63.5547 Q337.5313,62.4844 337.5313,61.2031 L337.5313,60.0469 Q337.5313,58.7188 338.1484,57.5703 Q338.7656,56.4219 339.8594,55.8047 Q340.9531,55.1875 342.1875,55.1875 Q342.9219,55.1875 343.5703,55.3516 Q344.2188,55.5156 344.7656,55.875 Z "/>
        <text fill="#000000" font-family="sans-serif" font-size="12" lengthAdjust="spacingAndGlyphs" textLength="90" x="356" y="64.9102">ClientGuiThread</text>
        <line style="stroke: #A80036; stroke-width: 1.5;" x1="328" x2="448" y1="76" y2="76"/>
        <line style="stroke: #A80036; stroke-width: 1.5;" x1="328" x2="448" y1="84" y2="84"/>
        <rect fill="#FEFECE" filter="url(#f1)" height="48" style="stroke: #A80036; stroke-width: 1.5;" width="105" x="68.5" y="44"/>
        <ellipse cx="83.5" cy="60" fill="#ADD1B2" rx="11" ry="11" style="stroke: #A80036; stroke-width: 1.0;"/>
        <path d="M86.2656,55.875 Q86.4219,55.6563 86.6094,55.5469 Q86.7969,55.4375 87.0156,55.4375 Q87.3906,55.4375 87.625,55.6953 Q87.8594,55.9531 87.8594,56.5625 L87.8594,58.0156 Q87.8594,58.625 87.625,58.8906 Q87.3906,59.1563 87.0156,59.1563 Q86.6719,59.1563 86.4688,58.9531 Q86.2656,58.7656 86.1563,58.25 Q86.1094,57.8906 85.9219,57.7031 Q85.5938,57.3281 84.9844,57.1094 Q84.375,56.8906 83.75,56.8906 Q82.9844,56.8906 82.3516,57.2188 Q81.7188,57.5469 81.2266,58.2969 Q80.7344,59.0469 80.7344,60.0781 L80.7344,61.1719 Q80.7344,62.4063 81.625,63.2266 Q82.5156,64.0469 84.1094,64.0469 Q85.0469,64.0469 85.7031,63.7969 Q86.0938,63.6406 86.5156,63.2031 Q86.7813,62.9375 86.9297,62.8594 Q87.0781,62.7813 87.2813,62.7813 Q87.6094,62.7813 87.8672,63.0391 Q88.125,63.2969 88.125,63.6406 Q88.125,63.9844 87.7813,64.3906 Q87.2813,64.9688 86.4844,65.2969 Q85.4063,65.75 84.1094,65.75 Q82.5938,65.75 81.3906,65.125 Q80.4063,64.625 79.7188,63.5547 Q79.0313,62.4844 79.0313,61.2031 L79.0313,60.0469 Q79.0313,58.7188 79.6484,57.5703 Q80.2656,56.4219 81.3594,55.8047 Q82.4531,55.1875 83.6875,55.1875 Q84.4219,55.1875 85.0703,55.3516 Q85.7188,55.5156 86.2656,55.875 Z "/>
        <text fill="#000000" font-family="sans-serif" font-size="12" lengthAdjust="spacingAndGlyphs" textLength="73" x="97.5" y="64.9102">DialogHelper</text>
        <line style="stroke: #A80036; stroke-width: 1.5;" x1="69.5" x2="172.5" y1="76" y2="76"/>
        <line style="stroke: #A80036; stroke-width: 1.5;" x1="69.5" x2="172.5" y1="84" y2="84"/>
        <rect fill="#FEFECE" filter="url(#f1)" height="48" style="stroke: #A80036; stroke-width: 1.5;" width="153" x="516.5" y="260"/>
        <ellipse cx="531.5" cy="276" fill="#ADD1B2" rx="11" ry="11" style="stroke: #A80036; stroke-width: 1.0;"/>
        <path d="M534.2656,271.875 Q534.4219,271.6563 534.6094,271.5469 Q534.7969,271.4375 535.0156,271.4375 Q535.3906,271.4375 535.625,271.6953 Q535.8594,271.9531 535.8594,272.5625 L535.8594,274.0156 Q535.8594,274.625 535.625,274.8906 Q535.3906,275.1563 535.0156,275.1563 Q534.6719,275.1563 534.4688,274.9531 Q534.2656,274.7656 534.1563,274.25 Q534.1094,273.8906 533.9219,273.7031 Q533.5938,273.3281 532.9844,273.1094 Q532.375,272.8906 531.75,272.8906 Q530.9844,272.8906 530.3516,273.2188 Q529.7188,273.5469 529.2266,274.2969 Q528.7344,275.0469 528.7344,276.0781 L528.7344,277.1719 Q528.7344,278.4063 529.625,279.2266 Q530.5156,280.0469 532.1094,280.0469 Q533.0469,280.0469 533.7031,279.7969 Q534.0938,279.6406 534.5156,279.2031 Q534.7813,278.9375 534.9297,278.8594 Q535.0781,278.7813 535.2813,278.7813 Q535.6094,278.7813 535.8672,279.0391 Q536.125,279.2969 536.125,279.6406 Q536.125,279.9844 535.7813,280.3906 Q535.2813,280.9688 534.4844,281.2969 Q533.4063,281.75 532.1094,281.75 Q530.5938,281.75 529.3906,281.125 Q528.4063,280.625 527.7188,279.5547 Q527.0313,278.4844 527.0313,277.2031 L527.0313,276.0469 Q527.0313,274.7188 527.6484,273.5703 Q528.2656,272.4219 529.3594,271.8047 Q530.4531,271.1875 531.6875,271.1875 Q532.4219,271.1875 533.0703,271.3516 Q533.7188,271.5156 534.2656,271.875 Z "/>
        <text fill="#000000" font-family="sans-serif" font-size="12" lengthAdjust="spacingAndGlyphs" textLength="121" x="545.5" y="280.9102">ButtonTabComponent</text>
        <line style="stroke: #A80036; stroke-width: 1.5;" x1="517.5" x2="668.5" y1="292" y2="292"/>
        <line style="stroke: #A80036; stroke-width: 1.5;" x1="517.5" x2="668.5" y1="300" y2="300"/>
        <rect fill="#FEFECE" filter="url(#f1)" height="48" style="stroke: #A80036; stroke-width: 1.5;" width="83" x="398.5" y="260"/>
        <ellipse cx="413.5" cy="276" fill="#ADD1B2" rx="11" ry="11" style="stroke: #A80036; stroke-width: 1.0;"/>
        <path d="M416.2656,271.875 Q416.4219,271.6563 416.6094,271.5469 Q416.7969,271.4375 417.0156,271.4375 Q417.3906,271.4375 417.625,271.6953 Q417.8594,271.9531 417.8594,272.5625 L417.8594,274.0156 Q417.8594,274.625 417.625,274.8906 Q417.3906,275.1563 417.0156,275.1563 Q416.6719,275.1563 416.4688,274.9531 Q416.2656,274.7656 416.1563,274.25 Q416.1094,273.8906 415.9219,273.7031 Q415.5938,273.3281 414.9844,273.1094 Q414.375,272.8906 413.75,272.8906 Q412.9844,272.8906 412.3516,273.2188 Q411.7188,273.5469 411.2266,274.2969 Q410.7344,275.0469 410.7344,276.0781 L410.7344,277.1719 Q410.7344,278.4063 411.625,279.2266 Q412.5156,280.0469 414.1094,280.0469 Q415.0469,280.0469 415.7031,279.7969 Q416.0938,279.6406 416.5156,279.2031 Q416.7813,278.9375 416.9297,278.8594 Q417.0781,278.7813 417.2813,278.7813 Q417.6094,278.7813 417.8672,279.0391 Q418.125,279.2969 418.125,279.6406 Q418.125,279.9844 417.7813,280.3906 Q417.2813,280.9688 416.4844,281.2969 Q415.4063,281.75 414.1094,281.75 Q412.5938,281.75 411.3906,281.125 Q410.4063,280.625 409.7188,279.5547 Q409.0313,278.4844 409.0313,277.2031 L409.0313,276.0469 Q409.0313,274.7188 409.6484,273.5703 Q410.2656,272.4219 411.3594,271.8047 Q412.4531,271.1875 413.6875,271.1875 Q414.4219,271.1875 415.0703,271.3516 Q415.7188,271.5156 416.2656,271.875 Z "/>
        <text fill="#000000" font-family="sans-serif" font-size="12" lengthAdjust="spacingAndGlyphs" textLength="51" x="427.5" y="280.9102">ChatArea</text>
        <line style="stroke: #A80036; stroke-width: 1.5;" x1="399.5" x2="480.5" y1="292" y2="292"/>
        <line style="stroke: #A80036; stroke-width: 1.5;" x1="399.5" x2="480.5" y1="300" y2="300"/>
        <rect fill="#FEFECE" filter="url(#f1)" height="48" style="stroke: #A80036; stroke-width: 1.5;" width="79" x="22.5" y="260"/>
        <ellipse cx="37.5" cy="276" fill="#ADD1B2" rx="11" ry="11" style="stroke: #A80036; stroke-width: 1.0;"/>
        <path d="M40.2656,271.875 Q40.4219,271.6563 40.6094,271.5469 Q40.7969,271.4375 41.0156,271.4375 Q41.3906,271.4375 41.625,271.6953 Q41.8594,271.9531 41.8594,272.5625 L41.8594,274.0156 Q41.8594,274.625 41.625,274.8906 Q41.3906,275.1563 41.0156,275.1563 Q40.6719,275.1563 40.4688,274.9531 Q40.2656,274.7656 40.1563,274.25 Q40.1094,273.8906 39.9219,273.7031 Q39.5938,273.3281 38.9844,273.1094 Q38.375,272.8906 37.75,272.8906 Q36.9844,272.8906 36.3516,273.2188 Q35.7188,273.5469 35.2266,274.2969 Q34.7344,275.0469 34.7344,276.0781 L34.7344,277.1719 Q34.7344,278.4063 35.625,279.2266 Q36.5156,280.0469 38.1094,280.0469 Q39.0469,280.0469 39.7031,279.7969 Q40.0938,279.6406 40.5156,279.2031 Q40.7813,278.9375 40.9297,278.8594 Q41.0781,278.7813 41.2813,278.7813 Q41.6094,278.7813 41.8672,279.0391 Q42.125,279.2969 42.125,279.6406 Q42.125,279.9844 41.7813,280.3906 Q41.2813,280.9688 40.4844,281.2969 Q39.4063,281.75 38.1094,281.75 Q36.5938,281.75 35.3906,281.125 Q34.4063,280.625 33.7188,279.5547 Q33.0313,278.4844 33.0313,277.2031 L33.0313,276.0469 Q33.0313,274.7188 33.6484,273.5703 Q34.2656,272.4219 35.3594,271.8047 Q36.4531,271.1875 37.6875,271.1875 Q38.4219,271.1875 39.0703,271.3516 Q39.7188,271.5156 40.2656,271.875 Z "/>
        <text fill="#000000" font-family="sans-serif" font-size="12" lengthAdjust="spacingAndGlyphs" textLength="47" x="51.5" y="280.9102">ChatTab</text>
        <line style="stroke: #A80036; stroke-width: 1.5;" x1="23.5" x2="100.5" y1="292" y2="292"/>
        <line style="stroke: #A80036; stroke-width: 1.5;" x1="23.5" x2="100.5" y1="300" y2="300"/>
        <rect fill="#FEFECE" filter="url(#f1)" height="48" style="stroke: #A80036; stroke-width: 1.5;" width="70" x="558" y="368"/>
        <ellipse cx="573" cy="384" fill="#ADD1B2" rx="11" ry="11" style="stroke: #A80036; stroke-width: 1.0;"/>
        <path d="M575.7656,379.875 Q575.9219,379.6563 576.1094,379.5469 Q576.2969,379.4375 576.5156,379.4375 Q576.8906,379.4375 577.125,379.6953 Q577.3594,379.9531 577.3594,380.5625 L577.3594,382.0156 Q577.3594,382.625 577.125,382.8906 Q576.8906,383.1563 576.5156,383.1563 Q576.1719,383.1563 575.9688,382.9531 Q575.7656,382.7656 575.6563,382.25 Q575.6094,381.8906 575.4219,381.7031 Q575.0938,381.3281 574.4844,381.1094 Q573.875,380.8906 573.25,380.8906 Q572.4844,380.8906 571.8516,381.2188 Q571.2188,381.5469 570.7266,382.2969 Q570.2344,383.0469 570.2344,384.0781 L570.2344,385.1719 Q570.2344,386.4063 571.125,387.2266 Q572.0156,388.0469 573.6094,388.0469 Q574.5469,388.0469 575.2031,387.7969 Q575.5938,387.6406 576.0156,387.2031 Q576.2813,386.9375 576.4297,386.8594 Q576.5781,386.7813 576.7813,386.7813 Q577.1094,386.7813 577.3672,387.0391 Q577.625,387.2969 577.625,387.6406 Q577.625,387.9844 577.2813,388.3906 Q576.7813,388.9688 575.9844,389.2969 Q574.9063,389.75 573.6094,389.75 Q572.0938,389.75 570.8906,389.125 Q569.9063,388.625 569.2188,387.5547 Q568.5313,386.4844 568.5313,385.2031 L568.5313,384.0469 Q568.5313,382.7188 569.1484,381.5703 Q569.7656,380.4219 570.8594,379.8047 Q571.9531,379.1875 573.1875,379.1875 Q573.9219,379.1875 574.5703,379.3516 Q575.2188,379.5156 575.7656,379.875 Z "/>
        <text fill="#000000" font-family="sans-serif" font-size="12" lengthAdjust="spacingAndGlyphs" textLength="38" x="587" y="388.9102">JPanel</text>
        <line style="stroke: #A80036; stroke-width: 1.5;" x1="559" x2="627" y1="400" y2="400"/>
        <line style="stroke: #A80036; stroke-width: 1.5;" x1="559" x2="627" y1="408" y2="408"/>
        <rect fill="#FEFECE" filter="url(#f1)" height="48" style="stroke: #A80036; stroke-width: 1.5;" width="107" x="256.5" y="260"/>
        <ellipse cx="271.5" cy="276" fill="#ADD1B2" rx="11" ry="11" style="stroke: #A80036; stroke-width: 1.0;"/>
        <path d="M274.2656,271.875 Q274.4219,271.6563 274.6094,271.5469 Q274.7969,271.4375 275.0156,271.4375 Q275.3906,271.4375 275.625,271.6953 Q275.8594,271.9531 275.8594,272.5625 L275.8594,274.0156 Q275.8594,274.625 275.625,274.8906 Q275.3906,275.1563 275.0156,275.1563 Q274.6719,275.1563 274.4688,274.9531 Q274.2656,274.7656 274.1563,274.25 Q274.1094,273.8906 273.9219,273.7031 Q273.5938,273.3281 272.9844,273.1094 Q272.375,272.8906 271.75,272.8906 Q270.9844,272.8906 270.3516,273.2188 Q269.7188,273.5469 269.2266,274.2969 Q268.7344,275.0469 268.7344,276.0781 L268.7344,277.1719 Q268.7344,278.4063 269.625,279.2266 Q270.5156,280.0469 272.1094,280.0469 Q273.0469,280.0469 273.7031,279.7969 Q274.0938,279.6406 274.5156,279.2031 Q274.7813,278.9375 274.9297,278.8594 Q275.0781,278.7813 275.2813,278.7813 Q275.6094,278.7813 275.8672,279.0391 Q276.125,279.2969 276.125,279.6406 Q276.125,279.9844 275.7813,280.3906 Q275.2813,280.9688 274.4844,281.2969 Q273.4063,281.75 272.1094,281.75 Q270.5938,281.75 269.3906,281.125 Q268.4063,280.625 267.7188,279.5547 Q267.0313,278.4844 267.0313,277.2031 L267.0313,276.0469 Q267.0313,274.7188 267.6484,273.5703 Q268.2656,272.4219 269.3594,271.8047 Q270.4531,271.1875 271.6875,271.1875 Q272.4219,271.1875 273.0703,271.3516 Q273.7188,271.5156 274.2656,271.875 Z "/>
        <text fill="#000000" font-family="sans-serif" font-size="12" lengthAdjust="spacingAndGlyphs" textLength="75" x="285.5" y="280.9102">TabController</text>
        <line style="stroke: #A80036; stroke-width: 1.5;" x1="257.5" x2="362.5" y1="292" y2="292"/>
        <line style="stroke: #A80036; stroke-width: 1.5;" x1="257.5" x2="362.5" y1="300" y2="300"/>
        <rect fill="#FEFECE" filter="url(#f1)" height="48" style="stroke: #A80036; stroke-width: 1.5;" width="84" x="137" y="260"/>
        <ellipse cx="152" cy="276" fill="#EB937F" rx="11" ry="11" style="stroke: #A80036; stroke-width: 1.0;"/>
        <path d="M150.8594,276.7969 L150.8594,279.2969 L155.1875,279.2969 L155.1875,278.375 Q155.1875,277.7656 155.4297,277.5 Q155.6719,277.2344 156.0469,277.2344 Q156.4219,277.2344 156.6563,277.5 Q156.8906,277.7656 156.8906,278.375 L156.8906,281 L148.8906,281 Q148.2656,281 148.0078,280.7656 Q147.75,280.5313 147.75,280.1406 Q147.75,279.7656 148.0156,279.5313 Q148.2813,279.2969 148.8906,279.2969 L149.1563,279.2969 L149.1563,272.6406 L148.8906,272.6406 Q148.2656,272.6406 148.0078,272.4063 Q147.75,272.1719 147.75,271.7813 Q147.75,271.4063 148.0078,271.1719 Q148.2656,270.9375 148.8906,270.9375 L156.5156,270.9375 L156.5156,273.5313 Q156.5156,274.1406 156.2891,274.3984 Q156.0625,274.6563 155.6719,274.6563 Q155.2969,274.6563 155.0625,274.3984 Q154.8281,274.1406 154.8281,273.5313 L154.8281,272.6406 L150.8594,272.6406 L150.8594,275.0938 L152.3438,275.0938 Q152.3438,274.4375 152.4688,274.25 Q152.7344,273.8438 153.2031,273.8438 Q153.5781,273.8438 153.8125,274.1016 Q154.0469,274.3594 154.0469,274.9688 L154.0469,276.9375 Q154.0469,277.4844 153.9219,277.6719 Q153.6563,278.0625 153.2031,278.0625 Q152.7344,278.0625 152.4688,277.6563 Q152.3438,277.4688 152.3438,276.7969 L150.8594,276.7969 Z "/>
        <text fill="#000000" font-family="sans-serif" font-size="12" lengthAdjust="spacingAndGlyphs" textLength="52" x="166" y="280.9102">ChatType</text>
        <line style="stroke: #A80036; stroke-width: 1.5;" x1="138" x2="220" y1="292" y2="292"/>
        <line style="stroke: #A80036; stroke-width: 1.5;" x1="138" x2="220" y1="300" y2="300"/>
        <rect fill="#FEFECE" filter="url(#f1)" height="48" style="stroke: #A80036; stroke-width: 1.5;" width="133" x="549.5" y="152"/>
        <ellipse cx="564.5" cy="168" fill="#ADD1B2" rx="11" ry="11" style="stroke: #A80036; stroke-width: 1.0;"/>
        <path d="M567.2656,163.875 Q567.4219,163.6563 567.6094,163.5469 Q567.7969,163.4375 568.0156,163.4375 Q568.3906,163.4375 568.625,163.6953 Q568.8594,163.9531 568.8594,164.5625 L568.8594,166.0156 Q568.8594,166.625 568.625,166.8906 Q568.3906,167.1563 568.0156,167.1563 Q567.6719,167.1563 567.4688,166.9531 Q567.2656,166.7656 567.1563,166.25 Q567.1094,165.8906 566.9219,165.7031 Q566.5938,165.3281 565.9844,165.1094 Q565.375,164.8906 564.75,164.8906 Q563.9844,164.8906 563.3516,165.2188 Q562.7188,165.5469 562.2266,166.2969 Q561.7344,167.0469 561.7344,168.0781 L561.7344,169.1719 Q561.7344,170.4063 562.625,171.2266 Q563.5156,172.0469 565.1094,172.0469 Q566.0469,172.0469 566.7031,171.7969 Q567.0938,171.6406 567.5156,171.2031 Q567.7813,170.9375 567.9297,170.8594 Q568.0781,170.7813 568.2813,170.7813 Q568.6094,170.7813 568.8672,171.0391 Q569.125,171.2969 569.125,171.6406 Q569.125,171.9844 568.7813,172.3906 Q568.2813,172.9688 567.4844,173.2969 Q566.4063,173.75 565.1094,173.75 Q563.5938,173.75 562.3906,173.125 Q561.4063,172.625 560.7188,171.5547 Q560.0313,170.4844 560.0313,169.2031 L560.0313,168.0469 Q560.0313,166.7188 560.6484,165.5703 Q561.2656,164.4219 562.3594,163.8047 Q563.4531,163.1875 564.6875,163.1875 Q565.4219,163.1875 566.0703,163.3516 Q566.7188,163.5156 567.2656,163.875 Z "/>
        <text fill="#000000" font-family="sans-serif" font-size="12" lengthAdjust="spacingAndGlyphs" textLength="101" x="578.5" y="172.9102">UserListController</text>
        <line style="stroke: #A80036; stroke-width: 1.5;" x1="550.5" x2="681.5" y1="184" y2="184"/>
        <line style="stroke: #A80036; stroke-width: 1.5;" x1="550.5" x2="681.5" y1="192" y2="192"/>
        <rect fill="#FEFECE" filter="url(#f1)" height="48" style="stroke: #A80036; stroke-width: 1.5;" width="140" x="374" y="152"/>
        <ellipse cx="389" cy="168" fill="#ADD1B2" rx="11" ry="11" style="stroke: #A80036; stroke-width: 1.0;"/>
        <path d="M391.7656,163.875 Q391.9219,163.6563 392.1094,163.5469 Q392.2969,163.4375 392.5156,163.4375 Q392.8906,163.4375 393.125,163.6953 Q393.3594,163.9531 393.3594,164.5625 L393.3594,166.0156 Q393.3594,166.625 393.125,166.8906 Q392.8906,167.1563 392.5156,167.1563 Q392.1719,167.1563 391.9688,166.9531 Q391.7656,166.7656 391.6563,166.25 Q391.6094,165.8906 391.4219,165.7031 Q391.0938,165.3281 390.4844,165.1094 Q389.875,164.8906 389.25,164.8906 Q388.4844,164.8906 387.8516,165.2188 Q387.2188,165.5469 386.7266,166.2969 Q386.2344,167.0469 386.2344,168.0781 L386.2344,169.1719 Q386.2344,170.4063 387.125,171.2266 Q388.0156,172.0469 389.6094,172.0469 Q390.5469,172.0469 391.2031,171.7969 Q391.5938,171.6406 392.0156,171.2031 Q392.2813,170.9375 392.4297,170.8594 Q392.5781,170.7813 392.7813,170.7813 Q393.1094,170.7813 393.3672,171.0391 Q393.625,171.2969 393.625,171.6406 Q393.625,171.9844 393.2813,172.3906 Q392.7813,172.9688 391.9844,173.2969 Q390.9063,173.75 389.6094,173.75 Q388.0938,173.75 386.8906,173.125 Q385.9063,172.625 385.2188,171.5547 Q384.5313,170.4844 384.5313,169.2031 L384.5313,168.0469 Q384.5313,166.7188 385.1484,165.5703 Q385.7656,164.4219 386.8594,163.8047 Q387.9531,163.1875 389.1875,163.1875 Q389.9219,163.1875 390.5703,163.3516 Q391.2188,163.5156 391.7656,163.875 Z "/>
        <text fill="#000000" font-family="sans-serif" font-size="12" lengthAdjust="spacingAndGlyphs" textLength="108" x="403" y="172.9102">ServerConfigParam</text>
        <line style="stroke: #A80036; stroke-width: 1.5;" x1="375" x2="513" y1="184" y2="184"/>
        <line style="stroke: #A80036; stroke-width: 1.5;" x1="375" x2="513" y1="192" y2="192"/>
        <rect fill="#FEFECE" filter="url(#f1)" height="48" style="stroke: #A80036; stroke-width: 1.5;" width="83" x="775.5" y="368"/>
        <ellipse cx="790.5" cy="384" fill="#ADD1B2" rx="11" ry="11" style="stroke: #A80036; stroke-width: 1.0;"/>
        <path d="M793.2656,379.875 Q793.4219,379.6563 793.6094,379.5469 Q793.7969,379.4375 794.0156,379.4375 Q794.3906,379.4375 794.625,379.6953 Q794.8594,379.9531 794.8594,380.5625 L794.8594,382.0156 Q794.8594,382.625 794.625,382.8906 Q794.3906,383.1563 794.0156,383.1563 Q793.6719,383.1563 793.4688,382.9531 Q793.2656,382.7656 793.1563,382.25 Q793.1094,381.8906 792.9219,381.7031 Q792.5938,381.3281 791.9844,381.1094 Q791.375,380.8906 790.75,380.8906 Q789.9844,380.8906 789.3516,381.2188 Q788.7188,381.5469 788.2266,382.2969 Q787.7344,383.0469 787.7344,384.0781 L787.7344,385.1719 Q787.7344,386.4063 788.625,387.2266 Q789.5156,388.0469 791.1094,388.0469 Q792.0469,388.0469 792.7031,387.7969 Q793.0938,387.6406 793.5156,387.2031 Q793.7813,386.9375 793.9297,386.8594 Q794.0781,386.7813 794.2813,386.7813 Q794.6094,386.7813 794.8672,387.0391 Q795.125,387.2969 795.125,387.6406 Q795.125,387.9844 794.7813,388.3906 Q794.2813,388.9688 793.4844,389.2969 Q792.4063,389.75 791.1094,389.75 Q789.5938,389.75 788.3906,389.125 Q787.4063,388.625 786.7188,387.5547 Q786.0313,386.4844 786.0313,385.2031 L786.0313,384.0469 Q786.0313,382.7188 786.6484,381.5703 Q787.2656,380.4219 788.3594,379.8047 Q789.4531,379.1875 790.6875,379.1875 Q791.4219,379.1875 792.0703,379.3516 Q792.7188,379.5156 793.2656,379.875 Z "/>
        <text fill="#000000" font-family="sans-serif" font-size="12" lengthAdjust="spacingAndGlyphs" textLength="51" x="804.5" y="388.9102">Counters</text>
        <line style="stroke: #A80036; stroke-width: 1.5;" x1="776.5" x2="857.5" y1="400" y2="400"/>
        <line style="stroke: #A80036; stroke-width: 1.5;" x1="776.5" x2="857.5" y1="408" y2="408"/>
        <rect fill="#FEFECE" filter="url(#f1)" height="48" style="stroke: #A80036; stroke-width: 1.5;" width="116" x="705" y="260"/>
        <ellipse cx="720" cy="276" fill="#ADD1B2" rx="11" ry="11" style="stroke: #A80036; stroke-width: 1.0;"/>
        <path d="M722.7656,271.875 Q722.9219,271.6563 723.1094,271.5469 Q723.2969,271.4375 723.5156,271.4375 Q723.8906,271.4375 724.125,271.6953 Q724.3594,271.9531 724.3594,272.5625 L724.3594,274.0156 Q724.3594,274.625 724.125,274.8906 Q723.8906,275.1563 723.5156,275.1563 Q723.1719,275.1563 722.9688,274.9531 Q722.7656,274.7656 722.6563,274.25 Q722.6094,273.8906 722.4219,273.7031 Q722.0938,273.3281 721.4844,273.1094 Q720.875,272.8906 720.25,272.8906 Q719.4844,272.8906 718.8516,273.2188 Q718.2188,273.5469 717.7266,274.2969 Q717.2344,275.0469 717.2344,276.0781 L717.2344,277.1719 Q717.2344,278.4063 718.125,279.2266 Q719.0156,280.0469 720.6094,280.0469 Q721.5469,280.0469 722.2031,279.7969 Q722.5938,279.6406 723.0156,279.2031 Q723.2813,278.9375 723.4297,278.8594 Q723.5781,278.7813 723.7813,278.7813 Q724.1094,278.7813 724.3672,279.0391 Q724.625,279.2969 724.625,279.6406 Q724.625,279.9844 724.2813,280.3906 Q723.7813,280.9688 722.9844,281.2969 Q721.9063,281.75 720.6094,281.75 Q719.0938,281.75 717.8906,281.125 Q716.9063,280.625 716.2188,279.5547 Q715.5313,278.4844 715.5313,277.2031 L715.5313,276.0469 Q715.5313,274.7188 716.1484,273.5703 Q716.7656,272.4219 717.8594,271.8047 Q718.9531,271.1875 720.1875,271.1875 Q720.9219,271.1875 721.5703,271.3516 Q722.2188,271.5156 722.7656,271.875 Z "/>
        <text fill="#000000" font-family="sans-serif" font-size="12" lengthAdjust="spacingAndGlyphs" textLength="84" x="734" y="280.9102">UserListPacket</text>
        <line style="stroke: #A80036; stroke-width: 1.5;" x1="706" x2="820" y1="292" y2="292"/>
        <line style="stroke: #A80036; stroke-width: 1.5;" x1="706" x2="820" y1="300" y2="300"/>
        <path d="M226.476,92.175 C216.857,101.852 205.726,113.311 196,124 C155.078,168.975 109.996,223.599 83.9439,255.705 " fill="none" style="stroke: #A80036; stroke-width: 1.0; stroke-dasharray: 7.0,7.0;"/>
        <polygon fill="#A80036" points="80.552,259.89,89.3265,255.4169,83.7004,256.0057,83.1116,250.3796,80.552,259.89" style="stroke: #A80036; stroke-width: 1.0;"/>
        <path d="M256.535,92.309 C267.626,131.866 290.092,211.994 302.066,254.702 " fill="none" style="stroke: #A80036; stroke-width: 1.0; stroke-dasharray: 7.0,7.0;"/>
        <polygon fill="#A80036" points="303.473,259.72,304.8944,249.9743,302.123,254.9057,297.1916,252.1343,303.473,259.72" style="stroke: #A80036; stroke-width: 1.0;"/>
        <path d="M289.116,92.137 C295.588,95.204 302.358,97.98 309,100 C404.793,129.135 438.24,91.663 533,124 C549.972,129.792 567.123,139.535 581.394,148.962 " fill="none" style="stroke: #A80036; stroke-width: 1.0; stroke-dasharray: 7.0,7.0;"/>
        <polygon fill="#A80036" points="585.727,151.873,580.4844,143.5354,581.5758,149.086,576.0252,150.1774,585.727,151.873" style="stroke: #A80036; stroke-width: 1.0;"/>
        <path d="M291.618,91.74 C322.604,108.67 364.929,131.796 397.11,149.38 " fill="none" style="stroke: #A80036; stroke-width: 1.0; stroke-dasharray: 7.0,7.0;"/>
        <polygon fill="#A80036" points="401.782,151.932,395.8021,144.1064,397.3943,149.5345,391.9661,151.1267,401.782,151.932" style="stroke: #A80036; stroke-width: 1.0;"/>
        <path d="M242.267,92.309 C229.116,131.946 202.45,212.32 188.302,254.962 " fill="none" style="stroke: #A80036; stroke-width: 1.0; stroke-dasharray: 7.0,7.0;"/>
        <polygon fill="#A80036" points="186.724,259.72,193.3543,252.4372,188.2983,254.9743,185.7611,249.9183,186.724,259.72" style="stroke: #A80036; stroke-width: 1.0;"/>
        <path d="M367.318,92.262 C359.96,101.582 352.215,112.765 347,124 C326.95,167.191 317.281,222.175 313.003,254.869 " fill="none" style="stroke: #A80036; stroke-width: 1.0; stroke-dasharray: 7.0,7.0;"/>
        <polygon fill="#A80036" points="312.361,259.92,317.4632,251.4957,312.991,254.9599,309.5269,250.4877,312.361,259.92" style="stroke: #A80036; stroke-width: 1.0;"/>
        <path d="M449.292,68.878 C530.309,70.59 676.303,80.233 792,124 C872.936,154.617 913.169,155.706 954,232 C971.616,264.916 973.033,283.883 954,316 C934.58,348.7712 895.217,368.1608 863.648,378.9866 " fill="none" style="stroke: #A80036; stroke-width: 1.0; stroke-dasharray: 7.0,7.0;"/>
        <polygon fill="#A80036" points="858.652,380.6513,868.4551,381.5995,863.3953,379.0699,865.9249,374.0102,858.652,380.6513" style="stroke: #A80036; stroke-width: 1.0;"/>
        <path d="M593,308 C593,319.588 593,334.0294 593,347.6013 " fill="none" style="stroke: #A80036; stroke-width: 1.0;"/>
        <polygon fill="none" points="600,347.6785,593,367.6784,586,347.6784,600,347.6785" style="stroke: #A80036; stroke-width: 1.0;"/>
        <path d="M641.605,308 C679.935,326.139 733.036,351.2671 770.745,369.1115 " fill="none" style="stroke: #A80036; stroke-width: 1.0; stroke-dasharray: 7.0,7.0;"/>
        <polygon fill="#A80036" points="775.265,371.2506,768.8407,363.7854,770.7455,369.112,765.4189,371.0167,775.265,371.2506" style="stroke: #A80036; stroke-width: 1.0;"/>
        <path d="M558.884,200.033 C550.298,202.998 541.48,205.771 533,208 C466.854,225.386 444.263,206.013 381,232 C366.369,238.01 351.884,247.579 339.85,256.813 " fill="none" style="stroke: #A80036; stroke-width: 1.0; stroke-dasharray: 7.0,7.0;"/>
        <polygon fill="#A80036" points="335.867,259.926,345.4212,257.5349,339.8064,256.8468,340.4945,251.232,335.867,259.926" style="stroke: #A80036; stroke-width: 1.0;"/>
        <path d="M647.897,200 C671.125,216.75 702.62,239.461 726.793,256.892 " fill="none" style="stroke: #A80036; stroke-width: 1.0; stroke-dasharray: 7.0,7.0;"/>
        <polygon fill="#A80036" points="730.912,259.862,725.9512,251.3538,726.8563,256.9377,721.2723,257.8429,730.912,259.862" style="stroke: #A80036; stroke-width: 1.0;"/>
    </g>
</svg>
