<?xml version="1.0" encoding="UTF-8"?><svg xmlns="http://www.w3.org/2000/svg" xmlns:xlink="http://www.w3.org/1999/xlink" height="358pt" style="width:2440px;height:358px;" version="1.1" viewBox="0 0 2440 358" width="2440pt">
    <defs>
        <filter height="300%" id="f1" width="300%" x="-1" y="-1">
            <feGaussianBlur result="blurOut" stdDeviation="2.0"/>
            <feColorMatrix in="blurOut" result="blurOut2" type="matrix" values="0 0 0 0 0 0 0 0 0 0 0 0 0 0 0 0 0 0 .4 0"/>
            <feOffset dx="4.0" dy="4.0" in="blurOut2" result="blurOut3"/>
            <feBlend in="SourceGraphic" in2="blurOut3" mode="normal"/>
        </filter>
    </defs>
    <g>
        <polygon fill="#FFFFFF" filter="url(#f1)" points="1113,51,1294,51,1301,74.6094,1510,74.6094,1510,135,1113,135,1113,51" style="stroke: #000000; stroke-width: 2.0;"/>
        <line style="stroke: #000000; stroke-width: 2.0;" x1="1113" x2="1301" y1="74.6094" y2="74.6094"/>
        <text fill="#000000" font-family="sans-serif" font-size="14" font-weight="bold" lengthAdjust="spacingAndGlyphs" textLength="175" x="1116" y="68.5332">de.mash1t.chat.client.gui</text>
        <polygon fill="#FFFFFF" filter="url(#f1)" points="14,159,229,159,236,182.6094,677,182.6094,677,351,14,351,14,159" style="stroke: #000000; stroke-width: 2.0;"/>
        <line style="stroke: #000000; stroke-width: 2.0;" x1="14" x2="236" y1="182.6094" y2="182.6094"/>
        <text fill="#000000" font-family="sans-serif" font-size="14" font-weight="bold" lengthAdjust="spacingAndGlyphs" textLength="209" x="17" y="176.5332">de.mash1t.chat.client.gui.tabs</text>
        <polygon fill="#FFFFFF" filter="url(#f1)" points="852,51,1090,51,1097,74.6094,1100,74.6094,1100,135,852,135,852,51" style="stroke: #000000; stroke-width: 2.0;"/>
        <line style="stroke: #000000; stroke-width: 2.0;" x1="852" x2="1097" y1="74.6094" y2="74.6094"/>
        <text fill="#000000" font-family="sans-serif" font-size="14" font-weight="bold" lengthAdjust="spacingAndGlyphs" textLength="232" x="855" y="68.5332">de.mash1t.chat.client.gui.userlist</text>
        <polygon fill="#FFFFFF" filter="url(#f1)" points="2263,159,2423,159,2430,182.6094,2433,182.6094,2433,243,2263,243,2263,159" style="stroke: #000000; stroke-width: 2.0;"/>
        <line style="stroke: #000000; stroke-width: 2.0;" x1="2263" x2="2430" y1="182.6094" y2="182.6094"/>
        <text fill="#000000" font-family="sans-serif" font-size="14" font-weight="bold" lengthAdjust="spacingAndGlyphs" textLength="154" x="2266" y="176.5332">de.mash1t.chat.config</text>
        <polygon fill="#FFFFFF" filter="url(#f1)" points="1431,267,1600,267,1607,290.6094,1610,290.6094,1610,351,1431,351,1431,267" style="stroke: #000000; stroke-width: 2.0;"/>
        <line style="stroke: #000000; stroke-width: 2.0;" x1="1431" x2="1607" y1="290.6094" y2="290.6094"/>
        <text fill="#000000" font-family="sans-serif" font-size="14" font-weight="bold" lengthAdjust="spacingAndGlyphs" textLength="163" x="1434" y="284.5332">de.mash1t.chat.logging</text>
        <polygon fill="#FFFFFF" filter="url(#f1)" points="695,159,915,159,922,182.6094,2183,182.6094,2183,243,695,243,695,159" style="stroke: #000000; stroke-width: 2.0;"/>
        <line style="stroke: #000000; stroke-width: 2.0;" x1="695" x2="922" y1="182.6094" y2="182.6094"/>
        <text fill="#000000" font-family="sans-serif" font-size="14" font-weight="bold" lengthAdjust="spacingAndGlyphs" textLength="214" x="698" y="176.5332">de.mash1t.networking.packets</text>
        <rect fill="#FEFECE" filter="url(#f1)" height="48" style="stroke: #A80036; stroke-width: 1.5;" width="83" x="1261.5" y="79"/>
        <ellipse cx="1276.5" cy="95" fill="#ADD1B2" rx="11" ry="11" style="stroke: #A80036; stroke-width: 1.0;"/>
        <path d="M1279.2656,90.875 Q1279.4219,90.6563 1279.6094,90.5469 Q1279.7969,90.4375 1280.0156,90.4375 Q1280.3906,90.4375 1280.625,90.6953 Q1280.8594,90.9531 1280.8594,91.5625 L1280.8594,93.0156 Q1280.8594,93.625 1280.625,93.8906 Q1280.3906,94.1563 1280.0156,94.1563 Q1279.6719,94.1563 1279.4688,93.9531 Q1279.2656,93.7656 1279.1563,93.25 Q1279.1094,92.8906 1278.9219,92.7031 Q1278.5938,92.3281 1277.9844,92.1094 Q1277.375,91.8906 1276.75,91.8906 Q1275.9844,91.8906 1275.3516,92.2188 Q1274.7188,92.5469 1274.2266,93.2969 Q1273.7344,94.0469 1273.7344,95.0781 L1273.7344,96.1719 Q1273.7344,97.4063 1274.625,98.2266 Q1275.5156,99.0469 1277.1094,99.0469 Q1278.0469,99.0469 1278.7031,98.7969 Q1279.0938,98.6406 1279.5156,98.2031 Q1279.7813,97.9375 1279.9297,97.8594 Q1280.0781,97.7813 1280.2813,97.7813 Q1280.6094,97.7813 1280.8672,98.0391 Q1281.125,98.2969 1281.125,98.6406 Q1281.125,98.9844 1280.7813,99.3906 Q1280.2813,99.9688 1279.4844,100.2969 Q1278.4063,100.75 1277.1094,100.75 Q1275.5938,100.75 1274.3906,100.125 Q1273.4063,99.625 1272.7188,98.5547 Q1272.0313,97.4844 1272.0313,96.2031 L1272.0313,95.0469 Q1272.0313,93.7188 1272.6484,92.5703 Q1273.2656,91.4219 1274.3594,90.8047 Q1275.4531,90.1875 1276.6875,90.1875 Q1277.4219,90.1875 1278.0703,90.3516 Q1278.7188,90.5156 1279.2656,90.875 Z "/>
        <text fill="#000000" font-family="sans-serif" font-size="12" lengthAdjust="spacingAndGlyphs" textLength="51" x="1290.5" y="99.9102">ClientGui</text>
        <line style="stroke: #A80036; stroke-width: 1.5;" x1="1262.5" x2="1343.5" y1="111" y2="111"/>
        <line style="stroke: #A80036; stroke-width: 1.5;" x1="1262.5" x2="1343.5" y1="119" y2="119"/>
        <rect fill="#FEFECE" filter="url(#f1)" height="48" style="stroke: #A80036; stroke-width: 1.5;" width="122" x="1380" y="79"/>
        <ellipse cx="1395" cy="95" fill="#ADD1B2" rx="11" ry="11" style="stroke: #A80036; stroke-width: 1.0;"/>
        <path d="M1397.7656,90.875 Q1397.9219,90.6563 1398.1094,90.5469 Q1398.2969,90.4375 1398.5156,90.4375 Q1398.8906,90.4375 1399.125,90.6953 Q1399.3594,90.9531 1399.3594,91.5625 L1399.3594,93.0156 Q1399.3594,93.625 1399.125,93.8906 Q1398.8906,94.1563 1398.5156,94.1563 Q1398.1719,94.1563 1397.9688,93.9531 Q1397.7656,93.7656 1397.6563,93.25 Q1397.6094,92.8906 1397.4219,92.7031 Q1397.0938,92.3281 1396.4844,92.1094 Q1395.875,91.8906 1395.25,91.8906 Q1394.4844,91.8906 1393.8516,92.2188 Q1393.2188,92.5469 1392.7266,93.2969 Q1392.2344,94.0469 1392.2344,95.0781 L1392.2344,96.1719 Q1392.2344,97.4063 1393.125,98.2266 Q1394.0156,99.0469 1395.6094,99.0469 Q1396.5469,99.0469 1397.2031,98.7969 Q1397.5938,98.6406 1398.0156,98.2031 Q1398.2813,97.9375 1398.4297,97.8594 Q1398.5781,97.7813 1398.7813,97.7813 Q1399.1094,97.7813 1399.3672,98.0391 Q1399.625,98.2969 1399.625,98.6406 Q1399.625,98.9844 1399.2813,99.3906 Q1398.7813,99.9688 1397.9844,100.2969 Q1396.9063,100.75 1395.6094,100.75 Q1394.0938,100.75 1392.8906,100.125 Q1391.9063,99.625 1391.2188,98.5547 Q1390.5313,97.4844 1390.5313,96.2031 L1390.5313,95.0469 Q1390.5313,93.7188 1391.1484,92.5703 Q1391.7656,91.4219 1392.8594,90.8047 Q1393.9531,90.1875 1395.1875,90.1875 Q1395.9219,90.1875 1396.5703,90.3516 Q1397.2188,90.5156 1397.7656,90.875 Z "/>
        <text fill="#000000" font-family="sans-serif" font-size="12" lengthAdjust="spacingAndGlyphs" textLength="90" x="1409" y="99.9102">ClientGuiThread</text>
        <line style="stroke: #A80036; stroke-width: 1.5;" x1="1381" x2="1501" y1="111" y2="111"/>
        <line style="stroke: #A80036; stroke-width: 1.5;" x1="1381" x2="1501" y1="119" y2="119"/>
        <rect fill="#FEFECE" filter="url(#f1)" height="48" style="stroke: #A80036; stroke-width: 1.5;" width="105" x="1121.5" y="79"/>
        <ellipse cx="1136.5" cy="95" fill="#ADD1B2" rx="11" ry="11" style="stroke: #A80036; stroke-width: 1.0;"/>
        <path d="M1139.2656,90.875 Q1139.4219,90.6563 1139.6094,90.5469 Q1139.7969,90.4375 1140.0156,90.4375 Q1140.3906,90.4375 1140.625,90.6953 Q1140.8594,90.9531 1140.8594,91.5625 L1140.8594,93.0156 Q1140.8594,93.625 1140.625,93.8906 Q1140.3906,94.1563 1140.0156,94.1563 Q1139.6719,94.1563 1139.4688,93.9531 Q1139.2656,93.7656 1139.1563,93.25 Q1139.1094,92.8906 1138.9219,92.7031 Q1138.5938,92.3281 1137.9844,92.1094 Q1137.375,91.8906 1136.75,91.8906 Q1135.9844,91.8906 1135.3516,92.2188 Q1134.7188,92.5469 1134.2266,93.2969 Q1133.7344,94.0469 1133.7344,95.0781 L1133.7344,96.1719 Q1133.7344,97.4063 1134.625,98.2266 Q1135.5156,99.0469 1137.1094,99.0469 Q1138.0469,99.0469 1138.7031,98.7969 Q1139.0938,98.6406 1139.5156,98.2031 Q1139.7813,97.9375 1139.9297,97.8594 Q1140.0781,97.7813 1140.2813,97.7813 Q1140.6094,97.7813 1140.8672,98.0391 Q1141.125,98.2969 1141.125,98.6406 Q1141.125,98.9844 1140.7813,99.3906 Q1140.2813,99.9688 1139.4844,100.2969 Q1138.4063,100.75 1137.1094,100.75 Q1135.5938,100.75 1134.3906,100.125 Q1133.4063,99.625 1132.7188,98.5547 Q1132.0313,97.4844 1132.0313,96.2031 L1132.0313,95.0469 Q1132.0313,93.7188 1132.6484,92.5703 Q1133.2656,91.4219 1134.3594,90.8047 Q1135.4531,90.1875 1136.6875,90.1875 Q1137.4219,90.1875 1138.0703,90.3516 Q1138.7188,90.5156 1139.2656,90.875 Z "/>
        <text fill="#000000" font-family="sans-serif" font-size="12" lengthAdjust="spacingAndGlyphs" textLength="73" x="1150.5" y="99.9102">DialogHelper</text>
        <line style="stroke: #A80036; stroke-width: 1.5;" x1="1122.5" x2="1225.5" y1="111" y2="111"/>
        <line style="stroke: #A80036; stroke-width: 1.5;" x1="1122.5" x2="1225.5" y1="119" y2="119"/>
        <rect fill="#FEFECE" filter="url(#f1)" height="48" style="stroke: #A80036; stroke-width: 1.5;" width="153" x="515.5" y="187"/>
        <ellipse cx="530.5" cy="203" fill="#ADD1B2" rx="11" ry="11" style="stroke: #A80036; stroke-width: 1.0;"/>
        <path d="M533.2656,198.875 Q533.4219,198.6563 533.6094,198.5469 Q533.7969,198.4375 534.0156,198.4375 Q534.3906,198.4375 534.625,198.6953 Q534.8594,198.9531 534.8594,199.5625 L534.8594,201.0156 Q534.8594,201.625 534.625,201.8906 Q534.3906,202.1563 534.0156,202.1563 Q533.6719,202.1563 533.4688,201.9531 Q533.2656,201.7656 533.1563,201.25 Q533.1094,200.8906 532.9219,200.7031 Q532.5938,200.3281 531.9844,200.1094 Q531.375,199.8906 530.75,199.8906 Q529.9844,199.8906 529.3516,200.2188 Q528.7188,200.5469 528.2266,201.2969 Q527.7344,202.0469 527.7344,203.0781 L527.7344,204.1719 Q527.7344,205.4063 528.625,206.2266 Q529.5156,207.0469 531.1094,207.0469 Q532.0469,207.0469 532.7031,206.7969 Q533.0938,206.6406 533.5156,206.2031 Q533.7813,205.9375 533.9297,205.8594 Q534.0781,205.7813 534.2813,205.7813 Q534.6094,205.7813 534.8672,206.0391 Q535.125,206.2969 535.125,206.6406 Q535.125,206.9844 534.7813,207.3906 Q534.2813,207.9688 533.4844,208.2969 Q532.4063,208.75 531.1094,208.75 Q529.5938,208.75 528.3906,208.125 Q527.4063,207.625 526.7188,206.5547 Q526.0313,205.4844 526.0313,204.2031 L526.0313,203.0469 Q526.0313,201.7188 526.6484,200.5703 Q527.2656,199.4219 528.3594,198.8047 Q529.4531,198.1875 530.6875,198.1875 Q531.4219,198.1875 532.0703,198.3516 Q532.7188,198.5156 533.2656,198.875 Z "/>
        <text fill="#000000" font-family="sans-serif" font-size="12" lengthAdjust="spacingAndGlyphs" textLength="121" x="544.5" y="207.9102">ButtonTabComponent</text>
        <line style="stroke: #A80036; stroke-width: 1.5;" x1="516.5" x2="667.5" y1="219" y2="219"/>
        <line style="stroke: #A80036; stroke-width: 1.5;" x1="516.5" x2="667.5" y1="227" y2="227"/>
        <rect fill="#FEFECE" filter="url(#f1)" height="48" style="stroke: #A80036; stroke-width: 1.5;" width="83" x="397.5" y="187"/>
        <ellipse cx="412.5" cy="203" fill="#ADD1B2" rx="11" ry="11" style="stroke: #A80036; stroke-width: 1.0;"/>
        <path d="M415.2656,198.875 Q415.4219,198.6563 415.6094,198.5469 Q415.7969,198.4375 416.0156,198.4375 Q416.3906,198.4375 416.625,198.6953 Q416.8594,198.9531 416.8594,199.5625 L416.8594,201.0156 Q416.8594,201.625 416.625,201.8906 Q416.3906,202.1563 416.0156,202.1563 Q415.6719,202.1563 415.4688,201.9531 Q415.2656,201.7656 415.1563,201.25 Q415.1094,200.8906 414.9219,200.7031 Q414.5938,200.3281 413.9844,200.1094 Q413.375,199.8906 412.75,199.8906 Q411.9844,199.8906 411.3516,200.2188 Q410.7188,200.5469 410.2266,201.2969 Q409.7344,202.0469 409.7344,203.0781 L409.7344,204.1719 Q409.7344,205.4063 410.625,206.2266 Q411.5156,207.0469 413.1094,207.0469 Q414.0469,207.0469 414.7031,206.7969 Q415.0938,206.6406 415.5156,206.2031 Q415.7813,205.9375 415.9297,205.8594 Q416.0781,205.7813 416.2813,205.7813 Q416.6094,205.7813 416.8672,206.0391 Q417.125,206.2969 417.125,206.6406 Q417.125,206.9844 416.7813,207.3906 Q416.2813,207.9688 415.4844,208.2969 Q414.4063,208.75 413.1094,208.75 Q411.5938,208.75 410.3906,208.125 Q409.4063,207.625 408.7188,206.5547 Q408.0313,205.4844 408.0313,204.2031 L408.0313,203.0469 Q408.0313,201.7188 408.6484,200.5703 Q409.2656,199.4219 410.3594,198.8047 Q411.4531,198.1875 412.6875,198.1875 Q413.4219,198.1875 414.0703,198.3516 Q414.7188,198.5156 415.2656,198.875 Z "/>
        <text fill="#000000" font-family="sans-serif" font-size="12" lengthAdjust="spacingAndGlyphs" textLength="51" x="426.5" y="207.9102">ChatArea</text>
        <line style="stroke: #A80036; stroke-width: 1.5;" x1="398.5" x2="479.5" y1="219" y2="219"/>
        <line style="stroke: #A80036; stroke-width: 1.5;" x1="398.5" x2="479.5" y1="227" y2="227"/>
        <rect fill="#FEFECE" filter="url(#f1)" height="48" style="stroke: #A80036; stroke-width: 1.5;" width="79" x="283.5" y="187"/>
        <ellipse cx="298.5" cy="203" fill="#ADD1B2" rx="11" ry="11" style="stroke: #A80036; stroke-width: 1.0;"/>
        <path d="M301.2656,198.875 Q301.4219,198.6563 301.6094,198.5469 Q301.7969,198.4375 302.0156,198.4375 Q302.3906,198.4375 302.625,198.6953 Q302.8594,198.9531 302.8594,199.5625 L302.8594,201.0156 Q302.8594,201.625 302.625,201.8906 Q302.3906,202.1563 302.0156,202.1563 Q301.6719,202.1563 301.4688,201.9531 Q301.2656,201.7656 301.1563,201.25 Q301.1094,200.8906 300.9219,200.7031 Q300.5938,200.3281 299.9844,200.1094 Q299.375,199.8906 298.75,199.8906 Q297.9844,199.8906 297.3516,200.2188 Q296.7188,200.5469 296.2266,201.2969 Q295.7344,202.0469 295.7344,203.0781 L295.7344,204.1719 Q295.7344,205.4063 296.625,206.2266 Q297.5156,207.0469 299.1094,207.0469 Q300.0469,207.0469 300.7031,206.7969 Q301.0938,206.6406 301.5156,206.2031 Q301.7813,205.9375 301.9297,205.8594 Q302.0781,205.7813 302.2813,205.7813 Q302.6094,205.7813 302.8672,206.0391 Q303.125,206.2969 303.125,206.6406 Q303.125,206.9844 302.7813,207.3906 Q302.2813,207.9688 301.4844,208.2969 Q300.4063,208.75 299.1094,208.75 Q297.5938,208.75 296.3906,208.125 Q295.4063,207.625 294.7188,206.5547 Q294.0313,205.4844 294.0313,204.2031 L294.0313,203.0469 Q294.0313,201.7188 294.6484,200.5703 Q295.2656,199.4219 296.3594,198.8047 Q297.4531,198.1875 298.6875,198.1875 Q299.4219,198.1875 300.0703,198.3516 Q300.7188,198.5156 301.2656,198.875 Z "/>
        <text fill="#000000" font-family="sans-serif" font-size="12" lengthAdjust="spacingAndGlyphs" textLength="47" x="312.5" y="207.9102">ChatTab</text>
        <line style="stroke: #A80036; stroke-width: 1.5;" x1="284.5" x2="361.5" y1="219" y2="219"/>
        <line style="stroke: #A80036; stroke-width: 1.5;" x1="284.5" x2="361.5" y1="227" y2="227"/>
        <rect fill="#FEFECE" filter="url(#f1)" height="48" style="stroke: #A80036; stroke-width: 1.5;" width="70" x="557" y="295"/>
        <ellipse cx="572" cy="311" fill="#ADD1B2" rx="11" ry="11" style="stroke: #A80036; stroke-width: 1.0;"/>
        <path d="M574.7656,306.875 Q574.9219,306.6563 575.1094,306.5469 Q575.2969,306.4375 575.5156,306.4375 Q575.8906,306.4375 576.125,306.6953 Q576.3594,306.9531 576.3594,307.5625 L576.3594,309.0156 Q576.3594,309.625 576.125,309.8906 Q575.8906,310.1563 575.5156,310.1563 Q575.1719,310.1563 574.9688,309.9531 Q574.7656,309.7656 574.6563,309.25 Q574.6094,308.8906 574.4219,308.7031 Q574.0938,308.3281 573.4844,308.1094 Q572.875,307.8906 572.25,307.8906 Q571.4844,307.8906 570.8516,308.2188 Q570.2188,308.5469 569.7266,309.2969 Q569.2344,310.0469 569.2344,311.0781 L569.2344,312.1719 Q569.2344,313.4063 570.125,314.2266 Q571.0156,315.0469 572.6094,315.0469 Q573.5469,315.0469 574.2031,314.7969 Q574.5938,314.6406 575.0156,314.2031 Q575.2813,313.9375 575.4297,313.8594 Q575.5781,313.7813 575.7813,313.7813 Q576.1094,313.7813 576.3672,314.0391 Q576.625,314.2969 576.625,314.6406 Q576.625,314.9844 576.2813,315.3906 Q575.7813,315.9688 574.9844,316.2969 Q573.9063,316.75 572.6094,316.75 Q571.0938,316.75 569.8906,316.125 Q568.9063,315.625 568.2188,314.5547 Q567.5313,313.4844 567.5313,312.2031 L567.5313,311.0469 Q567.5313,309.7188 568.1484,308.5703 Q568.7656,307.4219 569.8594,306.8047 Q570.9531,306.1875 572.1875,306.1875 Q572.9219,306.1875 573.5703,306.3516 Q574.2188,306.5156 574.7656,306.875 Z "/>
        <text fill="#000000" font-family="sans-serif" font-size="12" lengthAdjust="spacingAndGlyphs" textLength="38" x="586" y="315.9102">JPanel</text>
        <line style="stroke: #A80036; stroke-width: 1.5;" x1="558" x2="626" y1="327" y2="327"/>
        <line style="stroke: #A80036; stroke-width: 1.5;" x1="558" x2="626" y1="335" y2="335"/>
        <rect fill="#FEFECE" filter="url(#f1)" height="48" style="stroke: #A80036; stroke-width: 1.5;" width="107" x="141.5" y="187"/>
        <ellipse cx="156.5" cy="203" fill="#ADD1B2" rx="11" ry="11" style="stroke: #A80036; stroke-width: 1.0;"/>
        <path d="M159.2656,198.875 Q159.4219,198.6563 159.6094,198.5469 Q159.7969,198.4375 160.0156,198.4375 Q160.3906,198.4375 160.625,198.6953 Q160.8594,198.9531 160.8594,199.5625 L160.8594,201.0156 Q160.8594,201.625 160.625,201.8906 Q160.3906,202.1563 160.0156,202.1563 Q159.6719,202.1563 159.4688,201.9531 Q159.2656,201.7656 159.1563,201.25 Q159.1094,200.8906 158.9219,200.7031 Q158.5938,200.3281 157.9844,200.1094 Q157.375,199.8906 156.75,199.8906 Q155.9844,199.8906 155.3516,200.2188 Q154.7188,200.5469 154.2266,201.2969 Q153.7344,202.0469 153.7344,203.0781 L153.7344,204.1719 Q153.7344,205.4063 154.625,206.2266 Q155.5156,207.0469 157.1094,207.0469 Q158.0469,207.0469 158.7031,206.7969 Q159.0938,206.6406 159.5156,206.2031 Q159.7813,205.9375 159.9297,205.8594 Q160.0781,205.7813 160.2813,205.7813 Q160.6094,205.7813 160.8672,206.0391 Q161.125,206.2969 161.125,206.6406 Q161.125,206.9844 160.7813,207.3906 Q160.2813,207.9688 159.4844,208.2969 Q158.4063,208.75 157.1094,208.75 Q155.5938,208.75 154.3906,208.125 Q153.4063,207.625 152.7188,206.5547 Q152.0313,205.4844 152.0313,204.2031 L152.0313,203.0469 Q152.0313,201.7188 152.6484,200.5703 Q153.2656,199.4219 154.3594,198.8047 Q155.4531,198.1875 156.6875,198.1875 Q157.4219,198.1875 158.0703,198.3516 Q158.7188,198.5156 159.2656,198.875 Z "/>
        <text fill="#000000" font-family="sans-serif" font-size="12" lengthAdjust="spacingAndGlyphs" textLength="75" x="170.5" y="207.9102">TabController</text>
        <line style="stroke: #A80036; stroke-width: 1.5;" x1="142.5" x2="247.5" y1="219" y2="219"/>
        <line style="stroke: #A80036; stroke-width: 1.5;" x1="142.5" x2="247.5" y1="227" y2="227"/>
        <rect fill="#FEFECE" filter="url(#f1)" height="48" style="stroke: #A80036; stroke-width: 1.5;" width="84" x="22" y="187"/>
        <ellipse cx="37" cy="203" fill="#EB937F" rx="11" ry="11" style="stroke: #A80036; stroke-width: 1.0;"/>
        <path d="M35.8594,203.7969 L35.8594,206.2969 L40.1875,206.2969 L40.1875,205.375 Q40.1875,204.7656 40.4297,204.5 Q40.6719,204.2344 41.0469,204.2344 Q41.4219,204.2344 41.6563,204.5 Q41.8906,204.7656 41.8906,205.375 L41.8906,208 L33.8906,208 Q33.2656,208 33.0078,207.7656 Q32.75,207.5313 32.75,207.1406 Q32.75,206.7656 33.0156,206.5313 Q33.2813,206.2969 33.8906,206.2969 L34.1563,206.2969 L34.1563,199.6406 L33.8906,199.6406 Q33.2656,199.6406 33.0078,199.4063 Q32.75,199.1719 32.75,198.7813 Q32.75,198.4063 33.0078,198.1719 Q33.2656,197.9375 33.8906,197.9375 L41.5156,197.9375 L41.5156,200.5313 Q41.5156,201.1406 41.2891,201.3984 Q41.0625,201.6563 40.6719,201.6563 Q40.2969,201.6563 40.0625,201.3984 Q39.8281,201.1406 39.8281,200.5313 L39.8281,199.6406 L35.8594,199.6406 L35.8594,202.0938 L37.3438,202.0938 Q37.3438,201.4375 37.4688,201.25 Q37.7344,200.8438 38.2031,200.8438 Q38.5781,200.8438 38.8125,201.1016 Q39.0469,201.3594 39.0469,201.9688 L39.0469,203.9375 Q39.0469,204.4844 38.9219,204.6719 Q38.6563,205.0625 38.2031,205.0625 Q37.7344,205.0625 37.4688,204.6563 Q37.3438,204.4688 37.3438,203.7969 L35.8594,203.7969 Z "/>
        <text fill="#000000" font-family="sans-serif" font-size="12" lengthAdjust="spacingAndGlyphs" textLength="52" x="51" y="207.9102">ChatType</text>
        <line style="stroke: #A80036; stroke-width: 1.5;" x1="23" x2="105" y1="219" y2="219"/>
        <line style="stroke: #A80036; stroke-width: 1.5;" x1="23" x2="105" y1="227" y2="227"/>
        <rect fill="#FEFECE" filter="url(#f1)" height="48" style="stroke: #A80036; stroke-width: 1.5;" width="133" x="953.5" y="79"/>
        <ellipse cx="968.5" cy="95" fill="#ADD1B2" rx="11" ry="11" style="stroke: #A80036; stroke-width: 1.0;"/>
        <path d="M971.2656,90.875 Q971.4219,90.6563 971.6094,90.5469 Q971.7969,90.4375 972.0156,90.4375 Q972.3906,90.4375 972.625,90.6953 Q972.8594,90.9531 972.8594,91.5625 L972.8594,93.0156 Q972.8594,93.625 972.625,93.8906 Q972.3906,94.1563 972.0156,94.1563 Q971.6719,94.1563 971.4688,93.9531 Q971.2656,93.7656 971.1563,93.25 Q971.1094,92.8906 970.9219,92.7031 Q970.5938,92.3281 969.9844,92.1094 Q969.375,91.8906 968.75,91.8906 Q967.9844,91.8906 967.3516,92.2188 Q966.7188,92.5469 966.2266,93.2969 Q965.7344,94.0469 965.7344,95.0781 L965.7344,96.1719 Q965.7344,97.4063 966.625,98.2266 Q967.5156,99.0469 969.1094,99.0469 Q970.0469,99.0469 970.7031,98.7969 Q971.0938,98.6406 971.5156,98.2031 Q971.7813,97.9375 971.9297,97.8594 Q972.0781,97.7813 972.2813,97.7813 Q972.6094,97.7813 972.8672,98.0391 Q973.125,98.2969 973.125,98.6406 Q973.125,98.9844 972.7813,99.3906 Q972.2813,99.9688 971.4844,100.2969 Q970.4063,100.75 969.1094,100.75 Q967.5938,100.75 966.3906,100.125 Q965.4063,99.625 964.7188,98.5547 Q964.0313,97.4844 964.0313,96.2031 L964.0313,95.0469 Q964.0313,93.7188 964.6484,92.5703 Q965.2656,91.4219 966.3594,90.8047 Q967.4531,90.1875 968.6875,90.1875 Q969.4219,90.1875 970.0703,90.3516 Q970.7188,90.5156 971.2656,90.875 Z "/>
        <text fill="#000000" font-family="sans-serif" font-size="12" lengthAdjust="spacingAndGlyphs" textLength="101" x="982.5" y="99.9102">UserListController</text>
        <line style="stroke: #A80036; stroke-width: 1.5;" x1="954.5" x2="1085.5" y1="111" y2="111"/>
        <line style="stroke: #A80036; stroke-width: 1.5;" x1="954.5" x2="1085.5" y1="119" y2="119"/>
        <rect fill="#FEFECE" filter="url(#f1)" height="48" style="stroke: #A80036; stroke-width: 1.5;" width="105" x="2281.5" y="187"/>
        <ellipse cx="2296.5" cy="203" fill="#ADD1B2" rx="11" ry="11" style="stroke: #A80036; stroke-width: 1.0;"/>
        <path d="M2299.2656,198.875 Q2299.4219,198.6563 2299.6094,198.5469 Q2299.7969,198.4375 2300.0156,198.4375 Q2300.3906,198.4375 2300.625,198.6953 Q2300.8594,198.9531 2300.8594,199.5625 L2300.8594,201.0156 Q2300.8594,201.625 2300.625,201.8906 Q2300.3906,202.1563 2300.0156,202.1563 Q2299.6719,202.1563 2299.4688,201.9531 Q2299.2656,201.7656 2299.1563,201.25 Q2299.1094,200.8906 2298.9219,200.7031 Q2298.5938,200.3281 2297.9844,200.1094 Q2297.375,199.8906 2296.75,199.8906 Q2295.9844,199.8906 2295.3516,200.2188 Q2294.7188,200.5469 2294.2266,201.2969 Q2293.7344,202.0469 2293.7344,203.0781 L2293.7344,204.1719 Q2293.7344,205.4063 2294.625,206.2266 Q2295.5156,207.0469 2297.1094,207.0469 Q2298.0469,207.0469 2298.7031,206.7969 Q2299.0938,206.6406 2299.5156,206.2031 Q2299.7813,205.9375 2299.9297,205.8594 Q2300.0781,205.7813 2300.2813,205.7813 Q2300.6094,205.7813 2300.8672,206.0391 Q2301.125,206.2969 2301.125,206.6406 Q2301.125,206.9844 2300.7813,207.3906 Q2300.2813,207.9688 2299.4844,208.2969 Q2298.4063,208.75 2297.1094,208.75 Q2295.5938,208.75 2294.3906,208.125 Q2293.4063,207.625 2292.7188,206.5547 Q2292.0313,205.4844 2292.0313,204.2031 L2292.0313,203.0469 Q2292.0313,201.7188 2292.6484,200.5703 Q2293.2656,199.4219 2294.3594,198.8047 Q2295.4531,198.1875 2296.6875,198.1875 Q2297.4219,198.1875 2298.0703,198.3516 Q2298.7188,198.5156 2299.2656,198.875 Z "/>
        <text fill="#000000" font-family="sans-serif" font-size="12" lengthAdjust="spacingAndGlyphs" textLength="73" x="2310.5" y="207.9102">ConfigParam</text>
        <line style="stroke: #A80036; stroke-width: 1.5;" x1="2282.5" x2="2385.5" y1="219" y2="219"/>
        <line style="stroke: #A80036; stroke-width: 1.5;" x1="2282.5" x2="2385.5" y1="227" y2="227"/>
        <rect fill="#FEFECE" filter="url(#f1)" height="48" style="stroke: #A80036; stroke-width: 1.5;" width="83" x="1478.5" y="295"/>
        <ellipse cx="1493.5" cy="311" fill="#ADD1B2" rx="11" ry="11" style="stroke: #A80036; stroke-width: 1.0;"/>
        <path d="M1496.2656,306.875 Q1496.4219,306.6563 1496.6094,306.5469 Q1496.7969,306.4375 1497.0156,306.4375 Q1497.3906,306.4375 1497.625,306.6953 Q1497.8594,306.9531 1497.8594,307.5625 L1497.8594,309.0156 Q1497.8594,309.625 1497.625,309.8906 Q1497.3906,310.1563 1497.0156,310.1563 Q1496.6719,310.1563 1496.4688,309.9531 Q1496.2656,309.7656 1496.1563,309.25 Q1496.1094,308.8906 1495.9219,308.7031 Q1495.5938,308.3281 1494.9844,308.1094 Q1494.375,307.8906 1493.75,307.8906 Q1492.9844,307.8906 1492.3516,308.2188 Q1491.7188,308.5469 1491.2266,309.2969 Q1490.7344,310.0469 1490.7344,311.0781 L1490.7344,312.1719 Q1490.7344,313.4063 1491.625,314.2266 Q1492.5156,315.0469 1494.1094,315.0469 Q1495.0469,315.0469 1495.7031,314.7969 Q1496.0938,314.6406 1496.5156,314.2031 Q1496.7813,313.9375 1496.9297,313.8594 Q1497.0781,313.7813 1497.2813,313.7813 Q1497.6094,313.7813 1497.8672,314.0391 Q1498.125,314.2969 1498.125,314.6406 Q1498.125,314.9844 1497.7813,315.3906 Q1497.2813,315.9688 1496.4844,316.2969 Q1495.4063,316.75 1494.1094,316.75 Q1492.5938,316.75 1491.3906,316.125 Q1490.4063,315.625 1489.7188,314.5547 Q1489.0313,313.4844 1489.0313,312.2031 L1489.0313,311.0469 Q1489.0313,309.7188 1489.6484,308.5703 Q1490.2656,307.4219 1491.3594,306.8047 Q1492.4531,306.1875 1493.6875,306.1875 Q1494.4219,306.1875 1495.0703,306.3516 Q1495.7188,306.5156 1496.2656,306.875 Z "/>
        <text fill="#000000" font-family="sans-serif" font-size="12" lengthAdjust="spacingAndGlyphs" textLength="51" x="1507.5" y="315.9102">Counters</text>
        <line style="stroke: #A80036; stroke-width: 1.5;" x1="1479.5" x2="1560.5" y1="327" y2="327"/>
        <line style="stroke: #A80036; stroke-width: 1.5;" x1="1479.5" x2="1560.5" y1="335" y2="335"/>
        <rect fill="#FEFECE" filter="url(#f1)" height="48" style="stroke: #A80036; stroke-width: 1.5;" width="115" x="703.5" y="187"/>
        <ellipse cx="718.5" cy="203" fill="#ADD1B2" rx="11" ry="11" style="stroke: #A80036; stroke-width: 1.0;"/>
        <path d="M721.2656,198.875 Q721.4219,198.6563 721.6094,198.5469 Q721.7969,198.4375 722.0156,198.4375 Q722.3906,198.4375 722.625,198.6953 Q722.8594,198.9531 722.8594,199.5625 L722.8594,201.0156 Q722.8594,201.625 722.625,201.8906 Q722.3906,202.1563 722.0156,202.1563 Q721.6719,202.1563 721.4688,201.9531 Q721.2656,201.7656 721.1563,201.25 Q721.1094,200.8906 720.9219,200.7031 Q720.5938,200.3281 719.9844,200.1094 Q719.375,199.8906 718.75,199.8906 Q717.9844,199.8906 717.3516,200.2188 Q716.7188,200.5469 716.2266,201.2969 Q715.7344,202.0469 715.7344,203.0781 L715.7344,204.1719 Q715.7344,205.4063 716.625,206.2266 Q717.5156,207.0469 719.1094,207.0469 Q720.0469,207.0469 720.7031,206.7969 Q721.0938,206.6406 721.5156,206.2031 Q721.7813,205.9375 721.9297,205.8594 Q722.0781,205.7813 722.2813,205.7813 Q722.6094,205.7813 722.8672,206.0391 Q723.125,206.2969 723.125,206.6406 Q723.125,206.9844 722.7813,207.3906 Q722.2813,207.9688 721.4844,208.2969 Q720.4063,208.75 719.1094,208.75 Q717.5938,208.75 716.3906,208.125 Q715.4063,207.625 714.7188,206.5547 Q714.0313,205.4844 714.0313,204.2031 L714.0313,203.0469 Q714.0313,201.7188 714.6484,200.5703 Q715.2656,199.4219 716.3594,198.8047 Q717.4531,198.1875 718.6875,198.1875 Q719.4219,198.1875 720.0703,198.3516 Q720.7188,198.5156 721.2656,198.875 Z "/>
        <text fill="#000000" font-family="sans-serif" font-size="12" lengthAdjust="spacingAndGlyphs" textLength="83" x="732.5" y="207.9102">ConnectPacket</text>
        <line style="stroke: #A80036; stroke-width: 1.5;" x1="704.5" x2="817.5" y1="219" y2="219"/>
        <line style="stroke: #A80036; stroke-width: 1.5;" x1="704.5" x2="817.5" y1="227" y2="227"/>
        <rect fill="#FEFECE" filter="url(#f1)" height="48" style="stroke: #A80036; stroke-width: 1.5;" width="131" x="853.5" y="187"/>
        <ellipse cx="868.5" cy="203" fill="#ADD1B2" rx="11" ry="11" style="stroke: #A80036; stroke-width: 1.0;"/>
        <path d="M871.2656,198.875 Q871.4219,198.6563 871.6094,198.5469 Q871.7969,198.4375 872.0156,198.4375 Q872.3906,198.4375 872.625,198.6953 Q872.8594,198.9531 872.8594,199.5625 L872.8594,201.0156 Q872.8594,201.625 872.625,201.8906 Q872.3906,202.1563 872.0156,202.1563 Q871.6719,202.1563 871.4688,201.9531 Q871.2656,201.7656 871.1563,201.25 Q871.1094,200.8906 870.9219,200.7031 Q870.5938,200.3281 869.9844,200.1094 Q869.375,199.8906 868.75,199.8906 Q867.9844,199.8906 867.3516,200.2188 Q866.7188,200.5469 866.2266,201.2969 Q865.7344,202.0469 865.7344,203.0781 L865.7344,204.1719 Q865.7344,205.4063 866.625,206.2266 Q867.5156,207.0469 869.1094,207.0469 Q870.0469,207.0469 870.7031,206.7969 Q871.0938,206.6406 871.5156,206.2031 Q871.7813,205.9375 871.9297,205.8594 Q872.0781,205.7813 872.2813,205.7813 Q872.6094,205.7813 872.8672,206.0391 Q873.125,206.2969 873.125,206.6406 Q873.125,206.9844 872.7813,207.3906 Q872.2813,207.9688 871.4844,208.2969 Q870.4063,208.75 869.1094,208.75 Q867.5938,208.75 866.3906,208.125 Q865.4063,207.625 864.7188,206.5547 Q864.0313,205.4844 864.0313,204.2031 L864.0313,203.0469 Q864.0313,201.7188 864.6484,200.5703 Q865.2656,199.4219 866.3594,198.8047 Q867.4531,198.1875 868.6875,198.1875 Q869.4219,198.1875 870.0703,198.3516 Q870.7188,198.5156 871.2656,198.875 Z "/>
        <text fill="#000000" font-family="sans-serif" font-size="12" lengthAdjust="spacingAndGlyphs" textLength="99" x="882.5" y="207.9102">DisconnectPacket</text>
        <line style="stroke: #A80036; stroke-width: 1.5;" x1="854.5" x2="983.5" y1="219" y2="219"/>
        <line style="stroke: #A80036; stroke-width: 1.5;" x1="854.5" x2="983.5" y1="227" y2="227"/>
        <rect fill="#FEFECE" filter="url(#f1)" height="48" style="stroke: #A80036; stroke-width: 1.5;" width="154" x="1364" y="187"/>
        <ellipse cx="1379" cy="203" fill="#ADD1B2" rx="11" ry="11" style="stroke: #A80036; stroke-width: 1.0;"/>
        <path d="M1381.7656,198.875 Q1381.9219,198.6563 1382.1094,198.5469 Q1382.2969,198.4375 1382.5156,198.4375 Q1382.8906,198.4375 1383.125,198.6953 Q1383.3594,198.9531 1383.3594,199.5625 L1383.3594,201.0156 Q1383.3594,201.625 1383.125,201.8906 Q1382.8906,202.1563 1382.5156,202.1563 Q1382.1719,202.1563 1381.9688,201.9531 Q1381.7656,201.7656 1381.6563,201.25 Q1381.6094,200.8906 1381.4219,200.7031 Q1381.0938,200.3281 1380.4844,200.1094 Q1379.875,199.8906 1379.25,199.8906 Q1378.4844,199.8906 1377.8516,200.2188 Q1377.2188,200.5469 1376.7266,201.2969 Q1376.2344,202.0469 1376.2344,203.0781 L1376.2344,204.1719 Q1376.2344,205.4063 1377.125,206.2266 Q1378.0156,207.0469 1379.6094,207.0469 Q1380.5469,207.0469 1381.2031,206.7969 Q1381.5938,206.6406 1382.0156,206.2031 Q1382.2813,205.9375 1382.4297,205.8594 Q1382.5781,205.7813 1382.7813,205.7813 Q1383.1094,205.7813 1383.3672,206.0391 Q1383.625,206.2969 1383.625,206.6406 Q1383.625,206.9844 1383.2813,207.3906 Q1382.7813,207.9688 1381.9844,208.2969 Q1380.9063,208.75 1379.6094,208.75 Q1378.0938,208.75 1376.8906,208.125 Q1375.9063,207.625 1375.2188,206.5547 Q1374.5313,205.4844 1374.5313,204.2031 L1374.5313,203.0469 Q1374.5313,201.7188 1375.1484,200.5703 Q1375.7656,199.4219 1376.8594,198.8047 Q1377.9531,198.1875 1379.1875,198.1875 Q1379.9219,198.1875 1380.5703,198.3516 Q1381.2188,198.5156 1381.7656,198.875 Z "/>
        <text fill="#000000" font-family="sans-serif" font-size="12" lengthAdjust="spacingAndGlyphs" textLength="122" x="1393" y="207.9102">GroupMessagePacket</text>
        <line style="stroke: #A80036; stroke-width: 1.5;" x1="1365" x2="1517" y1="219" y2="219"/>
        <line style="stroke: #A80036; stroke-width: 1.5;" x1="1365" x2="1517" y1="227" y2="227"/>
        <rect fill="#FEFECE" filter="url(#f1)" height="48" style="stroke: #A80036; stroke-width: 1.5;" width="104" x="1785" y="187"/>
        <ellipse cx="1800" cy="203" fill="#ADD1B2" rx="11" ry="11" style="stroke: #A80036; stroke-width: 1.0;"/>
        <path d="M1802.7656,198.875 Q1802.9219,198.6563 1803.1094,198.5469 Q1803.2969,198.4375 1803.5156,198.4375 Q1803.8906,198.4375 1804.125,198.6953 Q1804.3594,198.9531 1804.3594,199.5625 L1804.3594,201.0156 Q1804.3594,201.625 1804.125,201.8906 Q1803.8906,202.1563 1803.5156,202.1563 Q1803.1719,202.1563 1802.9688,201.9531 Q1802.7656,201.7656 1802.6563,201.25 Q1802.6094,200.8906 1802.4219,200.7031 Q1802.0938,200.3281 1801.4844,200.1094 Q1800.875,199.8906 1800.25,199.8906 Q1799.4844,199.8906 1798.8516,200.2188 Q1798.2188,200.5469 1797.7266,201.2969 Q1797.2344,202.0469 1797.2344,203.0781 L1797.2344,204.1719 Q1797.2344,205.4063 1798.125,206.2266 Q1799.0156,207.0469 1800.6094,207.0469 Q1801.5469,207.0469 1802.2031,206.7969 Q1802.5938,206.6406 1803.0156,206.2031 Q1803.2813,205.9375 1803.4297,205.8594 Q1803.5781,205.7813 1803.7813,205.7813 Q1804.1094,205.7813 1804.3672,206.0391 Q1804.625,206.2969 1804.625,206.6406 Q1804.625,206.9844 1804.2813,207.3906 Q1803.7813,207.9688 1802.9844,208.2969 Q1801.9063,208.75 1800.6094,208.75 Q1799.0938,208.75 1797.8906,208.125 Q1796.9063,207.625 1796.2188,206.5547 Q1795.5313,205.4844 1795.5313,204.2031 L1795.5313,203.0469 Q1795.5313,201.7188 1796.1484,200.5703 Q1796.7656,199.4219 1797.8594,198.8047 Q1798.9531,198.1875 1800.1875,198.1875 Q1800.9219,198.1875 1801.5703,198.3516 Q1802.2188,198.5156 1802.7656,198.875 Z "/>
        <text fill="#000000" font-family="sans-serif" font-size="12" lengthAdjust="spacingAndGlyphs" textLength="72" x="1814" y="207.9102">InvalidPacket</text>
        <line style="stroke: #A80036; stroke-width: 1.5;" x1="1786" x2="1888" y1="219" y2="219"/>
        <line style="stroke: #A80036; stroke-width: 1.5;" x1="1786" x2="1888" y1="227" y2="227"/>
        <rect fill="#FEFECE" filter="url(#f1)" height="48" style="stroke: #A80036; stroke-width: 1.5;" width="92" x="1658" y="187"/>
        <ellipse cx="1673" cy="203" fill="#ADD1B2" rx="11" ry="11" style="stroke: #A80036; stroke-width: 1.0;"/>
        <path d="M1675.7656,198.875 Q1675.9219,198.6563 1676.1094,198.5469 Q1676.2969,198.4375 1676.5156,198.4375 Q1676.8906,198.4375 1677.125,198.6953 Q1677.3594,198.9531 1677.3594,199.5625 L1677.3594,201.0156 Q1677.3594,201.625 1677.125,201.8906 Q1676.8906,202.1563 1676.5156,202.1563 Q1676.1719,202.1563 1675.9688,201.9531 Q1675.7656,201.7656 1675.6563,201.25 Q1675.6094,200.8906 1675.4219,200.7031 Q1675.0938,200.3281 1674.4844,200.1094 Q1673.875,199.8906 1673.25,199.8906 Q1672.4844,199.8906 1671.8516,200.2188 Q1671.2188,200.5469 1670.7266,201.2969 Q1670.2344,202.0469 1670.2344,203.0781 L1670.2344,204.1719 Q1670.2344,205.4063 1671.125,206.2266 Q1672.0156,207.0469 1673.6094,207.0469 Q1674.5469,207.0469 1675.2031,206.7969 Q1675.5938,206.6406 1676.0156,206.2031 Q1676.2813,205.9375 1676.4297,205.8594 Q1676.5781,205.7813 1676.7813,205.7813 Q1677.1094,205.7813 1677.3672,206.0391 Q1677.625,206.2969 1677.625,206.6406 Q1677.625,206.9844 1677.2813,207.3906 Q1676.7813,207.9688 1675.9844,208.2969 Q1674.9063,208.75 1673.6094,208.75 Q1672.0938,208.75 1670.8906,208.125 Q1669.9063,207.625 1669.2188,206.5547 Q1668.5313,205.4844 1668.5313,204.2031 L1668.5313,203.0469 Q1668.5313,201.7188 1669.1484,200.5703 Q1669.7656,199.4219 1670.8594,198.8047 Q1671.9531,198.1875 1673.1875,198.1875 Q1673.9219,198.1875 1674.5703,198.3516 Q1675.2188,198.5156 1675.7656,198.875 Z "/>
        <text fill="#000000" font-family="sans-serif" font-size="12" lengthAdjust="spacingAndGlyphs" textLength="60" x="1687" y="207.9102">KickPacket</text>
        <line style="stroke: #A80036; stroke-width: 1.5;" x1="1659" x2="1749" y1="219" y2="219"/>
        <line style="stroke: #A80036; stroke-width: 1.5;" x1="1659" x2="1749" y1="227" y2="227"/>
        <rect fill="#FEFECE" filter="url(#f1)" height="48" style="stroke: #A80036; stroke-width: 1.5;" width="120" x="2055" y="187"/>
        <ellipse cx="2070" cy="203" fill="#ADD1B2" rx="11" ry="11" style="stroke: #A80036; stroke-width: 1.0;"/>
        <path d="M2072.7656,198.875 Q2072.9219,198.6563 2073.1094,198.5469 Q2073.2969,198.4375 2073.5156,198.4375 Q2073.8906,198.4375 2074.125,198.6953 Q2074.3594,198.9531 2074.3594,199.5625 L2074.3594,201.0156 Q2074.3594,201.625 2074.125,201.8906 Q2073.8906,202.1563 2073.5156,202.1563 Q2073.1719,202.1563 2072.9688,201.9531 Q2072.7656,201.7656 2072.6563,201.25 Q2072.6094,200.8906 2072.4219,200.7031 Q2072.0938,200.3281 2071.4844,200.1094 Q2070.875,199.8906 2070.25,199.8906 Q2069.4844,199.8906 2068.8516,200.2188 Q2068.2188,200.5469 2067.7266,201.2969 Q2067.2344,202.0469 2067.2344,203.0781 L2067.2344,204.1719 Q2067.2344,205.4063 2068.125,206.2266 Q2069.0156,207.0469 2070.6094,207.0469 Q2071.5469,207.0469 2072.2031,206.7969 Q2072.5938,206.6406 2073.0156,206.2031 Q2073.2813,205.9375 2073.4297,205.8594 Q2073.5781,205.7813 2073.7813,205.7813 Q2074.1094,205.7813 2074.3672,206.0391 Q2074.625,206.2969 2074.625,206.6406 Q2074.625,206.9844 2074.2813,207.3906 Q2073.7813,207.9688 2072.9844,208.2969 Q2071.9063,208.75 2070.6094,208.75 Q2069.0938,208.75 2067.8906,208.125 Q2066.9063,207.625 2066.2188,206.5547 Q2065.5313,205.4844 2065.5313,204.2031 L2065.5313,203.0469 Q2065.5313,201.7188 2066.1484,200.5703 Q2066.7656,199.4219 2067.8594,198.8047 Q2068.9531,198.1875 2070.1875,198.1875 Q2070.9219,198.1875 2071.5703,198.3516 Q2072.2188,198.5156 2072.7656,198.875 Z "/>
        <text fill="#000000" font-family="sans-serif" font-size="12" lengthAdjust="spacingAndGlyphs" textLength="88" x="2084" y="207.9102">MessagePacket</text>
        <line style="stroke: #A80036; stroke-width: 1.5;" x1="2056" x2="2174" y1="219" y2="219"/>
        <line style="stroke: #A80036; stroke-width: 1.5;" x1="2056" x2="2174" y1="227" y2="227"/>
        <rect fill="#FEFECE" filter="url(#f1)" height="48" style="stroke: #A80036; stroke-width: 1.5;" width="69" x="1553.5" y="187"/>
        <ellipse cx="1568.5" cy="203" fill="#ADD1B2" rx="11" ry="11" style="stroke: #A80036; stroke-width: 1.0;"/>
        <path d="M1571.2656,198.875 Q1571.4219,198.6563 1571.6094,198.5469 Q1571.7969,198.4375 1572.0156,198.4375 Q1572.3906,198.4375 1572.625,198.6953 Q1572.8594,198.9531 1572.8594,199.5625 L1572.8594,201.0156 Q1572.8594,201.625 1572.625,201.8906 Q1572.3906,202.1563 1572.0156,202.1563 Q1571.6719,202.1563 1571.4688,201.9531 Q1571.2656,201.7656 1571.1563,201.25 Q1571.1094,200.8906 1570.9219,200.7031 Q1570.5938,200.3281 1569.9844,200.1094 Q1569.375,199.8906 1568.75,199.8906 Q1567.9844,199.8906 1567.3516,200.2188 Q1566.7188,200.5469 1566.2266,201.2969 Q1565.7344,202.0469 1565.7344,203.0781 L1565.7344,204.1719 Q1565.7344,205.4063 1566.625,206.2266 Q1567.5156,207.0469 1569.1094,207.0469 Q1570.0469,207.0469 1570.7031,206.7969 Q1571.0938,206.6406 1571.5156,206.2031 Q1571.7813,205.9375 1571.9297,205.8594 Q1572.0781,205.7813 1572.2813,205.7813 Q1572.6094,205.7813 1572.8672,206.0391 Q1573.125,206.2969 1573.125,206.6406 Q1573.125,206.9844 1572.7813,207.3906 Q1572.2813,207.9688 1571.4844,208.2969 Q1570.4063,208.75 1569.1094,208.75 Q1567.5938,208.75 1566.3906,208.125 Q1565.4063,207.625 1564.7188,206.5547 Q1564.0313,205.4844 1564.0313,204.2031 L1564.0313,203.0469 Q1564.0313,201.7188 1564.6484,200.5703 Q1565.2656,199.4219 1566.3594,198.8047 Q1567.4531,198.1875 1568.6875,198.1875 Q1569.4219,198.1875 1570.0703,198.3516 Q1570.7188,198.5156 1571.2656,198.875 Z "/>
        <text fill="#000000" font-family="sans-serif" font-size="12" lengthAdjust="spacingAndGlyphs" textLength="37" x="1582.5" y="207.9102">Packet</text>
        <line style="stroke: #A80036; stroke-width: 1.5;" x1="1554.5" x2="1621.5" y1="219" y2="219"/>
        <line style="stroke: #A80036; stroke-width: 1.5;" x1="1554.5" x2="1621.5" y1="227" y2="227"/>
        <rect fill="#FEFECE" filter="url(#f1)" height="48" style="stroke: #A80036; stroke-width: 1.5;" width="95" x="1924.5" y="187"/>
        <ellipse cx="1939.5" cy="203" fill="#ADD1B2" rx="11" ry="11" style="stroke: #A80036; stroke-width: 1.0;"/>
        <path d="M1942.2656,198.875 Q1942.4219,198.6563 1942.6094,198.5469 Q1942.7969,198.4375 1943.0156,198.4375 Q1943.3906,198.4375 1943.625,198.6953 Q1943.8594,198.9531 1943.8594,199.5625 L1943.8594,201.0156 Q1943.8594,201.625 1943.625,201.8906 Q1943.3906,202.1563 1943.0156,202.1563 Q1942.6719,202.1563 1942.4688,201.9531 Q1942.2656,201.7656 1942.1563,201.25 Q1942.1094,200.8906 1941.9219,200.7031 Q1941.5938,200.3281 1940.9844,200.1094 Q1940.375,199.8906 1939.75,199.8906 Q1938.9844,199.8906 1938.3516,200.2188 Q1937.7188,200.5469 1937.2266,201.2969 Q1936.7344,202.0469 1936.7344,203.0781 L1936.7344,204.1719 Q1936.7344,205.4063 1937.625,206.2266 Q1938.5156,207.0469 1940.1094,207.0469 Q1941.0469,207.0469 1941.7031,206.7969 Q1942.0938,206.6406 1942.5156,206.2031 Q1942.7813,205.9375 1942.9297,205.8594 Q1943.0781,205.7813 1943.2813,205.7813 Q1943.6094,205.7813 1943.8672,206.0391 Q1944.125,206.2969 1944.125,206.6406 Q1944.125,206.9844 1943.7813,207.3906 Q1943.2813,207.9688 1942.4844,208.2969 Q1941.4063,208.75 1940.1094,208.75 Q1938.5938,208.75 1937.3906,208.125 Q1936.4063,207.625 1935.7188,206.5547 Q1935.0313,205.4844 1935.0313,204.2031 L1935.0313,203.0469 Q1935.0313,201.7188 1935.6484,200.5703 Q1936.2656,199.4219 1937.3594,198.8047 Q1938.4531,198.1875 1939.6875,198.1875 Q1940.4219,198.1875 1941.0703,198.3516 Q1941.7188,198.5156 1942.2656,198.875 Z "/>
        <text fill="#000000" font-family="sans-serif" font-size="12" lengthAdjust="spacingAndGlyphs" textLength="63" x="1953.5" y="207.9102">PacketType</text>
        <line style="stroke: #A80036; stroke-width: 1.5;" x1="1925.5" x2="2018.5" y1="219" y2="219"/>
        <line style="stroke: #A80036; stroke-width: 1.5;" x1="1925.5" x2="2018.5" y1="227" y2="227"/>
        <rect fill="#FEFECE" filter="url(#f1)" height="48" style="stroke: #A80036; stroke-width: 1.5;" width="157" x="1171.5" y="187"/>
        <ellipse cx="1186.5" cy="203" fill="#ADD1B2" rx="11" ry="11" style="stroke: #A80036; stroke-width: 1.0;"/>
        <path d="M1189.2656,198.875 Q1189.4219,198.6563 1189.6094,198.5469 Q1189.7969,198.4375 1190.0156,198.4375 Q1190.3906,198.4375 1190.625,198.6953 Q1190.8594,198.9531 1190.8594,199.5625 L1190.8594,201.0156 Q1190.8594,201.625 1190.625,201.8906 Q1190.3906,202.1563 1190.0156,202.1563 Q1189.6719,202.1563 1189.4688,201.9531 Q1189.2656,201.7656 1189.1563,201.25 Q1189.1094,200.8906 1188.9219,200.7031 Q1188.5938,200.3281 1187.9844,200.1094 Q1187.375,199.8906 1186.75,199.8906 Q1185.9844,199.8906 1185.3516,200.2188 Q1184.7188,200.5469 1184.2266,201.2969 Q1183.7344,202.0469 1183.7344,203.0781 L1183.7344,204.1719 Q1183.7344,205.4063 1184.625,206.2266 Q1185.5156,207.0469 1187.1094,207.0469 Q1188.0469,207.0469 1188.7031,206.7969 Q1189.0938,206.6406 1189.5156,206.2031 Q1189.7813,205.9375 1189.9297,205.8594 Q1190.0781,205.7813 1190.2813,205.7813 Q1190.6094,205.7813 1190.8672,206.0391 Q1191.125,206.2969 1191.125,206.6406 Q1191.125,206.9844 1190.7813,207.3906 Q1190.2813,207.9688 1189.4844,208.2969 Q1188.4063,208.75 1187.1094,208.75 Q1185.5938,208.75 1184.3906,208.125 Q1183.4063,207.625 1182.7188,206.5547 Q1182.0313,205.4844 1182.0313,204.2031 L1182.0313,203.0469 Q1182.0313,201.7188 1182.6484,200.5703 Q1183.2656,199.4219 1184.3594,198.8047 Q1185.4531,198.1875 1186.6875,198.1875 Q1187.4219,198.1875 1188.0703,198.3516 Q1188.7188,198.5156 1189.2656,198.875 Z "/>
        <text fill="#000000" font-family="sans-serif" font-size="12" lengthAdjust="spacingAndGlyphs" textLength="125" x="1200.5" y="207.9102">PrivateMessagePacket</text>
        <line style="stroke: #A80036; stroke-width: 1.5;" x1="1172.5" x2="1327.5" y1="219" y2="219"/>
        <line style="stroke: #A80036; stroke-width: 1.5;" x1="1172.5" x2="1327.5" y1="227" y2="227"/>
        <rect fill="#FEFECE" filter="url(#f1)" height="48" style="stroke: #A80036; stroke-width: 1.5;" width="116" x="1020" y="187"/>
        <ellipse cx="1035" cy="203" fill="#ADD1B2" rx="11" ry="11" style="stroke: #A80036; stroke-width: 1.0;"/>
        <path d="M1037.7656,198.875 Q1037.9219,198.6563 1038.1094,198.5469 Q1038.2969,198.4375 1038.5156,198.4375 Q1038.8906,198.4375 1039.125,198.6953 Q1039.3594,198.9531 1039.3594,199.5625 L1039.3594,201.0156 Q1039.3594,201.625 1039.125,201.8906 Q1038.8906,202.1563 1038.5156,202.1563 Q1038.1719,202.1563 1037.9688,201.9531 Q1037.7656,201.7656 1037.6563,201.25 Q1037.6094,200.8906 1037.4219,200.7031 Q1037.0938,200.3281 1036.4844,200.1094 Q1035.875,199.8906 1035.25,199.8906 Q1034.4844,199.8906 1033.8516,200.2188 Q1033.2188,200.5469 1032.7266,201.2969 Q1032.2344,202.0469 1032.2344,203.0781 L1032.2344,204.1719 Q1032.2344,205.4063 1033.125,206.2266 Q1034.0156,207.0469 1035.6094,207.0469 Q1036.5469,207.0469 1037.2031,206.7969 Q1037.5938,206.6406 1038.0156,206.2031 Q1038.2813,205.9375 1038.4297,205.8594 Q1038.5781,205.7813 1038.7813,205.7813 Q1039.1094,205.7813 1039.3672,206.0391 Q1039.625,206.2969 1039.625,206.6406 Q1039.625,206.9844 1039.2813,207.3906 Q1038.7813,207.9688 1037.9844,208.2969 Q1036.9063,208.75 1035.6094,208.75 Q1034.0938,208.75 1032.8906,208.125 Q1031.9063,207.625 1031.2188,206.5547 Q1030.5313,205.4844 1030.5313,204.2031 L1030.5313,203.0469 Q1030.5313,201.7188 1031.1484,200.5703 Q1031.7656,199.4219 1032.8594,198.8047 Q1033.9531,198.1875 1035.1875,198.1875 Q1035.9219,198.1875 1036.5703,198.3516 Q1037.2188,198.5156 1037.7656,198.875 Z "/>
        <text fill="#000000" font-family="sans-serif" font-size="12" lengthAdjust="spacingAndGlyphs" textLength="84" x="1049" y="207.9102">UserListPacket</text>
        <line style="stroke: #A80036; stroke-width: 1.5;" x1="1021" x2="1135" y1="219" y2="219"/>
        <line style="stroke: #A80036; stroke-width: 1.5;" x1="1021" x2="1135" y1="227" y2="227"/>
        <path d="M1264.99,127.147 C1258.21,130.342 1251.05,133.156 1244,135 C1151.09,159.297 469.228,123.482 380,159 C367.039,164.159 355.117,173.673 345.563,183.098 " fill="none" style="stroke: #A80036; stroke-width: 1.0; stroke-dasharray: 7.0,7.0;"/>
        <polygon fill="#A80036" points="341.887,186.836,351.0491,183.2226,345.3924,183.2706,345.3444,177.6139,341.887,186.836" style="stroke: #A80036; stroke-width: 1.0;"/>
        <path d="M1265.31,127.014 C1258.44,130.27 1251.17,133.138 1244,135 C1138.79,162.33 369.053,124.423 266,159 C250.617,164.162 235.699,173.907 223.541,183.508 " fill="none" style="stroke: #A80036; stroke-width: 1.0; stroke-dasharray: 7.0,7.0;"/>
        <polygon fill="#A80036" points="219.527,186.751,229.0414,184.2063,223.4162,183.6087,224.0138,177.9835,219.527,186.751" style="stroke: #A80036; stroke-width: 1.0;"/>
        <path d="M1288.56,78.847 C1275.23,59.143 1253.46,32.72 1226.5,21 C1184.11,2.574 1166.12,5.7 1122.5,21 C1092.06,31.678 1063.94,55.621 1044.89,74.894 " fill="none" style="stroke: #A80036; stroke-width: 1.0; stroke-dasharray: 7.0,7.0;"/>
        <polygon fill="#A80036" points="1041.2,78.68,1050.343,75.0186,1044.6867,75.0963,1044.609,69.4399,1041.2,78.68" style="stroke: #A80036; stroke-width: 1.0;"/>
        <path d="M1341.69,127.14 C1348.58,130.335 1355.85,133.152 1363,135 C1541.22,181.065 2010.09,124.999 2191,159 C2220.14,164.477 2251.29,174.989 2277.05,185.053 " fill="none" style="stroke: #A80036; stroke-width: 1.0; stroke-dasharray: 7.0,7.0;"/>
        <polygon fill="#A80036" points="2281.79,186.926,2274.8782,179.9098,2277.1369,185.0962,2271.9505,187.3549,2281.79,186.926" style="stroke: #A80036; stroke-width: 1.0;"/>
        <path d="M1264.61,127.114 C1257.94,130.268 1250.91,133.078 1244,135 C1069,183.673 1007.96,100.488 836,159 C820.196,164.377 804.62,174.047 791.792,183.532 " fill="none" style="stroke: #A80036; stroke-width: 1.0; stroke-dasharray: 7.0,7.0;"/>
        <polygon fill="#A80036" points="787.551,186.735,797.1433,184.5016,791.5405,183.7211,792.321,178.1183,787.551,186.735" style="stroke: #A80036; stroke-width: 1.0;"/>
        <path d="M1264.22,127.027 C1257.65,130.149 1250.76,132.971 1244,135 C1140.9,165.937 1105.09,124.889 1003,159 C985.843,164.733 968.488,174.465 954.042,183.902 " fill="none" style="stroke: #A80036; stroke-width: 1.0; stroke-dasharray: 7.0,7.0;"/>
        <polygon fill="#A80036" points="949.656,186.816,959.3657,185.1665,953.8204,184.0488,954.9382,178.5034,949.656,186.816" style="stroke: #A80036; stroke-width: 1.0;"/>
        <path d="M1332.94,127 C1354.59,143.624 1383.87,166.118 1406.49,183.496 " fill="none" style="stroke: #A80036; stroke-width: 1.0; stroke-dasharray: 7.0,7.0;"/>
        <polygon fill="#A80036" points="1410.64,186.678,1405.9362,178.025,1406.6737,183.6336,1401.0651,184.3711,1410.64,186.678" style="stroke: #A80036; stroke-width: 1.0;"/>
        <path d="M1343.19,127.101 C1349.67,130.132 1356.41,132.907 1363,135 C1436.99,158.486 1466.33,124.763 1536,159 C1547.62,164.71 1558.26,174.009 1566.85,183.113 " fill="none" style="stroke: #A80036; stroke-width: 1.0; stroke-dasharray: 7.0,7.0;"/>
        <polygon fill="#A80036" points="1570.4,186.992,1567.271,177.6534,1567.0229,183.3048,1561.3715,183.0567,1570.4,186.992" style="stroke: #A80036; stroke-width: 1.0;"/>
        <path d="M1291.5,127 C1283.43,143.141 1272.59,164.816 1264.02,181.969 " fill="none" style="stroke: #A80036; stroke-width: 1.0; stroke-dasharray: 7.0,7.0;"/>
        <polygon fill="#A80036" points="1261.66,186.678,1269.2626,180.417,1263.8961,182.2059,1262.1072,176.8393,1261.66,186.678" style="stroke: #A80036; stroke-width: 1.0;"/>
        <path d="M1265.32,127.033 C1258.44,130.286 1251.17,133.149 1244,135 C1123.48,166.109 240.364,114.807 124,159 C110.455,164.144 97.841,173.77 87.7093,183.286 " fill="none" style="stroke: #A80036; stroke-width: 1.0; stroke-dasharray: 7.0,7.0;"/>
        <polygon fill="#A80036" points="84.0917,186.778,93.3449,183.4048,87.6889,183.3052,87.7884,177.6493,84.0917,186.778" style="stroke: #A80036; stroke-width: 1.0;"/>
        <path d="M1389.95,127.027 C1380.81,130.281 1371.25,133.146 1362,135 C1242.57,158.951 381.531,120.406 266,159 C250.481,164.184 235.44,174.047 223.228,183.729 " fill="none" style="stroke: #A80036; stroke-width: 1.0; stroke-dasharray: 7.0,7.0;"/>
        <polygon fill="#A80036" points="219.198,186.998,228.7073,184.4342,223.0809,183.8479,223.6672,178.2216,219.198,186.998" style="stroke: #A80036; stroke-width: 1.0;"/>
        <path d="M1502.25,103.827 C1672.93,103.981 2144.51,108.971 2191,159 C2216.41,186.347 2215.89,215.174 2191,243 C2149.39,289.5181 1712.61,310.5447 1566.96,316.2985 " fill="none" style="stroke: #A80036; stroke-width: 1.0; stroke-dasharray: 7.0,7.0;"/>
        <polygon fill="#A80036" points="1561.91,316.4968,1571.0628,320.1336,1566.906,316.2968,1570.7428,312.14,1561.91,316.4968" style="stroke: #A80036; stroke-width: 1.0;"/>
        <path d="M1441,127 C1441,143.003 1441,164.446 1441,181.528 " fill="none" style="stroke: #A80036; stroke-width: 1.0; stroke-dasharray: 7.0,7.0;"/>
        <polygon fill="#A80036" points="1441,186.678,1445,177.678,1441,181.678,1437,177.678,1441,186.678" style="stroke: #A80036; stroke-width: 1.0;"/>
        <path d="M1502.13,105.816 C1569.66,109.72 1680.44,121.816 1768,159 C1782.17,165.015 1796.14,174.482 1807.76,183.634 " fill="none" style="stroke: #A80036; stroke-width: 1.0; stroke-dasharray: 7.0,7.0;"/>
        <polygon fill="#A80036" points="1811.93,186.984,1807.4142,178.2314,1808.0304,183.8546,1802.4072,184.4708,1811.93,186.984" style="stroke: #A80036; stroke-width: 1.0;"/>
        <path d="M1502.11,114.245 C1542.72,122.626 1596.41,136.788 1640,159 C1652.74,165.491 1665.35,174.761 1675.97,183.621 " fill="none" style="stroke: #A80036; stroke-width: 1.0; stroke-dasharray: 7.0,7.0;"/>
        <polygon fill="#A80036" points="1679.79,186.861,1675.5064,177.9925,1675.9742,183.6299,1670.3367,184.0977,1679.79,186.861" style="stroke: #A80036; stroke-width: 1.0;"/>
        <path d="M1502.46,105.92 C1634.15,110.641 1939.5,124.997 2037,159 C2053.34,164.697 2069.64,174.534 2083.08,184.058 " fill="none" style="stroke: #A80036; stroke-width: 1.0; stroke-dasharray: 7.0,7.0;"/>
        <polygon fill="#A80036" points="2087.15,186.998,2082.1768,178.497,2083.0901,184.0796,2077.5074,184.9929,2087.15,186.998" style="stroke: #A80036; stroke-width: 1.0;"/>
        <path d="M1486.46,127.257 C1502.66,136.328 1520.68,147.347 1536,159 C1545.34,166.105 1554.74,174.762 1562.94,182.911 " fill="none" style="stroke: #A80036; stroke-width: 1.0; stroke-dasharray: 7.0,7.0;"/>
        <polygon fill="#A80036" points="1566.85,186.862,1563.3609,177.6519,1563.3323,183.3087,1557.6756,183.2801,1566.85,186.862" style="stroke: #A80036; stroke-width: 1.0;"/>
        <path d="M1502.39,107.121 C1611.66,113.355 1835.18,129.361 1907,159 C1920.82,164.702 1934.15,174.212 1945.11,183.485 " fill="none" style="stroke: #A80036; stroke-width: 1.0; stroke-dasharray: 7.0,7.0;"/>
        <polygon fill="#A80036" points="1949.04,186.883,1944.8524,177.9688,1945.2593,183.611,1939.6171,184.0179,1949.04,186.883" style="stroke: #A80036; stroke-width: 1.0;"/>
        <path d="M1399.56,127 C1369.13,143.889 1327.78,166.837 1296.27,184.323 " fill="none" style="stroke: #A80036; stroke-width: 1.0; stroke-dasharray: 7.0,7.0;"/>
        <polygon fill="#A80036" points="1291.69,186.862,1301.5023,186.0137,1296.0672,184.4453,1297.6356,179.0102,1291.69,186.862" style="stroke: #A80036; stroke-width: 1.0;"/>
        <path d="M1387.64,127.082 C1379.18,130.116 1370.43,132.897 1362,135 C1271.71,157.518 1241.32,126.833 1154,159 C1138.33,164.774 1122.71,174.405 1109.75,183.752 " fill="none" style="stroke: #A80036; stroke-width: 1.0; stroke-dasharray: 7.0,7.0;"/>
        <polygon fill="#A80036" points="1105.46,186.905,1115.0821,184.8039,1109.4907,183.9463,1110.3482,178.3549,1105.46,186.905" style="stroke: #A80036; stroke-width: 1.0;"/>
        <path d="M592,235 C592,246.588 592,261.0294 592,274.6013 " fill="none" style="stroke: #A80036; stroke-width: 1.0;"/>
        <polygon fill="none" points="599,274.6785,592,294.6784,585,274.6784,599,274.6785" style="stroke: #A80036; stroke-width: 1.0;"/>
        <path d="M655.86,235.006 C666.168,238.09 676.804,240.905 687,243 C981.956,303.5918 1345.66,315.2324 1473.18,317.4685 " fill="none" style="stroke: #A80036; stroke-width: 1.0; stroke-dasharray: 7.0,7.0;"/>
        <polygon fill="#A80036" points="1478.35,317.5561,1469.4199,313.4024,1473.3507,317.4704,1469.2828,321.4012,1478.35,317.5561" style="stroke: #A80036; stroke-width: 1.0;"/>
        <path d="M953.419,104.249 C793.453,105.583 391.471,113.503 266,159 C250.874,164.485 236.1,174.173 223.98,183.643 " fill="none" style="stroke: #A80036; stroke-width: 1.0; stroke-dasharray: 7.0,7.0;"/>
        <polygon fill="#A80036" points="219.975,186.84,229.5044,184.3519,223.8828,183.7209,224.5138,178.0993,219.975,186.84" style="stroke: #A80036; stroke-width: 1.0;"/>
        <path d="M1032.59,127 C1041.42,143.141 1053.28,164.816 1062.66,181.969 " fill="none" style="stroke: #A80036; stroke-width: 1.0; stroke-dasharray: 7.0,7.0;"/>
        <polygon fill="#A80036" points="1065.24,186.678,1064.4285,176.8626,1062.8397,182.2918,1057.4106,180.7031,1065.24,186.678" style="stroke: #A80036; stroke-width: 1.0;"/>
    </g>
</svg>
