<?xml version="1.0" encoding="UTF-8"?><svg xmlns="http://www.w3.org/2000/svg" xmlns:xlink="http://www.w3.org/1999/xlink" height="215pt" style="width:262px;height:215px;" version="1.1" viewBox="0 0 262 215" width="262pt">
    <defs>
        <filter height="300%" id="f1" width="300%" x="-1" y="-1">
            <feGaussianBlur result="blurOut" stdDeviation="2.0"/>
            <feColorMatrix in="blurOut" result="blurOut2" type="matrix" values="0 0 0 0 0 0 0 0 0 0 0 0 0 0 0 0 0 0 .4 0"/>
            <feOffset dx="4.0" dy="4.0" in="blurOut2" result="blurOut3"/>
            <feBlend in="SourceGraphic" in2="blurOut3" mode="normal"/>
        </filter>
    </defs>
    <g>
        <polygon fill="#FFFFFF" filter="url(#f1)" points="14,16,245,16,252,39.6094,255,39.6094,255,208,14,208,14,16" style="stroke: #000000; stroke-width: 2.0;"/>
        <line style="stroke: #000000; stroke-width: 2.0;" x1="14" x2="252" y1="39.6094" y2="39.6094"/>
        <text fill="#000000" font-family="sans-serif" font-size="14" font-weight="bold" lengthAdjust="spacingAndGlyphs" textLength="225" x="17" y="33.5332">de.mash1t.cryptography.method</text>
        <rect fill="#FEFECE" filter="url(#f1)" height="48" style="stroke: #A80036; stroke-width: 1.5;" width="53" x="107.5" y="152"/>
        <ellipse cx="122.5" cy="168" fill="#ADD1B2" rx="11" ry="11" style="stroke: #A80036; stroke-width: 1.0;"/>
        <path d="M125.2656,163.875 Q125.4219,163.6563 125.6094,163.5469 Q125.7969,163.4375 126.0156,163.4375 Q126.3906,163.4375 126.625,163.6953 Q126.8594,163.9531 126.8594,164.5625 L126.8594,166.0156 Q126.8594,166.625 126.625,166.8906 Q126.3906,167.1563 126.0156,167.1563 Q125.6719,167.1563 125.4688,166.9531 Q125.2656,166.7656 125.1563,166.25 Q125.1094,165.8906 124.9219,165.7031 Q124.5938,165.3281 123.9844,165.1094 Q123.375,164.8906 122.75,164.8906 Q121.9844,164.8906 121.3516,165.2188 Q120.7188,165.5469 120.2266,166.2969 Q119.7344,167.0469 119.7344,168.0781 L119.7344,169.1719 Q119.7344,170.4063 120.625,171.2266 Q121.5156,172.0469 123.1094,172.0469 Q124.0469,172.0469 124.7031,171.7969 Q125.0938,171.6406 125.5156,171.2031 Q125.7813,170.9375 125.9297,170.8594 Q126.0781,170.7813 126.2813,170.7813 Q126.6094,170.7813 126.8672,171.0391 Q127.125,171.2969 127.125,171.6406 Q127.125,171.9844 126.7813,172.3906 Q126.2813,172.9688 125.4844,173.2969 Q124.4063,173.75 123.1094,173.75 Q121.5938,173.75 120.3906,173.125 Q119.4063,172.625 118.7188,171.5547 Q118.0313,170.4844 118.0313,169.2031 L118.0313,168.0469 Q118.0313,166.7188 118.6484,165.5703 Q119.2656,164.4219 120.3594,163.8047 Q121.4531,163.1875 122.6875,163.1875 Q123.4219,163.1875 124.0703,163.3516 Q124.7188,163.5156 125.2656,163.875 Z "/>
        <text fill="#000000" font-family="sans-serif" font-size="12" lengthAdjust="spacingAndGlyphs" textLength="21" x="136.5" y="172.9102">Aes</text>
        <line style="stroke: #A80036; stroke-width: 1.5;" x1="108.5" x2="159.5" y1="184" y2="184"/>
        <line style="stroke: #A80036; stroke-width: 1.5;" x1="108.5" x2="159.5" y1="192" y2="192"/>
        <rect fill="#FEFECE" filter="url(#f1)" height="48" style="stroke: #A80036; stroke-width: 1.5;" width="104" x="82" y="44"/>
        <ellipse cx="97" cy="60" fill="#ADD1B2" rx="11" ry="11" style="stroke: #A80036; stroke-width: 1.0;"/>
        <path d="M99.7656,55.875 Q99.9219,55.6563 100.1094,55.5469 Q100.2969,55.4375 100.5156,55.4375 Q100.8906,55.4375 101.125,55.6953 Q101.3594,55.9531 101.3594,56.5625 L101.3594,58.0156 Q101.3594,58.625 101.125,58.8906 Q100.8906,59.1563 100.5156,59.1563 Q100.1719,59.1563 99.9688,58.9531 Q99.7656,58.7656 99.6563,58.25 Q99.6094,57.8906 99.4219,57.7031 Q99.0938,57.3281 98.4844,57.1094 Q97.875,56.8906 97.25,56.8906 Q96.4844,56.8906 95.8516,57.2188 Q95.2188,57.5469 94.7266,58.2969 Q94.2344,59.0469 94.2344,60.0781 L94.2344,61.1719 Q94.2344,62.4063 95.125,63.2266 Q96.0156,64.0469 97.6094,64.0469 Q98.5469,64.0469 99.2031,63.7969 Q99.5938,63.6406 100.0156,63.2031 Q100.2813,62.9375 100.4297,62.8594 Q100.5781,62.7813 100.7813,62.7813 Q101.1094,62.7813 101.3672,63.0391 Q101.625,63.2969 101.625,63.6406 Q101.625,63.9844 101.2813,64.3906 Q100.7813,64.9688 99.9844,65.2969 Q98.9063,65.75 97.6094,65.75 Q96.0938,65.75 94.8906,65.125 Q93.9063,64.625 93.2188,63.5547 Q92.5313,62.4844 92.5313,61.2031 L92.5313,60.0469 Q92.5313,58.7188 93.1484,57.5703 Q93.7656,56.4219 94.8594,55.8047 Q95.9531,55.1875 97.1875,55.1875 Q97.9219,55.1875 98.5703,55.3516 Q99.2188,55.5156 99.7656,55.875 Z "/>
        <text fill="#000000" font-family="sans-serif" font-size="12" lengthAdjust="spacingAndGlyphs" textLength="72" x="111" y="64.9102">ExtendedAes</text>
        <line style="stroke: #A80036; stroke-width: 1.5;" x1="83" x2="185" y1="76" y2="76"/>
        <line style="stroke: #A80036; stroke-width: 1.5;" x1="83" x2="185" y1="84" y2="84"/>
        <path d="M134,92 C134,103.588 134,118.0294 134,131.6013 " fill="none" style="stroke: #A80036; stroke-width: 1.0;"/>
        <polygon fill="none" points="141,131.6785,134,151.6784,127,131.6784,141,131.6785" style="stroke: #A80036; stroke-width: 1.0;"/>
    </g>
</svg>
