<?xml version="1.0" encoding="UTF-8"?><svg xmlns="http://www.w3.org/2000/svg" xmlns:xlink="http://www.w3.org/1999/xlink" height="323pt" style="width:1261px;height:323px;" version="1.1" viewBox="0 0 1261 323" width="1261pt">
    <defs>
        <filter height="300%" id="f1" width="300%" x="-1" y="-1">
            <feGaussianBlur result="blurOut" stdDeviation="2.0"/>
            <feColorMatrix in="blurOut" result="blurOut2" type="matrix" values="0 0 0 0 0 0 0 0 0 0 0 0 0 0 0 0 0 0 .4 0"/>
            <feOffset dx="4.0" dy="4.0" in="blurOut2" result="blurOut3"/>
            <feBlend in="SourceGraphic" in2="blurOut3" mode="normal"/>
        </filter>
    </defs>
    <g>
        <polygon fill="#FFFFFF" filter="url(#f1)" points="357,16,518,16,525,39.6094,541,39.6094,541,208,357,208,357,16" style="stroke: #000000; stroke-width: 2.0;"/>
        <line style="stroke: #000000; stroke-width: 2.0;" x1="357" x2="525" y1="39.6094" y2="39.6094"/>
        <text fill="#000000" font-family="sans-serif" font-size="14" font-weight="bold" lengthAdjust="spacingAndGlyphs" textLength="155" x="360" y="33.5332">de.mash1t.networking</text>
        <polygon fill="#FFFFFF" filter="url(#f1)" points="549,124,697,124,704,147.6094,707,147.6094,707,208,549,208,549,124" style="stroke: #000000; stroke-width: 2.0;"/>
        <line style="stroke: #000000; stroke-width: 2.0;" x1="549" x2="704" y1="147.6094" y2="147.6094"/>
        <text fill="#000000" font-family="sans-serif" font-size="14" font-weight="bold" lengthAdjust="spacingAndGlyphs" textLength="142" x="552" y="141.5332">de.mash1t.chat.core</text>
        <polygon fill="#FFFFFF" filter="url(#f1)" points="715,124,884,124,891,147.6094,894,147.6094,894,208,715,208,715,124" style="stroke: #000000; stroke-width: 2.0;"/>
        <line style="stroke: #000000; stroke-width: 2.0;" x1="715" x2="891" y1="147.6094" y2="147.6094"/>
        <text fill="#000000" font-family="sans-serif" font-size="14" font-weight="bold" lengthAdjust="spacingAndGlyphs" textLength="163" x="718" y="141.5332">de.mash1t.chat.logging</text>
        <polygon fill="#FFFFFF" filter="url(#f1)" points="14,232,237,232,244,255.6094,247,255.6094,247,316,14,316,14,232" style="stroke: #000000; stroke-width: 2.0;"/>
        <line style="stroke: #000000; stroke-width: 2.0;" x1="14" x2="244" y1="255.6094" y2="255.6094"/>
        <text fill="#000000" font-family="sans-serif" font-size="14" font-weight="bold" lengthAdjust="spacingAndGlyphs" textLength="217" x="17" y="249.5332">de.mash1t.chat.server.console</text>
        <polygon fill="#FFFFFF" filter="url(#f1)" points="260,232,434,232,441,255.6094,546,255.6094,546,316,260,316,260,232" style="stroke: #000000; stroke-width: 2.0;"/>
        <line style="stroke: #000000; stroke-width: 2.0;" x1="260" x2="441" y1="255.6094" y2="255.6094"/>
        <text fill="#000000" font-family="sans-serif" font-size="14" font-weight="bold" lengthAdjust="spacingAndGlyphs" textLength="168" x="263" y="249.5332">de.mash1t.cryptography</text>
        <polygon fill="#FFFFFF" filter="url(#f1)" points="565,232,791,232,798,255.6094,886,255.6094,886,316,565,316,565,232" style="stroke: #000000; stroke-width: 2.0;"/>
        <line style="stroke: #000000; stroke-width: 2.0;" x1="565" x2="798" y1="255.6094" y2="255.6094"/>
        <text fill="#000000" font-family="sans-serif" font-size="14" font-weight="bold" lengthAdjust="spacingAndGlyphs" textLength="220" x="568" y="249.5332">de.mash1t.networking.methods</text>
        <polygon fill="#FFFFFF" filter="url(#f1)" points="905,232,1125,232,1132,255.6094,1254,255.6094,1254,316,905,316,905,232" style="stroke: #000000; stroke-width: 2.0;"/>
        <line style="stroke: #000000; stroke-width: 2.0;" x1="905" x2="1132" y1="255.6094" y2="255.6094"/>
        <text fill="#000000" font-family="sans-serif" font-size="14" font-weight="bold" lengthAdjust="spacingAndGlyphs" textLength="214" x="908" y="249.5332">de.mash1t.networking.packets</text>
        <rect fill="#FEFECE" filter="url(#f1)" height="48" style="stroke: #A80036; stroke-width: 1.5;" width="167" x="365.5" y="152"/>
        <ellipse cx="380.5" cy="168" fill="#A9DCDF" rx="11" ry="11" style="stroke: #A80036; stroke-width: 1.0;"/>
        <path d="M382.6875,169.7656 L378.5469,169.7656 L378.125,170.7969 L378.5469,170.7969 Q379.1563,170.7969 379.4219,171.0313 Q379.6875,171.2656 379.6875,171.6563 Q379.6875,172.0313 379.4219,172.2656 Q379.1563,172.5 378.5469,172.5 L376.25,172.5 Q375.6406,172.5 375.3828,172.2656 Q375.125,172.0313 375.125,171.6406 Q375.125,171.2656 375.3984,171.0234 Q375.6719,170.7813 376.2969,170.7969 L378.9688,164.1406 L377.8594,164.1406 Q377.25,164.1406 376.9844,163.9063 Q376.7188,163.6719 376.7188,163.2813 Q376.7188,162.9063 376.9844,162.6719 Q377.25,162.4375 377.8594,162.4375 L381.5313,162.4375 L384.9219,170.7969 Q385.5156,170.7969 385.7031,170.9375 Q386.0938,171.2031 386.0938,171.6563 Q386.0938,172.0313 385.8359,172.2656 Q385.5781,172.5 384.9688,172.5 L382.6719,172.5 Q382.0625,172.5 381.7969,172.2656 Q381.5313,172.0313 381.5313,171.6406 Q381.5313,171.2656 381.7969,171.0313 Q382.0625,170.7969 382.6719,170.7969 L383.0938,170.7969 L382.6875,169.7656 Z M381.9688,168.0625 L380.6094,164.6875 L379.2344,168.0625 L381.9688,168.0625 Z "/>
        <text fill="#000000" font-family="sans-serif" font-size="12" font-style="italic" lengthAdjust="spacingAndGlyphs" textLength="135" x="394.5" y="172.9102">AbstractNetworkProtocol</text>
        <line style="stroke: #A80036; stroke-width: 1.5;" x1="366.5" x2="531.5" y1="184" y2="184"/>
        <line style="stroke: #A80036; stroke-width: 1.5;" x1="366.5" x2="531.5" y1="192" y2="192"/>
        <rect fill="#FEFECE" filter="url(#f1)" height="48" style="stroke: #A80036; stroke-width: 1.5;" width="107" x="425.5" y="44"/>
        <ellipse cx="440.5" cy="60" fill="#ADD1B2" rx="11" ry="11" style="stroke: #A80036; stroke-width: 1.0;"/>
        <path d="M443.2656,55.875 Q443.4219,55.6563 443.6094,55.5469 Q443.7969,55.4375 444.0156,55.4375 Q444.3906,55.4375 444.625,55.6953 Q444.8594,55.9531 444.8594,56.5625 L444.8594,58.0156 Q444.8594,58.625 444.625,58.8906 Q444.3906,59.1563 444.0156,59.1563 Q443.6719,59.1563 443.4688,58.9531 Q443.2656,58.7656 443.1563,58.25 Q443.1094,57.8906 442.9219,57.7031 Q442.5938,57.3281 441.9844,57.1094 Q441.375,56.8906 440.75,56.8906 Q439.9844,56.8906 439.3516,57.2188 Q438.7188,57.5469 438.2266,58.2969 Q437.7344,59.0469 437.7344,60.0781 L437.7344,61.1719 Q437.7344,62.4063 438.625,63.2266 Q439.5156,64.0469 441.1094,64.0469 Q442.0469,64.0469 442.7031,63.7969 Q443.0938,63.6406 443.5156,63.2031 Q443.7813,62.9375 443.9297,62.8594 Q444.0781,62.7813 444.2813,62.7813 Q444.6094,62.7813 444.8672,63.0391 Q445.125,63.2969 445.125,63.6406 Q445.125,63.9844 444.7813,64.3906 Q444.2813,64.9688 443.4844,65.2969 Q442.4063,65.75 441.1094,65.75 Q439.5938,65.75 438.3906,65.125 Q437.4063,64.625 436.7188,63.5547 Q436.0313,62.4844 436.0313,61.2031 L436.0313,60.0469 Q436.0313,58.7188 436.6484,57.5703 Q437.2656,56.4219 438.3594,55.8047 Q439.4531,55.1875 440.6875,55.1875 Q441.4219,55.1875 442.0703,55.3516 Q442.7188,55.5156 443.2656,55.875 Z "/>
        <text fill="#000000" font-family="sans-serif" font-size="12" lengthAdjust="spacingAndGlyphs" textLength="75" x="454.5" y="64.9102">ExtendedTCP</text>
        <line style="stroke: #A80036; stroke-width: 1.5;" x1="426.5" x2="531.5" y1="76" y2="76"/>
        <line style="stroke: #A80036; stroke-width: 1.5;" x1="426.5" x2="531.5" y1="84" y2="84"/>
        <rect fill="#FEFECE" filter="url(#f1)" height="48" style="stroke: #A80036; stroke-width: 1.5;" width="84" x="568" y="152"/>
        <ellipse cx="583" cy="168" fill="#ADD1B2" rx="11" ry="11" style="stroke: #A80036; stroke-width: 1.0;"/>
        <path d="M585.7656,163.875 Q585.9219,163.6563 586.1094,163.5469 Q586.2969,163.4375 586.5156,163.4375 Q586.8906,163.4375 587.125,163.6953 Q587.3594,163.9531 587.3594,164.5625 L587.3594,166.0156 Q587.3594,166.625 587.125,166.8906 Q586.8906,167.1563 586.5156,167.1563 Q586.1719,167.1563 585.9688,166.9531 Q585.7656,166.7656 585.6563,166.25 Q585.6094,165.8906 585.4219,165.7031 Q585.0938,165.3281 584.4844,165.1094 Q583.875,164.8906 583.25,164.8906 Q582.4844,164.8906 581.8516,165.2188 Q581.2188,165.5469 580.7266,166.2969 Q580.2344,167.0469 580.2344,168.0781 L580.2344,169.1719 Q580.2344,170.4063 581.125,171.2266 Q582.0156,172.0469 583.6094,172.0469 Q584.5469,172.0469 585.2031,171.7969 Q585.5938,171.6406 586.0156,171.2031 Q586.2813,170.9375 586.4297,170.8594 Q586.5781,170.7813 586.7813,170.7813 Q587.1094,170.7813 587.3672,171.0391 Q587.625,171.2969 587.625,171.6406 Q587.625,171.9844 587.2813,172.3906 Q586.7813,172.9688 585.9844,173.2969 Q584.9063,173.75 583.6094,173.75 Q582.0938,173.75 580.8906,173.125 Q579.9063,172.625 579.2188,171.5547 Q578.5313,170.4844 578.5313,169.2031 L578.5313,168.0469 Q578.5313,166.7188 579.1484,165.5703 Q579.7656,164.4219 580.8594,163.8047 Q581.9531,163.1875 583.1875,163.1875 Q583.9219,163.1875 584.5703,163.3516 Q585.2188,163.5156 585.7656,163.875 Z "/>
        <text fill="#000000" font-family="sans-serif" font-size="12" lengthAdjust="spacingAndGlyphs" textLength="52" x="597" y="172.9102">RoleType</text>
        <line style="stroke: #A80036; stroke-width: 1.5;" x1="569" x2="651" y1="184" y2="184"/>
        <line style="stroke: #A80036; stroke-width: 1.5;" x1="569" x2="651" y1="192" y2="192"/>
        <rect fill="#FEFECE" filter="url(#f1)" height="48" style="stroke: #A80036; stroke-width: 1.5;" width="83" x="723.5" y="152"/>
        <ellipse cx="738.5" cy="168" fill="#ADD1B2" rx="11" ry="11" style="stroke: #A80036; stroke-width: 1.0;"/>
        <path d="M741.2656,163.875 Q741.4219,163.6563 741.6094,163.5469 Q741.7969,163.4375 742.0156,163.4375 Q742.3906,163.4375 742.625,163.6953 Q742.8594,163.9531 742.8594,164.5625 L742.8594,166.0156 Q742.8594,166.625 742.625,166.8906 Q742.3906,167.1563 742.0156,167.1563 Q741.6719,167.1563 741.4688,166.9531 Q741.2656,166.7656 741.1563,166.25 Q741.1094,165.8906 740.9219,165.7031 Q740.5938,165.3281 739.9844,165.1094 Q739.375,164.8906 738.75,164.8906 Q737.9844,164.8906 737.3516,165.2188 Q736.7188,165.5469 736.2266,166.2969 Q735.7344,167.0469 735.7344,168.0781 L735.7344,169.1719 Q735.7344,170.4063 736.625,171.2266 Q737.5156,172.0469 739.1094,172.0469 Q740.0469,172.0469 740.7031,171.7969 Q741.0938,171.6406 741.5156,171.2031 Q741.7813,170.9375 741.9297,170.8594 Q742.0781,170.7813 742.2813,170.7813 Q742.6094,170.7813 742.8672,171.0391 Q743.125,171.2969 743.125,171.6406 Q743.125,171.9844 742.7813,172.3906 Q742.2813,172.9688 741.4844,173.2969 Q740.4063,173.75 739.1094,173.75 Q737.5938,173.75 736.3906,173.125 Q735.4063,172.625 734.7188,171.5547 Q734.0313,170.4844 734.0313,169.2031 L734.0313,168.0469 Q734.0313,166.7188 734.6484,165.5703 Q735.2656,164.4219 736.3594,163.8047 Q737.4531,163.1875 738.6875,163.1875 Q739.4219,163.1875 740.0703,163.3516 Q740.7188,163.5156 741.2656,163.875 Z "/>
        <text fill="#000000" font-family="sans-serif" font-size="12" lengthAdjust="spacingAndGlyphs" textLength="51" x="752.5" y="172.9102">Counters</text>
        <line style="stroke: #A80036; stroke-width: 1.5;" x1="724.5" x2="805.5" y1="184" y2="184"/>
        <line style="stroke: #A80036; stroke-width: 1.5;" x1="724.5" x2="805.5" y1="192" y2="192"/>
        <rect fill="#FEFECE" filter="url(#f1)" height="48" style="stroke: #A80036; stroke-width: 1.5;" width="103" x="130.5" y="260"/>
        <ellipse cx="145.5" cy="276" fill="#ADD1B2" rx="11" ry="11" style="stroke: #A80036; stroke-width: 1.0;"/>
        <path d="M148.2656,271.875 Q148.4219,271.6563 148.6094,271.5469 Q148.7969,271.4375 149.0156,271.4375 Q149.3906,271.4375 149.625,271.6953 Q149.8594,271.9531 149.8594,272.5625 L149.8594,274.0156 Q149.8594,274.625 149.625,274.8906 Q149.3906,275.1563 149.0156,275.1563 Q148.6719,275.1563 148.4688,274.9531 Q148.2656,274.7656 148.1563,274.25 Q148.1094,273.8906 147.9219,273.7031 Q147.5938,273.3281 146.9844,273.1094 Q146.375,272.8906 145.75,272.8906 Q144.9844,272.8906 144.3516,273.2188 Q143.7188,273.5469 143.2266,274.2969 Q142.7344,275.0469 142.7344,276.0781 L142.7344,277.1719 Q142.7344,278.4063 143.625,279.2266 Q144.5156,280.0469 146.1094,280.0469 Q147.0469,280.0469 147.7031,279.7969 Q148.0938,279.6406 148.5156,279.2031 Q148.7813,278.9375 148.9297,278.8594 Q149.0781,278.7813 149.2813,278.7813 Q149.6094,278.7813 149.8672,279.0391 Q150.125,279.2969 150.125,279.6406 Q150.125,279.9844 149.7813,280.3906 Q149.2813,280.9688 148.4844,281.2969 Q147.4063,281.75 146.1094,281.75 Q144.5938,281.75 143.3906,281.125 Q142.4063,280.625 141.7188,279.5547 Q141.0313,278.4844 141.0313,277.2031 L141.0313,276.0469 Q141.0313,274.7188 141.6484,273.5703 Q142.2656,272.4219 143.3594,271.8047 Q144.4531,271.1875 145.6875,271.1875 Q146.4219,271.1875 147.0703,271.3516 Q147.7188,271.5156 148.2656,271.875 Z "/>
        <text fill="#000000" font-family="sans-serif" font-size="12" lengthAdjust="spacingAndGlyphs" textLength="71" x="159.5" y="280.9102">ClientThread</text>
        <line style="stroke: #A80036; stroke-width: 1.5;" x1="131.5" x2="232.5" y1="292" y2="292"/>
        <line style="stroke: #A80036; stroke-width: 1.5;" x1="131.5" x2="232.5" y1="300" y2="300"/>
        <rect fill="#FEFECE" filter="url(#f1)" height="48" style="stroke: #A80036; stroke-width: 1.5;" width="105" x="432.5" y="260"/>
        <ellipse cx="447.5" cy="276" fill="#ADD1B2" rx="11" ry="11" style="stroke: #A80036; stroke-width: 1.0;"/>
        <path d="M450.2656,271.875 Q450.4219,271.6563 450.6094,271.5469 Q450.7969,271.4375 451.0156,271.4375 Q451.3906,271.4375 451.625,271.6953 Q451.8594,271.9531 451.8594,272.5625 L451.8594,274.0156 Q451.8594,274.625 451.625,274.8906 Q451.3906,275.1563 451.0156,275.1563 Q450.6719,275.1563 450.4688,274.9531 Q450.2656,274.7656 450.1563,274.25 Q450.1094,273.8906 449.9219,273.7031 Q449.5938,273.3281 448.9844,273.1094 Q448.375,272.8906 447.75,272.8906 Q446.9844,272.8906 446.3516,273.2188 Q445.7188,273.5469 445.2266,274.2969 Q444.7344,275.0469 444.7344,276.0781 L444.7344,277.1719 Q444.7344,278.4063 445.625,279.2266 Q446.5156,280.0469 448.1094,280.0469 Q449.0469,280.0469 449.7031,279.7969 Q450.0938,279.6406 450.5156,279.2031 Q450.7813,278.9375 450.9297,278.8594 Q451.0781,278.7813 451.2813,278.7813 Q451.6094,278.7813 451.8672,279.0391 Q452.125,279.2969 452.125,279.6406 Q452.125,279.9844 451.7813,280.3906 Q451.2813,280.9688 450.4844,281.2969 Q449.4063,281.75 448.1094,281.75 Q446.5938,281.75 445.3906,281.125 Q444.4063,280.625 443.7188,279.5547 Q443.0313,278.4844 443.0313,277.2031 L443.0313,276.0469 Q443.0313,274.7188 443.6484,273.5703 Q444.2656,272.4219 445.3594,271.8047 Q446.4531,271.1875 447.6875,271.1875 Q448.4219,271.1875 449.0703,271.3516 Q449.7188,271.5156 450.2656,271.875 Z "/>
        <text fill="#000000" font-family="sans-serif" font-size="12" lengthAdjust="spacingAndGlyphs" textLength="73" x="461.5" y="280.9102">CryptoBasics</text>
        <line style="stroke: #A80036; stroke-width: 1.5;" x1="433.5" x2="536.5" y1="292" y2="292"/>
        <line style="stroke: #A80036; stroke-width: 1.5;" x1="433.5" x2="536.5" y1="300" y2="300"/>
        <rect fill="#FEFECE" filter="url(#f1)" height="48" style="stroke: #A80036; stroke-width: 1.5;" width="129" x="268.5" y="260"/>
        <ellipse cx="283.5" cy="276" fill="#ADD1B2" rx="11" ry="11" style="stroke: #A80036; stroke-width: 1.0;"/>
        <path d="M286.2656,271.875 Q286.4219,271.6563 286.6094,271.5469 Q286.7969,271.4375 287.0156,271.4375 Q287.3906,271.4375 287.625,271.6953 Q287.8594,271.9531 287.8594,272.5625 L287.8594,274.0156 Q287.8594,274.625 287.625,274.8906 Q287.3906,275.1563 287.0156,275.1563 Q286.6719,275.1563 286.4688,274.9531 Q286.2656,274.7656 286.1563,274.25 Q286.1094,273.8906 285.9219,273.7031 Q285.5938,273.3281 284.9844,273.1094 Q284.375,272.8906 283.75,272.8906 Q282.9844,272.8906 282.3516,273.2188 Q281.7188,273.5469 281.2266,274.2969 Q280.7344,275.0469 280.7344,276.0781 L280.7344,277.1719 Q280.7344,278.4063 281.625,279.2266 Q282.5156,280.0469 284.1094,280.0469 Q285.0469,280.0469 285.7031,279.7969 Q286.0938,279.6406 286.5156,279.2031 Q286.7813,278.9375 286.9297,278.8594 Q287.0781,278.7813 287.2813,278.7813 Q287.6094,278.7813 287.8672,279.0391 Q288.125,279.2969 288.125,279.6406 Q288.125,279.9844 287.7813,280.3906 Q287.2813,280.9688 286.4844,281.2969 Q285.4063,281.75 284.1094,281.75 Q282.5938,281.75 281.3906,281.125 Q280.4063,280.625 279.7188,279.5547 Q279.0313,278.4844 279.0313,277.2031 L279.0313,276.0469 Q279.0313,274.7188 279.6484,273.5703 Q280.2656,272.4219 281.3594,271.8047 Q282.4531,271.1875 283.6875,271.1875 Q284.4219,271.1875 285.0703,271.3516 Q285.7188,271.5156 286.2656,271.875 Z "/>
        <text fill="#000000" font-family="sans-serif" font-size="12" lengthAdjust="spacingAndGlyphs" textLength="97" x="297.5" y="280.9102">EncryptionMethod</text>
        <line style="stroke: #A80036; stroke-width: 1.5;" x1="269.5" x2="396.5" y1="292" y2="292"/>
        <line style="stroke: #A80036; stroke-width: 1.5;" x1="269.5" x2="396.5" y1="300" y2="300"/>
        <rect fill="#FEFECE" filter="url(#f1)" height="48" style="stroke: #A80036; stroke-width: 1.5;" width="148" x="573" y="260"/>
        <ellipse cx="588" cy="276" fill="#ADD1B2" rx="11" ry="11" style="stroke: #A80036; stroke-width: 1.0;"/>
        <path d="M590.7656,271.875 Q590.9219,271.6563 591.1094,271.5469 Q591.2969,271.4375 591.5156,271.4375 Q591.8906,271.4375 592.125,271.6953 Q592.3594,271.9531 592.3594,272.5625 L592.3594,274.0156 Q592.3594,274.625 592.125,274.8906 Q591.8906,275.1563 591.5156,275.1563 Q591.1719,275.1563 590.9688,274.9531 Q590.7656,274.7656 590.6563,274.25 Q590.6094,273.8906 590.4219,273.7031 Q590.0938,273.3281 589.4844,273.1094 Q588.875,272.8906 588.25,272.8906 Q587.4844,272.8906 586.8516,273.2188 Q586.2188,273.5469 585.7266,274.2969 Q585.2344,275.0469 585.2344,276.0781 L585.2344,277.1719 Q585.2344,278.4063 586.125,279.2266 Q587.0156,280.0469 588.6094,280.0469 Q589.5469,280.0469 590.2031,279.7969 Q590.5938,279.6406 591.0156,279.2031 Q591.2813,278.9375 591.4297,278.8594 Q591.5781,278.7813 591.7813,278.7813 Q592.1094,278.7813 592.3672,279.0391 Q592.625,279.2969 592.625,279.6406 Q592.625,279.9844 592.2813,280.3906 Q591.7813,280.9688 590.9844,281.2969 Q589.9063,281.75 588.6094,281.75 Q587.0938,281.75 585.8906,281.125 Q584.9063,280.625 584.2188,279.5547 Q583.5313,278.4844 583.5313,277.2031 L583.5313,276.0469 Q583.5313,274.7188 584.1484,273.5703 Q584.7656,272.4219 585.8594,271.8047 Q586.9531,271.1875 588.1875,271.1875 Q588.9219,271.1875 589.5703,271.3516 Q590.2188,271.5156 590.7656,271.875 Z "/>
        <text fill="#000000" font-family="sans-serif" font-size="12" lengthAdjust="spacingAndGlyphs" textLength="116" x="602" y="280.9102">NetworkProtocolType</text>
        <line style="stroke: #A80036; stroke-width: 1.5;" x1="574" x2="720" y1="292" y2="292"/>
        <line style="stroke: #A80036; stroke-width: 1.5;" x1="574" x2="720" y1="300" y2="300"/>
        <rect fill="#FEFECE" filter="url(#f1)" height="48" style="stroke: #A80036; stroke-width: 1.5;" width="122" x="756" y="260"/>
        <ellipse cx="771" cy="276" fill="#B4A7E5" rx="11" ry="11" style="stroke: #A80036; stroke-width: 1.0;"/>
        <path d="M771.9531,272.6406 L771.9531,279.2969 L773.6719,279.2969 Q774.2813,279.2969 774.5469,279.5313 Q774.8125,279.7656 774.8125,280.1563 Q774.8125,280.5313 774.5469,280.7656 Q774.2813,281 773.6719,281 L768.5313,281 Q767.9219,281 767.6563,280.7656 Q767.3906,280.5313 767.3906,280.1406 Q767.3906,279.7656 767.6563,279.5313 Q767.9219,279.2969 768.5313,279.2969 L770.25,279.2969 L770.25,272.6406 L768.5313,272.6406 Q767.9219,272.6406 767.6563,272.4063 Q767.3906,272.1719 767.3906,271.7813 Q767.3906,271.4063 767.6563,271.1719 Q767.9219,270.9375 768.5313,270.9375 L773.6719,270.9375 Q774.2813,270.9375 774.5469,271.1719 Q774.8125,271.4063 774.8125,271.7813 Q774.8125,272.1719 774.5469,272.4063 Q774.2813,272.6406 773.6719,272.6406 L771.9531,272.6406 Z "/>
        <text fill="#000000" font-family="sans-serif" font-size="12" font-style="italic" lengthAdjust="spacingAndGlyphs" textLength="90" x="785" y="280.9102">NetworkProtocol</text>
        <line style="stroke: #A80036; stroke-width: 1.5;" x1="757" x2="877" y1="292" y2="292"/>
        <line style="stroke: #A80036; stroke-width: 1.5;" x1="757" x2="877" y1="300" y2="300"/>
        <rect fill="#FEFECE" filter="url(#f1)" height="48" style="stroke: #A80036; stroke-width: 1.5;" width="89" x="1017.5" y="260"/>
        <ellipse cx="1032.5" cy="276" fill="#ADD1B2" rx="11" ry="11" style="stroke: #A80036; stroke-width: 1.0;"/>
        <path d="M1035.2656,271.875 Q1035.4219,271.6563 1035.6094,271.5469 Q1035.7969,271.4375 1036.0156,271.4375 Q1036.3906,271.4375 1036.625,271.6953 Q1036.8594,271.9531 1036.8594,272.5625 L1036.8594,274.0156 Q1036.8594,274.625 1036.625,274.8906 Q1036.3906,275.1563 1036.0156,275.1563 Q1035.6719,275.1563 1035.4688,274.9531 Q1035.2656,274.7656 1035.1563,274.25 Q1035.1094,273.8906 1034.9219,273.7031 Q1034.5938,273.3281 1033.9844,273.1094 Q1033.375,272.8906 1032.75,272.8906 Q1031.9844,272.8906 1031.3516,273.2188 Q1030.7188,273.5469 1030.2266,274.2969 Q1029.7344,275.0469 1029.7344,276.0781 L1029.7344,277.1719 Q1029.7344,278.4063 1030.625,279.2266 Q1031.5156,280.0469 1033.1094,280.0469 Q1034.0469,280.0469 1034.7031,279.7969 Q1035.0938,279.6406 1035.5156,279.2031 Q1035.7813,278.9375 1035.9297,278.8594 Q1036.0781,278.7813 1036.2813,278.7813 Q1036.6094,278.7813 1036.8672,279.0391 Q1037.125,279.2969 1037.125,279.6406 Q1037.125,279.9844 1036.7813,280.3906 Q1036.2813,280.9688 1035.4844,281.2969 Q1034.4063,281.75 1033.1094,281.75 Q1031.5938,281.75 1030.3906,281.125 Q1029.4063,280.625 1028.7188,279.5547 Q1028.0313,278.4844 1028.0313,277.2031 L1028.0313,276.0469 Q1028.0313,274.7188 1028.6484,273.5703 Q1029.2656,272.4219 1030.3594,271.8047 Q1031.4531,271.1875 1032.6875,271.1875 Q1033.4219,271.1875 1034.0703,271.3516 Q1034.7188,271.5156 1035.2656,271.875 Z "/>
        <text fill="#000000" font-family="sans-serif" font-size="12" lengthAdjust="spacingAndGlyphs" textLength="57" x="1046.5" y="280.9102">InfoPacket</text>
        <line style="stroke: #A80036; stroke-width: 1.5;" x1="1018.5" x2="1105.5" y1="292" y2="292"/>
        <line style="stroke: #A80036; stroke-width: 1.5;" x1="1018.5" x2="1105.5" y1="300" y2="300"/>
        <rect fill="#FEFECE" filter="url(#f1)" height="48" style="stroke: #A80036; stroke-width: 1.5;" width="104" x="1142" y="260"/>
        <ellipse cx="1157" cy="276" fill="#ADD1B2" rx="11" ry="11" style="stroke: #A80036; stroke-width: 1.0;"/>
        <path d="M1159.7656,271.875 Q1159.9219,271.6563 1160.1094,271.5469 Q1160.2969,271.4375 1160.5156,271.4375 Q1160.8906,271.4375 1161.125,271.6953 Q1161.3594,271.9531 1161.3594,272.5625 L1161.3594,274.0156 Q1161.3594,274.625 1161.125,274.8906 Q1160.8906,275.1563 1160.5156,275.1563 Q1160.1719,275.1563 1159.9688,274.9531 Q1159.7656,274.7656 1159.6563,274.25 Q1159.6094,273.8906 1159.4219,273.7031 Q1159.0938,273.3281 1158.4844,273.1094 Q1157.875,272.8906 1157.25,272.8906 Q1156.4844,272.8906 1155.8516,273.2188 Q1155.2188,273.5469 1154.7266,274.2969 Q1154.2344,275.0469 1154.2344,276.0781 L1154.2344,277.1719 Q1154.2344,278.4063 1155.125,279.2266 Q1156.0156,280.0469 1157.6094,280.0469 Q1158.5469,280.0469 1159.2031,279.7969 Q1159.5938,279.6406 1160.0156,279.2031 Q1160.2813,278.9375 1160.4297,278.8594 Q1160.5781,278.7813 1160.7813,278.7813 Q1161.1094,278.7813 1161.3672,279.0391 Q1161.625,279.2969 1161.625,279.6406 Q1161.625,279.9844 1161.2813,280.3906 Q1160.7813,280.9688 1159.9844,281.2969 Q1158.9063,281.75 1157.6094,281.75 Q1156.0938,281.75 1154.8906,281.125 Q1153.9063,280.625 1153.2188,279.5547 Q1152.5313,278.4844 1152.5313,277.2031 L1152.5313,276.0469 Q1152.5313,274.7188 1153.1484,273.5703 Q1153.7656,272.4219 1154.8594,271.8047 Q1155.9531,271.1875 1157.1875,271.1875 Q1157.9219,271.1875 1158.5703,271.3516 Q1159.2188,271.5156 1159.7656,271.875 Z "/>
        <text fill="#000000" font-family="sans-serif" font-size="12" lengthAdjust="spacingAndGlyphs" textLength="72" x="1171" y="280.9102">InvalidPacket</text>
        <line style="stroke: #A80036; stroke-width: 1.5;" x1="1143" x2="1245" y1="292" y2="292"/>
        <line style="stroke: #A80036; stroke-width: 1.5;" x1="1143" x2="1245" y1="300" y2="300"/>
        <rect fill="#FEFECE" filter="url(#f1)" height="48" style="stroke: #A80036; stroke-width: 1.5;" width="69" x="913.5" y="260"/>
        <ellipse cx="928.5" cy="276" fill="#ADD1B2" rx="11" ry="11" style="stroke: #A80036; stroke-width: 1.0;"/>
        <path d="M931.2656,271.875 Q931.4219,271.6563 931.6094,271.5469 Q931.7969,271.4375 932.0156,271.4375 Q932.3906,271.4375 932.625,271.6953 Q932.8594,271.9531 932.8594,272.5625 L932.8594,274.0156 Q932.8594,274.625 932.625,274.8906 Q932.3906,275.1563 932.0156,275.1563 Q931.6719,275.1563 931.4688,274.9531 Q931.2656,274.7656 931.1563,274.25 Q931.1094,273.8906 930.9219,273.7031 Q930.5938,273.3281 929.9844,273.1094 Q929.375,272.8906 928.75,272.8906 Q927.9844,272.8906 927.3516,273.2188 Q926.7188,273.5469 926.2266,274.2969 Q925.7344,275.0469 925.7344,276.0781 L925.7344,277.1719 Q925.7344,278.4063 926.625,279.2266 Q927.5156,280.0469 929.1094,280.0469 Q930.0469,280.0469 930.7031,279.7969 Q931.0938,279.6406 931.5156,279.2031 Q931.7813,278.9375 931.9297,278.8594 Q932.0781,278.7813 932.2813,278.7813 Q932.6094,278.7813 932.8672,279.0391 Q933.125,279.2969 933.125,279.6406 Q933.125,279.9844 932.7813,280.3906 Q932.2813,280.9688 931.4844,281.2969 Q930.4063,281.75 929.1094,281.75 Q927.5938,281.75 926.3906,281.125 Q925.4063,280.625 924.7188,279.5547 Q924.0313,278.4844 924.0313,277.2031 L924.0313,276.0469 Q924.0313,274.7188 924.6484,273.5703 Q925.2656,272.4219 926.3594,271.8047 Q927.4531,271.1875 928.6875,271.1875 Q929.4219,271.1875 930.0703,271.3516 Q930.7188,271.5156 931.2656,271.875 Z "/>
        <text fill="#000000" font-family="sans-serif" font-size="12" lengthAdjust="spacingAndGlyphs" textLength="37" x="942.5" y="280.9102">Packet</text>
        <line style="stroke: #A80036; stroke-width: 1.5;" x1="914.5" x2="981.5" y1="292" y2="292"/>
        <line style="stroke: #A80036; stroke-width: 1.5;" x1="914.5" x2="981.5" y1="300" y2="300"/>
        <path d="M365.135,193.413 C329.223,202.2 287.475,214.822 252,232 C238.38,238.5951 224.651,247.8867 213.002,256.7355 " fill="none" style="stroke: #A80036; stroke-width: 1.0; stroke-dasharray: 7.0,7.0;"/>
        <polygon fill="#A80036" points="208.809,259.9698,218.3787,257.6417,212.7686,256.9166,213.4937,251.3064,208.809,259.9698" style="stroke: #A80036; stroke-width: 1.0;"/>
        <path d="M456.811,200 C462.246,216.003 469.529,237.4461 475.33,254.528 " fill="none" style="stroke: #A80036; stroke-width: 1.0; stroke-dasharray: 7.0,7.0;"/>
        <polygon fill="#A80036" points="477.079,259.6784,477.9729,249.8702,475.4714,254.9439,470.3977,252.4423,477.079,259.6784" style="stroke: #A80036; stroke-width: 1.0;"/>
        <path d="M423.83,200 C405.714,216.555 381.226,238.9314 362.242,256.2791 " fill="none" style="stroke: #A80036; stroke-width: 1.0; stroke-dasharray: 7.0,7.0;"/>
        <polygon fill="#A80036" points="358.522,259.6784,367.8642,256.56,362.213,256.3055,362.4675,250.6544,358.522,259.6784" style="stroke: #A80036; stroke-width: 1.0;"/>
        <path d="M493.548,200.096 C512.261,209.859 534.23,221.403 554,232 C569.296,240.1994 585.935,249.2742 600.855,257.4683 " fill="none" style="stroke: #A80036; stroke-width: 1.0; stroke-dasharray: 7.0,7.0;"/>
        <polygon fill="#A80036" points="605.426,259.9811,599.4658,252.1404,601.0443,257.5726,595.6122,259.1511,605.426,259.9811" style="stroke: #A80036; stroke-width: 1.0;"/>
        <path d="M510.267,200.065 C520.415,203.183 530.916,205.993 541,208 C618.113,223.347 821.965,200.489 894,232 C906.198,237.336 917.341,246.6638 926.295,255.8955 " fill="none" style="stroke: #A80036; stroke-width: 1.0; stroke-dasharray: 7.0,7.0;"/>
        <polygon fill="#A80036" points="929.996,259.8341,926.7473,250.5365,926.5718,256.1906,920.9177,256.0151,929.996,259.8341" style="stroke: #A80036; stroke-width: 1.0;"/>
        <path d="M511.864,200.065 C521.531,203.063 531.467,205.837 541,208 C627.017,227.5169 655.062,201.984 738,232 C749.506,236.164 761.046,242.2616 771.615,248.8035 " fill="none" style="stroke: #A80036; stroke-width: 1.0;"/>
        <polygon fill="none" points="775.575,243.0308,788.306,259.9698,767.79,254.6669,775.575,243.0308" style="stroke: #A80036; stroke-width: 1.0;"/>
        <path d="M472.49,92 C469.172,103.726 465.026,118.374 461.146,132.086 " fill="none" style="stroke: #A80036; stroke-width: 1.0;"/>
        <polygon fill="none" points="467.782,134.341,455.6,151.678,454.312,130.528,467.782,134.341" style="stroke: #A80036; stroke-width: 1.0;"/>
        <path d="M508.79,92.085 C521.28,101.846 535.913,113.392 549,124 C558.758,131.91 569.287,140.641 578.805,148.609 " fill="none" style="stroke: #A80036; stroke-width: 1.0; stroke-dasharray: 7.0,7.0;"/>
        <polygon fill="#A80036" points="582.817,151.973,578.489,143.1261,578.985,148.7611,573.35,149.2572,582.817,151.973" style="stroke: #A80036; stroke-width: 1.0;"/>
        <path d="M532.71,72.898 C582.669,78.451 657.791,91.839 715,124 C725.876,130.114 735.927,139.301 744.122,148.201 " fill="none" style="stroke: #A80036; stroke-width: 1.0; stroke-dasharray: 7.0,7.0;"/>
        <polygon fill="#A80036" points="747.517,151.988,744.4882,142.6164,744.1796,148.2649,738.5312,147.9563,747.517,151.988" style="stroke: #A80036; stroke-width: 1.0;"/>
        <path d="M425.46,86.392 C400.812,95.649 371.82,108.371 348,124 C290.128,161.973 234.473,221.479 204.598,255.9084 " fill="none" style="stroke: #A80036; stroke-width: 1.0; stroke-dasharray: 7.0,7.0;"/>
        <polygon fill="#A80036" points="201.084,259.9796,209.9923,255.7793,204.3507,256.1943,203.9357,250.5526,201.084,259.9796" style="stroke: #A80036; stroke-width: 1.0;"/>
        <path d="M532.668,69.04 C644.715,70.066 899.008,77.6 970,124 C1017.01,154.725 1042.88,218.413 1054.45,255.1781 " fill="none" style="stroke: #A80036; stroke-width: 1.0; stroke-dasharray: 7.0,7.0;"/>
        <polygon fill="#A80036" points="1055.92,259.9618,1057.0995,250.1838,1054.4511,255.1824,1049.4525,252.5341,1055.92,259.9618" style="stroke: #A80036; stroke-width: 1.0;"/>
        <path d="M532.581,69.929 C653.05,72.723 941.578,83.56 1029,124 C1093.01,153.612 1147.5,218.469 1174.95,255.5503 " fill="none" style="stroke: #A80036; stroke-width: 1.0; stroke-dasharray: 7.0,7.0;"/>
        <polygon fill="#A80036" points="1178.17,259.9305,1176.0689,250.3084,1175.2113,255.8998,1169.6199,255.0423,1178.17,259.9305" style="stroke: #A80036; stroke-width: 1.0;"/>
        <path d="M532.569,71.824 C646.227,78.336 903.429,96.024 931,124 C964.803,158.3 960.601,219.122 954.379,254.7735 " fill="none" style="stroke: #A80036; stroke-width: 1.0; stroke-dasharray: 7.0,7.0;"/>
        <polygon fill="#A80036" points="953.45,259.8448,959.0055,251.7124,954.3505,254.9266,951.1363,250.2716,953.45,259.8448" style="stroke: #A80036; stroke-width: 1.0;"/>
        <path d="M532.53,72.142 C640.086,79.001 874.231,96.907 898,124 C922.621,152.064 912.947,173.789 898,208 C891.598,222.653 880.764,235.7218 869.068,246.6821 " fill="none" style="stroke: #A80036; stroke-width: 1.0;"/>
        <polygon fill="none" points="873.293,252.2767,853.496,259.8321,864.26,241.5802,873.293,252.2767" style="stroke: #A80036; stroke-width: 1.0;"/>
    </g>
</svg>
