<?xml version="1.0" encoding="UTF-8"?><svg xmlns="http://www.w3.org/2000/svg" xmlns:xlink="http://www.w3.org/1999/xlink" height="431pt" style="width:1669px;height:431px;" version="1.1" viewBox="0 0 1669 431" width="1669pt">
    <defs>
        <filter height="300%" id="f1" width="300%" x="-1" y="-1">
            <feGaussianBlur result="blurOut" stdDeviation="2.0"/>
            <feColorMatrix in="blurOut" result="blurOut2" type="matrix" values="0 0 0 0 0 0 0 0 0 0 0 0 0 0 0 0 0 0 .4 0"/>
            <feOffset dx="4.0" dy="4.0" in="blurOut2" result="blurOut3"/>
            <feBlend in="SourceGraphic" in2="blurOut3" mode="normal"/>
        </filter>
    </defs>
    <g>
        <polygon fill="#FFFFFF" filter="url(#f1)" points="14,16,274,16,281,39.6094,452,39.6094,452,316,14,316,14,16" style="stroke: #000000; stroke-width: 2.0;"/>
        <line style="stroke: #000000; stroke-width: 2.0;" x1="14" x2="281" y1="39.6094" y2="39.6094"/>
        <text fill="#000000" font-family="sans-serif" font-size="14" font-weight="bold" lengthAdjust="spacingAndGlyphs" textLength="254" x="17" y="33.5332">de.mash1t.chat.networking.methods</text>
        <polygon fill="#FFFFFF" filter="url(#f1)" points="793,124,1047,124,1054,147.6094,1662,147.6094,1662,424,793,424,793,124" style="stroke: #000000; stroke-width: 2.0;"/>
        <line style="stroke: #000000; stroke-width: 2.0;" x1="793" x2="1054" y1="147.6094" y2="147.6094"/>
        <text fill="#000000" font-family="sans-serif" font-size="14" font-weight="bold" lengthAdjust="spacingAndGlyphs" textLength="248" x="796" y="141.5332">de.mash1t.chat.networking.packets</text>
        <polygon fill="#FFFFFF" filter="url(#f1)" points="606,124,775,124,782,147.6094,785,147.6094,785,208,606,208,606,124" style="stroke: #000000; stroke-width: 2.0;"/>
        <line style="stroke: #000000; stroke-width: 2.0;" x1="606" x2="782" y1="147.6094" y2="147.6094"/>
        <text fill="#000000" font-family="sans-serif" font-size="14" font-weight="bold" lengthAdjust="spacingAndGlyphs" textLength="163" x="609" y="141.5332">de.mash1t.chat.logging</text>
        <polygon fill="#FFFFFF" filter="url(#f1)" points="336,340,557,340,564,363.6094,567,363.6094,567,424,336,424,336,340" style="stroke: #000000; stroke-width: 2.0;"/>
        <line style="stroke: #000000; stroke-width: 2.0;" x1="336" x2="564" y1="363.6094" y2="363.6094"/>
        <text fill="#000000" font-family="sans-serif" font-size="14" font-weight="bold" lengthAdjust="spacingAndGlyphs" textLength="215" x="339" y="357.5332">de.mash1t.chat.security.basics</text>
        <polygon fill="#FFFFFF" filter="url(#f1)" points="45,340,313,340,320,363.6094,323,363.6094,323,424,45,424,45,340" style="stroke: #000000; stroke-width: 2.0;"/>
        <line style="stroke: #000000; stroke-width: 2.0;" x1="45" x2="320" y1="363.6094" y2="363.6094"/>
        <text fill="#000000" font-family="sans-serif" font-size="14" font-weight="bold" lengthAdjust="spacingAndGlyphs" textLength="262" x="48" y="357.5332">de.mash1t.chat.security.cryptography</text>
        <polygon fill="#FFFFFF" filter="url(#f1)" points="460,232,683,232,690,255.6094,693,255.6094,693,316,460,316,460,232" style="stroke: #000000; stroke-width: 2.0;"/>
        <line style="stroke: #000000; stroke-width: 2.0;" x1="460" x2="690" y1="255.6094" y2="255.6094"/>
        <text fill="#000000" font-family="sans-serif" font-size="14" font-weight="bold" lengthAdjust="spacingAndGlyphs" textLength="217" x="463" y="249.5332">de.mash1t.chat.server.console</text>
        <rect fill="#FEFECE" filter="url(#f1)" height="48" style="stroke: #A80036; stroke-width: 1.5;" width="167" x="217.5" y="152"/>
        <ellipse cx="232.5" cy="168" fill="#A9DCDF" rx="11" ry="11" style="stroke: #A80036; stroke-width: 1.0;"/>
        <path d="M234.6875,169.7656 L230.5469,169.7656 L230.125,170.7969 L230.5469,170.7969 Q231.1563,170.7969 231.4219,171.0313 Q231.6875,171.2656 231.6875,171.6563 Q231.6875,172.0313 231.4219,172.2656 Q231.1563,172.5 230.5469,172.5 L228.25,172.5 Q227.6406,172.5 227.3828,172.2656 Q227.125,172.0313 227.125,171.6406 Q227.125,171.2656 227.3984,171.0234 Q227.6719,170.7813 228.2969,170.7969 L230.9688,164.1406 L229.8594,164.1406 Q229.25,164.1406 228.9844,163.9063 Q228.7188,163.6719 228.7188,163.2813 Q228.7188,162.9063 228.9844,162.6719 Q229.25,162.4375 229.8594,162.4375 L233.5313,162.4375 L236.9219,170.7969 Q237.5156,170.7969 237.7031,170.9375 Q238.0938,171.2031 238.0938,171.6563 Q238.0938,172.0313 237.8359,172.2656 Q237.5781,172.5 236.9688,172.5 L234.6719,172.5 Q234.0625,172.5 233.7969,172.2656 Q233.5313,172.0313 233.5313,171.6406 Q233.5313,171.2656 233.7969,171.0313 Q234.0625,170.7969 234.6719,170.7969 L235.0938,170.7969 L234.6875,169.7656 Z M233.9688,168.0625 L232.6094,164.6875 L231.2344,168.0625 L233.9688,168.0625 Z "/>
        <text fill="#000000" font-family="sans-serif" font-size="12" font-style="italic" lengthAdjust="spacingAndGlyphs" textLength="135" x="246.5" y="172.9102">AbstractNetworkProtocol</text>
        <line style="stroke: #A80036; stroke-width: 1.5;" x1="218.5" x2="383.5" y1="184" y2="184"/>
        <line style="stroke: #A80036; stroke-width: 1.5;" x1="218.5" x2="383.5" y1="192" y2="192"/>
        <rect fill="#FEFECE" filter="url(#f1)" height="48" style="stroke: #A80036; stroke-width: 1.5;" width="56" x="388" y="44"/>
        <ellipse cx="403" cy="60" fill="#ADD1B2" rx="11" ry="11" style="stroke: #A80036; stroke-width: 1.0;"/>
        <path d="M405.7656,55.875 Q405.9219,55.6563 406.1094,55.5469 Q406.2969,55.4375 406.5156,55.4375 Q406.8906,55.4375 407.125,55.6953 Q407.3594,55.9531 407.3594,56.5625 L407.3594,58.0156 Q407.3594,58.625 407.125,58.8906 Q406.8906,59.1563 406.5156,59.1563 Q406.1719,59.1563 405.9688,58.9531 Q405.7656,58.7656 405.6563,58.25 Q405.6094,57.8906 405.4219,57.7031 Q405.0938,57.3281 404.4844,57.1094 Q403.875,56.8906 403.25,56.8906 Q402.4844,56.8906 401.8516,57.2188 Q401.2188,57.5469 400.7266,58.2969 Q400.2344,59.0469 400.2344,60.0781 L400.2344,61.1719 Q400.2344,62.4063 401.125,63.2266 Q402.0156,64.0469 403.6094,64.0469 Q404.5469,64.0469 405.2031,63.7969 Q405.5938,63.6406 406.0156,63.2031 Q406.2813,62.9375 406.4297,62.8594 Q406.5781,62.7813 406.7813,62.7813 Q407.1094,62.7813 407.3672,63.0391 Q407.625,63.2969 407.625,63.6406 Q407.625,63.9844 407.2813,64.3906 Q406.7813,64.9688 405.9844,65.2969 Q404.9063,65.75 403.6094,65.75 Q402.0938,65.75 400.8906,65.125 Q399.9063,64.625 399.2188,63.5547 Q398.5313,62.4844 398.5313,61.2031 L398.5313,60.0469 Q398.5313,58.7188 399.1484,57.5703 Q399.7656,56.4219 400.8594,55.8047 Q401.9531,55.1875 403.1875,55.1875 Q403.9219,55.1875 404.5703,55.3516 Q405.2188,55.5156 405.7656,55.875 Z "/>
        <text fill="#000000" font-family="sans-serif" font-size="12" lengthAdjust="spacingAndGlyphs" textLength="24" x="417" y="64.9102">TCP</text>
        <line style="stroke: #A80036; stroke-width: 1.5;" x1="389" x2="443" y1="76" y2="76"/>
        <line style="stroke: #A80036; stroke-width: 1.5;" x1="389" x2="443" y1="84" y2="84"/>
        <rect fill="#FEFECE" filter="url(#f1)" height="48" style="stroke: #A80036; stroke-width: 1.5;" width="148" x="205" y="44"/>
        <ellipse cx="220" cy="60" fill="#EB937F" rx="11" ry="11" style="stroke: #A80036; stroke-width: 1.0;"/>
        <path d="M218.8594,60.7969 L218.8594,63.2969 L223.1875,63.2969 L223.1875,62.375 Q223.1875,61.7656 223.4297,61.5 Q223.6719,61.2344 224.0469,61.2344 Q224.4219,61.2344 224.6563,61.5 Q224.8906,61.7656 224.8906,62.375 L224.8906,65 L216.8906,65 Q216.2656,65 216.0078,64.7656 Q215.75,64.5313 215.75,64.1406 Q215.75,63.7656 216.0156,63.5313 Q216.2813,63.2969 216.8906,63.2969 L217.1563,63.2969 L217.1563,56.6406 L216.8906,56.6406 Q216.2656,56.6406 216.0078,56.4063 Q215.75,56.1719 215.75,55.7813 Q215.75,55.4063 216.0078,55.1719 Q216.2656,54.9375 216.8906,54.9375 L224.5156,54.9375 L224.5156,57.5313 Q224.5156,58.1406 224.2891,58.3984 Q224.0625,58.6563 223.6719,58.6563 Q223.2969,58.6563 223.0625,58.3984 Q222.8281,58.1406 222.8281,57.5313 L222.8281,56.6406 L218.8594,56.6406 L218.8594,59.0938 L220.3438,59.0938 Q220.3438,58.4375 220.4688,58.25 Q220.7344,57.8438 221.2031,57.8438 Q221.5781,57.8438 221.8125,58.1016 Q222.0469,58.3594 222.0469,58.9688 L222.0469,60.9375 Q222.0469,61.4844 221.9219,61.6719 Q221.6563,62.0625 221.2031,62.0625 Q220.7344,62.0625 220.4688,61.6563 Q220.3438,61.4688 220.3438,60.7969 L218.8594,60.7969 Z "/>
        <text fill="#000000" font-family="sans-serif" font-size="12" lengthAdjust="spacingAndGlyphs" textLength="116" x="234" y="64.9102">NetworkProtocolRole</text>
        <line style="stroke: #A80036; stroke-width: 1.5;" x1="206" x2="352" y1="76" y2="76"/>
        <line style="stroke: #A80036; stroke-width: 1.5;" x1="206" x2="352" y1="84" y2="84"/>
        <rect fill="#FEFECE" filter="url(#f1)" height="48" style="stroke: #A80036; stroke-width: 1.5;" width="148" x="22" y="44"/>
        <ellipse cx="37" cy="60" fill="#EB937F" rx="11" ry="11" style="stroke: #A80036; stroke-width: 1.0;"/>
        <path d="M35.8594,60.7969 L35.8594,63.2969 L40.1875,63.2969 L40.1875,62.375 Q40.1875,61.7656 40.4297,61.5 Q40.6719,61.2344 41.0469,61.2344 Q41.4219,61.2344 41.6563,61.5 Q41.8906,61.7656 41.8906,62.375 L41.8906,65 L33.8906,65 Q33.2656,65 33.0078,64.7656 Q32.75,64.5313 32.75,64.1406 Q32.75,63.7656 33.0156,63.5313 Q33.2813,63.2969 33.8906,63.2969 L34.1563,63.2969 L34.1563,56.6406 L33.8906,56.6406 Q33.2656,56.6406 33.0078,56.4063 Q32.75,56.1719 32.75,55.7813 Q32.75,55.4063 33.0078,55.1719 Q33.2656,54.9375 33.8906,54.9375 L41.5156,54.9375 L41.5156,57.5313 Q41.5156,58.1406 41.2891,58.3984 Q41.0625,58.6563 40.6719,58.6563 Q40.2969,58.6563 40.0625,58.3984 Q39.8281,58.1406 39.8281,57.5313 L39.8281,56.6406 L35.8594,56.6406 L35.8594,59.0938 L37.3438,59.0938 Q37.3438,58.4375 37.4688,58.25 Q37.7344,57.8438 38.2031,57.8438 Q38.5781,57.8438 38.8125,58.1016 Q39.0469,58.3594 39.0469,58.9688 L39.0469,60.9375 Q39.0469,61.4844 38.9219,61.6719 Q38.6563,62.0625 38.2031,62.0625 Q37.7344,62.0625 37.4688,61.6563 Q37.3438,61.4688 37.3438,60.7969 L35.8594,60.7969 Z "/>
        <text fill="#000000" font-family="sans-serif" font-size="12" lengthAdjust="spacingAndGlyphs" textLength="116" x="51" y="64.9102">NetworkProtocolType</text>
        <line style="stroke: #A80036; stroke-width: 1.5;" x1="23" x2="169" y1="76" y2="76"/>
        <line style="stroke: #A80036; stroke-width: 1.5;" x1="23" x2="169" y1="84" y2="84"/>
        <rect fill="#FEFECE" filter="url(#f1)" height="48" style="stroke: #A80036; stroke-width: 1.5;" width="122" x="240" y="260"/>
        <ellipse cx="255" cy="276" fill="#B4A7E5" rx="11" ry="11" style="stroke: #A80036; stroke-width: 1.0;"/>
        <path d="M255.9531,272.6406 L255.9531,279.2969 L257.6719,279.2969 Q258.2813,279.2969 258.5469,279.5313 Q258.8125,279.7656 258.8125,280.1563 Q258.8125,280.5313 258.5469,280.7656 Q258.2813,281 257.6719,281 L252.5313,281 Q251.9219,281 251.6563,280.7656 Q251.3906,280.5313 251.3906,280.1406 Q251.3906,279.7656 251.6563,279.5313 Q251.9219,279.2969 252.5313,279.2969 L254.25,279.2969 L254.25,272.6406 L252.5313,272.6406 Q251.9219,272.6406 251.6563,272.4063 Q251.3906,272.1719 251.3906,271.7813 Q251.3906,271.4063 251.6563,271.1719 Q251.9219,270.9375 252.5313,270.9375 L257.6719,270.9375 Q258.2813,270.9375 258.5469,271.1719 Q258.8125,271.4063 258.8125,271.7813 Q258.8125,272.1719 258.5469,272.4063 Q258.2813,272.6406 257.6719,272.6406 L255.9531,272.6406 Z "/>
        <text fill="#000000" font-family="sans-serif" font-size="12" font-style="italic" lengthAdjust="spacingAndGlyphs" textLength="90" x="269" y="280.9102">NetworkProtocol</text>
        <line style="stroke: #A80036; stroke-width: 1.5;" x1="241" x2="361" y1="292" y2="292"/>
        <line style="stroke: #A80036; stroke-width: 1.5;" x1="241" x2="361" y1="300" y2="300"/>
        <rect fill="#FEFECE" filter="url(#f1)" height="48" style="stroke: #A80036; stroke-width: 1.5;" width="119" x="1218.5" y="260"/>
        <ellipse cx="1233.5" cy="276" fill="#A9DCDF" rx="11" ry="11" style="stroke: #A80036; stroke-width: 1.0;"/>
        <path d="M1235.6875,277.7656 L1231.5469,277.7656 L1231.125,278.7969 L1231.5469,278.7969 Q1232.1563,278.7969 1232.4219,279.0313 Q1232.6875,279.2656 1232.6875,279.6563 Q1232.6875,280.0313 1232.4219,280.2656 Q1232.1563,280.5 1231.5469,280.5 L1229.25,280.5 Q1228.6406,280.5 1228.3828,280.2656 Q1228.125,280.0313 1228.125,279.6406 Q1228.125,279.2656 1228.3984,279.0234 Q1228.6719,278.7813 1229.2969,278.7969 L1231.9688,272.1406 L1230.8594,272.1406 Q1230.25,272.1406 1229.9844,271.9063 Q1229.7188,271.6719 1229.7188,271.2813 Q1229.7188,270.9063 1229.9844,270.6719 Q1230.25,270.4375 1230.8594,270.4375 L1234.5313,270.4375 L1237.9219,278.7969 Q1238.5156,278.7969 1238.7031,278.9375 Q1239.0938,279.2031 1239.0938,279.6563 Q1239.0938,280.0313 1238.8359,280.2656 Q1238.5781,280.5 1237.9688,280.5 L1235.6719,280.5 Q1235.0625,280.5 1234.7969,280.2656 Q1234.5313,280.0313 1234.5313,279.6406 Q1234.5313,279.2656 1234.7969,279.0313 Q1235.0625,278.7969 1235.6719,278.7969 L1236.0938,278.7969 L1235.6875,277.7656 Z M1234.9688,276.0625 L1233.6094,272.6875 L1232.2344,276.0625 L1234.9688,276.0625 Z "/>
        <text fill="#000000" font-family="sans-serif" font-size="12" font-style="italic" lengthAdjust="spacingAndGlyphs" textLength="87" x="1247.5" y="280.9102">MessagePacket</text>
        <line style="stroke: #A80036; stroke-width: 1.5;" x1="1219.5" x2="1336.5" y1="292" y2="292"/>
        <line style="stroke: #A80036; stroke-width: 1.5;" x1="1219.5" x2="1336.5" y1="300" y2="300"/>
        <rect fill="#FEFECE" filter="url(#f1)" height="48" style="stroke: #A80036; stroke-width: 1.5;" width="70" x="969" y="368"/>
        <ellipse cx="984" cy="384" fill="#A9DCDF" rx="11" ry="11" style="stroke: #A80036; stroke-width: 1.0;"/>
        <path d="M986.1875,385.7656 L982.0469,385.7656 L981.625,386.7969 L982.0469,386.7969 Q982.6563,386.7969 982.9219,387.0313 Q983.1875,387.2656 983.1875,387.6563 Q983.1875,388.0313 982.9219,388.2656 Q982.6563,388.5 982.0469,388.5 L979.75,388.5 Q979.1406,388.5 978.8828,388.2656 Q978.625,388.0313 978.625,387.6406 Q978.625,387.2656 978.8984,387.0234 Q979.1719,386.7813 979.7969,386.7969 L982.4688,380.1406 L981.3594,380.1406 Q980.75,380.1406 980.4844,379.9063 Q980.2188,379.6719 980.2188,379.2813 Q980.2188,378.9063 980.4844,378.6719 Q980.75,378.4375 981.3594,378.4375 L985.0313,378.4375 L988.4219,386.7969 Q989.0156,386.7969 989.2031,386.9375 Q989.5938,387.2031 989.5938,387.6563 Q989.5938,388.0313 989.3359,388.2656 Q989.0781,388.5 988.4688,388.5 L986.1719,388.5 Q985.5625,388.5 985.2969,388.2656 Q985.0313,388.0313 985.0313,387.6406 Q985.0313,387.2656 985.2969,387.0313 Q985.5625,386.7969 986.1719,386.7969 L986.5938,386.7969 L986.1875,385.7656 Z M985.4688,384.0625 L984.1094,380.6875 L982.7344,384.0625 L985.4688,384.0625 Z "/>
        <text fill="#000000" font-family="sans-serif" font-size="12" font-style="italic" lengthAdjust="spacingAndGlyphs" textLength="38" x="998" y="388.9102">Packet</text>
        <line style="stroke: #A80036; stroke-width: 1.5;" x1="970" x2="1038" y1="400" y2="400"/>
        <line style="stroke: #A80036; stroke-width: 1.5;" x1="970" x2="1038" y1="408" y2="408"/>
        <rect fill="#FEFECE" filter="url(#f1)" height="48" style="stroke: #A80036; stroke-width: 1.5;" width="115" x="1538.5" y="260"/>
        <ellipse cx="1553.5" cy="276" fill="#ADD1B2" rx="11" ry="11" style="stroke: #A80036; stroke-width: 1.0;"/>
        <path d="M1556.2656,271.875 Q1556.4219,271.6563 1556.6094,271.5469 Q1556.7969,271.4375 1557.0156,271.4375 Q1557.3906,271.4375 1557.625,271.6953 Q1557.8594,271.9531 1557.8594,272.5625 L1557.8594,274.0156 Q1557.8594,274.625 1557.625,274.8906 Q1557.3906,275.1563 1557.0156,275.1563 Q1556.6719,275.1563 1556.4688,274.9531 Q1556.2656,274.7656 1556.1563,274.25 Q1556.1094,273.8906 1555.9219,273.7031 Q1555.5938,273.3281 1554.9844,273.1094 Q1554.375,272.8906 1553.75,272.8906 Q1552.9844,272.8906 1552.3516,273.2188 Q1551.7188,273.5469 1551.2266,274.2969 Q1550.7344,275.0469 1550.7344,276.0781 L1550.7344,277.1719 Q1550.7344,278.4063 1551.625,279.2266 Q1552.5156,280.0469 1554.1094,280.0469 Q1555.0469,280.0469 1555.7031,279.7969 Q1556.0938,279.6406 1556.5156,279.2031 Q1556.7813,278.9375 1556.9297,278.8594 Q1557.0781,278.7813 1557.2813,278.7813 Q1557.6094,278.7813 1557.8672,279.0391 Q1558.125,279.2969 1558.125,279.6406 Q1558.125,279.9844 1557.7813,280.3906 Q1557.2813,280.9688 1556.4844,281.2969 Q1555.4063,281.75 1554.1094,281.75 Q1552.5938,281.75 1551.3906,281.125 Q1550.4063,280.625 1549.7188,279.5547 Q1549.0313,278.4844 1549.0313,277.2031 L1549.0313,276.0469 Q1549.0313,274.7188 1549.6484,273.5703 Q1550.2656,272.4219 1551.3594,271.8047 Q1552.4531,271.1875 1553.6875,271.1875 Q1554.4219,271.1875 1555.0703,271.3516 Q1555.7188,271.5156 1556.2656,271.875 Z "/>
        <text fill="#000000" font-family="sans-serif" font-size="12" lengthAdjust="spacingAndGlyphs" textLength="83" x="1567.5" y="280.9102">ConnectPacket</text>
        <line style="stroke: #A80036; stroke-width: 1.5;" x1="1539.5" x2="1652.5" y1="292" y2="292"/>
        <line style="stroke: #A80036; stroke-width: 1.5;" x1="1539.5" x2="1652.5" y1="300" y2="300"/>
        <rect fill="#FEFECE" filter="url(#f1)" height="48" style="stroke: #A80036; stroke-width: 1.5;" width="131" x="1372.5" y="260"/>
        <ellipse cx="1387.5" cy="276" fill="#ADD1B2" rx="11" ry="11" style="stroke: #A80036; stroke-width: 1.0;"/>
        <path d="M1390.2656,271.875 Q1390.4219,271.6563 1390.6094,271.5469 Q1390.7969,271.4375 1391.0156,271.4375 Q1391.3906,271.4375 1391.625,271.6953 Q1391.8594,271.9531 1391.8594,272.5625 L1391.8594,274.0156 Q1391.8594,274.625 1391.625,274.8906 Q1391.3906,275.1563 1391.0156,275.1563 Q1390.6719,275.1563 1390.4688,274.9531 Q1390.2656,274.7656 1390.1563,274.25 Q1390.1094,273.8906 1389.9219,273.7031 Q1389.5938,273.3281 1388.9844,273.1094 Q1388.375,272.8906 1387.75,272.8906 Q1386.9844,272.8906 1386.3516,273.2188 Q1385.7188,273.5469 1385.2266,274.2969 Q1384.7344,275.0469 1384.7344,276.0781 L1384.7344,277.1719 Q1384.7344,278.4063 1385.625,279.2266 Q1386.5156,280.0469 1388.1094,280.0469 Q1389.0469,280.0469 1389.7031,279.7969 Q1390.0938,279.6406 1390.5156,279.2031 Q1390.7813,278.9375 1390.9297,278.8594 Q1391.0781,278.7813 1391.2813,278.7813 Q1391.6094,278.7813 1391.8672,279.0391 Q1392.125,279.2969 1392.125,279.6406 Q1392.125,279.9844 1391.7813,280.3906 Q1391.2813,280.9688 1390.4844,281.2969 Q1389.4063,281.75 1388.1094,281.75 Q1386.5938,281.75 1385.3906,281.125 Q1384.4063,280.625 1383.7188,279.5547 Q1383.0313,278.4844 1383.0313,277.2031 L1383.0313,276.0469 Q1383.0313,274.7188 1383.6484,273.5703 Q1384.2656,272.4219 1385.3594,271.8047 Q1386.4531,271.1875 1387.6875,271.1875 Q1388.4219,271.1875 1389.0703,271.3516 Q1389.7188,271.5156 1390.2656,271.875 Z "/>
        <text fill="#000000" font-family="sans-serif" font-size="12" lengthAdjust="spacingAndGlyphs" textLength="99" x="1401.5" y="280.9102">DisconnectPacket</text>
        <line style="stroke: #A80036; stroke-width: 1.5;" x1="1373.5" x2="1502.5" y1="292" y2="292"/>
        <line style="stroke: #A80036; stroke-width: 1.5;" x1="1373.5" x2="1502.5" y1="300" y2="300"/>
        <rect fill="#FEFECE" filter="url(#f1)" height="48" style="stroke: #A80036; stroke-width: 1.5;" width="154" x="1425" y="152"/>
        <ellipse cx="1440" cy="168" fill="#ADD1B2" rx="11" ry="11" style="stroke: #A80036; stroke-width: 1.0;"/>
        <path d="M1442.7656,163.875 Q1442.9219,163.6563 1443.1094,163.5469 Q1443.2969,163.4375 1443.5156,163.4375 Q1443.8906,163.4375 1444.125,163.6953 Q1444.3594,163.9531 1444.3594,164.5625 L1444.3594,166.0156 Q1444.3594,166.625 1444.125,166.8906 Q1443.8906,167.1563 1443.5156,167.1563 Q1443.1719,167.1563 1442.9688,166.9531 Q1442.7656,166.7656 1442.6563,166.25 Q1442.6094,165.8906 1442.4219,165.7031 Q1442.0938,165.3281 1441.4844,165.1094 Q1440.875,164.8906 1440.25,164.8906 Q1439.4844,164.8906 1438.8516,165.2188 Q1438.2188,165.5469 1437.7266,166.2969 Q1437.2344,167.0469 1437.2344,168.0781 L1437.2344,169.1719 Q1437.2344,170.4063 1438.125,171.2266 Q1439.0156,172.0469 1440.6094,172.0469 Q1441.5469,172.0469 1442.2031,171.7969 Q1442.5938,171.6406 1443.0156,171.2031 Q1443.2813,170.9375 1443.4297,170.8594 Q1443.5781,170.7813 1443.7813,170.7813 Q1444.1094,170.7813 1444.3672,171.0391 Q1444.625,171.2969 1444.625,171.6406 Q1444.625,171.9844 1444.2813,172.3906 Q1443.7813,172.9688 1442.9844,173.2969 Q1441.9063,173.75 1440.6094,173.75 Q1439.0938,173.75 1437.8906,173.125 Q1436.9063,172.625 1436.2188,171.5547 Q1435.5313,170.4844 1435.5313,169.2031 L1435.5313,168.0469 Q1435.5313,166.7188 1436.1484,165.5703 Q1436.7656,164.4219 1437.8594,163.8047 Q1438.9531,163.1875 1440.1875,163.1875 Q1440.9219,163.1875 1441.5703,163.3516 Q1442.2188,163.5156 1442.7656,163.875 Z "/>
        <text fill="#000000" font-family="sans-serif" font-size="12" lengthAdjust="spacingAndGlyphs" textLength="122" x="1454" y="172.9102">GroupMessagePacket</text>
        <line style="stroke: #A80036; stroke-width: 1.5;" x1="1426" x2="1578" y1="184" y2="184"/>
        <line style="stroke: #A80036; stroke-width: 1.5;" x1="1426" x2="1578" y1="192" y2="192"/>
        <rect fill="#FEFECE" filter="url(#f1)" height="48" style="stroke: #A80036; stroke-width: 1.5;" width="89" x="1300.5" y="152"/>
        <ellipse cx="1315.5" cy="168" fill="#ADD1B2" rx="11" ry="11" style="stroke: #A80036; stroke-width: 1.0;"/>
        <path d="M1318.2656,163.875 Q1318.4219,163.6563 1318.6094,163.5469 Q1318.7969,163.4375 1319.0156,163.4375 Q1319.3906,163.4375 1319.625,163.6953 Q1319.8594,163.9531 1319.8594,164.5625 L1319.8594,166.0156 Q1319.8594,166.625 1319.625,166.8906 Q1319.3906,167.1563 1319.0156,167.1563 Q1318.6719,167.1563 1318.4688,166.9531 Q1318.2656,166.7656 1318.1563,166.25 Q1318.1094,165.8906 1317.9219,165.7031 Q1317.5938,165.3281 1316.9844,165.1094 Q1316.375,164.8906 1315.75,164.8906 Q1314.9844,164.8906 1314.3516,165.2188 Q1313.7188,165.5469 1313.2266,166.2969 Q1312.7344,167.0469 1312.7344,168.0781 L1312.7344,169.1719 Q1312.7344,170.4063 1313.625,171.2266 Q1314.5156,172.0469 1316.1094,172.0469 Q1317.0469,172.0469 1317.7031,171.7969 Q1318.0938,171.6406 1318.5156,171.2031 Q1318.7813,170.9375 1318.9297,170.8594 Q1319.0781,170.7813 1319.2813,170.7813 Q1319.6094,170.7813 1319.8672,171.0391 Q1320.125,171.2969 1320.125,171.6406 Q1320.125,171.9844 1319.7813,172.3906 Q1319.2813,172.9688 1318.4844,173.2969 Q1317.4063,173.75 1316.1094,173.75 Q1314.5938,173.75 1313.3906,173.125 Q1312.4063,172.625 1311.7188,171.5547 Q1311.0313,170.4844 1311.0313,169.2031 L1311.0313,168.0469 Q1311.0313,166.7188 1311.6484,165.5703 Q1312.2656,164.4219 1313.3594,163.8047 Q1314.4531,163.1875 1315.6875,163.1875 Q1316.4219,163.1875 1317.0703,163.3516 Q1317.7188,163.5156 1318.2656,163.875 Z "/>
        <text fill="#000000" font-family="sans-serif" font-size="12" lengthAdjust="spacingAndGlyphs" textLength="57" x="1329.5" y="172.9102">InfoPacket</text>
        <line style="stroke: #A80036; stroke-width: 1.5;" x1="1301.5" x2="1388.5" y1="184" y2="184"/>
        <line style="stroke: #A80036; stroke-width: 1.5;" x1="1301.5" x2="1388.5" y1="192" y2="192"/>
        <rect fill="#FEFECE" filter="url(#f1)" height="48" style="stroke: #A80036; stroke-width: 1.5;" width="104" x="952" y="260"/>
        <ellipse cx="967" cy="276" fill="#ADD1B2" rx="11" ry="11" style="stroke: #A80036; stroke-width: 1.0;"/>
        <path d="M969.7656,271.875 Q969.9219,271.6563 970.1094,271.5469 Q970.2969,271.4375 970.5156,271.4375 Q970.8906,271.4375 971.125,271.6953 Q971.3594,271.9531 971.3594,272.5625 L971.3594,274.0156 Q971.3594,274.625 971.125,274.8906 Q970.8906,275.1563 970.5156,275.1563 Q970.1719,275.1563 969.9688,274.9531 Q969.7656,274.7656 969.6563,274.25 Q969.6094,273.8906 969.4219,273.7031 Q969.0938,273.3281 968.4844,273.1094 Q967.875,272.8906 967.25,272.8906 Q966.4844,272.8906 965.8516,273.2188 Q965.2188,273.5469 964.7266,274.2969 Q964.2344,275.0469 964.2344,276.0781 L964.2344,277.1719 Q964.2344,278.4063 965.125,279.2266 Q966.0156,280.0469 967.6094,280.0469 Q968.5469,280.0469 969.2031,279.7969 Q969.5938,279.6406 970.0156,279.2031 Q970.2813,278.9375 970.4297,278.8594 Q970.5781,278.7813 970.7813,278.7813 Q971.1094,278.7813 971.3672,279.0391 Q971.625,279.2969 971.625,279.6406 Q971.625,279.9844 971.2813,280.3906 Q970.7813,280.9688 969.9844,281.2969 Q968.9063,281.75 967.6094,281.75 Q966.0938,281.75 964.8906,281.125 Q963.9063,280.625 963.2188,279.5547 Q962.5313,278.4844 962.5313,277.2031 L962.5313,276.0469 Q962.5313,274.7188 963.1484,273.5703 Q963.7656,272.4219 964.8594,271.8047 Q965.9531,271.1875 967.1875,271.1875 Q967.9219,271.1875 968.5703,271.3516 Q969.2188,271.5156 969.7656,271.875 Z "/>
        <text fill="#000000" font-family="sans-serif" font-size="12" lengthAdjust="spacingAndGlyphs" textLength="72" x="981" y="280.9102">InvalidPacket</text>
        <line style="stroke: #A80036; stroke-width: 1.5;" x1="953" x2="1055" y1="292" y2="292"/>
        <line style="stroke: #A80036; stroke-width: 1.5;" x1="953" x2="1055" y1="300" y2="300"/>
        <rect fill="#FEFECE" filter="url(#f1)" height="48" style="stroke: #A80036; stroke-width: 1.5;" width="92" x="1091" y="260"/>
        <ellipse cx="1106" cy="276" fill="#ADD1B2" rx="11" ry="11" style="stroke: #A80036; stroke-width: 1.0;"/>
        <path d="M1108.7656,271.875 Q1108.9219,271.6563 1109.1094,271.5469 Q1109.2969,271.4375 1109.5156,271.4375 Q1109.8906,271.4375 1110.125,271.6953 Q1110.3594,271.9531 1110.3594,272.5625 L1110.3594,274.0156 Q1110.3594,274.625 1110.125,274.8906 Q1109.8906,275.1563 1109.5156,275.1563 Q1109.1719,275.1563 1108.9688,274.9531 Q1108.7656,274.7656 1108.6563,274.25 Q1108.6094,273.8906 1108.4219,273.7031 Q1108.0938,273.3281 1107.4844,273.1094 Q1106.875,272.8906 1106.25,272.8906 Q1105.4844,272.8906 1104.8516,273.2188 Q1104.2188,273.5469 1103.7266,274.2969 Q1103.2344,275.0469 1103.2344,276.0781 L1103.2344,277.1719 Q1103.2344,278.4063 1104.125,279.2266 Q1105.0156,280.0469 1106.6094,280.0469 Q1107.5469,280.0469 1108.2031,279.7969 Q1108.5938,279.6406 1109.0156,279.2031 Q1109.2813,278.9375 1109.4297,278.8594 Q1109.5781,278.7813 1109.7813,278.7813 Q1110.1094,278.7813 1110.3672,279.0391 Q1110.625,279.2969 1110.625,279.6406 Q1110.625,279.9844 1110.2813,280.3906 Q1109.7813,280.9688 1108.9844,281.2969 Q1107.9063,281.75 1106.6094,281.75 Q1105.0938,281.75 1103.8906,281.125 Q1102.9063,280.625 1102.2188,279.5547 Q1101.5313,278.4844 1101.5313,277.2031 L1101.5313,276.0469 Q1101.5313,274.7188 1102.1484,273.5703 Q1102.7656,272.4219 1103.8594,271.8047 Q1104.9531,271.1875 1106.1875,271.1875 Q1106.9219,271.1875 1107.5703,271.3516 Q1108.2188,271.5156 1108.7656,271.875 Z "/>
        <text fill="#000000" font-family="sans-serif" font-size="12" lengthAdjust="spacingAndGlyphs" textLength="60" x="1120" y="280.9102">KickPacket</text>
        <line style="stroke: #A80036; stroke-width: 1.5;" x1="1092" x2="1182" y1="292" y2="292"/>
        <line style="stroke: #A80036; stroke-width: 1.5;" x1="1092" x2="1182" y1="300" y2="300"/>
        <rect fill="#FEFECE" filter="url(#f1)" height="48" style="stroke: #A80036; stroke-width: 1.5;" width="157" x="1108.5" y="152"/>
        <ellipse cx="1123.5" cy="168" fill="#ADD1B2" rx="11" ry="11" style="stroke: #A80036; stroke-width: 1.0;"/>
        <path d="M1126.2656,163.875 Q1126.4219,163.6563 1126.6094,163.5469 Q1126.7969,163.4375 1127.0156,163.4375 Q1127.3906,163.4375 1127.625,163.6953 Q1127.8594,163.9531 1127.8594,164.5625 L1127.8594,166.0156 Q1127.8594,166.625 1127.625,166.8906 Q1127.3906,167.1563 1127.0156,167.1563 Q1126.6719,167.1563 1126.4688,166.9531 Q1126.2656,166.7656 1126.1563,166.25 Q1126.1094,165.8906 1125.9219,165.7031 Q1125.5938,165.3281 1124.9844,165.1094 Q1124.375,164.8906 1123.75,164.8906 Q1122.9844,164.8906 1122.3516,165.2188 Q1121.7188,165.5469 1121.2266,166.2969 Q1120.7344,167.0469 1120.7344,168.0781 L1120.7344,169.1719 Q1120.7344,170.4063 1121.625,171.2266 Q1122.5156,172.0469 1124.1094,172.0469 Q1125.0469,172.0469 1125.7031,171.7969 Q1126.0938,171.6406 1126.5156,171.2031 Q1126.7813,170.9375 1126.9297,170.8594 Q1127.0781,170.7813 1127.2813,170.7813 Q1127.6094,170.7813 1127.8672,171.0391 Q1128.125,171.2969 1128.125,171.6406 Q1128.125,171.9844 1127.7813,172.3906 Q1127.2813,172.9688 1126.4844,173.2969 Q1125.4063,173.75 1124.1094,173.75 Q1122.5938,173.75 1121.3906,173.125 Q1120.4063,172.625 1119.7188,171.5547 Q1119.0313,170.4844 1119.0313,169.2031 L1119.0313,168.0469 Q1119.0313,166.7188 1119.6484,165.5703 Q1120.2656,164.4219 1121.3594,163.8047 Q1122.4531,163.1875 1123.6875,163.1875 Q1124.4219,163.1875 1125.0703,163.3516 Q1125.7188,163.5156 1126.2656,163.875 Z "/>
        <text fill="#000000" font-family="sans-serif" font-size="12" lengthAdjust="spacingAndGlyphs" textLength="125" x="1137.5" y="172.9102">PrivateMessagePacket</text>
        <line style="stroke: #A80036; stroke-width: 1.5;" x1="1109.5" x2="1264.5" y1="184" y2="184"/>
        <line style="stroke: #A80036; stroke-width: 1.5;" x1="1109.5" x2="1264.5" y1="192" y2="192"/>
        <rect fill="#FEFECE" filter="url(#f1)" height="48" style="stroke: #A80036; stroke-width: 1.5;" width="116" x="801" y="260"/>
        <ellipse cx="816" cy="276" fill="#ADD1B2" rx="11" ry="11" style="stroke: #A80036; stroke-width: 1.0;"/>
        <path d="M818.7656,271.875 Q818.9219,271.6563 819.1094,271.5469 Q819.2969,271.4375 819.5156,271.4375 Q819.8906,271.4375 820.125,271.6953 Q820.3594,271.9531 820.3594,272.5625 L820.3594,274.0156 Q820.3594,274.625 820.125,274.8906 Q819.8906,275.1563 819.5156,275.1563 Q819.1719,275.1563 818.9688,274.9531 Q818.7656,274.7656 818.6563,274.25 Q818.6094,273.8906 818.4219,273.7031 Q818.0938,273.3281 817.4844,273.1094 Q816.875,272.8906 816.25,272.8906 Q815.4844,272.8906 814.8516,273.2188 Q814.2188,273.5469 813.7266,274.2969 Q813.2344,275.0469 813.2344,276.0781 L813.2344,277.1719 Q813.2344,278.4063 814.125,279.2266 Q815.0156,280.0469 816.6094,280.0469 Q817.5469,280.0469 818.2031,279.7969 Q818.5938,279.6406 819.0156,279.2031 Q819.2813,278.9375 819.4297,278.8594 Q819.5781,278.7813 819.7813,278.7813 Q820.1094,278.7813 820.3672,279.0391 Q820.625,279.2969 820.625,279.6406 Q820.625,279.9844 820.2813,280.3906 Q819.7813,280.9688 818.9844,281.2969 Q817.9063,281.75 816.6094,281.75 Q815.0938,281.75 813.8906,281.125 Q812.9063,280.625 812.2188,279.5547 Q811.5313,278.4844 811.5313,277.2031 L811.5313,276.0469 Q811.5313,274.7188 812.1484,273.5703 Q812.7656,272.4219 813.8594,271.8047 Q814.9531,271.1875 816.1875,271.1875 Q816.9219,271.1875 817.5703,271.3516 Q818.2188,271.5156 818.7656,271.875 Z "/>
        <text fill="#000000" font-family="sans-serif" font-size="12" lengthAdjust="spacingAndGlyphs" textLength="84" x="830" y="280.9102">UserListPacket</text>
        <line style="stroke: #A80036; stroke-width: 1.5;" x1="802" x2="916" y1="292" y2="292"/>
        <line style="stroke: #A80036; stroke-width: 1.5;" x1="802" x2="916" y1="300" y2="300"/>
        <rect fill="#FEFECE" filter="url(#f1)" height="48" style="stroke: #A80036; stroke-width: 1.5;" width="95" x="978.5" y="152"/>
        <ellipse cx="993.5" cy="168" fill="#EB937F" rx="11" ry="11" style="stroke: #A80036; stroke-width: 1.0;"/>
        <path d="M992.3594,168.7969 L992.3594,171.2969 L996.6875,171.2969 L996.6875,170.375 Q996.6875,169.7656 996.9297,169.5 Q997.1719,169.2344 997.5469,169.2344 Q997.9219,169.2344 998.1563,169.5 Q998.3906,169.7656 998.3906,170.375 L998.3906,173 L990.3906,173 Q989.7656,173 989.5078,172.7656 Q989.25,172.5313 989.25,172.1406 Q989.25,171.7656 989.5156,171.5313 Q989.7813,171.2969 990.3906,171.2969 L990.6563,171.2969 L990.6563,164.6406 L990.3906,164.6406 Q989.7656,164.6406 989.5078,164.4063 Q989.25,164.1719 989.25,163.7813 Q989.25,163.4063 989.5078,163.1719 Q989.7656,162.9375 990.3906,162.9375 L998.0156,162.9375 L998.0156,165.5313 Q998.0156,166.1406 997.7891,166.3984 Q997.5625,166.6563 997.1719,166.6563 Q996.7969,166.6563 996.5625,166.3984 Q996.3281,166.1406 996.3281,165.5313 L996.3281,164.6406 L992.3594,164.6406 L992.3594,167.0938 L993.8438,167.0938 Q993.8438,166.4375 993.9688,166.25 Q994.2344,165.8438 994.7031,165.8438 Q995.0781,165.8438 995.3125,166.1016 Q995.5469,166.3594 995.5469,166.9688 L995.5469,168.9375 Q995.5469,169.4844 995.4219,169.6719 Q995.1563,170.0625 994.7031,170.0625 Q994.2344,170.0625 993.9688,169.6563 Q993.8438,169.4688 993.8438,168.7969 L992.3594,168.7969 Z "/>
        <text fill="#000000" font-family="sans-serif" font-size="12" lengthAdjust="spacingAndGlyphs" textLength="63" x="1007.5" y="172.9102">PacketType</text>
        <line style="stroke: #A80036; stroke-width: 1.5;" x1="979.5" x2="1072.5" y1="184" y2="184"/>
        <line style="stroke: #A80036; stroke-width: 1.5;" x1="979.5" x2="1072.5" y1="192" y2="192"/>
        <rect fill="#FEFECE" filter="url(#f1)" height="48" style="stroke: #A80036; stroke-width: 1.5;" width="142" x="801" y="152"/>
        <ellipse cx="816" cy="168" fill="#EB937F" rx="11" ry="11" style="stroke: #A80036; stroke-width: 1.0;"/>
        <path d="M814.8594,168.7969 L814.8594,171.2969 L819.1875,171.2969 L819.1875,170.375 Q819.1875,169.7656 819.4297,169.5 Q819.6719,169.2344 820.0469,169.2344 Q820.4219,169.2344 820.6563,169.5 Q820.8906,169.7656 820.8906,170.375 L820.8906,173 L812.8906,173 Q812.2656,173 812.0078,172.7656 Q811.75,172.5313 811.75,172.1406 Q811.75,171.7656 812.0156,171.5313 Q812.2813,171.2969 812.8906,171.2969 L813.1563,171.2969 L813.1563,164.6406 L812.8906,164.6406 Q812.2656,164.6406 812.0078,164.4063 Q811.75,164.1719 811.75,163.7813 Q811.75,163.4063 812.0078,163.1719 Q812.2656,162.9375 812.8906,162.9375 L820.5156,162.9375 L820.5156,165.5313 Q820.5156,166.1406 820.2891,166.3984 Q820.0625,166.6563 819.6719,166.6563 Q819.2969,166.6563 819.0625,166.3984 Q818.8281,166.1406 818.8281,165.5313 L818.8281,164.6406 L814.8594,164.6406 L814.8594,167.0938 L816.3438,167.0938 Q816.3438,166.4375 816.4688,166.25 Q816.7344,165.8438 817.2031,165.8438 Q817.5781,165.8438 817.8125,166.1016 Q818.0469,166.3594 818.0469,166.9688 L818.0469,168.9375 Q818.0469,169.4844 817.9219,169.6719 Q817.6563,170.0625 817.2031,170.0625 Q816.7344,170.0625 816.4688,169.6563 Q816.3438,169.4688 816.3438,168.7969 L814.8594,168.7969 Z "/>
        <text fill="#000000" font-family="sans-serif" font-size="12" lengthAdjust="spacingAndGlyphs" textLength="110" x="830" y="172.9102">UserListPacketType</text>
        <line style="stroke: #A80036; stroke-width: 1.5;" x1="802" x2="942" y1="184" y2="184"/>
        <line style="stroke: #A80036; stroke-width: 1.5;" x1="802" x2="942" y1="192" y2="192"/>
        <rect fill="#FEFECE" filter="url(#f1)" height="48" style="stroke: #A80036; stroke-width: 1.5;" width="83" x="633.5" y="152"/>
        <ellipse cx="648.5" cy="168" fill="#ADD1B2" rx="11" ry="11" style="stroke: #A80036; stroke-width: 1.0;"/>
        <path d="M651.2656,163.875 Q651.4219,163.6563 651.6094,163.5469 Q651.7969,163.4375 652.0156,163.4375 Q652.3906,163.4375 652.625,163.6953 Q652.8594,163.9531 652.8594,164.5625 L652.8594,166.0156 Q652.8594,166.625 652.625,166.8906 Q652.3906,167.1563 652.0156,167.1563 Q651.6719,167.1563 651.4688,166.9531 Q651.2656,166.7656 651.1563,166.25 Q651.1094,165.8906 650.9219,165.7031 Q650.5938,165.3281 649.9844,165.1094 Q649.375,164.8906 648.75,164.8906 Q647.9844,164.8906 647.3516,165.2188 Q646.7188,165.5469 646.2266,166.2969 Q645.7344,167.0469 645.7344,168.0781 L645.7344,169.1719 Q645.7344,170.4063 646.625,171.2266 Q647.5156,172.0469 649.1094,172.0469 Q650.0469,172.0469 650.7031,171.7969 Q651.0938,171.6406 651.5156,171.2031 Q651.7813,170.9375 651.9297,170.8594 Q652.0781,170.7813 652.2813,170.7813 Q652.6094,170.7813 652.8672,171.0391 Q653.125,171.2969 653.125,171.6406 Q653.125,171.9844 652.7813,172.3906 Q652.2813,172.9688 651.4844,173.2969 Q650.4063,173.75 649.1094,173.75 Q647.5938,173.75 646.3906,173.125 Q645.4063,172.625 644.7188,171.5547 Q644.0313,170.4844 644.0313,169.2031 L644.0313,168.0469 Q644.0313,166.7188 644.6484,165.5703 Q645.2656,164.4219 646.3594,163.8047 Q647.4531,163.1875 648.6875,163.1875 Q649.4219,163.1875 650.0703,163.3516 Q650.7188,163.5156 651.2656,163.875 Z "/>
        <text fill="#000000" font-family="sans-serif" font-size="12" lengthAdjust="spacingAndGlyphs" textLength="51" x="662.5" y="172.9102">Counters</text>
        <line style="stroke: #A80036; stroke-width: 1.5;" x1="634.5" x2="715.5" y1="184" y2="184"/>
        <line style="stroke: #A80036; stroke-width: 1.5;" x1="634.5" x2="715.5" y1="192" y2="192"/>
        <rect fill="#FEFECE" filter="url(#f1)" height="48" style="stroke: #A80036; stroke-width: 1.5;" width="105" x="346.5" y="368"/>
        <ellipse cx="361.5" cy="384" fill="#ADD1B2" rx="11" ry="11" style="stroke: #A80036; stroke-width: 1.0;"/>
        <path d="M364.2656,379.875 Q364.4219,379.6563 364.6094,379.5469 Q364.7969,379.4375 365.0156,379.4375 Q365.3906,379.4375 365.625,379.6953 Q365.8594,379.9531 365.8594,380.5625 L365.8594,382.0156 Q365.8594,382.625 365.625,382.8906 Q365.3906,383.1563 365.0156,383.1563 Q364.6719,383.1563 364.4688,382.9531 Q364.2656,382.7656 364.1563,382.25 Q364.1094,381.8906 363.9219,381.7031 Q363.5938,381.3281 362.9844,381.1094 Q362.375,380.8906 361.75,380.8906 Q360.9844,380.8906 360.3516,381.2188 Q359.7188,381.5469 359.2266,382.2969 Q358.7344,383.0469 358.7344,384.0781 L358.7344,385.1719 Q358.7344,386.4063 359.625,387.2266 Q360.5156,388.0469 362.1094,388.0469 Q363.0469,388.0469 363.7031,387.7969 Q364.0938,387.6406 364.5156,387.2031 Q364.7813,386.9375 364.9297,386.8594 Q365.0781,386.7813 365.2813,386.7813 Q365.6094,386.7813 365.8672,387.0391 Q366.125,387.2969 366.125,387.6406 Q366.125,387.9844 365.7813,388.3906 Q365.2813,388.9688 364.4844,389.2969 Q363.4063,389.75 362.1094,389.75 Q360.5938,389.75 359.3906,389.125 Q358.4063,388.625 357.7188,387.5547 Q357.0313,386.4844 357.0313,385.2031 L357.0313,384.0469 Q357.0313,382.7188 357.6484,381.5703 Q358.2656,380.4219 359.3594,379.8047 Q360.4531,379.1875 361.6875,379.1875 Q362.4219,379.1875 363.0703,379.3516 Q363.7188,379.5156 364.2656,379.875 Z "/>
        <text fill="#000000" font-family="sans-serif" font-size="12" lengthAdjust="spacingAndGlyphs" textLength="73" x="375.5" y="388.9102">CryptoBasics</text>
        <line style="stroke: #A80036; stroke-width: 1.5;" x1="347.5" x2="450.5" y1="400" y2="400"/>
        <line style="stroke: #A80036; stroke-width: 1.5;" x1="347.5" x2="450.5" y1="408" y2="408"/>
        <rect fill="#FEFECE" filter="url(#f1)" height="48" style="stroke: #A80036; stroke-width: 1.5;" width="129" x="182.5" y="368"/>
        <ellipse cx="197.5" cy="384" fill="#ADD1B2" rx="11" ry="11" style="stroke: #A80036; stroke-width: 1.0;"/>
        <path d="M200.2656,379.875 Q200.4219,379.6563 200.6094,379.5469 Q200.7969,379.4375 201.0156,379.4375 Q201.3906,379.4375 201.625,379.6953 Q201.8594,379.9531 201.8594,380.5625 L201.8594,382.0156 Q201.8594,382.625 201.625,382.8906 Q201.3906,383.1563 201.0156,383.1563 Q200.6719,383.1563 200.4688,382.9531 Q200.2656,382.7656 200.1563,382.25 Q200.1094,381.8906 199.9219,381.7031 Q199.5938,381.3281 198.9844,381.1094 Q198.375,380.8906 197.75,380.8906 Q196.9844,380.8906 196.3516,381.2188 Q195.7188,381.5469 195.2266,382.2969 Q194.7344,383.0469 194.7344,384.0781 L194.7344,385.1719 Q194.7344,386.4063 195.625,387.2266 Q196.5156,388.0469 198.1094,388.0469 Q199.0469,388.0469 199.7031,387.7969 Q200.0938,387.6406 200.5156,387.2031 Q200.7813,386.9375 200.9297,386.8594 Q201.0781,386.7813 201.2813,386.7813 Q201.6094,386.7813 201.8672,387.0391 Q202.125,387.2969 202.125,387.6406 Q202.125,387.9844 201.7813,388.3906 Q201.2813,388.9688 200.4844,389.2969 Q199.4063,389.75 198.1094,389.75 Q196.5938,389.75 195.3906,389.125 Q194.4063,388.625 193.7188,387.5547 Q193.0313,386.4844 193.0313,385.2031 L193.0313,384.0469 Q193.0313,382.7188 193.6484,381.5703 Q194.2656,380.4219 195.3594,379.8047 Q196.4531,379.1875 197.6875,379.1875 Q198.4219,379.1875 199.0703,379.3516 Q199.7188,379.5156 200.2656,379.875 Z "/>
        <text fill="#000000" font-family="sans-serif" font-size="12" lengthAdjust="spacingAndGlyphs" textLength="97" x="211.5" y="388.9102">EncryptionMethod</text>
        <line style="stroke: #A80036; stroke-width: 1.5;" x1="183.5" x2="310.5" y1="400" y2="400"/>
        <line style="stroke: #A80036; stroke-width: 1.5;" x1="183.5" x2="310.5" y1="408" y2="408"/>
        <rect fill="#FEFECE" filter="url(#f1)" height="48" style="stroke: #A80036; stroke-width: 1.5;" width="103" x="468.5" y="260"/>
        <ellipse cx="483.5" cy="276" fill="#ADD1B2" rx="11" ry="11" style="stroke: #A80036; stroke-width: 1.0;"/>
        <path d="M486.2656,271.875 Q486.4219,271.6563 486.6094,271.5469 Q486.7969,271.4375 487.0156,271.4375 Q487.3906,271.4375 487.625,271.6953 Q487.8594,271.9531 487.8594,272.5625 L487.8594,274.0156 Q487.8594,274.625 487.625,274.8906 Q487.3906,275.1563 487.0156,275.1563 Q486.6719,275.1563 486.4688,274.9531 Q486.2656,274.7656 486.1563,274.25 Q486.1094,273.8906 485.9219,273.7031 Q485.5938,273.3281 484.9844,273.1094 Q484.375,272.8906 483.75,272.8906 Q482.9844,272.8906 482.3516,273.2188 Q481.7188,273.5469 481.2266,274.2969 Q480.7344,275.0469 480.7344,276.0781 L480.7344,277.1719 Q480.7344,278.4063 481.625,279.2266 Q482.5156,280.0469 484.1094,280.0469 Q485.0469,280.0469 485.7031,279.7969 Q486.0938,279.6406 486.5156,279.2031 Q486.7813,278.9375 486.9297,278.8594 Q487.0781,278.7813 487.2813,278.7813 Q487.6094,278.7813 487.8672,279.0391 Q488.125,279.2969 488.125,279.6406 Q488.125,279.9844 487.7813,280.3906 Q487.2813,280.9688 486.4844,281.2969 Q485.4063,281.75 484.1094,281.75 Q482.5938,281.75 481.3906,281.125 Q480.4063,280.625 479.7188,279.5547 Q479.0313,278.4844 479.0313,277.2031 L479.0313,276.0469 Q479.0313,274.7188 479.6484,273.5703 Q480.2656,272.4219 481.3594,271.8047 Q482.4531,271.1875 483.6875,271.1875 Q484.4219,271.1875 485.0703,271.3516 Q485.7188,271.5156 486.2656,271.875 Z "/>
        <text fill="#000000" font-family="sans-serif" font-size="12" lengthAdjust="spacingAndGlyphs" textLength="71" x="497.5" y="280.9102">ClientThread</text>
        <line style="stroke: #A80036; stroke-width: 1.5;" x1="469.5" x2="570.5" y1="292" y2="292"/>
        <line style="stroke: #A80036; stroke-width: 1.5;" x1="469.5" x2="570.5" y1="300" y2="300"/>
        <path d="M337.711,200.194 C351.237,209.42 366.337,220.558 379,232 C415.7,265.159 408.48,292.496 452,316 C474.609,328.211 840.211,371.848 963.654,386.3078 " fill="none" style="stroke: #A80036; stroke-width: 1.0; stroke-dasharray: 7.0,7.0;"/>
        <polygon fill="#A80036" points="968.646,386.8921,960.1722,381.8727,963.6799,386.3107,959.2419,389.8184,968.646,386.8921" style="stroke: #A80036; stroke-width: 1.0;"/>
        <path d="M384.833,199.53 C409.859,207.944 436.79,218.749 460,232 C471.739,238.702 483.361,247.835 493.204,256.521 " fill="none" style="stroke: #A80036; stroke-width: 1.0; stroke-dasharray: 7.0,7.0;"/>
        <polygon fill="#A80036" points="497.026,259.95,492.9962,250.9633,493.3036,256.6118,487.6551,256.9192,497.026,259.95" style="stroke: #A80036; stroke-width: 1.0;"/>
        <path d="M301,200 C301,211.588 301,226.029 301,239.601 " fill="none" style="stroke: #A80036; stroke-width: 1.0;"/>
        <polygon fill="none" points="308,239.678,301,259.678,294,239.678,308,239.678" style="stroke: #A80036; stroke-width: 1.0;"/>
        <path d="M1220.1,308.106 C1213.33,310.78 1206.52,313.458 1200,316 C1152.05,334.7008 1097.34,355.5989 1057.93,370.5757 " fill="none" style="stroke: #A80036; stroke-width: 1.0;"/>
        <polygon fill="none" points="1060.29,377.1694,1039.1,377.7226,1055.32,364.0806,1060.29,377.1694" style="stroke: #A80036; stroke-width: 1.0;"/>
        <path d="M391.047,92 C376.454,105.451 357.692,122.745 341.074,138.062 " fill="none" style="stroke: #A80036; stroke-width: 1.0;"/>
        <polygon fill="none" points="345.752,143.27,326.302,151.678,336.263,132.976,345.752,143.27" style="stroke: #A80036; stroke-width: 1.0;"/>
        <path d="M444.304,86.686 C458.364,96.457 474.888,109.535 487,124 C514.057,156.313 496.6,183.652 531,208 C591.846,251.066 630.158,198.999 697,232 C744.909,255.653 737.461,288.055 783,316 C840.976,351.5773 917.955,372.7467 964.081,383.1049 " fill="none" style="stroke: #A80036; stroke-width: 1.0; stroke-dasharray: 7.0,7.0;"/>
        <polygon fill="#A80036" points="968.997,384.1943,961.0752,378.3424,964.1154,383.1129,959.3449,386.153,968.997,384.1943" style="stroke: #A80036; stroke-width: 1.0;"/>
        <path d="M444.194,73.909 C482.333,81.263 551.82,97.215 606,124 C619.32,130.585 632.736,139.782 644.15,148.555 " fill="none" style="stroke: #A80036; stroke-width: 1.0; stroke-dasharray: 7.0,7.0;"/>
        <polygon fill="#A80036" points="648.261,151.762,643.6265,143.0717,644.3192,148.686,638.7049,149.3786,648.261,151.762" style="stroke: #A80036; stroke-width: 1.0;"/>
        <path d="M444.254,69.761 C584.631,73.679 1203.47,92.616 1283,124 C1296.63,129.377 1309.51,138.934 1319.97,148.333 " fill="none" style="stroke: #A80036; stroke-width: 1.0; stroke-dasharray: 7.0,7.0;"/>
        <polygon fill="#A80036" points="1323.71,151.781,1319.7985,142.7422,1320.0317,148.3942,1314.3797,148.6274,1323.71,151.781" style="stroke: #A80036; stroke-width: 1.0;"/>
        <path d="M444.487,77.933 C469.962,86.857 507.424,102.366 535,124 C572.572,153.476 559.749,185.743 602,208 C667.445,242.475 864.537,206.573 934,232 C948.969,237.48 963.545,247.167 975.486,256.638 " fill="none" style="stroke: #A80036; stroke-width: 1.0; stroke-dasharray: 7.0,7.0;"/>
        <polygon fill="#A80036" points="979.432,259.835,974.9592,251.0603,975.5478,256.6865,969.9217,257.2751,979.432,259.835" style="stroke: #A80036; stroke-width: 1.0;"/>
        <path d="M427.079,92.15 C440.313,119.765 463.156,167.307 483,208 C490.604,223.594 499.171,240.971 506.145,255.068 " fill="none" style="stroke: #A80036; stroke-width: 1.0; stroke-dasharray: 7.0,7.0;"/>
        <polygon fill="#A80036" points="508.445,259.716,508.0393,249.8755,506.2278,255.2345,500.8688,253.423,508.445,259.716" style="stroke: #A80036; stroke-width: 1.0;"/>
        <path d="M1544.95,308.064 C1537.04,311.061 1528.88,313.836 1521,316 C1356.52,361.1677 1154.69,380.4483 1059.15,387.5006 " fill="none" style="stroke: #A80036; stroke-width: 1.0;"/>
        <polygon fill="none" points="1059.54,394.4907,1039.1,388.9146,1058.55,380.5253,1059.54,394.4907" style="stroke: #A80036; stroke-width: 1.0;"/>
        <path d="M1379.41,308.097 C1371.28,310.948 1362.97,313.673 1355,316 C1252,346.0618 1128.77,369.6141 1059.11,381.8136 " fill="none" style="stroke: #A80036; stroke-width: 1.0;"/>
        <polygon fill="none" points="1060.2,388.7299,1039.3,385.2298,1057.82,374.9334,1060.2,388.7299" style="stroke: #A80036; stroke-width: 1.0;"/>
        <path d="M1430.32,200.13 C1405.91,208.967 1378.79,219.87 1355,232 C1345.3,236.945 1335.33,242.854 1325.92,248.868 " fill="none" style="stroke: #A80036; stroke-width: 1.0;"/>
        <polygon fill="none" points="1329.76,254.717,1309.24,259.974,1322,243.064,1329.76,254.717" style="stroke: #A80036; stroke-width: 1.0;"/>
        <path d="M1330.46,200 C1322.61,212.416 1312.7,228.107 1303.6,242.495 " fill="none" style="stroke: #A80036; stroke-width: 1.0;"/>
        <polygon fill="none" points="1309.34,246.512,1292.74,259.678,1297.51,239.032,1309.34,246.512" style="stroke: #A80036; stroke-width: 1.0;"/>
        <path d="M1004,308 C1004,319.588 1004,334.0294 1004,347.6013 " fill="none" style="stroke: #A80036; stroke-width: 1.0;"/>
        <polygon fill="none" points="1011,347.6785,1004,367.6784,997,347.6784,1011,347.6785" style="stroke: #A80036; stroke-width: 1.0;"/>
        <path d="M1108.14,308 C1090.92,321.727 1068.67,339.4559 1049.17,355.0022 " fill="none" style="stroke: #A80036; stroke-width: 1.0;"/>
        <polygon fill="none" points="1053.27,360.6873,1033.26,367.6784,1044.54,349.7391,1053.27,360.6873" style="stroke: #A80036; stroke-width: 1.0;"/>
        <path d="M1206.75,200 C1217.88,212.968 1232.08,229.508 1244.87,244.405 " fill="none" style="stroke: #A80036; stroke-width: 1.0;"/>
        <polygon fill="none" points="1250.26,239.944,1257.98,259.678,1239.64,249.063,1250.26,239.944" style="stroke: #A80036; stroke-width: 1.0;"/>
        <path d="M890.463,308 C909.588,321.982 934.395,340.116 955.94,355.8663 " fill="none" style="stroke: #A80036; stroke-width: 1.0;"/>
        <polygon fill="none" points="960.334,350.4075,972.349,367.8617,952.072,361.7095,960.334,350.4075" style="stroke: #A80036; stroke-width: 1.0;"/>
        <path d="M361.079,308.103 C370.333,311.095 379.853,313.858 389,316 C403.104,319.303 829.184,370.182 963.713,386.206 " fill="none" style="stroke: #A80036; stroke-width: 1.0; stroke-dasharray: 7.0,7.0;"/>
        <polygon fill="#A80036" points="968.757,386.8066,960.2933,381.7701,963.7921,386.2152,959.347,389.714,968.757,386.8066" style="stroke: #A80036; stroke-width: 1.0;"/>
        <path d="M322.265,308 C337.442,324.417 357.913,346.5588 373.894,363.8444 " fill="none" style="stroke: #A80036; stroke-width: 1.0; stroke-dasharray: 7.0,7.0;"/>
        <polygon fill="#A80036" points="377.439,367.6784,374.2665,358.3545,374.0448,364.007,368.3922,363.7853,377.439,367.6784" style="stroke: #A80036; stroke-width: 1.0;"/>
        <path d="M289.283,308 C281.06,324.141 270.018,345.8162 261.28,362.9688 " fill="none" style="stroke: #A80036; stroke-width: 1.0; stroke-dasharray: 7.0,7.0;"/>
        <polygon fill="#A80036" points="258.881,367.6784,266.5303,361.4745,261.1505,363.2231,259.4019,357.8433,258.881,367.6784" style="stroke: #A80036; stroke-width: 1.0;"/>
    </g>
</svg>
