<?xml version="1.0" encoding="UTF-8"?><svg xmlns="http://www.w3.org/2000/svg" xmlns:xlink="http://www.w3.org/1999/xlink" height="323pt" style="width:1825px;height:323px;" version="1.1" viewBox="0 0 1825 323" width="1825pt">
    <defs>
        <filter height="300%" id="f1" width="300%" x="-1" y="-1">
            <feGaussianBlur result="blurOut" stdDeviation="2.0"/>
            <feColorMatrix in="blurOut" result="blurOut2" type="matrix" values="0 0 0 0 0 0 0 0 0 0 0 0 0 0 0 0 0 0 .4 0"/>
            <feOffset dx="4.0" dy="4.0" in="blurOut2" result="blurOut3"/>
            <feBlend in="SourceGraphic" in2="blurOut3" mode="normal"/>
        </filter>
    </defs>
    <g>
        <polygon fill="#FFFFFF" filter="url(#f1)" points="14,232,174,232,181,255.6094,327,255.6094,327,316,14,316,14,232" style="stroke: #000000; stroke-width: 2.0;"/>
        <line style="stroke: #000000; stroke-width: 2.0;" x1="14" x2="181" y1="255.6094" y2="255.6094"/>
        <text fill="#000000" font-family="sans-serif" font-size="14" font-weight="bold" lengthAdjust="spacingAndGlyphs" textLength="154" x="17" y="249.5332">de.mash1t.chat.config</text>
        <polygon fill="#FFFFFF" filter="url(#f1)" points="776,124,945,124,952,147.6094,955,147.6094,955,208,776,208,776,124" style="stroke: #000000; stroke-width: 2.0;"/>
        <line style="stroke: #000000; stroke-width: 2.0;" x1="776" x2="952" y1="147.6094" y2="147.6094"/>
        <text fill="#000000" font-family="sans-serif" font-size="14" font-weight="bold" lengthAdjust="spacingAndGlyphs" textLength="163" x="779" y="141.5332">de.mash1t.chat.logging</text>
        <polygon fill="#FFFFFF" filter="url(#f1)" points="459,232,719,232,726,255.6094,1098,255.6094,1098,316,459,316,459,232" style="stroke: #000000; stroke-width: 2.0;"/>
        <line style="stroke: #000000; stroke-width: 2.0;" x1="459" x2="726" y1="255.6094" y2="255.6094"/>
        <text fill="#000000" font-family="sans-serif" font-size="14" font-weight="bold" lengthAdjust="spacingAndGlyphs" textLength="254" x="462" y="249.5332">de.mash1t.chat.networking.methods</text>
        <polygon fill="#FFFFFF" filter="url(#f1)" points="1325,232,1579,232,1586,255.6094,1818,255.6094,1818,316,1325,316,1325,232" style="stroke: #000000; stroke-width: 2.0;"/>
        <line style="stroke: #000000; stroke-width: 2.0;" x1="1325" x2="1586" y1="255.6094" y2="255.6094"/>
        <text fill="#000000" font-family="sans-serif" font-size="14" font-weight="bold" lengthAdjust="spacingAndGlyphs" textLength="248" x="1328" y="249.5332">de.mash1t.chat.networking.packets</text>
        <polygon fill="#FFFFFF" filter="url(#f1)" points="963,124,1184,124,1191,147.6094,1194,147.6094,1194,208,963,208,963,124" style="stroke: #000000; stroke-width: 2.0;"/>
        <line style="stroke: #000000; stroke-width: 2.0;" x1="963" x2="1191" y1="147.6094" y2="147.6094"/>
        <text fill="#000000" font-family="sans-serif" font-size="14" font-weight="bold" lengthAdjust="spacingAndGlyphs" textLength="215" x="966" y="141.5332">de.mash1t.chat.security.basics</text>
        <polygon fill="#FFFFFF" filter="url(#f1)" points="1202,124,1470,124,1477,147.6094,1480,147.6094,1480,208,1202,208,1202,124" style="stroke: #000000; stroke-width: 2.0;"/>
        <line style="stroke: #000000; stroke-width: 2.0;" x1="1202" x2="1477" y1="147.6094" y2="147.6094"/>
        <text fill="#000000" font-family="sans-serif" font-size="14" font-weight="bold" lengthAdjust="spacingAndGlyphs" textLength="262" x="1205" y="141.5332">de.mash1t.chat.security.cryptography</text>
        <polygon fill="#FFFFFF" filter="url(#f1)" points="332,16,555,16,562,39.6094,768,39.6094,768,208,332,208,332,16" style="stroke: #000000; stroke-width: 2.0;"/>
        <line style="stroke: #000000; stroke-width: 2.0;" x1="332" x2="562" y1="39.6094" y2="39.6094"/>
        <text fill="#000000" font-family="sans-serif" font-size="14" font-weight="bold" lengthAdjust="spacingAndGlyphs" textLength="217" x="335" y="33.5332">de.mash1t.chat.server.console</text>
        <polygon fill="#FFFFFF" filter="url(#f1)" points="346,232,415,232,422,255.6094,440,255.6094,440,316,346,316,346,232" style="stroke: #000000; stroke-width: 2.0;"/>
        <line style="stroke: #000000; stroke-width: 2.0;" x1="346" x2="422" y1="255.6094" y2="255.6094"/>
        <text fill="#000000" font-family="sans-serif" font-size="14" font-weight="bold" lengthAdjust="spacingAndGlyphs" textLength="63" x="349" y="249.5332">java.lang</text>
        <rect fill="#FEFECE" filter="url(#f1)" height="48" style="stroke: #A80036; stroke-width: 1.5;" width="122" x="22" y="260"/>
        <ellipse cx="37" cy="276" fill="#ADD1B2" rx="11" ry="11" style="stroke: #A80036; stroke-width: 1.0;"/>
        <path d="M39.7656,271.875 Q39.9219,271.6563 40.1094,271.5469 Q40.2969,271.4375 40.5156,271.4375 Q40.8906,271.4375 41.125,271.6953 Q41.3594,271.9531 41.3594,272.5625 L41.3594,274.0156 Q41.3594,274.625 41.125,274.8906 Q40.8906,275.1563 40.5156,275.1563 Q40.1719,275.1563 39.9688,274.9531 Q39.7656,274.7656 39.6563,274.25 Q39.6094,273.8906 39.4219,273.7031 Q39.0938,273.3281 38.4844,273.1094 Q37.875,272.8906 37.25,272.8906 Q36.4844,272.8906 35.8516,273.2188 Q35.2188,273.5469 34.7266,274.2969 Q34.2344,275.0469 34.2344,276.0781 L34.2344,277.1719 Q34.2344,278.4063 35.125,279.2266 Q36.0156,280.0469 37.6094,280.0469 Q38.5469,280.0469 39.2031,279.7969 Q39.5938,279.6406 40.0156,279.2031 Q40.2813,278.9375 40.4297,278.8594 Q40.5781,278.7813 40.7813,278.7813 Q41.1094,278.7813 41.3672,279.0391 Q41.625,279.2969 41.625,279.6406 Q41.625,279.9844 41.2813,280.3906 Q40.7813,280.9688 39.9844,281.2969 Q38.9063,281.75 37.6094,281.75 Q36.0938,281.75 34.8906,281.125 Q33.9063,280.625 33.2188,279.5547 Q32.5313,278.4844 32.5313,277.2031 L32.5313,276.0469 Q32.5313,274.7188 33.1484,273.5703 Q33.7656,272.4219 34.8594,271.8047 Q35.9531,271.1875 37.1875,271.1875 Q37.9219,271.1875 38.5703,271.3516 Q39.2188,271.5156 39.7656,271.875 Z "/>
        <text fill="#000000" font-family="sans-serif" font-size="12" lengthAdjust="spacingAndGlyphs" textLength="90" x="51" y="280.9102">ConfigController</text>
        <line style="stroke: #A80036; stroke-width: 1.5;" x1="23" x2="143" y1="292" y2="292"/>
        <line style="stroke: #A80036; stroke-width: 1.5;" x1="23" x2="143" y1="300" y2="300"/>
        <rect fill="#FEFECE" filter="url(#f1)" height="48" style="stroke: #A80036; stroke-width: 1.5;" width="140" x="179" y="260"/>
        <ellipse cx="194" cy="276" fill="#ADD1B2" rx="11" ry="11" style="stroke: #A80036; stroke-width: 1.0;"/>
        <path d="M196.7656,271.875 Q196.9219,271.6563 197.1094,271.5469 Q197.2969,271.4375 197.5156,271.4375 Q197.8906,271.4375 198.125,271.6953 Q198.3594,271.9531 198.3594,272.5625 L198.3594,274.0156 Q198.3594,274.625 198.125,274.8906 Q197.8906,275.1563 197.5156,275.1563 Q197.1719,275.1563 196.9688,274.9531 Q196.7656,274.7656 196.6563,274.25 Q196.6094,273.8906 196.4219,273.7031 Q196.0938,273.3281 195.4844,273.1094 Q194.875,272.8906 194.25,272.8906 Q193.4844,272.8906 192.8516,273.2188 Q192.2188,273.5469 191.7266,274.2969 Q191.2344,275.0469 191.2344,276.0781 L191.2344,277.1719 Q191.2344,278.4063 192.125,279.2266 Q193.0156,280.0469 194.6094,280.0469 Q195.5469,280.0469 196.2031,279.7969 Q196.5938,279.6406 197.0156,279.2031 Q197.2813,278.9375 197.4297,278.8594 Q197.5781,278.7813 197.7813,278.7813 Q198.1094,278.7813 198.3672,279.0391 Q198.625,279.2969 198.625,279.6406 Q198.625,279.9844 198.2813,280.3906 Q197.7813,280.9688 196.9844,281.2969 Q195.9063,281.75 194.6094,281.75 Q193.0938,281.75 191.8906,281.125 Q190.9063,280.625 190.2188,279.5547 Q189.5313,278.4844 189.5313,277.2031 L189.5313,276.0469 Q189.5313,274.7188 190.1484,273.5703 Q190.7656,272.4219 191.8594,271.8047 Q192.9531,271.1875 194.1875,271.1875 Q194.9219,271.1875 195.5703,271.3516 Q196.2188,271.5156 196.7656,271.875 Z "/>
        <text fill="#000000" font-family="sans-serif" font-size="12" lengthAdjust="spacingAndGlyphs" textLength="108" x="208" y="280.9102">ServerConfigParam</text>
        <line style="stroke: #A80036; stroke-width: 1.5;" x1="180" x2="318" y1="292" y2="292"/>
        <line style="stroke: #A80036; stroke-width: 1.5;" x1="180" x2="318" y1="300" y2="300"/>
        <rect fill="#FEFECE" filter="url(#f1)" height="48" style="stroke: #A80036; stroke-width: 1.5;" width="83" x="793.5" y="152"/>
        <ellipse cx="808.5" cy="168" fill="#ADD1B2" rx="11" ry="11" style="stroke: #A80036; stroke-width: 1.0;"/>
        <path d="M811.2656,163.875 Q811.4219,163.6563 811.6094,163.5469 Q811.7969,163.4375 812.0156,163.4375 Q812.3906,163.4375 812.625,163.6953 Q812.8594,163.9531 812.8594,164.5625 L812.8594,166.0156 Q812.8594,166.625 812.625,166.8906 Q812.3906,167.1563 812.0156,167.1563 Q811.6719,167.1563 811.4688,166.9531 Q811.2656,166.7656 811.1563,166.25 Q811.1094,165.8906 810.9219,165.7031 Q810.5938,165.3281 809.9844,165.1094 Q809.375,164.8906 808.75,164.8906 Q807.9844,164.8906 807.3516,165.2188 Q806.7188,165.5469 806.2266,166.2969 Q805.7344,167.0469 805.7344,168.0781 L805.7344,169.1719 Q805.7344,170.4063 806.625,171.2266 Q807.5156,172.0469 809.1094,172.0469 Q810.0469,172.0469 810.7031,171.7969 Q811.0938,171.6406 811.5156,171.2031 Q811.7813,170.9375 811.9297,170.8594 Q812.0781,170.7813 812.2813,170.7813 Q812.6094,170.7813 812.8672,171.0391 Q813.125,171.2969 813.125,171.6406 Q813.125,171.9844 812.7813,172.3906 Q812.2813,172.9688 811.4844,173.2969 Q810.4063,173.75 809.1094,173.75 Q807.5938,173.75 806.3906,173.125 Q805.4063,172.625 804.7188,171.5547 Q804.0313,170.4844 804.0313,169.2031 L804.0313,168.0469 Q804.0313,166.7188 804.6484,165.5703 Q805.2656,164.4219 806.3594,163.8047 Q807.4531,163.1875 808.6875,163.1875 Q809.4219,163.1875 810.0703,163.3516 Q810.7188,163.5156 811.2656,163.875 Z "/>
        <text fill="#000000" font-family="sans-serif" font-size="12" lengthAdjust="spacingAndGlyphs" textLength="51" x="822.5" y="172.9102">Counters</text>
        <line style="stroke: #A80036; stroke-width: 1.5;" x1="794.5" x2="875.5" y1="184" y2="184"/>
        <line style="stroke: #A80036; stroke-width: 1.5;" x1="794.5" x2="875.5" y1="192" y2="192"/>
        <rect fill="#FEFECE" filter="url(#f1)" height="48" style="stroke: #A80036; stroke-width: 1.5;" width="166" x="467" y="260"/>
        <ellipse cx="482" cy="276" fill="#ADD1B2" rx="11" ry="11" style="stroke: #A80036; stroke-width: 1.0;"/>
        <path d="M484.7656,271.875 Q484.9219,271.6563 485.1094,271.5469 Q485.2969,271.4375 485.5156,271.4375 Q485.8906,271.4375 486.125,271.6953 Q486.3594,271.9531 486.3594,272.5625 L486.3594,274.0156 Q486.3594,274.625 486.125,274.8906 Q485.8906,275.1563 485.5156,275.1563 Q485.1719,275.1563 484.9688,274.9531 Q484.7656,274.7656 484.6563,274.25 Q484.6094,273.8906 484.4219,273.7031 Q484.0938,273.3281 483.4844,273.1094 Q482.875,272.8906 482.25,272.8906 Q481.4844,272.8906 480.8516,273.2188 Q480.2188,273.5469 479.7266,274.2969 Q479.2344,275.0469 479.2344,276.0781 L479.2344,277.1719 Q479.2344,278.4063 480.125,279.2266 Q481.0156,280.0469 482.6094,280.0469 Q483.5469,280.0469 484.2031,279.7969 Q484.5938,279.6406 485.0156,279.2031 Q485.2813,278.9375 485.4297,278.8594 Q485.5781,278.7813 485.7813,278.7813 Q486.1094,278.7813 486.3672,279.0391 Q486.625,279.2969 486.625,279.6406 Q486.625,279.9844 486.2813,280.3906 Q485.7813,280.9688 484.9844,281.2969 Q483.9063,281.75 482.6094,281.75 Q481.0938,281.75 479.8906,281.125 Q478.9063,280.625 478.2188,279.5547 Q477.5313,278.4844 477.5313,277.2031 L477.5313,276.0469 Q477.5313,274.7188 478.1484,273.5703 Q478.7656,272.4219 479.8594,271.8047 Q480.9531,271.1875 482.1875,271.1875 Q482.9219,271.1875 483.5703,271.3516 Q484.2188,271.5156 484.7656,271.875 Z "/>
        <text fill="#000000" font-family="sans-serif" font-size="12" lengthAdjust="spacingAndGlyphs" textLength="134" x="496" y="280.9102">AbstractNetworkProtocol</text>
        <line style="stroke: #A80036; stroke-width: 1.5;" x1="468" x2="632" y1="292" y2="292"/>
        <line style="stroke: #A80036; stroke-width: 1.5;" x1="468" x2="632" y1="300" y2="300"/>
        <rect fill="#FEFECE" filter="url(#f1)" height="48" style="stroke: #A80036; stroke-width: 1.5;" width="148" x="851" y="260"/>
        <ellipse cx="866" cy="276" fill="#ADD1B2" rx="11" ry="11" style="stroke: #A80036; stroke-width: 1.0;"/>
        <path d="M868.7656,271.875 Q868.9219,271.6563 869.1094,271.5469 Q869.2969,271.4375 869.5156,271.4375 Q869.8906,271.4375 870.125,271.6953 Q870.3594,271.9531 870.3594,272.5625 L870.3594,274.0156 Q870.3594,274.625 870.125,274.8906 Q869.8906,275.1563 869.5156,275.1563 Q869.1719,275.1563 868.9688,274.9531 Q868.7656,274.7656 868.6563,274.25 Q868.6094,273.8906 868.4219,273.7031 Q868.0938,273.3281 867.4844,273.1094 Q866.875,272.8906 866.25,272.8906 Q865.4844,272.8906 864.8516,273.2188 Q864.2188,273.5469 863.7266,274.2969 Q863.2344,275.0469 863.2344,276.0781 L863.2344,277.1719 Q863.2344,278.4063 864.125,279.2266 Q865.0156,280.0469 866.6094,280.0469 Q867.5469,280.0469 868.2031,279.7969 Q868.5938,279.6406 869.0156,279.2031 Q869.2813,278.9375 869.4297,278.8594 Q869.5781,278.7813 869.7813,278.7813 Q870.1094,278.7813 870.3672,279.0391 Q870.625,279.2969 870.625,279.6406 Q870.625,279.9844 870.2813,280.3906 Q869.7813,280.9688 868.9844,281.2969 Q867.9063,281.75 866.6094,281.75 Q865.0938,281.75 863.8906,281.125 Q862.9063,280.625 862.2188,279.5547 Q861.5313,278.4844 861.5313,277.2031 L861.5313,276.0469 Q861.5313,274.7188 862.1484,273.5703 Q862.7656,272.4219 863.8594,271.8047 Q864.9531,271.1875 866.1875,271.1875 Q866.9219,271.1875 867.5703,271.3516 Q868.2188,271.5156 868.7656,271.875 Z "/>
        <text fill="#000000" font-family="sans-serif" font-size="12" lengthAdjust="spacingAndGlyphs" textLength="116" x="880" y="280.9102">NetworkProtocolRole</text>
        <line style="stroke: #A80036; stroke-width: 1.5;" x1="852" x2="998" y1="292" y2="292"/>
        <line style="stroke: #A80036; stroke-width: 1.5;" x1="852" x2="998" y1="300" y2="300"/>
        <rect fill="#FEFECE" filter="url(#f1)" height="48" style="stroke: #A80036; stroke-width: 1.5;" width="148" x="668" y="260"/>
        <ellipse cx="683" cy="276" fill="#ADD1B2" rx="11" ry="11" style="stroke: #A80036; stroke-width: 1.0;"/>
        <path d="M685.7656,271.875 Q685.9219,271.6563 686.1094,271.5469 Q686.2969,271.4375 686.5156,271.4375 Q686.8906,271.4375 687.125,271.6953 Q687.3594,271.9531 687.3594,272.5625 L687.3594,274.0156 Q687.3594,274.625 687.125,274.8906 Q686.8906,275.1563 686.5156,275.1563 Q686.1719,275.1563 685.9688,274.9531 Q685.7656,274.7656 685.6563,274.25 Q685.6094,273.8906 685.4219,273.7031 Q685.0938,273.3281 684.4844,273.1094 Q683.875,272.8906 683.25,272.8906 Q682.4844,272.8906 681.8516,273.2188 Q681.2188,273.5469 680.7266,274.2969 Q680.2344,275.0469 680.2344,276.0781 L680.2344,277.1719 Q680.2344,278.4063 681.125,279.2266 Q682.0156,280.0469 683.6094,280.0469 Q684.5469,280.0469 685.2031,279.7969 Q685.5938,279.6406 686.0156,279.2031 Q686.2813,278.9375 686.4297,278.8594 Q686.5781,278.7813 686.7813,278.7813 Q687.1094,278.7813 687.3672,279.0391 Q687.625,279.2969 687.625,279.6406 Q687.625,279.9844 687.2813,280.3906 Q686.7813,280.9688 685.9844,281.2969 Q684.9063,281.75 683.6094,281.75 Q682.0938,281.75 680.8906,281.125 Q679.9063,280.625 679.2188,279.5547 Q678.5313,278.4844 678.5313,277.2031 L678.5313,276.0469 Q678.5313,274.7188 679.1484,273.5703 Q679.7656,272.4219 680.8594,271.8047 Q681.9531,271.1875 683.1875,271.1875 Q683.9219,271.1875 684.5703,271.3516 Q685.2188,271.5156 685.7656,271.875 Z "/>
        <text fill="#000000" font-family="sans-serif" font-size="12" lengthAdjust="spacingAndGlyphs" textLength="116" x="697" y="280.9102">NetworkProtocolType</text>
        <line style="stroke: #A80036; stroke-width: 1.5;" x1="669" x2="815" y1="292" y2="292"/>
        <line style="stroke: #A80036; stroke-width: 1.5;" x1="669" x2="815" y1="300" y2="300"/>
        <rect fill="#FEFECE" filter="url(#f1)" height="48" style="stroke: #A80036; stroke-width: 1.5;" width="56" x="1034" y="260"/>
        <ellipse cx="1049" cy="276" fill="#ADD1B2" rx="11" ry="11" style="stroke: #A80036; stroke-width: 1.0;"/>
        <path d="M1051.7656,271.875 Q1051.9219,271.6563 1052.1094,271.5469 Q1052.2969,271.4375 1052.5156,271.4375 Q1052.8906,271.4375 1053.125,271.6953 Q1053.3594,271.9531 1053.3594,272.5625 L1053.3594,274.0156 Q1053.3594,274.625 1053.125,274.8906 Q1052.8906,275.1563 1052.5156,275.1563 Q1052.1719,275.1563 1051.9688,274.9531 Q1051.7656,274.7656 1051.6563,274.25 Q1051.6094,273.8906 1051.4219,273.7031 Q1051.0938,273.3281 1050.4844,273.1094 Q1049.875,272.8906 1049.25,272.8906 Q1048.4844,272.8906 1047.8516,273.2188 Q1047.2188,273.5469 1046.7266,274.2969 Q1046.2344,275.0469 1046.2344,276.0781 L1046.2344,277.1719 Q1046.2344,278.4063 1047.125,279.2266 Q1048.0156,280.0469 1049.6094,280.0469 Q1050.5469,280.0469 1051.2031,279.7969 Q1051.5938,279.6406 1052.0156,279.2031 Q1052.2813,278.9375 1052.4297,278.8594 Q1052.5781,278.7813 1052.7813,278.7813 Q1053.1094,278.7813 1053.3672,279.0391 Q1053.625,279.2969 1053.625,279.6406 Q1053.625,279.9844 1053.2813,280.3906 Q1052.7813,280.9688 1051.9844,281.2969 Q1050.9063,281.75 1049.6094,281.75 Q1048.0938,281.75 1046.8906,281.125 Q1045.9063,280.625 1045.2188,279.5547 Q1044.5313,278.4844 1044.5313,277.2031 L1044.5313,276.0469 Q1044.5313,274.7188 1045.1484,273.5703 Q1045.7656,272.4219 1046.8594,271.8047 Q1047.9531,271.1875 1049.1875,271.1875 Q1049.9219,271.1875 1050.5703,271.3516 Q1051.2188,271.5156 1051.7656,271.875 Z "/>
        <text fill="#000000" font-family="sans-serif" font-size="12" lengthAdjust="spacingAndGlyphs" textLength="24" x="1063" y="280.9102">TCP</text>
        <line style="stroke: #A80036; stroke-width: 1.5;" x1="1035" x2="1089" y1="292" y2="292"/>
        <line style="stroke: #A80036; stroke-width: 1.5;" x1="1035" x2="1089" y1="300" y2="300"/>
        <rect fill="#FEFECE" filter="url(#f1)" height="48" style="stroke: #A80036; stroke-width: 1.5;" width="115" x="1590.5" y="260"/>
        <ellipse cx="1605.5" cy="276" fill="#ADD1B2" rx="11" ry="11" style="stroke: #A80036; stroke-width: 1.0;"/>
        <path d="M1608.2656,271.875 Q1608.4219,271.6563 1608.6094,271.5469 Q1608.7969,271.4375 1609.0156,271.4375 Q1609.3906,271.4375 1609.625,271.6953 Q1609.8594,271.9531 1609.8594,272.5625 L1609.8594,274.0156 Q1609.8594,274.625 1609.625,274.8906 Q1609.3906,275.1563 1609.0156,275.1563 Q1608.6719,275.1563 1608.4688,274.9531 Q1608.2656,274.7656 1608.1563,274.25 Q1608.1094,273.8906 1607.9219,273.7031 Q1607.5938,273.3281 1606.9844,273.1094 Q1606.375,272.8906 1605.75,272.8906 Q1604.9844,272.8906 1604.3516,273.2188 Q1603.7188,273.5469 1603.2266,274.2969 Q1602.7344,275.0469 1602.7344,276.0781 L1602.7344,277.1719 Q1602.7344,278.4063 1603.625,279.2266 Q1604.5156,280.0469 1606.1094,280.0469 Q1607.0469,280.0469 1607.7031,279.7969 Q1608.0938,279.6406 1608.5156,279.2031 Q1608.7813,278.9375 1608.9297,278.8594 Q1609.0781,278.7813 1609.2813,278.7813 Q1609.6094,278.7813 1609.8672,279.0391 Q1610.125,279.2969 1610.125,279.6406 Q1610.125,279.9844 1609.7813,280.3906 Q1609.2813,280.9688 1608.4844,281.2969 Q1607.4063,281.75 1606.1094,281.75 Q1604.5938,281.75 1603.3906,281.125 Q1602.4063,280.625 1601.7188,279.5547 Q1601.0313,278.4844 1601.0313,277.2031 L1601.0313,276.0469 Q1601.0313,274.7188 1601.6484,273.5703 Q1602.2656,272.4219 1603.3594,271.8047 Q1604.4531,271.1875 1605.6875,271.1875 Q1606.4219,271.1875 1607.0703,271.3516 Q1607.7188,271.5156 1608.2656,271.875 Z "/>
        <text fill="#000000" font-family="sans-serif" font-size="12" lengthAdjust="spacingAndGlyphs" textLength="83" x="1619.5" y="280.9102">ConnectPacket</text>
        <line style="stroke: #A80036; stroke-width: 1.5;" x1="1591.5" x2="1704.5" y1="292" y2="292"/>
        <line style="stroke: #A80036; stroke-width: 1.5;" x1="1591.5" x2="1704.5" y1="300" y2="300"/>
        <rect fill="#FEFECE" filter="url(#f1)" height="48" style="stroke: #A80036; stroke-width: 1.5;" width="92" x="1333" y="260"/>
        <ellipse cx="1348" cy="276" fill="#ADD1B2" rx="11" ry="11" style="stroke: #A80036; stroke-width: 1.0;"/>
        <path d="M1350.7656,271.875 Q1350.9219,271.6563 1351.1094,271.5469 Q1351.2969,271.4375 1351.5156,271.4375 Q1351.8906,271.4375 1352.125,271.6953 Q1352.3594,271.9531 1352.3594,272.5625 L1352.3594,274.0156 Q1352.3594,274.625 1352.125,274.8906 Q1351.8906,275.1563 1351.5156,275.1563 Q1351.1719,275.1563 1350.9688,274.9531 Q1350.7656,274.7656 1350.6563,274.25 Q1350.6094,273.8906 1350.4219,273.7031 Q1350.0938,273.3281 1349.4844,273.1094 Q1348.875,272.8906 1348.25,272.8906 Q1347.4844,272.8906 1346.8516,273.2188 Q1346.2188,273.5469 1345.7266,274.2969 Q1345.2344,275.0469 1345.2344,276.0781 L1345.2344,277.1719 Q1345.2344,278.4063 1346.125,279.2266 Q1347.0156,280.0469 1348.6094,280.0469 Q1349.5469,280.0469 1350.2031,279.7969 Q1350.5938,279.6406 1351.0156,279.2031 Q1351.2813,278.9375 1351.4297,278.8594 Q1351.5781,278.7813 1351.7813,278.7813 Q1352.1094,278.7813 1352.3672,279.0391 Q1352.625,279.2969 1352.625,279.6406 Q1352.625,279.9844 1352.2813,280.3906 Q1351.7813,280.9688 1350.9844,281.2969 Q1349.9063,281.75 1348.6094,281.75 Q1347.0938,281.75 1345.8906,281.125 Q1344.9063,280.625 1344.2188,279.5547 Q1343.5313,278.4844 1343.5313,277.2031 L1343.5313,276.0469 Q1343.5313,274.7188 1344.1484,273.5703 Q1344.7656,272.4219 1345.8594,271.8047 Q1346.9531,271.1875 1348.1875,271.1875 Q1348.9219,271.1875 1349.5703,271.3516 Q1350.2188,271.5156 1350.7656,271.875 Z "/>
        <text fill="#000000" font-family="sans-serif" font-size="12" lengthAdjust="spacingAndGlyphs" textLength="60" x="1362" y="280.9102">KickPacket</text>
        <line style="stroke: #A80036; stroke-width: 1.5;" x1="1334" x2="1424" y1="292" y2="292"/>
        <line style="stroke: #A80036; stroke-width: 1.5;" x1="1334" x2="1424" y1="300" y2="300"/>
        <rect fill="#FEFECE" filter="url(#f1)" height="48" style="stroke: #A80036; stroke-width: 1.5;" width="69" x="1740.5" y="260"/>
        <ellipse cx="1755.5" cy="276" fill="#ADD1B2" rx="11" ry="11" style="stroke: #A80036; stroke-width: 1.0;"/>
        <path d="M1758.2656,271.875 Q1758.4219,271.6563 1758.6094,271.5469 Q1758.7969,271.4375 1759.0156,271.4375 Q1759.3906,271.4375 1759.625,271.6953 Q1759.8594,271.9531 1759.8594,272.5625 L1759.8594,274.0156 Q1759.8594,274.625 1759.625,274.8906 Q1759.3906,275.1563 1759.0156,275.1563 Q1758.6719,275.1563 1758.4688,274.9531 Q1758.2656,274.7656 1758.1563,274.25 Q1758.1094,273.8906 1757.9219,273.7031 Q1757.5938,273.3281 1756.9844,273.1094 Q1756.375,272.8906 1755.75,272.8906 Q1754.9844,272.8906 1754.3516,273.2188 Q1753.7188,273.5469 1753.2266,274.2969 Q1752.7344,275.0469 1752.7344,276.0781 L1752.7344,277.1719 Q1752.7344,278.4063 1753.625,279.2266 Q1754.5156,280.0469 1756.1094,280.0469 Q1757.0469,280.0469 1757.7031,279.7969 Q1758.0938,279.6406 1758.5156,279.2031 Q1758.7813,278.9375 1758.9297,278.8594 Q1759.0781,278.7813 1759.2813,278.7813 Q1759.6094,278.7813 1759.8672,279.0391 Q1760.125,279.2969 1760.125,279.6406 Q1760.125,279.9844 1759.7813,280.3906 Q1759.2813,280.9688 1758.4844,281.2969 Q1757.4063,281.75 1756.1094,281.75 Q1754.5938,281.75 1753.3906,281.125 Q1752.4063,280.625 1751.7188,279.5547 Q1751.0313,278.4844 1751.0313,277.2031 L1751.0313,276.0469 Q1751.0313,274.7188 1751.6484,273.5703 Q1752.2656,272.4219 1753.3594,271.8047 Q1754.4531,271.1875 1755.6875,271.1875 Q1756.4219,271.1875 1757.0703,271.3516 Q1757.7188,271.5156 1758.2656,271.875 Z "/>
        <text fill="#000000" font-family="sans-serif" font-size="12" lengthAdjust="spacingAndGlyphs" textLength="37" x="1769.5" y="280.9102">Packet</text>
        <line style="stroke: #A80036; stroke-width: 1.5;" x1="1741.5" x2="1808.5" y1="292" y2="292"/>
        <line style="stroke: #A80036; stroke-width: 1.5;" x1="1741.5" x2="1808.5" y1="300" y2="300"/>
        <rect fill="#FEFECE" filter="url(#f1)" height="48" style="stroke: #A80036; stroke-width: 1.5;" width="95" x="1460.5" y="260"/>
        <ellipse cx="1475.5" cy="276" fill="#ADD1B2" rx="11" ry="11" style="stroke: #A80036; stroke-width: 1.0;"/>
        <path d="M1478.2656,271.875 Q1478.4219,271.6563 1478.6094,271.5469 Q1478.7969,271.4375 1479.0156,271.4375 Q1479.3906,271.4375 1479.625,271.6953 Q1479.8594,271.9531 1479.8594,272.5625 L1479.8594,274.0156 Q1479.8594,274.625 1479.625,274.8906 Q1479.3906,275.1563 1479.0156,275.1563 Q1478.6719,275.1563 1478.4688,274.9531 Q1478.2656,274.7656 1478.1563,274.25 Q1478.1094,273.8906 1477.9219,273.7031 Q1477.5938,273.3281 1476.9844,273.1094 Q1476.375,272.8906 1475.75,272.8906 Q1474.9844,272.8906 1474.3516,273.2188 Q1473.7188,273.5469 1473.2266,274.2969 Q1472.7344,275.0469 1472.7344,276.0781 L1472.7344,277.1719 Q1472.7344,278.4063 1473.625,279.2266 Q1474.5156,280.0469 1476.1094,280.0469 Q1477.0469,280.0469 1477.7031,279.7969 Q1478.0938,279.6406 1478.5156,279.2031 Q1478.7813,278.9375 1478.9297,278.8594 Q1479.0781,278.7813 1479.2813,278.7813 Q1479.6094,278.7813 1479.8672,279.0391 Q1480.125,279.2969 1480.125,279.6406 Q1480.125,279.9844 1479.7813,280.3906 Q1479.2813,280.9688 1478.4844,281.2969 Q1477.4063,281.75 1476.1094,281.75 Q1474.5938,281.75 1473.3906,281.125 Q1472.4063,280.625 1471.7188,279.5547 Q1471.0313,278.4844 1471.0313,277.2031 L1471.0313,276.0469 Q1471.0313,274.7188 1471.6484,273.5703 Q1472.2656,272.4219 1473.3594,271.8047 Q1474.4531,271.1875 1475.6875,271.1875 Q1476.4219,271.1875 1477.0703,271.3516 Q1477.7188,271.5156 1478.2656,271.875 Z "/>
        <text fill="#000000" font-family="sans-serif" font-size="12" lengthAdjust="spacingAndGlyphs" textLength="63" x="1489.5" y="280.9102">PacketType</text>
        <line style="stroke: #A80036; stroke-width: 1.5;" x1="1461.5" x2="1554.5" y1="292" y2="292"/>
        <line style="stroke: #A80036; stroke-width: 1.5;" x1="1461.5" x2="1554.5" y1="300" y2="300"/>
        <rect fill="#FEFECE" filter="url(#f1)" height="48" style="stroke: #A80036; stroke-width: 1.5;" width="105" x="971.5" y="152"/>
        <ellipse cx="986.5" cy="168" fill="#ADD1B2" rx="11" ry="11" style="stroke: #A80036; stroke-width: 1.0;"/>
        <path d="M989.2656,163.875 Q989.4219,163.6563 989.6094,163.5469 Q989.7969,163.4375 990.0156,163.4375 Q990.3906,163.4375 990.625,163.6953 Q990.8594,163.9531 990.8594,164.5625 L990.8594,166.0156 Q990.8594,166.625 990.625,166.8906 Q990.3906,167.1563 990.0156,167.1563 Q989.6719,167.1563 989.4688,166.9531 Q989.2656,166.7656 989.1563,166.25 Q989.1094,165.8906 988.9219,165.7031 Q988.5938,165.3281 987.9844,165.1094 Q987.375,164.8906 986.75,164.8906 Q985.9844,164.8906 985.3516,165.2188 Q984.7188,165.5469 984.2266,166.2969 Q983.7344,167.0469 983.7344,168.0781 L983.7344,169.1719 Q983.7344,170.4063 984.625,171.2266 Q985.5156,172.0469 987.1094,172.0469 Q988.0469,172.0469 988.7031,171.7969 Q989.0938,171.6406 989.5156,171.2031 Q989.7813,170.9375 989.9297,170.8594 Q990.0781,170.7813 990.2813,170.7813 Q990.6094,170.7813 990.8672,171.0391 Q991.125,171.2969 991.125,171.6406 Q991.125,171.9844 990.7813,172.3906 Q990.2813,172.9688 989.4844,173.2969 Q988.4063,173.75 987.1094,173.75 Q985.5938,173.75 984.3906,173.125 Q983.4063,172.625 982.7188,171.5547 Q982.0313,170.4844 982.0313,169.2031 L982.0313,168.0469 Q982.0313,166.7188 982.6484,165.5703 Q983.2656,164.4219 984.3594,163.8047 Q985.4531,163.1875 986.6875,163.1875 Q987.4219,163.1875 988.0703,163.3516 Q988.7188,163.5156 989.2656,163.875 Z "/>
        <text fill="#000000" font-family="sans-serif" font-size="12" lengthAdjust="spacingAndGlyphs" textLength="73" x="1000.5" y="172.9102">CryptoBasics</text>
        <line style="stroke: #A80036; stroke-width: 1.5;" x1="972.5" x2="1075.5" y1="184" y2="184"/>
        <line style="stroke: #A80036; stroke-width: 1.5;" x1="972.5" x2="1075.5" y1="192" y2="192"/>
        <rect fill="#FEFECE" filter="url(#f1)" height="48" style="stroke: #A80036; stroke-width: 1.5;" width="129" x="1210.5" y="152"/>
        <ellipse cx="1225.5" cy="168" fill="#ADD1B2" rx="11" ry="11" style="stroke: #A80036; stroke-width: 1.0;"/>
        <path d="M1228.2656,163.875 Q1228.4219,163.6563 1228.6094,163.5469 Q1228.7969,163.4375 1229.0156,163.4375 Q1229.3906,163.4375 1229.625,163.6953 Q1229.8594,163.9531 1229.8594,164.5625 L1229.8594,166.0156 Q1229.8594,166.625 1229.625,166.8906 Q1229.3906,167.1563 1229.0156,167.1563 Q1228.6719,167.1563 1228.4688,166.9531 Q1228.2656,166.7656 1228.1563,166.25 Q1228.1094,165.8906 1227.9219,165.7031 Q1227.5938,165.3281 1226.9844,165.1094 Q1226.375,164.8906 1225.75,164.8906 Q1224.9844,164.8906 1224.3516,165.2188 Q1223.7188,165.5469 1223.2266,166.2969 Q1222.7344,167.0469 1222.7344,168.0781 L1222.7344,169.1719 Q1222.7344,170.4063 1223.625,171.2266 Q1224.5156,172.0469 1226.1094,172.0469 Q1227.0469,172.0469 1227.7031,171.7969 Q1228.0938,171.6406 1228.5156,171.2031 Q1228.7813,170.9375 1228.9297,170.8594 Q1229.0781,170.7813 1229.2813,170.7813 Q1229.6094,170.7813 1229.8672,171.0391 Q1230.125,171.2969 1230.125,171.6406 Q1230.125,171.9844 1229.7813,172.3906 Q1229.2813,172.9688 1228.4844,173.2969 Q1227.4063,173.75 1226.1094,173.75 Q1224.5938,173.75 1223.3906,173.125 Q1222.4063,172.625 1221.7188,171.5547 Q1221.0313,170.4844 1221.0313,169.2031 L1221.0313,168.0469 Q1221.0313,166.7188 1221.6484,165.5703 Q1222.2656,164.4219 1223.3594,163.8047 Q1224.4531,163.1875 1225.6875,163.1875 Q1226.4219,163.1875 1227.0703,163.3516 Q1227.7188,163.5156 1228.2656,163.875 Z "/>
        <text fill="#000000" font-family="sans-serif" font-size="12" lengthAdjust="spacingAndGlyphs" textLength="97" x="1239.5" y="172.9102">EncryptionMethod</text>
        <line style="stroke: #A80036; stroke-width: 1.5;" x1="1211.5" x2="1338.5" y1="184" y2="184"/>
        <line style="stroke: #A80036; stroke-width: 1.5;" x1="1211.5" x2="1338.5" y1="192" y2="192"/>
        <rect fill="#FEFECE" filter="url(#f1)" height="48" style="stroke: #A80036; stroke-width: 1.5;" width="93" x="503.5" y="152"/>
        <ellipse cx="518.5" cy="168" fill="#ADD1B2" rx="11" ry="11" style="stroke: #A80036; stroke-width: 1.0;"/>
        <path d="M521.2656,163.875 Q521.4219,163.6563 521.6094,163.5469 Q521.7969,163.4375 522.0156,163.4375 Q522.3906,163.4375 522.625,163.6953 Q522.8594,163.9531 522.8594,164.5625 L522.8594,166.0156 Q522.8594,166.625 522.625,166.8906 Q522.3906,167.1563 522.0156,167.1563 Q521.6719,167.1563 521.4688,166.9531 Q521.2656,166.7656 521.1563,166.25 Q521.1094,165.8906 520.9219,165.7031 Q520.5938,165.3281 519.9844,165.1094 Q519.375,164.8906 518.75,164.8906 Q517.9844,164.8906 517.3516,165.2188 Q516.7188,165.5469 516.2266,166.2969 Q515.7344,167.0469 515.7344,168.0781 L515.7344,169.1719 Q515.7344,170.4063 516.625,171.2266 Q517.5156,172.0469 519.1094,172.0469 Q520.0469,172.0469 520.7031,171.7969 Q521.0938,171.6406 521.5156,171.2031 Q521.7813,170.9375 521.9297,170.8594 Q522.0781,170.7813 522.2813,170.7813 Q522.6094,170.7813 522.8672,171.0391 Q523.125,171.2969 523.125,171.6406 Q523.125,171.9844 522.7813,172.3906 Q522.2813,172.9688 521.4844,173.2969 Q520.4063,173.75 519.1094,173.75 Q517.5938,173.75 516.3906,173.125 Q515.4063,172.625 514.7188,171.5547 Q514.0313,170.4844 514.0313,169.2031 L514.0313,168.0469 Q514.0313,166.7188 514.6484,165.5703 Q515.2656,164.4219 516.3594,163.8047 Q517.4531,163.1875 518.6875,163.1875 Q519.4219,163.1875 520.0703,163.3516 Q520.7188,163.5156 521.2656,163.875 Z "/>
        <text fill="#000000" font-family="sans-serif" font-size="12" lengthAdjust="spacingAndGlyphs" textLength="61" x="532.5" y="172.9102">ChatServer</text>
        <line style="stroke: #A80036; stroke-width: 1.5;" x1="504.5" x2="595.5" y1="184" y2="184"/>
        <line style="stroke: #A80036; stroke-width: 1.5;" x1="504.5" x2="595.5" y1="192" y2="192"/>
        <rect fill="#FEFECE" filter="url(#f1)" height="48" style="stroke: #A80036; stroke-width: 1.5;" width="103" x="498.5" y="44"/>
        <ellipse cx="513.5" cy="60" fill="#ADD1B2" rx="11" ry="11" style="stroke: #A80036; stroke-width: 1.0;"/>
        <path d="M516.2656,55.875 Q516.4219,55.6563 516.6094,55.5469 Q516.7969,55.4375 517.0156,55.4375 Q517.3906,55.4375 517.625,55.6953 Q517.8594,55.9531 517.8594,56.5625 L517.8594,58.0156 Q517.8594,58.625 517.625,58.8906 Q517.3906,59.1563 517.0156,59.1563 Q516.6719,59.1563 516.4688,58.9531 Q516.2656,58.7656 516.1563,58.25 Q516.1094,57.8906 515.9219,57.7031 Q515.5938,57.3281 514.9844,57.1094 Q514.375,56.8906 513.75,56.8906 Q512.9844,56.8906 512.3516,57.2188 Q511.7188,57.5469 511.2266,58.2969 Q510.7344,59.0469 510.7344,60.0781 L510.7344,61.1719 Q510.7344,62.4063 511.625,63.2266 Q512.5156,64.0469 514.1094,64.0469 Q515.0469,64.0469 515.7031,63.7969 Q516.0938,63.6406 516.5156,63.2031 Q516.7813,62.9375 516.9297,62.8594 Q517.0781,62.7813 517.2813,62.7813 Q517.6094,62.7813 517.8672,63.0391 Q518.125,63.2969 518.125,63.6406 Q518.125,63.9844 517.7813,64.3906 Q517.2813,64.9688 516.4844,65.2969 Q515.4063,65.75 514.1094,65.75 Q512.5938,65.75 511.3906,65.125 Q510.4063,64.625 509.7188,63.5547 Q509.0313,62.4844 509.0313,61.2031 L509.0313,60.0469 Q509.0313,58.7188 509.6484,57.5703 Q510.2656,56.4219 511.3594,55.8047 Q512.4531,55.1875 513.6875,55.1875 Q514.4219,55.1875 515.0703,55.3516 Q515.7188,55.5156 516.2656,55.875 Z "/>
        <text fill="#000000" font-family="sans-serif" font-size="12" lengthAdjust="spacingAndGlyphs" textLength="71" x="527.5" y="64.9102">ClientThread</text>
        <line style="stroke: #A80036; stroke-width: 1.5;" x1="499.5" x2="600.5" y1="76" y2="76"/>
        <line style="stroke: #A80036; stroke-width: 1.5;" x1="499.5" x2="600.5" y1="84" y2="84"/>
        <rect fill="#FEFECE" filter="url(#f1)" height="48" style="stroke: #A80036; stroke-width: 1.5;" width="123" x="636.5" y="44"/>
        <ellipse cx="651.5" cy="60" fill="#ADD1B2" rx="11" ry="11" style="stroke: #A80036; stroke-width: 1.0;"/>
        <path d="M654.2656,55.875 Q654.4219,55.6563 654.6094,55.5469 Q654.7969,55.4375 655.0156,55.4375 Q655.3906,55.4375 655.625,55.6953 Q655.8594,55.9531 655.8594,56.5625 L655.8594,58.0156 Q655.8594,58.625 655.625,58.8906 Q655.3906,59.1563 655.0156,59.1563 Q654.6719,59.1563 654.4688,58.9531 Q654.2656,58.7656 654.1563,58.25 Q654.1094,57.8906 653.9219,57.7031 Q653.5938,57.3281 652.9844,57.1094 Q652.375,56.8906 651.75,56.8906 Q650.9844,56.8906 650.3516,57.2188 Q649.7188,57.5469 649.2266,58.2969 Q648.7344,59.0469 648.7344,60.0781 L648.7344,61.1719 Q648.7344,62.4063 649.625,63.2266 Q650.5156,64.0469 652.1094,64.0469 Q653.0469,64.0469 653.7031,63.7969 Q654.0938,63.6406 654.5156,63.2031 Q654.7813,62.9375 654.9297,62.8594 Q655.0781,62.7813 655.2813,62.7813 Q655.6094,62.7813 655.8672,63.0391 Q656.125,63.2969 656.125,63.6406 Q656.125,63.9844 655.7813,64.3906 Q655.2813,64.9688 654.4844,65.2969 Q653.4063,65.75 652.1094,65.75 Q650.5938,65.75 649.3906,65.125 Q648.4063,64.625 647.7188,63.5547 Q647.0313,62.4844 647.0313,61.2031 L647.0313,60.0469 Q647.0313,58.7188 647.6484,57.5703 Q648.2656,56.4219 649.3594,55.8047 Q650.4531,55.1875 651.6875,55.1875 Q652.4219,55.1875 653.0703,55.3516 Q653.7188,55.5156 654.2656,55.875 Z "/>
        <text fill="#000000" font-family="sans-serif" font-size="12" lengthAdjust="spacingAndGlyphs" textLength="91" x="665.5" y="64.9102">RejectionThread</text>
        <line style="stroke: #A80036; stroke-width: 1.5;" x1="637.5" x2="758.5" y1="76" y2="76"/>
        <line style="stroke: #A80036; stroke-width: 1.5;" x1="637.5" x2="758.5" y1="84" y2="84"/>
        <rect fill="#FEFECE" filter="url(#f1)" height="48" style="stroke: #A80036; stroke-width: 1.5;" width="123" x="340.5" y="44"/>
        <ellipse cx="355.5" cy="60" fill="#EB937F" rx="11" ry="11" style="stroke: #A80036; stroke-width: 1.0;"/>
        <path d="M354.3594,60.7969 L354.3594,63.2969 L358.6875,63.2969 L358.6875,62.375 Q358.6875,61.7656 358.9297,61.5 Q359.1719,61.2344 359.5469,61.2344 Q359.9219,61.2344 360.1563,61.5 Q360.3906,61.7656 360.3906,62.375 L360.3906,65 L352.3906,65 Q351.7656,65 351.5078,64.7656 Q351.25,64.5313 351.25,64.1406 Q351.25,63.7656 351.5156,63.5313 Q351.7813,63.2969 352.3906,63.2969 L352.6563,63.2969 L352.6563,56.6406 L352.3906,56.6406 Q351.7656,56.6406 351.5078,56.4063 Q351.25,56.1719 351.25,55.7813 Q351.25,55.4063 351.5078,55.1719 Q351.7656,54.9375 352.3906,54.9375 L360.0156,54.9375 L360.0156,57.5313 Q360.0156,58.1406 359.7891,58.3984 Q359.5625,58.6563 359.1719,58.6563 Q358.7969,58.6563 358.5625,58.3984 Q358.3281,58.1406 358.3281,57.5313 L358.3281,56.6406 L354.3594,56.6406 L354.3594,59.0938 L355.8438,59.0938 Q355.8438,58.4375 355.9688,58.25 Q356.2344,57.8438 356.7031,57.8438 Q357.0781,57.8438 357.3125,58.1016 Q357.5469,58.3594 357.5469,58.9688 L357.5469,60.9375 Q357.5469,61.4844 357.4219,61.6719 Q357.1563,62.0625 356.7031,62.0625 Q356.2344,62.0625 355.9688,61.6563 Q355.8438,61.4688 355.8438,60.7969 L354.3594,60.7969 Z "/>
        <text fill="#000000" font-family="sans-serif" font-size="12" lengthAdjust="spacingAndGlyphs" textLength="91" x="369.5" y="64.9102">ConnectionState</text>
        <line style="stroke: #A80036; stroke-width: 1.5;" x1="341.5" x2="462.5" y1="76" y2="76"/>
        <line style="stroke: #A80036; stroke-width: 1.5;" x1="341.5" x2="462.5" y1="84" y2="84"/>
        <rect fill="#FEFECE" filter="url(#f1)" height="48" style="stroke: #A80036; stroke-width: 1.5;" width="78" x="354" y="260"/>
        <ellipse cx="369" cy="276" fill="#ADD1B2" rx="11" ry="11" style="stroke: #A80036; stroke-width: 1.0;"/>
        <path d="M371.7656,271.875 Q371.9219,271.6563 372.1094,271.5469 Q372.2969,271.4375 372.5156,271.4375 Q372.8906,271.4375 373.125,271.6953 Q373.3594,271.9531 373.3594,272.5625 L373.3594,274.0156 Q373.3594,274.625 373.125,274.8906 Q372.8906,275.1563 372.5156,275.1563 Q372.1719,275.1563 371.9688,274.9531 Q371.7656,274.7656 371.6563,274.25 Q371.6094,273.8906 371.4219,273.7031 Q371.0938,273.3281 370.4844,273.1094 Q369.875,272.8906 369.25,272.8906 Q368.4844,272.8906 367.8516,273.2188 Q367.2188,273.5469 366.7266,274.2969 Q366.2344,275.0469 366.2344,276.0781 L366.2344,277.1719 Q366.2344,278.4063 367.125,279.2266 Q368.0156,280.0469 369.6094,280.0469 Q370.5469,280.0469 371.2031,279.7969 Q371.5938,279.6406 372.0156,279.2031 Q372.2813,278.9375 372.4297,278.8594 Q372.5781,278.7813 372.7813,278.7813 Q373.1094,278.7813 373.3672,279.0391 Q373.625,279.2969 373.625,279.6406 Q373.625,279.9844 373.2813,280.3906 Q372.7813,280.9688 371.9844,281.2969 Q370.9063,281.75 369.6094,281.75 Q368.0938,281.75 366.8906,281.125 Q365.9063,280.625 365.2188,279.5547 Q364.5313,278.4844 364.5313,277.2031 L364.5313,276.0469 Q364.5313,274.7188 365.1484,273.5703 Q365.7656,272.4219 366.8594,271.8047 Q367.9531,271.1875 369.1875,271.1875 Q369.9219,271.1875 370.5703,271.3516 Q371.2188,271.5156 371.7656,271.875 Z "/>
        <text fill="#000000" font-family="sans-serif" font-size="12" lengthAdjust="spacingAndGlyphs" textLength="46" x="383" y="280.9102">Override</text>
        <line style="stroke: #A80036; stroke-width: 1.5;" x1="355" x2="431" y1="292" y2="292"/>
        <line style="stroke: #A80036; stroke-width: 1.5;" x1="355" x2="431" y1="300" y2="300"/>
        <path d="M503.419,200.216 C486.436,209.363 467.39,220.442 451,232 C440.645,239.3022 430.031,248.1629 420.761,256.4363 " fill="none" style="stroke: #A80036; stroke-width: 1.0; stroke-dasharray: 7.0,7.0;"/>
        <polygon fill="#A80036" points="416.875,259.9399,426.2383,256.8855,420.589,256.5924,420.8822,250.9431,416.875,259.9399" style="stroke: #A80036; stroke-width: 1.0;"/>
        <path d="M503.48,177.107 C428.845,178.685 278.784,187.697 161,232 C145.218,237.9363 129.358,247.4917 116.1,256.7356 " fill="none" style="stroke: #A80036; stroke-width: 1.0; stroke-dasharray: 7.0,7.0;"/>
        <polygon fill="#A80036" points="111.707,259.8528,121.3614,257.9053,115.7843,256.9587,116.7309,251.3816,111.707,259.8528" style="stroke: #A80036; stroke-width: 1.0;"/>
        <path d="M503.371,185.37 C459.637,194.082 392.928,209.608 338,232 C321.262,238.8236 303.806,248.2534 288.832,257.1503 " fill="none" style="stroke: #A80036; stroke-width: 1.0; stroke-dasharray: 7.0,7.0;"/>
        <polygon fill="#A80036" points="284.269,259.8907,294.0439,258.6861,288.5554,257.3164,289.9251,251.8279,284.269,259.8907" style="stroke: #A80036; stroke-width: 1.0;"/>
        <path d="M550,200 C550,216.003 550,237.4461 550,254.528 " fill="none" style="stroke: #A80036; stroke-width: 1.0; stroke-dasharray: 7.0,7.0;"/>
        <polygon fill="#A80036" points="550,259.6784,554,250.6784,550,254.6784,546,250.6784,550,259.6784" style="stroke: #A80036; stroke-width: 1.0;"/>
        <path d="M592.349,200.252 C610.158,210.04 631.094,221.561 650,232 C664.923,240.24 681.195,249.2514 695.848,257.3763 " fill="none" style="stroke: #A80036; stroke-width: 1.0; stroke-dasharray: 7.0,7.0;"/>
        <polygon fill="#A80036" points="700.34,259.8675,694.4083,252.0053,695.9671,257.4431,690.5293,259.0019,700.34,259.8675" style="stroke: #A80036; stroke-width: 1.0;"/>
        <path d="M596.659,184.605 C640.72,191.556 708.7,201.686 768,208 C917.754,223.944 956.627,212.808 1106,232 C1183.83,242.0002 1273.04,259.8979 1327.7,271.6098 " fill="none" style="stroke: #A80036; stroke-width: 1.0; stroke-dasharray: 7.0,7.0;"/>
        <polygon fill="#A80036" points="1332.88,272.7234,1324.9126,266.9336,1327.99,271.6802,1323.2435,274.7576,1332.88,272.7234" style="stroke: #A80036; stroke-width: 1.0;"/>
        <path d="M601.79,87.009 C607.566,88.795 613.389,90.499 619,92 C687.793,110.404 712.093,92.581 776,124 C788.336,130.065 800.166,139.34 809.952,148.326 " fill="none" style="stroke: #A80036; stroke-width: 1.0; stroke-dasharray: 7.0,7.0;"/>
        <polygon fill="#A80036" points="813.738,151.88,809.9163,142.8028,810.0935,148.4569,804.4394,148.6341,813.738,151.88" style="stroke: #A80036; stroke-width: 1.0;"/>
        <path d="M601.642,87.626 C607.447,89.296 613.316,90.805 619,92 C769.263,123.596 821.248,64.977 963,124 C976.393,129.576 989.069,139.169 999.361,148.541 " fill="none" style="stroke: #A80036; stroke-width: 1.0; stroke-dasharray: 7.0,7.0;"/>
        <polygon fill="#A80036" points="1003.042,151.976,999.191,142.9112,999.3864,148.5647,993.733,148.7601,1003.042,151.976" style="stroke: #A80036; stroke-width: 1.0;"/>
        <path d="M601.599,87.844 C607.411,89.474 613.294,90.913 619,92 C746.457,116.287 1079.35,81.671 1202,124 C1217.62,129.392 1232.93,139.176 1245.46,148.742 " fill="none" style="stroke: #A80036; stroke-width: 1.0; stroke-dasharray: 7.0,7.0;"/>
        <polygon fill="#A80036" points="1249.6,151.972,1244.9581,143.2856,1245.6555,148.8993,1240.0419,149.5968,1249.6,151.972" style="stroke: #A80036; stroke-width: 1.0;"/>
        <path d="M550,92 C550,108.003 550,129.446 550,146.528 " fill="none" style="stroke: #A80036; stroke-width: 1.0; stroke-dasharray: 7.0,7.0;"/>
        <polygon fill="#A80036" points="550,151.678,554,142.678,550,146.678,546,142.678,550,151.678" style="stroke: #A80036; stroke-width: 1.0;"/>
        <path d="M732.316,92.11 C746.114,101.681 762.032,113.081 776,124 C785.8,131.661 796.166,140.392 805.428,148.438 " fill="none" style="stroke: #A80036; stroke-width: 1.0; stroke-dasharray: 7.0,7.0;"/>
        <polygon fill="#A80036" points="809.325,151.839,805.1755,142.9069,805.5583,148.5508,799.9144,148.9336,809.325,151.839" style="stroke: #A80036; stroke-width: 1.0;"/>
        <path d="M693.236,92.016 C688.357,122.626 685.072,176.521 714,208 C750.507,247.7268 782.365,213.368 833,232 C850.859,238.5716 869.422,248.2433 885.157,257.4024 " fill="none" style="stroke: #A80036; stroke-width: 1.0; stroke-dasharray: 7.0,7.0;"/>
        <polygon fill="#A80036" points="889.518,259.9692,883.7922,251.9558,885.2094,257.4322,879.733,258.8495,889.518,259.9692" style="stroke: #A80036; stroke-width: 1.0;"/>
        <path d="M706.518,92.177 C720.153,127.936 747.434,193.918 768,208 C859.372,270.5611 917.105,182.176 1016,232 C1026.71,237.3942 1036.1,246.4184 1043.56,255.3891 " fill="none" style="stroke: #A80036; stroke-width: 1.0; stroke-dasharray: 7.0,7.0;"/>
        <polygon fill="#A80036" points="1047.06,259.7725,1044.5754,250.2422,1043.9424,255.8635,1038.321,255.2304,1047.06,259.7725" style="stroke: #A80036; stroke-width: 1.0;"/>
        <path d="M759.615,69.643 C944.801,72.031 1487.79,82.533 1555,124 C1603.06,153.65 1629.06,218.041 1640.58,255.1425 " fill="none" style="stroke: #A80036; stroke-width: 1.0; stroke-dasharray: 7.0,7.0;"/>
        <polygon fill="#A80036" points="1642.04,259.9693,1643.2566,250.1959,1640.5892,255.1844,1635.6007,252.5171,1642.04,259.9693" style="stroke: #A80036; stroke-width: 1.0;"/>
        <path d="M759.638,68.603 C936.304,68.106 1434.96,71.414 1484,124 C1509.46,151.304 1502.57,175.613 1484,208 C1473.5,226.3173 1460.41,220.057 1443,232 C1432.04,239.5203 1420.54,248.3572 1410.36,256.5434 " fill="none" style="stroke: #A80036; stroke-width: 1.0; stroke-dasharray: 7.0,7.0;"/>
        <polygon fill="#A80036" points="1406.38,259.7643,1415.8933,257.2154,1410.2678,256.6203,1410.8629,250.9948,1406.38,259.7643" style="stroke: #A80036; stroke-width: 1.0;"/>
        <path d="M759.683,70.181 C952.775,74.228 1537.4,89.245 1615,124 C1678.54,152.456 1730.99,218.066 1757.11,255.5051 " fill="none" style="stroke: #A80036; stroke-width: 1.0; stroke-dasharray: 7.0,7.0;"/>
        <polygon fill="#A80036" points="1760.16,259.9268,1758.3367,250.2482,1757.3185,255.8127,1751.7541,254.7945,1760.16,259.9268" style="stroke: #A80036; stroke-width: 1.0;"/>
        <path d="M759.766,68.403 C941.926,67.284 1467.47,68.898 1519,124 C1551.7,158.96 1535.18,219.277 1521.03,254.7171 " fill="none" style="stroke: #A80036; stroke-width: 1.0; stroke-dasharray: 7.0,7.0;"/>
        <polygon fill="#A80036" points="1518.97,259.7595,1526.0807,252.9449,1520.8637,255.132,1518.6767,249.915,1518.97,259.7595" style="stroke: #A80036; stroke-width: 1.0;"/>
        <path d="M665.886,92 C642.5,108.75 610.791,131.461 586.453,148.892 " fill="none" style="stroke: #A80036; stroke-width: 1.0; stroke-dasharray: 7.0,7.0;"/>
        <polygon fill="#A80036" points="582.306,151.862,591.9519,149.8727,586.3707,148.9503,587.2931,143.3691,582.306,151.862" style="stroke: #A80036; stroke-width: 1.0;"/>
    </g>
</svg>
