<?xml version="1.0" encoding="UTF-8"?><svg xmlns="http://www.w3.org/2000/svg" xmlns:xlink="http://www.w3.org/1999/xlink" height="323pt" style="width:2153px;height:323px;" version="1.1" viewBox="0 0 2153 323" width="2153pt">
    <defs>
        <filter height="300%" id="f1" width="300%" x="-1" y="-1">
            <feGaussianBlur result="blurOut" stdDeviation="2.0"/>
            <feColorMatrix in="blurOut" result="blurOut2" type="matrix" values="0 0 0 0 0 0 0 0 0 0 0 0 0 0 0 0 0 0 .4 0"/>
            <feOffset dx="4.0" dy="4.0" in="blurOut2" result="blurOut3"/>
            <feBlend in="SourceGraphic" in2="blurOut3" mode="normal"/>
        </filter>
    </defs>
    <g>
        <polygon fill="#FFFFFF" filter="url(#f1)" points="1308,124,1377,124,1384,147.6094,1402,147.6094,1402,208,1308,208,1308,124" style="stroke: #000000; stroke-width: 2.0;"/>
        <line style="stroke: #000000; stroke-width: 2.0;" x1="1308" x2="1384" y1="147.6094" y2="147.6094"/>
        <text fill="#000000" font-family="sans-serif" font-size="14" font-weight="bold" lengthAdjust="spacingAndGlyphs" textLength="63" x="1311" y="141.5332">java.lang</text>
        <polygon fill="#FFFFFF" filter="url(#f1)" points="1714,124,1895,124,1902,147.6094,1905,147.6094,1905,208,1714,208,1714,124" style="stroke: #000000; stroke-width: 2.0;"/>
        <line style="stroke: #000000; stroke-width: 2.0;" x1="1714" x2="1902" y1="147.6094" y2="147.6094"/>
        <text fill="#000000" font-family="sans-serif" font-size="14" font-weight="bold" lengthAdjust="spacingAndGlyphs" textLength="175" x="1717" y="141.5332">de.mash1t.chat.client.gui</text>
        <polygon fill="#FFFFFF" filter="url(#f1)" points="673,16,842,16,849,39.6094,1149,39.6094,1149,208,673,208,673,16" style="stroke: #000000; stroke-width: 2.0;"/>
        <line style="stroke: #000000; stroke-width: 2.0;" x1="673" x2="849" y1="39.6094" y2="39.6094"/>
        <text fill="#000000" font-family="sans-serif" font-size="14" font-weight="bold" lengthAdjust="spacingAndGlyphs" textLength="163" x="676" y="33.5332">de.mash1t.chat.logging</text>
        <polygon fill="#FFFFFF" filter="url(#f1)" points="1913,124,2136,124,2143,147.6094,2146,147.6094,2146,208,1913,208,1913,124" style="stroke: #000000; stroke-width: 2.0;"/>
        <line style="stroke: #000000; stroke-width: 2.0;" x1="1913" x2="2143" y1="147.6094" y2="147.6094"/>
        <text fill="#000000" font-family="sans-serif" font-size="14" font-weight="bold" lengthAdjust="spacingAndGlyphs" textLength="217" x="1916" y="141.5332">de.mash1t.chat.server.console</text>
        <polygon fill="#FFFFFF" filter="url(#f1)" points="14,232,66,232,73,255.6094,215,255.6094,215,316,14,316,14,232" style="stroke: #000000; stroke-width: 2.0;"/>
        <line style="stroke: #000000; stroke-width: 2.0;" x1="14" x2="73" y1="255.6094" y2="255.6094"/>
        <text fill="#000000" font-family="sans-serif" font-size="14" font-weight="bold" lengthAdjust="spacingAndGlyphs" textLength="46" x="17" y="249.5332">java.io</text>
        <polygon fill="#FFFFFF" filter="url(#f1)" points="1421,124,1487,124,1494,147.6094,1706,147.6094,1706,208,1421,208,1421,124" style="stroke: #000000; stroke-width: 2.0;"/>
        <line style="stroke: #000000; stroke-width: 2.0;" x1="1421" x2="1494" y1="147.6094" y2="147.6094"/>
        <text fill="#000000" font-family="sans-serif" font-size="14" font-weight="bold" lengthAdjust="spacingAndGlyphs" textLength="60" x="1424" y="141.5332">java.text</text>
        <polygon fill="#FFFFFF" filter="url(#f1)" points="234,232,295,232,302,255.6094,802,255.6094,802,316,234,316,234,232" style="stroke: #000000; stroke-width: 2.0;"/>
        <line style="stroke: #000000; stroke-width: 2.0;" x1="234" x2="302" y1="255.6094" y2="255.6094"/>
        <text fill="#000000" font-family="sans-serif" font-size="14" font-weight="bold" lengthAdjust="spacingAndGlyphs" textLength="55" x="237" y="249.5332">java.util</text>
        <polygon fill="#FFFFFF" filter="url(#f1)" points="821,232,939,232,946,255.6094,1633,255.6094,1633,316,821,316,821,232" style="stroke: #000000; stroke-width: 2.0;"/>
        <line style="stroke: #000000; stroke-width: 2.0;" x1="821" x2="946" y1="255.6094" y2="255.6094"/>
        <text fill="#000000" font-family="sans-serif" font-size="14" font-weight="bold" lengthAdjust="spacingAndGlyphs" textLength="112" x="824" y="249.5332">java.util.logging</text>
        <rect fill="#FEFECE" filter="url(#f1)" height="48" style="stroke: #A80036; stroke-width: 1.5;" width="78" x="1316" y="152"/>
        <ellipse cx="1331" cy="168" fill="#A9DCDF" rx="11" ry="11" style="stroke: #A80036; stroke-width: 1.0;"/>
        <path d="M1333.3438,165.5781 L1333.3438,165.0625 Q1333.3438,164.2344 1332.8672,163.7344 Q1332.3906,163.2344 1331.6406,163.2344 Q1331.0469,163.2344 1330.5156,163.6328 Q1329.9844,164.0313 1329.7188,164.6563 Q1329.25,165.75 1329.25,166.8594 L1329.25,169.375 Q1329.25,171.2969 1330.1094,172.4219 Q1330.6719,173.1719 1331.6875,173.1719 Q1332.2344,173.1719 1332.6797,173.0313 Q1333.125,172.8906 1333.375,172.6406 Q1333.625,172.3906 1333.8438,172.3906 Q1334.1094,172.3906 1334.2969,172.5781 Q1334.4844,172.7656 1334.4844,173.0313 Q1334.4844,173.4531 1333.9063,173.8438 Q1333.0781,174.4063 1331.6406,174.4063 Q1330.5469,174.4063 1329.8281,173.9063 Q1328.9063,173.2656 1328.4531,172 Q1328,170.7344 1328,169.5 L1328,166.7656 Q1328,164.7813 1328.9844,163.3828 Q1329.9688,161.9844 1331.6094,161.9844 Q1332.3594,161.9844 1333.0078,162.2891 Q1333.6563,162.5938 1334.125,163.3594 Q1334.5938,164.125 1334.5938,165.0625 L1334.5938,169.5938 Q1334.9531,169.7656 1334.9531,170.1563 Q1334.9531,170.4375 1334.7578,170.6172 Q1334.5625,170.7969 1334.0938,170.7969 L1333.3438,170.7969 L1333.3438,170.75 Q1332.9531,170.8125 1332.7656,170.8125 Q1331.7656,170.8125 1331.0234,170.0703 Q1330.2813,169.3281 1330.2813,168.3281 Q1330.2813,167.2656 1331.1016,166.4688 Q1331.9219,165.6719 1333.3438,165.5781 Z M1333.3438,166.8594 Q1332.4531,166.9531 1331.9922,167.375 Q1331.5313,167.7969 1331.5313,168.3438 Q1331.5313,168.8281 1331.9141,169.1719 Q1332.2969,169.5156 1332.9375,169.5156 Q1333.0625,169.5156 1333.3438,169.5 L1333.3438,166.8594 Z "/>
        <text fill="#000000" font-family="sans-serif" font-size="12" lengthAdjust="spacingAndGlyphs" textLength="46" x="1345" y="172.9102">Override</text>
        <line style="stroke: #A80036; stroke-width: 1.5;" x1="1317" x2="1393" y1="184" y2="184"/>
        <line style="stroke: #A80036; stroke-width: 1.5;" x1="1317" x2="1393" y1="192" y2="192"/>
        <rect fill="#FEFECE" filter="url(#f1)" height="48" style="stroke: #A80036; stroke-width: 1.5;" width="83" x="1732.5" y="152"/>
        <ellipse cx="1747.5" cy="168" fill="#ADD1B2" rx="11" ry="11" style="stroke: #A80036; stroke-width: 1.0;"/>
        <path d="M1750.2656,163.875 Q1750.4219,163.6563 1750.6094,163.5469 Q1750.7969,163.4375 1751.0156,163.4375 Q1751.3906,163.4375 1751.625,163.6953 Q1751.8594,163.9531 1751.8594,164.5625 L1751.8594,166.0156 Q1751.8594,166.625 1751.625,166.8906 Q1751.3906,167.1563 1751.0156,167.1563 Q1750.6719,167.1563 1750.4688,166.9531 Q1750.2656,166.7656 1750.1563,166.25 Q1750.1094,165.8906 1749.9219,165.7031 Q1749.5938,165.3281 1748.9844,165.1094 Q1748.375,164.8906 1747.75,164.8906 Q1746.9844,164.8906 1746.3516,165.2188 Q1745.7188,165.5469 1745.2266,166.2969 Q1744.7344,167.0469 1744.7344,168.0781 L1744.7344,169.1719 Q1744.7344,170.4063 1745.625,171.2266 Q1746.5156,172.0469 1748.1094,172.0469 Q1749.0469,172.0469 1749.7031,171.7969 Q1750.0938,171.6406 1750.5156,171.2031 Q1750.7813,170.9375 1750.9297,170.8594 Q1751.0781,170.7813 1751.2813,170.7813 Q1751.6094,170.7813 1751.8672,171.0391 Q1752.125,171.2969 1752.125,171.6406 Q1752.125,171.9844 1751.7813,172.3906 Q1751.2813,172.9688 1750.4844,173.2969 Q1749.4063,173.75 1748.1094,173.75 Q1746.5938,173.75 1745.3906,173.125 Q1744.4063,172.625 1743.7188,171.5547 Q1743.0313,170.4844 1743.0313,169.2031 L1743.0313,168.0469 Q1743.0313,166.7188 1743.6484,165.5703 Q1744.2656,164.4219 1745.3594,163.8047 Q1746.4531,163.1875 1747.6875,163.1875 Q1748.4219,163.1875 1749.0703,163.3516 Q1749.7188,163.5156 1750.2656,163.875 Z "/>
        <text fill="#000000" font-family="sans-serif" font-size="12" lengthAdjust="spacingAndGlyphs" textLength="51" x="1761.5" y="172.9102">ClientGui</text>
        <line style="stroke: #A80036; stroke-width: 1.5;" x1="1733.5" x2="1814.5" y1="184" y2="184"/>
        <line style="stroke: #A80036; stroke-width: 1.5;" x1="1733.5" x2="1814.5" y1="192" y2="192"/>
        <rect fill="#FEFECE" filter="url(#f1)" height="48" style="stroke: #A80036; stroke-width: 1.5;" width="83" x="681.5" y="44"/>
        <ellipse cx="696.5" cy="60" fill="#ADD1B2" rx="11" ry="11" style="stroke: #A80036; stroke-width: 1.0;"/>
        <path d="M699.2656,55.875 Q699.4219,55.6563 699.6094,55.5469 Q699.7969,55.4375 700.0156,55.4375 Q700.3906,55.4375 700.625,55.6953 Q700.8594,55.9531 700.8594,56.5625 L700.8594,58.0156 Q700.8594,58.625 700.625,58.8906 Q700.3906,59.1563 700.0156,59.1563 Q699.6719,59.1563 699.4688,58.9531 Q699.2656,58.7656 699.1563,58.25 Q699.1094,57.8906 698.9219,57.7031 Q698.5938,57.3281 697.9844,57.1094 Q697.375,56.8906 696.75,56.8906 Q695.9844,56.8906 695.3516,57.2188 Q694.7188,57.5469 694.2266,58.2969 Q693.7344,59.0469 693.7344,60.0781 L693.7344,61.1719 Q693.7344,62.4063 694.625,63.2266 Q695.5156,64.0469 697.1094,64.0469 Q698.0469,64.0469 698.7031,63.7969 Q699.0938,63.6406 699.5156,63.2031 Q699.7813,62.9375 699.9297,62.8594 Q700.0781,62.7813 700.2813,62.7813 Q700.6094,62.7813 700.8672,63.0391 Q701.125,63.2969 701.125,63.6406 Q701.125,63.9844 700.7813,64.3906 Q700.2813,64.9688 699.4844,65.2969 Q698.4063,65.75 697.1094,65.75 Q695.5938,65.75 694.3906,65.125 Q693.4063,64.625 692.7188,63.5547 Q692.0313,62.4844 692.0313,61.2031 L692.0313,60.0469 Q692.0313,58.7188 692.6484,57.5703 Q693.2656,56.4219 694.3594,55.8047 Q695.4531,55.1875 696.6875,55.1875 Q697.4219,55.1875 698.0703,55.3516 Q698.7188,55.5156 699.2656,55.875 Z "/>
        <text fill="#000000" font-family="sans-serif" font-size="12" lengthAdjust="spacingAndGlyphs" textLength="51" x="710.5" y="64.9102">Counters</text>
        <line style="stroke: #A80036; stroke-width: 1.5;" x1="682.5" x2="763.5" y1="76" y2="76"/>
        <line style="stroke: #A80036; stroke-width: 1.5;" x1="682.5" x2="763.5" y1="84" y2="84"/>
        <rect fill="#FEFECE" filter="url(#f1)" height="48" style="stroke: #A80036; stroke-width: 1.5;" width="115" x="903.5" y="44"/>
        <ellipse cx="918.5" cy="60" fill="#ADD1B2" rx="11" ry="11" style="stroke: #A80036; stroke-width: 1.0;"/>
        <path d="M921.2656,55.875 Q921.4219,55.6563 921.6094,55.5469 Q921.7969,55.4375 922.0156,55.4375 Q922.3906,55.4375 922.625,55.6953 Q922.8594,55.9531 922.8594,56.5625 L922.8594,58.0156 Q922.8594,58.625 922.625,58.8906 Q922.3906,59.1563 922.0156,59.1563 Q921.6719,59.1563 921.4688,58.9531 Q921.2656,58.7656 921.1563,58.25 Q921.1094,57.8906 920.9219,57.7031 Q920.5938,57.3281 919.9844,57.1094 Q919.375,56.8906 918.75,56.8906 Q917.9844,56.8906 917.3516,57.2188 Q916.7188,57.5469 916.2266,58.2969 Q915.7344,59.0469 915.7344,60.0781 L915.7344,61.1719 Q915.7344,62.4063 916.625,63.2266 Q917.5156,64.0469 919.1094,64.0469 Q920.0469,64.0469 920.7031,63.7969 Q921.0938,63.6406 921.5156,63.2031 Q921.7813,62.9375 921.9297,62.8594 Q922.0781,62.7813 922.2813,62.7813 Q922.6094,62.7813 922.8672,63.0391 Q923.125,63.2969 923.125,63.6406 Q923.125,63.9844 922.7813,64.3906 Q922.2813,64.9688 921.4844,65.2969 Q920.4063,65.75 919.1094,65.75 Q917.5938,65.75 916.3906,65.125 Q915.4063,64.625 914.7188,63.5547 Q914.0313,62.4844 914.0313,61.2031 L914.0313,60.0469 Q914.0313,58.7188 914.6484,57.5703 Q915.2656,56.4219 916.3594,55.8047 Q917.4531,55.1875 918.6875,55.1875 Q919.4219,55.1875 920.0703,55.3516 Q920.7188,55.5156 921.2656,55.875 Z "/>
        <text fill="#000000" font-family="sans-serif" font-size="12" lengthAdjust="spacingAndGlyphs" textLength="83" x="932.5" y="64.9102">CustomLogger</text>
        <line style="stroke: #A80036; stroke-width: 1.5;" x1="904.5" x2="1017.5" y1="76" y2="76"/>
        <line style="stroke: #A80036; stroke-width: 1.5;" x1="904.5" x2="1017.5" y1="84" y2="84"/>
        <rect fill="#FEFECE" filter="url(#f1)" height="48" style="stroke: #A80036; stroke-width: 1.5;" width="131" x="794.5" y="152"/>
        <ellipse cx="809.5" cy="168" fill="#ADD1B2" rx="11" ry="11" style="stroke: #A80036; stroke-width: 1.0;"/>
        <path d="M812.2656,163.875 Q812.4219,163.6563 812.6094,163.5469 Q812.7969,163.4375 813.0156,163.4375 Q813.3906,163.4375 813.625,163.6953 Q813.8594,163.9531 813.8594,164.5625 L813.8594,166.0156 Q813.8594,166.625 813.625,166.8906 Q813.3906,167.1563 813.0156,167.1563 Q812.6719,167.1563 812.4688,166.9531 Q812.2656,166.7656 812.1563,166.25 Q812.1094,165.8906 811.9219,165.7031 Q811.5938,165.3281 810.9844,165.1094 Q810.375,164.8906 809.75,164.8906 Q808.9844,164.8906 808.3516,165.2188 Q807.7188,165.5469 807.2266,166.2969 Q806.7344,167.0469 806.7344,168.0781 L806.7344,169.1719 Q806.7344,170.4063 807.625,171.2266 Q808.5156,172.0469 810.1094,172.0469 Q811.0469,172.0469 811.7031,171.7969 Q812.0938,171.6406 812.5156,171.2031 Q812.7813,170.9375 812.9297,170.8594 Q813.0781,170.7813 813.2813,170.7813 Q813.6094,170.7813 813.8672,171.0391 Q814.125,171.2969 814.125,171.6406 Q814.125,171.9844 813.7813,172.3906 Q813.2813,172.9688 812.4844,173.2969 Q811.4063,173.75 810.1094,173.75 Q808.5938,173.75 807.3906,173.125 Q806.4063,172.625 805.7188,171.5547 Q805.0313,170.4844 805.0313,169.2031 L805.0313,168.0469 Q805.0313,166.7188 805.6484,165.5703 Q806.2656,164.4219 807.3594,163.8047 Q808.4531,163.1875 809.6875,163.1875 Q810.4219,163.1875 811.0703,163.3516 Q811.7188,163.5156 812.2656,163.875 Z "/>
        <text fill="#000000" font-family="sans-serif" font-size="12" lengthAdjust="spacingAndGlyphs" textLength="99" x="823.5" y="172.9102">LoggingController</text>
        <line style="stroke: #A80036; stroke-width: 1.5;" x1="795.5" x2="924.5" y1="184" y2="184"/>
        <line style="stroke: #A80036; stroke-width: 1.5;" x1="795.5" x2="924.5" y1="192" y2="192"/>
        <rect fill="#FEFECE" filter="url(#f1)" height="48" style="stroke: #A80036; stroke-width: 1.5;" width="69" x="799.5" y="44"/>
        <ellipse cx="814.5" cy="60" fill="#EB937F" rx="11" ry="11" style="stroke: #A80036; stroke-width: 1.0;"/>
        <path d="M813.3594,60.7969 L813.3594,63.2969 L817.6875,63.2969 L817.6875,62.375 Q817.6875,61.7656 817.9297,61.5 Q818.1719,61.2344 818.5469,61.2344 Q818.9219,61.2344 819.1563,61.5 Q819.3906,61.7656 819.3906,62.375 L819.3906,65 L811.3906,65 Q810.7656,65 810.5078,64.7656 Q810.25,64.5313 810.25,64.1406 Q810.25,63.7656 810.5156,63.5313 Q810.7813,63.2969 811.3906,63.2969 L811.6563,63.2969 L811.6563,56.6406 L811.3906,56.6406 Q810.7656,56.6406 810.5078,56.4063 Q810.25,56.1719 810.25,55.7813 Q810.25,55.4063 810.5078,55.1719 Q810.7656,54.9375 811.3906,54.9375 L819.0156,54.9375 L819.0156,57.5313 Q819.0156,58.1406 818.7891,58.3984 Q818.5625,58.6563 818.1719,58.6563 Q817.7969,58.6563 817.5625,58.3984 Q817.3281,58.1406 817.3281,57.5313 L817.3281,56.6406 L813.3594,56.6406 L813.3594,59.0938 L814.8438,59.0938 Q814.8438,58.4375 814.9688,58.25 Q815.2344,57.8438 815.7031,57.8438 Q816.0781,57.8438 816.3125,58.1016 Q816.5469,58.3594 816.5469,58.9688 L816.5469,60.9375 Q816.5469,61.4844 816.4219,61.6719 Q816.1563,62.0625 815.7031,62.0625 Q815.2344,62.0625 814.9688,61.6563 Q814.8438,61.4688 814.8438,60.7969 L813.3594,60.7969 Z "/>
        <text fill="#000000" font-family="sans-serif" font-size="12" lengthAdjust="spacingAndGlyphs" textLength="37" x="828.5" y="64.9102">LogDir</text>
        <line style="stroke: #A80036; stroke-width: 1.5;" x1="800.5" x2="867.5" y1="76" y2="76"/>
        <line style="stroke: #A80036; stroke-width: 1.5;" x1="800.5" x2="867.5" y1="84" y2="84"/>
        <rect fill="#FEFECE" filter="url(#f1)" height="48" style="stroke: #A80036; stroke-width: 1.5;" width="87" x="1053.5" y="44"/>
        <ellipse cx="1068.5" cy="60" fill="#EB937F" rx="11" ry="11" style="stroke: #A80036; stroke-width: 1.0;"/>
        <path d="M1067.3594,60.7969 L1067.3594,63.2969 L1071.6875,63.2969 L1071.6875,62.375 Q1071.6875,61.7656 1071.9297,61.5 Q1072.1719,61.2344 1072.5469,61.2344 Q1072.9219,61.2344 1073.1563,61.5 Q1073.3906,61.7656 1073.3906,62.375 L1073.3906,65 L1065.3906,65 Q1064.7656,65 1064.5078,64.7656 Q1064.25,64.5313 1064.25,64.1406 Q1064.25,63.7656 1064.5156,63.5313 Q1064.7813,63.2969 1065.3906,63.2969 L1065.6563,63.2969 L1065.6563,56.6406 L1065.3906,56.6406 Q1064.7656,56.6406 1064.5078,56.4063 Q1064.25,56.1719 1064.25,55.7813 Q1064.25,55.4063 1064.5078,55.1719 Q1064.7656,54.9375 1065.3906,54.9375 L1073.0156,54.9375 L1073.0156,57.5313 Q1073.0156,58.1406 1072.7891,58.3984 Q1072.5625,58.6563 1072.1719,58.6563 Q1071.7969,58.6563 1071.5625,58.3984 Q1071.3281,58.1406 1071.3281,57.5313 L1071.3281,56.6406 L1067.3594,56.6406 L1067.3594,59.0938 L1068.8438,59.0938 Q1068.8438,58.4375 1068.9688,58.25 Q1069.2344,57.8438 1069.7031,57.8438 Q1070.0781,57.8438 1070.3125,58.1016 Q1070.5469,58.3594 1070.5469,58.9688 L1070.5469,60.9375 Q1070.5469,61.4844 1070.4219,61.6719 Q1070.1563,62.0625 1069.7031,62.0625 Q1069.2344,62.0625 1068.9688,61.6563 Q1068.8438,61.4688 1068.8438,60.7969 L1067.3594,60.7969 Z "/>
        <text fill="#000000" font-family="sans-serif" font-size="12" lengthAdjust="spacingAndGlyphs" textLength="55" x="1082.5" y="64.9102">LogName</text>
        <line style="stroke: #A80036; stroke-width: 1.5;" x1="1054.5" x2="1139.5" y1="76" y2="76"/>
        <line style="stroke: #A80036; stroke-width: 1.5;" x1="1054.5" x2="1139.5" y1="84" y2="84"/>
        <rect fill="#FEFECE" filter="url(#f1)" height="48" style="stroke: #A80036; stroke-width: 1.5;" width="78" x="681" y="152"/>
        <ellipse cx="696" cy="168" fill="#EB937F" rx="11" ry="11" style="stroke: #A80036; stroke-width: 1.0;"/>
        <path d="M694.8594,168.7969 L694.8594,171.2969 L699.1875,171.2969 L699.1875,170.375 Q699.1875,169.7656 699.4297,169.5 Q699.6719,169.2344 700.0469,169.2344 Q700.4219,169.2344 700.6563,169.5 Q700.8906,169.7656 700.8906,170.375 L700.8906,173 L692.8906,173 Q692.2656,173 692.0078,172.7656 Q691.75,172.5313 691.75,172.1406 Q691.75,171.7656 692.0156,171.5313 Q692.2813,171.2969 692.8906,171.2969 L693.1563,171.2969 L693.1563,164.6406 L692.8906,164.6406 Q692.2656,164.6406 692.0078,164.4063 Q691.75,164.1719 691.75,163.7813 Q691.75,163.4063 692.0078,163.1719 Q692.2656,162.9375 692.8906,162.9375 L700.5156,162.9375 L700.5156,165.5313 Q700.5156,166.1406 700.2891,166.3984 Q700.0625,166.6563 699.6719,166.6563 Q699.2969,166.6563 699.0625,166.3984 Q698.8281,166.1406 698.8281,165.5313 L698.8281,164.6406 L694.8594,164.6406 L694.8594,167.0938 L696.3438,167.0938 Q696.3438,166.4375 696.4688,166.25 Q696.7344,165.8438 697.2031,165.8438 Q697.5781,165.8438 697.8125,166.1016 Q698.0469,166.3594 698.0469,166.9688 L698.0469,168.9375 Q698.0469,169.4844 697.9219,169.6719 Q697.6563,170.0625 697.2031,170.0625 Q696.7344,170.0625 696.4688,169.6563 Q696.3438,169.4688 696.3438,168.7969 L694.8594,168.7969 Z "/>
        <text fill="#000000" font-family="sans-serif" font-size="12" lengthAdjust="spacingAndGlyphs" textLength="46" x="710" y="172.9102">LogPath</text>
        <line style="stroke: #A80036; stroke-width: 1.5;" x1="682" x2="758" y1="184" y2="184"/>
        <line style="stroke: #A80036; stroke-width: 1.5;" x1="682" x2="758" y1="192" y2="192"/>
        <rect fill="#FEFECE" filter="url(#f1)" height="48" style="stroke: #A80036; stroke-width: 1.5;" width="93" x="1921.5" y="152"/>
        <ellipse cx="1936.5" cy="168" fill="#ADD1B2" rx="11" ry="11" style="stroke: #A80036; stroke-width: 1.0;"/>
        <path d="M1939.2656,163.875 Q1939.4219,163.6563 1939.6094,163.5469 Q1939.7969,163.4375 1940.0156,163.4375 Q1940.3906,163.4375 1940.625,163.6953 Q1940.8594,163.9531 1940.8594,164.5625 L1940.8594,166.0156 Q1940.8594,166.625 1940.625,166.8906 Q1940.3906,167.1563 1940.0156,167.1563 Q1939.6719,167.1563 1939.4688,166.9531 Q1939.2656,166.7656 1939.1563,166.25 Q1939.1094,165.8906 1938.9219,165.7031 Q1938.5938,165.3281 1937.9844,165.1094 Q1937.375,164.8906 1936.75,164.8906 Q1935.9844,164.8906 1935.3516,165.2188 Q1934.7188,165.5469 1934.2266,166.2969 Q1933.7344,167.0469 1933.7344,168.0781 L1933.7344,169.1719 Q1933.7344,170.4063 1934.625,171.2266 Q1935.5156,172.0469 1937.1094,172.0469 Q1938.0469,172.0469 1938.7031,171.7969 Q1939.0938,171.6406 1939.5156,171.2031 Q1939.7813,170.9375 1939.9297,170.8594 Q1940.0781,170.7813 1940.2813,170.7813 Q1940.6094,170.7813 1940.8672,171.0391 Q1941.125,171.2969 1941.125,171.6406 Q1941.125,171.9844 1940.7813,172.3906 Q1940.2813,172.9688 1939.4844,173.2969 Q1938.4063,173.75 1937.1094,173.75 Q1935.5938,173.75 1934.3906,173.125 Q1933.4063,172.625 1932.7188,171.5547 Q1932.0313,170.4844 1932.0313,169.2031 L1932.0313,168.0469 Q1932.0313,166.7188 1932.6484,165.5703 Q1933.2656,164.4219 1934.3594,163.8047 Q1935.4531,163.1875 1936.6875,163.1875 Q1937.4219,163.1875 1938.0703,163.3516 Q1938.7188,163.5156 1939.2656,163.875 Z "/>
        <text fill="#000000" font-family="sans-serif" font-size="12" lengthAdjust="spacingAndGlyphs" textLength="61" x="1950.5" y="172.9102">ChatServer</text>
        <line style="stroke: #A80036; stroke-width: 1.5;" x1="1922.5" x2="2013.5" y1="184" y2="184"/>
        <line style="stroke: #A80036; stroke-width: 1.5;" x1="1922.5" x2="2013.5" y1="192" y2="192"/>
        <rect fill="#FEFECE" filter="url(#f1)" height="48" style="stroke: #A80036; stroke-width: 1.5;" width="52" x="155" y="260"/>
        <ellipse cx="170" cy="276" fill="#ADD1B2" rx="11" ry="11" style="stroke: #A80036; stroke-width: 1.0;"/>
        <path d="M172.7656,271.875 Q172.9219,271.6563 173.1094,271.5469 Q173.2969,271.4375 173.5156,271.4375 Q173.8906,271.4375 174.125,271.6953 Q174.3594,271.9531 174.3594,272.5625 L174.3594,274.0156 Q174.3594,274.625 174.125,274.8906 Q173.8906,275.1563 173.5156,275.1563 Q173.1719,275.1563 172.9688,274.9531 Q172.7656,274.7656 172.6563,274.25 Q172.6094,273.8906 172.4219,273.7031 Q172.0938,273.3281 171.4844,273.1094 Q170.875,272.8906 170.25,272.8906 Q169.4844,272.8906 168.8516,273.2188 Q168.2188,273.5469 167.7266,274.2969 Q167.2344,275.0469 167.2344,276.0781 L167.2344,277.1719 Q167.2344,278.4063 168.125,279.2266 Q169.0156,280.0469 170.6094,280.0469 Q171.5469,280.0469 172.2031,279.7969 Q172.5938,279.6406 173.0156,279.2031 Q173.2813,278.9375 173.4297,278.8594 Q173.5781,278.7813 173.7813,278.7813 Q174.1094,278.7813 174.3672,279.0391 Q174.625,279.2969 174.625,279.6406 Q174.625,279.9844 174.2813,280.3906 Q173.7813,280.9688 172.9844,281.2969 Q171.9063,281.75 170.6094,281.75 Q169.0938,281.75 167.8906,281.125 Q166.9063,280.625 166.2188,279.5547 Q165.5313,278.4844 165.5313,277.2031 L165.5313,276.0469 Q165.5313,274.7188 166.1484,273.5703 Q166.7656,272.4219 167.8594,271.8047 Q168.9531,271.1875 170.1875,271.1875 Q170.9219,271.1875 171.5703,271.3516 Q172.2188,271.5156 172.7656,271.875 Z "/>
        <text fill="#000000" font-family="sans-serif" font-size="12" lengthAdjust="spacingAndGlyphs" textLength="20" x="184" y="280.9102">File</text>
        <line style="stroke: #A80036; stroke-width: 1.5;" x1="156" x2="206" y1="292" y2="292"/>
        <line style="stroke: #A80036; stroke-width: 1.5;" x1="156" x2="206" y1="300" y2="300"/>
        <rect fill="#FEFECE" filter="url(#f1)" height="48" style="stroke: #A80036; stroke-width: 1.5;" width="97" x="22.5" y="260"/>
        <ellipse cx="37.5" cy="276" fill="#ADD1B2" rx="11" ry="11" style="stroke: #A80036; stroke-width: 1.0;"/>
        <path d="M40.2656,271.875 Q40.4219,271.6563 40.6094,271.5469 Q40.7969,271.4375 41.0156,271.4375 Q41.3906,271.4375 41.625,271.6953 Q41.8594,271.9531 41.8594,272.5625 L41.8594,274.0156 Q41.8594,274.625 41.625,274.8906 Q41.3906,275.1563 41.0156,275.1563 Q40.6719,275.1563 40.4688,274.9531 Q40.2656,274.7656 40.1563,274.25 Q40.1094,273.8906 39.9219,273.7031 Q39.5938,273.3281 38.9844,273.1094 Q38.375,272.8906 37.75,272.8906 Q36.9844,272.8906 36.3516,273.2188 Q35.7188,273.5469 35.2266,274.2969 Q34.7344,275.0469 34.7344,276.0781 L34.7344,277.1719 Q34.7344,278.4063 35.625,279.2266 Q36.5156,280.0469 38.1094,280.0469 Q39.0469,280.0469 39.7031,279.7969 Q40.0938,279.6406 40.5156,279.2031 Q40.7813,278.9375 40.9297,278.8594 Q41.0781,278.7813 41.2813,278.7813 Q41.6094,278.7813 41.8672,279.0391 Q42.125,279.2969 42.125,279.6406 Q42.125,279.9844 41.7813,280.3906 Q41.2813,280.9688 40.4844,281.2969 Q39.4063,281.75 38.1094,281.75 Q36.5938,281.75 35.3906,281.125 Q34.4063,280.625 33.7188,279.5547 Q33.0313,278.4844 33.0313,277.2031 L33.0313,276.0469 Q33.0313,274.7188 33.6484,273.5703 Q34.2656,272.4219 35.3594,271.8047 Q36.4531,271.1875 37.6875,271.1875 Q38.4219,271.1875 39.0703,271.3516 Q39.7188,271.5156 40.2656,271.875 Z "/>
        <text fill="#000000" font-family="sans-serif" font-size="12" lengthAdjust="spacingAndGlyphs" textLength="65" x="51.5" y="280.9102">IOException</text>
        <line style="stroke: #A80036; stroke-width: 1.5;" x1="23.5" x2="118.5" y1="292" y2="292"/>
        <line style="stroke: #A80036; stroke-width: 1.5;" x1="23.5" x2="118.5" y1="300" y2="300"/>
        <rect fill="#FEFECE" filter="url(#f1)" height="48" style="stroke: #A80036; stroke-width: 1.5;" width="97" x="1600.5" y="152"/>
        <ellipse cx="1615.5" cy="168" fill="#ADD1B2" rx="11" ry="11" style="stroke: #A80036; stroke-width: 1.0;"/>
        <path d="M1618.2656,163.875 Q1618.4219,163.6563 1618.6094,163.5469 Q1618.7969,163.4375 1619.0156,163.4375 Q1619.3906,163.4375 1619.625,163.6953 Q1619.8594,163.9531 1619.8594,164.5625 L1619.8594,166.0156 Q1619.8594,166.625 1619.625,166.8906 Q1619.3906,167.1563 1619.0156,167.1563 Q1618.6719,167.1563 1618.4688,166.9531 Q1618.2656,166.7656 1618.1563,166.25 Q1618.1094,165.8906 1617.9219,165.7031 Q1617.5938,165.3281 1616.9844,165.1094 Q1616.375,164.8906 1615.75,164.8906 Q1614.9844,164.8906 1614.3516,165.2188 Q1613.7188,165.5469 1613.2266,166.2969 Q1612.7344,167.0469 1612.7344,168.0781 L1612.7344,169.1719 Q1612.7344,170.4063 1613.625,171.2266 Q1614.5156,172.0469 1616.1094,172.0469 Q1617.0469,172.0469 1617.7031,171.7969 Q1618.0938,171.6406 1618.5156,171.2031 Q1618.7813,170.9375 1618.9297,170.8594 Q1619.0781,170.7813 1619.2813,170.7813 Q1619.6094,170.7813 1619.8672,171.0391 Q1620.125,171.2969 1620.125,171.6406 Q1620.125,171.9844 1619.7813,172.3906 Q1619.2813,172.9688 1618.4844,173.2969 Q1617.4063,173.75 1616.1094,173.75 Q1614.5938,173.75 1613.3906,173.125 Q1612.4063,172.625 1611.7188,171.5547 Q1611.0313,170.4844 1611.0313,169.2031 L1611.0313,168.0469 Q1611.0313,166.7188 1611.6484,165.5703 Q1612.2656,164.4219 1613.3594,163.8047 Q1614.4531,163.1875 1615.6875,163.1875 Q1616.4219,163.1875 1617.0703,163.3516 Q1617.7188,163.5156 1618.2656,163.875 Z "/>
        <text fill="#000000" font-family="sans-serif" font-size="12" lengthAdjust="spacingAndGlyphs" textLength="65" x="1629.5" y="172.9102">DateFormat</text>
        <line style="stroke: #A80036; stroke-width: 1.5;" x1="1601.5" x2="1696.5" y1="184" y2="184"/>
        <line style="stroke: #A80036; stroke-width: 1.5;" x1="1601.5" x2="1696.5" y1="192" y2="192"/>
        <rect fill="#FEFECE" filter="url(#f1)" height="48" style="stroke: #A80036; stroke-width: 1.5;" width="136" x="1429" y="152"/>
        <ellipse cx="1444" cy="168" fill="#ADD1B2" rx="11" ry="11" style="stroke: #A80036; stroke-width: 1.0;"/>
        <path d="M1446.7656,163.875 Q1446.9219,163.6563 1447.1094,163.5469 Q1447.2969,163.4375 1447.5156,163.4375 Q1447.8906,163.4375 1448.125,163.6953 Q1448.3594,163.9531 1448.3594,164.5625 L1448.3594,166.0156 Q1448.3594,166.625 1448.125,166.8906 Q1447.8906,167.1563 1447.5156,167.1563 Q1447.1719,167.1563 1446.9688,166.9531 Q1446.7656,166.7656 1446.6563,166.25 Q1446.6094,165.8906 1446.4219,165.7031 Q1446.0938,165.3281 1445.4844,165.1094 Q1444.875,164.8906 1444.25,164.8906 Q1443.4844,164.8906 1442.8516,165.2188 Q1442.2188,165.5469 1441.7266,166.2969 Q1441.2344,167.0469 1441.2344,168.0781 L1441.2344,169.1719 Q1441.2344,170.4063 1442.125,171.2266 Q1443.0156,172.0469 1444.6094,172.0469 Q1445.5469,172.0469 1446.2031,171.7969 Q1446.5938,171.6406 1447.0156,171.2031 Q1447.2813,170.9375 1447.4297,170.8594 Q1447.5781,170.7813 1447.7813,170.7813 Q1448.1094,170.7813 1448.3672,171.0391 Q1448.625,171.2969 1448.625,171.6406 Q1448.625,171.9844 1448.2813,172.3906 Q1447.7813,172.9688 1446.9844,173.2969 Q1445.9063,173.75 1444.6094,173.75 Q1443.0938,173.75 1441.8906,173.125 Q1440.9063,172.625 1440.2188,171.5547 Q1439.5313,170.4844 1439.5313,169.2031 L1439.5313,168.0469 Q1439.5313,166.7188 1440.1484,165.5703 Q1440.7656,164.4219 1441.8594,163.8047 Q1442.9531,163.1875 1444.1875,163.1875 Q1444.9219,163.1875 1445.5703,163.3516 Q1446.2188,163.5156 1446.7656,163.875 Z "/>
        <text fill="#000000" font-family="sans-serif" font-size="12" lengthAdjust="spacingAndGlyphs" textLength="104" x="1458" y="172.9102">SimpleDateFormat</text>
        <line style="stroke: #A80036; stroke-width: 1.5;" x1="1430" x2="1564" y1="184" y2="184"/>
        <line style="stroke: #A80036; stroke-width: 1.5;" x1="1430" x2="1564" y1="192" y2="192"/>
        <rect fill="#FEFECE" filter="url(#f1)" height="48" style="stroke: #A80036; stroke-width: 1.5;" width="79" x="627.5" y="260"/>
        <ellipse cx="642.5" cy="276" fill="#ADD1B2" rx="11" ry="11" style="stroke: #A80036; stroke-width: 1.0;"/>
        <path d="M645.2656,271.875 Q645.4219,271.6563 645.6094,271.5469 Q645.7969,271.4375 646.0156,271.4375 Q646.3906,271.4375 646.625,271.6953 Q646.8594,271.9531 646.8594,272.5625 L646.8594,274.0156 Q646.8594,274.625 646.625,274.8906 Q646.3906,275.1563 646.0156,275.1563 Q645.6719,275.1563 645.4688,274.9531 Q645.2656,274.7656 645.1563,274.25 Q645.1094,273.8906 644.9219,273.7031 Q644.5938,273.3281 643.9844,273.1094 Q643.375,272.8906 642.75,272.8906 Q641.9844,272.8906 641.3516,273.2188 Q640.7188,273.5469 640.2266,274.2969 Q639.7344,275.0469 639.7344,276.0781 L639.7344,277.1719 Q639.7344,278.4063 640.625,279.2266 Q641.5156,280.0469 643.1094,280.0469 Q644.0469,280.0469 644.7031,279.7969 Q645.0938,279.6406 645.5156,279.2031 Q645.7813,278.9375 645.9297,278.8594 Q646.0781,278.7813 646.2813,278.7813 Q646.6094,278.7813 646.8672,279.0391 Q647.125,279.2969 647.125,279.6406 Q647.125,279.9844 646.7813,280.3906 Q646.2813,280.9688 645.4844,281.2969 Q644.4063,281.75 643.1094,281.75 Q641.5938,281.75 640.3906,281.125 Q639.4063,280.625 638.7188,279.5547 Q638.0313,278.4844 638.0313,277.2031 L638.0313,276.0469 Q638.0313,274.7188 638.6484,273.5703 Q639.2656,272.4219 640.3594,271.8047 Q641.4531,271.1875 642.6875,271.1875 Q643.4219,271.1875 644.0703,271.3516 Q644.7188,271.5156 645.2656,271.875 Z "/>
        <text fill="#000000" font-family="sans-serif" font-size="12" lengthAdjust="spacingAndGlyphs" textLength="47" x="656.5" y="280.9102">ArrayList</text>
        <line style="stroke: #A80036; stroke-width: 1.5;" x1="628.5" x2="705.5" y1="292" y2="292"/>
        <line style="stroke: #A80036; stroke-width: 1.5;" x1="628.5" x2="705.5" y1="300" y2="300"/>
        <rect fill="#FEFECE" filter="url(#f1)" height="48" style="stroke: #A80036; stroke-width: 1.5;" width="83" x="242.5" y="260"/>
        <ellipse cx="257.5" cy="276" fill="#ADD1B2" rx="11" ry="11" style="stroke: #A80036; stroke-width: 1.0;"/>
        <path d="M260.2656,271.875 Q260.4219,271.6563 260.6094,271.5469 Q260.7969,271.4375 261.0156,271.4375 Q261.3906,271.4375 261.625,271.6953 Q261.8594,271.9531 261.8594,272.5625 L261.8594,274.0156 Q261.8594,274.625 261.625,274.8906 Q261.3906,275.1563 261.0156,275.1563 Q260.6719,275.1563 260.4688,274.9531 Q260.2656,274.7656 260.1563,274.25 Q260.1094,273.8906 259.9219,273.7031 Q259.5938,273.3281 258.9844,273.1094 Q258.375,272.8906 257.75,272.8906 Q256.9844,272.8906 256.3516,273.2188 Q255.7188,273.5469 255.2266,274.2969 Q254.7344,275.0469 254.7344,276.0781 L254.7344,277.1719 Q254.7344,278.4063 255.625,279.2266 Q256.5156,280.0469 258.1094,280.0469 Q259.0469,280.0469 259.7031,279.7969 Q260.0938,279.6406 260.5156,279.2031 Q260.7813,278.9375 260.9297,278.8594 Q261.0781,278.7813 261.2813,278.7813 Q261.6094,278.7813 261.8672,279.0391 Q262.125,279.2969 262.125,279.6406 Q262.125,279.9844 261.7813,280.3906 Q261.2813,280.9688 260.4844,281.2969 Q259.4063,281.75 258.1094,281.75 Q256.5938,281.75 255.3906,281.125 Q254.4063,280.625 253.7188,279.5547 Q253.0313,278.4844 253.0313,277.2031 L253.0313,276.0469 Q253.0313,274.7188 253.6484,273.5703 Q254.2656,272.4219 255.3594,271.8047 Q256.4531,271.1875 257.6875,271.1875 Q258.4219,271.1875 259.0703,271.3516 Q259.7188,271.5156 260.2656,271.875 Z "/>
        <text fill="#000000" font-family="sans-serif" font-size="12" lengthAdjust="spacingAndGlyphs" textLength="51" x="271.5" y="280.9102">Calendar</text>
        <line style="stroke: #A80036; stroke-width: 1.5;" x1="243.5" x2="324.5" y1="292" y2="292"/>
        <line style="stroke: #A80036; stroke-width: 1.5;" x1="243.5" x2="324.5" y1="300" y2="300"/>
        <rect fill="#FEFECE" filter="url(#f1)" height="48" style="stroke: #A80036; stroke-width: 1.5;" width="58" x="361" y="260"/>
        <ellipse cx="376" cy="276" fill="#ADD1B2" rx="11" ry="11" style="stroke: #A80036; stroke-width: 1.0;"/>
        <path d="M378.7656,271.875 Q378.9219,271.6563 379.1094,271.5469 Q379.2969,271.4375 379.5156,271.4375 Q379.8906,271.4375 380.125,271.6953 Q380.3594,271.9531 380.3594,272.5625 L380.3594,274.0156 Q380.3594,274.625 380.125,274.8906 Q379.8906,275.1563 379.5156,275.1563 Q379.1719,275.1563 378.9688,274.9531 Q378.7656,274.7656 378.6563,274.25 Q378.6094,273.8906 378.4219,273.7031 Q378.0938,273.3281 377.4844,273.1094 Q376.875,272.8906 376.25,272.8906 Q375.4844,272.8906 374.8516,273.2188 Q374.2188,273.5469 373.7266,274.2969 Q373.2344,275.0469 373.2344,276.0781 L373.2344,277.1719 Q373.2344,278.4063 374.125,279.2266 Q375.0156,280.0469 376.6094,280.0469 Q377.5469,280.0469 378.2031,279.7969 Q378.5938,279.6406 379.0156,279.2031 Q379.2813,278.9375 379.4297,278.8594 Q379.5781,278.7813 379.7813,278.7813 Q380.1094,278.7813 380.3672,279.0391 Q380.625,279.2969 380.625,279.6406 Q380.625,279.9844 380.2813,280.3906 Q379.7813,280.9688 378.9844,281.2969 Q377.9063,281.75 376.6094,281.75 Q375.0938,281.75 373.8906,281.125 Q372.9063,280.625 372.2188,279.5547 Q371.5313,278.4844 371.5313,277.2031 L371.5313,276.0469 Q371.5313,274.7188 372.1484,273.5703 Q372.7656,272.4219 373.8594,271.8047 Q374.9531,271.1875 376.1875,271.1875 Q376.9219,271.1875 377.5703,271.3516 Q378.2188,271.5156 378.7656,271.875 Z "/>
        <text fill="#000000" font-family="sans-serif" font-size="12" lengthAdjust="spacingAndGlyphs" textLength="26" x="390" y="280.9102">Date</text>
        <line style="stroke: #A80036; stroke-width: 1.5;" x1="362" x2="418" y1="292" y2="292"/>
        <line style="stroke: #A80036; stroke-width: 1.5;" x1="362" x2="418" y1="300" y2="300"/>
        <rect fill="#FEFECE" filter="url(#f1)" height="48" style="stroke: #A80036; stroke-width: 1.5;" width="138" x="454" y="260"/>
        <ellipse cx="469" cy="276" fill="#ADD1B2" rx="11" ry="11" style="stroke: #A80036; stroke-width: 1.0;"/>
        <path d="M471.7656,271.875 Q471.9219,271.6563 472.1094,271.5469 Q472.2969,271.4375 472.5156,271.4375 Q472.8906,271.4375 473.125,271.6953 Q473.3594,271.9531 473.3594,272.5625 L473.3594,274.0156 Q473.3594,274.625 473.125,274.8906 Q472.8906,275.1563 472.5156,275.1563 Q472.1719,275.1563 471.9688,274.9531 Q471.7656,274.7656 471.6563,274.25 Q471.6094,273.8906 471.4219,273.7031 Q471.0938,273.3281 470.4844,273.1094 Q469.875,272.8906 469.25,272.8906 Q468.4844,272.8906 467.8516,273.2188 Q467.2188,273.5469 466.7266,274.2969 Q466.2344,275.0469 466.2344,276.0781 L466.2344,277.1719 Q466.2344,278.4063 467.125,279.2266 Q468.0156,280.0469 469.6094,280.0469 Q470.5469,280.0469 471.2031,279.7969 Q471.5938,279.6406 472.0156,279.2031 Q472.2813,278.9375 472.4297,278.8594 Q472.5781,278.7813 472.7813,278.7813 Q473.1094,278.7813 473.3672,279.0391 Q473.625,279.2969 473.625,279.6406 Q473.625,279.9844 473.2813,280.3906 Q472.7813,280.9688 471.9844,281.2969 Q470.9063,281.75 469.6094,281.75 Q468.0938,281.75 466.8906,281.125 Q465.9063,280.625 465.2188,279.5547 Q464.5313,278.4844 464.5313,277.2031 L464.5313,276.0469 Q464.5313,274.7188 465.1484,273.5703 Q465.7656,272.4219 466.8594,271.8047 Q467.9531,271.1875 469.1875,271.1875 Q469.9219,271.1875 470.5703,271.3516 Q471.2188,271.5156 471.7656,271.875 Z "/>
        <text fill="#000000" font-family="sans-serif" font-size="12" lengthAdjust="spacingAndGlyphs" textLength="106" x="483" y="280.9102">GregorianCalendar</text>
        <line style="stroke: #A80036; stroke-width: 1.5;" x1="455" x2="591" y1="292" y2="292"/>
        <line style="stroke: #A80036; stroke-width: 1.5;" x1="455" x2="591" y1="300" y2="300"/>
        <rect fill="#FEFECE" filter="url(#f1)" height="48" style="stroke: #A80036; stroke-width: 1.5;" width="52" x="742" y="260"/>
        <ellipse cx="757" cy="276" fill="#ADD1B2" rx="11" ry="11" style="stroke: #A80036; stroke-width: 1.0;"/>
        <path d="M759.7656,271.875 Q759.9219,271.6563 760.1094,271.5469 Q760.2969,271.4375 760.5156,271.4375 Q760.8906,271.4375 761.125,271.6953 Q761.3594,271.9531 761.3594,272.5625 L761.3594,274.0156 Q761.3594,274.625 761.125,274.8906 Q760.8906,275.1563 760.5156,275.1563 Q760.1719,275.1563 759.9688,274.9531 Q759.7656,274.7656 759.6563,274.25 Q759.6094,273.8906 759.4219,273.7031 Q759.0938,273.3281 758.4844,273.1094 Q757.875,272.8906 757.25,272.8906 Q756.4844,272.8906 755.8516,273.2188 Q755.2188,273.5469 754.7266,274.2969 Q754.2344,275.0469 754.2344,276.0781 L754.2344,277.1719 Q754.2344,278.4063 755.125,279.2266 Q756.0156,280.0469 757.6094,280.0469 Q758.5469,280.0469 759.2031,279.7969 Q759.5938,279.6406 760.0156,279.2031 Q760.2813,278.9375 760.4297,278.8594 Q760.5781,278.7813 760.7813,278.7813 Q761.1094,278.7813 761.3672,279.0391 Q761.625,279.2969 761.625,279.6406 Q761.625,279.9844 761.2813,280.3906 Q760.7813,280.9688 759.9844,281.2969 Q758.9063,281.75 757.6094,281.75 Q756.0938,281.75 754.8906,281.125 Q753.9063,280.625 753.2188,279.5547 Q752.5313,278.4844 752.5313,277.2031 L752.5313,276.0469 Q752.5313,274.7188 753.1484,273.5703 Q753.7656,272.4219 754.8594,271.8047 Q755.9531,271.1875 757.1875,271.1875 Q757.9219,271.1875 758.5703,271.3516 Q759.2188,271.5156 759.7656,271.875 Z "/>
        <text fill="#000000" font-family="sans-serif" font-size="12" lengthAdjust="spacingAndGlyphs" textLength="20" x="771" y="280.9102">List</text>
        <line style="stroke: #A80036; stroke-width: 1.5;" x1="743" x2="793" y1="292" y2="292"/>
        <line style="stroke: #A80036; stroke-width: 1.5;" x1="743" x2="793" y1="300" y2="300"/>
        <rect fill="#FEFECE" filter="url(#f1)" height="48" style="stroke: #A80036; stroke-width: 1.5;" width="96" x="1272" y="260"/>
        <ellipse cx="1287" cy="276" fill="#ADD1B2" rx="11" ry="11" style="stroke: #A80036; stroke-width: 1.0;"/>
        <path d="M1289.7656,271.875 Q1289.9219,271.6563 1290.1094,271.5469 Q1290.2969,271.4375 1290.5156,271.4375 Q1290.8906,271.4375 1291.125,271.6953 Q1291.3594,271.9531 1291.3594,272.5625 L1291.3594,274.0156 Q1291.3594,274.625 1291.125,274.8906 Q1290.8906,275.1563 1290.5156,275.1563 Q1290.1719,275.1563 1289.9688,274.9531 Q1289.7656,274.7656 1289.6563,274.25 Q1289.6094,273.8906 1289.4219,273.7031 Q1289.0938,273.3281 1288.4844,273.1094 Q1287.875,272.8906 1287.25,272.8906 Q1286.4844,272.8906 1285.8516,273.2188 Q1285.2188,273.5469 1284.7266,274.2969 Q1284.2344,275.0469 1284.2344,276.0781 L1284.2344,277.1719 Q1284.2344,278.4063 1285.125,279.2266 Q1286.0156,280.0469 1287.6094,280.0469 Q1288.5469,280.0469 1289.2031,279.7969 Q1289.5938,279.6406 1290.0156,279.2031 Q1290.2813,278.9375 1290.4297,278.8594 Q1290.5781,278.7813 1290.7813,278.7813 Q1291.1094,278.7813 1291.3672,279.0391 Q1291.625,279.2969 1291.625,279.6406 Q1291.625,279.9844 1291.2813,280.3906 Q1290.7813,280.9688 1289.9844,281.2969 Q1288.9063,281.75 1287.6094,281.75 Q1286.0938,281.75 1284.8906,281.125 Q1283.9063,280.625 1283.2188,279.5547 Q1282.5313,278.4844 1282.5313,277.2031 L1282.5313,276.0469 Q1282.5313,274.7188 1283.1484,273.5703 Q1283.7656,272.4219 1284.8594,271.8047 Q1285.9531,271.1875 1287.1875,271.1875 Q1287.9219,271.1875 1288.5703,271.3516 Q1289.2188,271.5156 1289.7656,271.875 Z "/>
        <text fill="#000000" font-family="sans-serif" font-size="12" lengthAdjust="spacingAndGlyphs" textLength="64" x="1301" y="280.9102">FileHandler</text>
        <line style="stroke: #A80036; stroke-width: 1.5;" x1="1273" x2="1367" y1="292" y2="292"/>
        <line style="stroke: #A80036; stroke-width: 1.5;" x1="1273" x2="1367" y1="300" y2="300"/>
        <rect fill="#FEFECE" filter="url(#f1)" height="48" style="stroke: #A80036; stroke-width: 1.5;" width="85" x="1403.5" y="260"/>
        <ellipse cx="1418.5" cy="276" fill="#ADD1B2" rx="11" ry="11" style="stroke: #A80036; stroke-width: 1.0;"/>
        <path d="M1421.2656,271.875 Q1421.4219,271.6563 1421.6094,271.5469 Q1421.7969,271.4375 1422.0156,271.4375 Q1422.3906,271.4375 1422.625,271.6953 Q1422.8594,271.9531 1422.8594,272.5625 L1422.8594,274.0156 Q1422.8594,274.625 1422.625,274.8906 Q1422.3906,275.1563 1422.0156,275.1563 Q1421.6719,275.1563 1421.4688,274.9531 Q1421.2656,274.7656 1421.1563,274.25 Q1421.1094,273.8906 1420.9219,273.7031 Q1420.5938,273.3281 1419.9844,273.1094 Q1419.375,272.8906 1418.75,272.8906 Q1417.9844,272.8906 1417.3516,273.2188 Q1416.7188,273.5469 1416.2266,274.2969 Q1415.7344,275.0469 1415.7344,276.0781 L1415.7344,277.1719 Q1415.7344,278.4063 1416.625,279.2266 Q1417.5156,280.0469 1419.1094,280.0469 Q1420.0469,280.0469 1420.7031,279.7969 Q1421.0938,279.6406 1421.5156,279.2031 Q1421.7813,278.9375 1421.9297,278.8594 Q1422.0781,278.7813 1422.2813,278.7813 Q1422.6094,278.7813 1422.8672,279.0391 Q1423.125,279.2969 1423.125,279.6406 Q1423.125,279.9844 1422.7813,280.3906 Q1422.2813,280.9688 1421.4844,281.2969 Q1420.4063,281.75 1419.1094,281.75 Q1417.5938,281.75 1416.3906,281.125 Q1415.4063,280.625 1414.7188,279.5547 Q1414.0313,278.4844 1414.0313,277.2031 L1414.0313,276.0469 Q1414.0313,274.7188 1414.6484,273.5703 Q1415.2656,272.4219 1416.3594,271.8047 Q1417.4531,271.1875 1418.6875,271.1875 Q1419.4219,271.1875 1420.0703,271.3516 Q1420.7188,271.5156 1421.2656,271.875 Z "/>
        <text fill="#000000" font-family="sans-serif" font-size="12" lengthAdjust="spacingAndGlyphs" textLength="53" x="1432.5" y="280.9102">Formatter</text>
        <line style="stroke: #A80036; stroke-width: 1.5;" x1="1404.5" x2="1487.5" y1="292" y2="292"/>
        <line style="stroke: #A80036; stroke-width: 1.5;" x1="1404.5" x2="1487.5" y1="300" y2="300"/>
        <rect fill="#FEFECE" filter="url(#f1)" height="48" style="stroke: #A80036; stroke-width: 1.5;" width="76" x="926" y="260"/>
        <ellipse cx="941" cy="276" fill="#ADD1B2" rx="11" ry="11" style="stroke: #A80036; stroke-width: 1.0;"/>
        <path d="M943.7656,271.875 Q943.9219,271.6563 944.1094,271.5469 Q944.2969,271.4375 944.5156,271.4375 Q944.8906,271.4375 945.125,271.6953 Q945.3594,271.9531 945.3594,272.5625 L945.3594,274.0156 Q945.3594,274.625 945.125,274.8906 Q944.8906,275.1563 944.5156,275.1563 Q944.1719,275.1563 943.9688,274.9531 Q943.7656,274.7656 943.6563,274.25 Q943.6094,273.8906 943.4219,273.7031 Q943.0938,273.3281 942.4844,273.1094 Q941.875,272.8906 941.25,272.8906 Q940.4844,272.8906 939.8516,273.2188 Q939.2188,273.5469 938.7266,274.2969 Q938.2344,275.0469 938.2344,276.0781 L938.2344,277.1719 Q938.2344,278.4063 939.125,279.2266 Q940.0156,280.0469 941.6094,280.0469 Q942.5469,280.0469 943.2031,279.7969 Q943.5938,279.6406 944.0156,279.2031 Q944.2813,278.9375 944.4297,278.8594 Q944.5781,278.7813 944.7813,278.7813 Q945.1094,278.7813 945.3672,279.0391 Q945.625,279.2969 945.625,279.6406 Q945.625,279.9844 945.2813,280.3906 Q944.7813,280.9688 943.9844,281.2969 Q942.9063,281.75 941.6094,281.75 Q940.0938,281.75 938.8906,281.125 Q937.9063,280.625 937.2188,279.5547 Q936.5313,278.4844 936.5313,277.2031 L936.5313,276.0469 Q936.5313,274.7188 937.1484,273.5703 Q937.7656,272.4219 938.8594,271.8047 Q939.9531,271.1875 941.1875,271.1875 Q941.9219,271.1875 942.5703,271.3516 Q943.2188,271.5156 943.7656,271.875 Z "/>
        <text fill="#000000" font-family="sans-serif" font-size="12" lengthAdjust="spacingAndGlyphs" textLength="44" x="955" y="280.9102">Handler</text>
        <line style="stroke: #A80036; stroke-width: 1.5;" x1="927" x2="1001" y1="292" y2="292"/>
        <line style="stroke: #A80036; stroke-width: 1.5;" x1="927" x2="1001" y1="300" y2="300"/>
        <rect fill="#FEFECE" filter="url(#f1)" height="48" style="stroke: #A80036; stroke-width: 1.5;" width="61" x="829.5" y="260"/>
        <ellipse cx="844.5" cy="276" fill="#ADD1B2" rx="11" ry="11" style="stroke: #A80036; stroke-width: 1.0;"/>
        <path d="M847.2656,271.875 Q847.4219,271.6563 847.6094,271.5469 Q847.7969,271.4375 848.0156,271.4375 Q848.3906,271.4375 848.625,271.6953 Q848.8594,271.9531 848.8594,272.5625 L848.8594,274.0156 Q848.8594,274.625 848.625,274.8906 Q848.3906,275.1563 848.0156,275.1563 Q847.6719,275.1563 847.4688,274.9531 Q847.2656,274.7656 847.1563,274.25 Q847.1094,273.8906 846.9219,273.7031 Q846.5938,273.3281 845.9844,273.1094 Q845.375,272.8906 844.75,272.8906 Q843.9844,272.8906 843.3516,273.2188 Q842.7188,273.5469 842.2266,274.2969 Q841.7344,275.0469 841.7344,276.0781 L841.7344,277.1719 Q841.7344,278.4063 842.625,279.2266 Q843.5156,280.0469 845.1094,280.0469 Q846.0469,280.0469 846.7031,279.7969 Q847.0938,279.6406 847.5156,279.2031 Q847.7813,278.9375 847.9297,278.8594 Q848.0781,278.7813 848.2813,278.7813 Q848.6094,278.7813 848.8672,279.0391 Q849.125,279.2969 849.125,279.6406 Q849.125,279.9844 848.7813,280.3906 Q848.2813,280.9688 847.4844,281.2969 Q846.4063,281.75 845.1094,281.75 Q843.5938,281.75 842.3906,281.125 Q841.4063,280.625 840.7188,279.5547 Q840.0313,278.4844 840.0313,277.2031 L840.0313,276.0469 Q840.0313,274.7188 840.6484,273.5703 Q841.2656,272.4219 842.3594,271.8047 Q843.4531,271.1875 844.6875,271.1875 Q845.4219,271.1875 846.0703,271.3516 Q846.7188,271.5156 847.2656,271.875 Z "/>
        <text fill="#000000" font-family="sans-serif" font-size="12" lengthAdjust="spacingAndGlyphs" textLength="29" x="858.5" y="280.9102">Level</text>
        <line style="stroke: #A80036; stroke-width: 1.5;" x1="830.5" x2="889.5" y1="292" y2="292"/>
        <line style="stroke: #A80036; stroke-width: 1.5;" x1="830.5" x2="889.5" y1="300" y2="300"/>
        <rect fill="#FEFECE" filter="url(#f1)" height="48" style="stroke: #A80036; stroke-width: 1.5;" width="101" x="1523.5" y="260"/>
        <ellipse cx="1538.5" cy="276" fill="#ADD1B2" rx="11" ry="11" style="stroke: #A80036; stroke-width: 1.0;"/>
        <path d="M1541.2656,271.875 Q1541.4219,271.6563 1541.6094,271.5469 Q1541.7969,271.4375 1542.0156,271.4375 Q1542.3906,271.4375 1542.625,271.6953 Q1542.8594,271.9531 1542.8594,272.5625 L1542.8594,274.0156 Q1542.8594,274.625 1542.625,274.8906 Q1542.3906,275.1563 1542.0156,275.1563 Q1541.6719,275.1563 1541.4688,274.9531 Q1541.2656,274.7656 1541.1563,274.25 Q1541.1094,273.8906 1540.9219,273.7031 Q1540.5938,273.3281 1539.9844,273.1094 Q1539.375,272.8906 1538.75,272.8906 Q1537.9844,272.8906 1537.3516,273.2188 Q1536.7188,273.5469 1536.2266,274.2969 Q1535.7344,275.0469 1535.7344,276.0781 L1535.7344,277.1719 Q1535.7344,278.4063 1536.625,279.2266 Q1537.5156,280.0469 1539.1094,280.0469 Q1540.0469,280.0469 1540.7031,279.7969 Q1541.0938,279.6406 1541.5156,279.2031 Q1541.7813,278.9375 1541.9297,278.8594 Q1542.0781,278.7813 1542.2813,278.7813 Q1542.6094,278.7813 1542.8672,279.0391 Q1543.125,279.2969 1543.125,279.6406 Q1543.125,279.9844 1542.7813,280.3906 Q1542.2813,280.9688 1541.4844,281.2969 Q1540.4063,281.75 1539.1094,281.75 Q1537.5938,281.75 1536.3906,281.125 Q1535.4063,280.625 1534.7188,279.5547 Q1534.0313,278.4844 1534.0313,277.2031 L1534.0313,276.0469 Q1534.0313,274.7188 1534.6484,273.5703 Q1535.2656,272.4219 1536.3594,271.8047 Q1537.4531,271.1875 1538.6875,271.1875 Q1539.4219,271.1875 1540.0703,271.3516 Q1540.7188,271.5156 1541.2656,271.875 Z "/>
        <text fill="#000000" font-family="sans-serif" font-size="12" lengthAdjust="spacingAndGlyphs" textLength="69" x="1552.5" y="280.9102">LogManager</text>
        <line style="stroke: #A80036; stroke-width: 1.5;" x1="1524.5" x2="1623.5" y1="292" y2="292"/>
        <line style="stroke: #A80036; stroke-width: 1.5;" x1="1524.5" x2="1623.5" y1="300" y2="300"/>
        <rect fill="#FEFECE" filter="url(#f1)" height="48" style="stroke: #A80036; stroke-width: 1.5;" width="93" x="1143.5" y="260"/>
        <ellipse cx="1158.5" cy="276" fill="#ADD1B2" rx="11" ry="11" style="stroke: #A80036; stroke-width: 1.0;"/>
        <path d="M1161.2656,271.875 Q1161.4219,271.6563 1161.6094,271.5469 Q1161.7969,271.4375 1162.0156,271.4375 Q1162.3906,271.4375 1162.625,271.6953 Q1162.8594,271.9531 1162.8594,272.5625 L1162.8594,274.0156 Q1162.8594,274.625 1162.625,274.8906 Q1162.3906,275.1563 1162.0156,275.1563 Q1161.6719,275.1563 1161.4688,274.9531 Q1161.2656,274.7656 1161.1563,274.25 Q1161.1094,273.8906 1160.9219,273.7031 Q1160.5938,273.3281 1159.9844,273.1094 Q1159.375,272.8906 1158.75,272.8906 Q1157.9844,272.8906 1157.3516,273.2188 Q1156.7188,273.5469 1156.2266,274.2969 Q1155.7344,275.0469 1155.7344,276.0781 L1155.7344,277.1719 Q1155.7344,278.4063 1156.625,279.2266 Q1157.5156,280.0469 1159.1094,280.0469 Q1160.0469,280.0469 1160.7031,279.7969 Q1161.0938,279.6406 1161.5156,279.2031 Q1161.7813,278.9375 1161.9297,278.8594 Q1162.0781,278.7813 1162.2813,278.7813 Q1162.6094,278.7813 1162.8672,279.0391 Q1163.125,279.2969 1163.125,279.6406 Q1163.125,279.9844 1162.7813,280.3906 Q1162.2813,280.9688 1161.4844,281.2969 Q1160.4063,281.75 1159.1094,281.75 Q1157.5938,281.75 1156.3906,281.125 Q1155.4063,280.625 1154.7188,279.5547 Q1154.0313,278.4844 1154.0313,277.2031 L1154.0313,276.0469 Q1154.0313,274.7188 1154.6484,273.5703 Q1155.2656,272.4219 1156.3594,271.8047 Q1157.4531,271.1875 1158.6875,271.1875 Q1159.4219,271.1875 1160.0703,271.3516 Q1160.7188,271.5156 1161.2656,271.875 Z "/>
        <text fill="#000000" font-family="sans-serif" font-size="12" lengthAdjust="spacingAndGlyphs" textLength="61" x="1172.5" y="280.9102">LogRecord</text>
        <line style="stroke: #A80036; stroke-width: 1.5;" x1="1144.5" x2="1235.5" y1="292" y2="292"/>
        <line style="stroke: #A80036; stroke-width: 1.5;" x1="1144.5" x2="1235.5" y1="300" y2="300"/>
        <rect fill="#FEFECE" filter="url(#f1)" height="48" style="stroke: #A80036; stroke-width: 1.5;" width="71" x="1037.5" y="260"/>
        <ellipse cx="1052.5" cy="276" fill="#ADD1B2" rx="11" ry="11" style="stroke: #A80036; stroke-width: 1.0;"/>
        <path d="M1055.2656,271.875 Q1055.4219,271.6563 1055.6094,271.5469 Q1055.7969,271.4375 1056.0156,271.4375 Q1056.3906,271.4375 1056.625,271.6953 Q1056.8594,271.9531 1056.8594,272.5625 L1056.8594,274.0156 Q1056.8594,274.625 1056.625,274.8906 Q1056.3906,275.1563 1056.0156,275.1563 Q1055.6719,275.1563 1055.4688,274.9531 Q1055.2656,274.7656 1055.1563,274.25 Q1055.1094,273.8906 1054.9219,273.7031 Q1054.5938,273.3281 1053.9844,273.1094 Q1053.375,272.8906 1052.75,272.8906 Q1051.9844,272.8906 1051.3516,273.2188 Q1050.7188,273.5469 1050.2266,274.2969 Q1049.7344,275.0469 1049.7344,276.0781 L1049.7344,277.1719 Q1049.7344,278.4063 1050.625,279.2266 Q1051.5156,280.0469 1053.1094,280.0469 Q1054.0469,280.0469 1054.7031,279.7969 Q1055.0938,279.6406 1055.5156,279.2031 Q1055.7813,278.9375 1055.9297,278.8594 Q1056.0781,278.7813 1056.2813,278.7813 Q1056.6094,278.7813 1056.8672,279.0391 Q1057.125,279.2969 1057.125,279.6406 Q1057.125,279.9844 1056.7813,280.3906 Q1056.2813,280.9688 1055.4844,281.2969 Q1054.4063,281.75 1053.1094,281.75 Q1051.5938,281.75 1050.3906,281.125 Q1049.4063,280.625 1048.7188,279.5547 Q1048.0313,278.4844 1048.0313,277.2031 L1048.0313,276.0469 Q1048.0313,274.7188 1048.6484,273.5703 Q1049.2656,272.4219 1050.3594,271.8047 Q1051.4531,271.1875 1052.6875,271.1875 Q1053.4219,271.1875 1054.0703,271.3516 Q1054.7188,271.5156 1055.2656,271.875 Z "/>
        <text fill="#000000" font-family="sans-serif" font-size="12" lengthAdjust="spacingAndGlyphs" textLength="39" x="1066.5" y="280.9102">Logger</text>
        <line style="stroke: #A80036; stroke-width: 1.5;" x1="1038.5" x2="1107.5" y1="292" y2="292"/>
        <line style="stroke: #A80036; stroke-width: 1.5;" x1="1038.5" x2="1107.5" y1="300" y2="300"/>
        <path d="M1018.88,87.826 C1024.63,89.372 1030.41,90.798 1036,92 C1146.81,115.814 1184.25,80.715 1289,124 C1302.95,129.763 1316.47,139.284 1327.61,148.549 " fill="none" style="stroke: #A80036; stroke-width: 1.0; stroke-dasharray: 7.0,7.0;"/>
        <polygon fill="#A80036" points="1331.61,151.944,1327.3507,143.0638,1327.8031,148.7025,1322.1643,149.1549,1331.61,151.944" style="stroke: #A80036; stroke-width: 1.0;"/>
        <path d="M939.085,92 C923.442,108.417 902.345,130.559 885.875,147.844 " fill="none" style="stroke: #A80036; stroke-width: 1.0; stroke-dasharray: 7.0,7.0;"/>
        <polygon fill="#A80036" points="882.222,151.678,891.3267,147.9225,885.6715,148.0585,885.5355,142.4033,882.222,151.678" style="stroke: #A80036; stroke-width: 1.0;"/>
        <path d="M903.196,88.226 C897.431,89.69 891.63,90.989 886,92 C644.126,135.448 570.196,56.16 334,124 C241.41,150.594 148.603,218.765 101.9407,256.6377 " fill="none" style="stroke: #A80036; stroke-width: 1.0; stroke-dasharray: 7.0,7.0;"/>
        <polygon fill="#A80036" points="97.8431,259.9821,107.3448,257.3903,101.7167,256.8206,102.2864,251.1925,97.8431,259.9821" style="stroke: #A80036; stroke-width: 1.0;"/>
        <path d="M1018.8,88.223 C1024.57,89.688 1030.37,90.987 1036,92 C1155.84,113.559 1468.96,81.315 1583,124 C1597.25,129.335 1610.93,138.884 1622.09,148.289 " fill="none" style="stroke: #A80036; stroke-width: 1.0; stroke-dasharray: 7.0,7.0;"/>
        <polygon fill="#A80036" points="1626.09,151.74,1621.8974,142.8281,1622.3075,148.4701,1616.6655,148.8802,1626.09,151.74" style="stroke: #A80036; stroke-width: 1.0;"/>
        <path d="M1018.83,88.064 C1024.59,89.561 1030.38,90.912 1036,92 C1199.78,123.746 1251.01,73.459 1410,124 C1427.84,129.672 1445.96,139.505 1461.01,149.032 " fill="none" style="stroke: #A80036; stroke-width: 1.0; stroke-dasharray: 7.0,7.0;"/>
        <polygon fill="#A80036" points="1465.58,151.974,1460.1686,143.745,1461.3729,149.2722,1455.8457,150.4764,1465.58,151.974" style="stroke: #A80036; stroke-width: 1.0;"/>
        <path d="M903.181,88.14 C897.419,89.622 891.623,90.948 886,92 C789.419,110.074 534.484,83.415 445,124 C381.57,152.768 328.777,217.95 302.311,255.311 " fill="none" style="stroke: #A80036; stroke-width: 1.0; stroke-dasharray: 7.0,7.0;"/>
        <polygon fill="#A80036" points="299.215,259.725,307.6575,254.6531,302.0859,255.6313,301.1076,250.0597,299.215,259.725" style="stroke: #A80036; stroke-width: 1.0;"/>
        <path d="M903.15,87.983 C897.395,89.497 891.608,90.873 886,92 C745.003,120.333 696.466,68.001 564,124 C496.722,152.441 438.672,218.52 409.689,255.9242 " fill="none" style="stroke: #A80036; stroke-width: 1.0; stroke-dasharray: 7.0,7.0;"/>
        <polygon fill="#A80036" points="406.637,259.8955,415.2918,255.1951,409.683,255.9304,408.9476,250.3215,406.637,259.8955" style="stroke: #A80036; stroke-width: 1.0;"/>
        <path d="M903.096,87.728 C897.351,89.294 891.582,90.751 886,92 C788.288,113.855 751.075,76.376 663,124 C605.796,154.931 560.826,218.984 538.479,255.6501 " fill="none" style="stroke: #A80036; stroke-width: 1.0; stroke-dasharray: 7.0,7.0;"/>
        <polygon fill="#A80036" points="535.867,259.9818,543.9396,254.3397,538.4487,255.6999,537.0886,250.209,535.867,259.9818" style="stroke: #A80036; stroke-width: 1.0;"/>
        <path d="M1018.65,88.12 C1041.38,97.111 1067.01,109.155 1088,124 C1129.6,153.417 1122.42,181.617 1166,208 C1200.68,228.9934 1217.71,213.927 1254,232 C1267.05,238.4969 1280.03,247.7676 1290.99,256.627 " fill="none" style="stroke: #A80036; stroke-width: 1.0; stroke-dasharray: 7.0,7.0;"/>
        <polygon fill="#A80036" points="1294.94,259.8666,1290.5219,251.0643,1291.0755,256.694,1285.4457,257.2476,1294.94,259.8666" style="stroke: #A80036; stroke-width: 1.0;"/>
        <path d="M1018.68,86.884 C1024.52,88.637 1030.38,90.369 1036,92 C1087.78,107.016 1106.38,96.924 1153,124 C1198.66,150.517 1189.99,183.969 1237,208 C1296.72,238.5301 1325.09,203.91 1386,232 C1398.71,237.863 1410.86,247.1963 1420.85,256.2853 " fill="none" style="stroke: #A80036; stroke-width: 1.0; stroke-dasharray: 7.0,7.0;"/>
        <polygon fill="#A80036" points="1424.71,259.8832,1420.8589,250.8185,1421.0544,256.472,1415.4009,256.6674,1424.71,259.8832" style="stroke: #A80036; stroke-width: 1.0;"/>
        <path d="M1018.53,87.446 C1024.41,89.087 1030.3,90.64 1036,92 C1117.16,111.382 1147.52,84.459 1221,124 C1266.13,148.285 1254.22,184.971 1300,208 C1382.35,249.4175 1420.39,197.833 1506,232 C1520.28,237.7 1534.2,247.2096 1545.69,256.4831 " fill="none" style="stroke: #A80036; stroke-width: 1.0; stroke-dasharray: 7.0,7.0;"/>
        <polygon fill="#A80036" points="1549.81,259.8815,1545.4185,251.0659,1545.9551,256.6973,1540.3237,257.2338,1549.81,259.8815" style="stroke: #A80036; stroke-width: 1.0;"/>
        <path d="M991.852,92.088 C1003.641,101.474 1016.91,112.748 1028,124 C1061.53,158.004 1060.99,174.478 1095,208 C1107.41,220.231 1112.3,221.237 1126,232 C1136.16,239.98 1147.18,248.7254 1157.16,256.6857 " fill="none" style="stroke: #A80036; stroke-width: 1.0; stroke-dasharray: 7.0,7.0;"/>
        <polygon fill="#A80036" points="1161.08,259.8106,1156.5339,251.0737,1157.1696,256.6947,1151.5486,257.3304,1161.08,259.8106" style="stroke: #A80036; stroke-width: 1.0;"/>
        <path d="M970.213,92.154 C981.653,120.177 1002.322,168.519 1024,208 C1032.95,224.3091 1044.24,241.7529 1053.72,255.7097 " fill="none" style="stroke: #A80036; stroke-width: 1.0; stroke-dasharray: 7.0,7.0;"/>
        <polygon fill="#A80036" points="1056.6,259.9241,1054.8245,250.2366,1053.7789,255.796,1048.2195,254.7504,1056.6,259.9241" style="stroke: #A80036; stroke-width: 1.0;"/>
        <path d="M804.672,200.15 C795.247,203.3 785.448,206.099 776,208 C716.033,220.067 281.193,205.63 226,232 C215.196,237.1621 205.89,246.237 198.591,255.3148 " fill="none" style="stroke: #A80036; stroke-width: 1.0; stroke-dasharray: 7.0,7.0;"/>
        <polygon fill="#A80036" points="195.171,259.7543,203.8318,255.0649,198.222,255.7931,197.4938,250.1833,195.171,259.7543" style="stroke: #A80036; stroke-width: 1.0;"/>
        <path d="M796.977,200.095 C767.92,211.225 737.025,223.887 724,232 C713.053,238.819 702.208,247.8047 692.963,256.3316 " fill="none" style="stroke: #A80036; stroke-width: 1.0; stroke-dasharray: 7.0,7.0;"/>
        <polygon fill="#A80036" points="689.104,259.9503,698.4054,256.7124,692.7515,256.5304,692.9335,250.8765,689.104,259.9503" style="stroke: #A80036; stroke-width: 1.0;"/>
        <path d="M840.037,200 C825.789,216.417 806.572,238.5588 791.569,255.8444 " fill="none" style="stroke: #A80036; stroke-width: 1.0; stroke-dasharray: 7.0,7.0;"/>
        <polygon fill="#A80036" points="788.241,259.6784,797.1614,255.5039,791.5186,255.9025,791.1199,250.2597,788.241,259.6784" style="stroke: #A80036; stroke-width: 1.0;"/>
        <path d="M882.566,200 C898.673,216.417 920.397,238.5588 937.357,255.8444 " fill="none" style="stroke: #A80036; stroke-width: 1.0; stroke-dasharray: 7.0,7.0;"/>
        <polygon fill="#A80036" points="941.118,259.6784,937.6694,250.4531,937.616,256.1097,931.9594,256.0563,941.118,259.6784" style="stroke: #A80036; stroke-width: 1.0;"/>
        <path d="M860,200 C860,216.003 860,237.4461 860,254.528 " fill="none" style="stroke: #A80036; stroke-width: 1.0; stroke-dasharray: 7.0,7.0;"/>
        <polygon fill="#A80036" points="860,259.6784,864,250.6784,860,254.6784,856,250.6784,860,259.6784" style="stroke: #A80036; stroke-width: 1.0;"/>
        <path d="M925.661,199.012 C967.486,213.15 1014.63,229.3504 1019,232 C1029.81,238.5507 1040.25,247.5598 1049.03,256.1852 " fill="none" style="stroke: #A80036; stroke-width: 1.0; stroke-dasharray: 7.0,7.0;"/>
        <polygon fill="#A80036" points="1052.69,259.85,1049.1693,250.6519,1049.1602,256.3088,1043.5033,256.2996,1052.69,259.85" style="stroke: #A80036; stroke-width: 1.0;"/>
        <path d="M1140.83,69.483 C1263.87,71.376 1610.22,80.526 1714,124 C1727.14,129.503 1739.52,138.972 1749.58,148.268 " fill="none" style="stroke: #A80036; stroke-width: 1.0; stroke-dasharray: 7.0,7.0;"/>
        <polygon fill="#A80036" points="1753.46,151.952,1749.6861,142.8549,1749.8335,148.5098,1744.1786,148.6572,1753.46,151.952" style="stroke: #A80036; stroke-width: 1.0;"/>
        <path d="M1140.63,70.24 C1299.56,74.991 1841.91,93.315 1913,124 C1925.34,129.328 1936.68,138.655 1945.81,147.887 " fill="none" style="stroke: #A80036; stroke-width: 1.0; stroke-dasharray: 7.0,7.0;"/>
        <polygon fill="#A80036" points="1949.58,151.827,1946.2477,142.559,1946.1231,148.2145,1940.4677,148.09,1949.58,151.827" style="stroke: #A80036; stroke-width: 1.0;"/>
    </g>
</svg>
