<?xml version="1.0" encoding="UTF-8"?><svg xmlns="http://www.w3.org/2000/svg" xmlns:xlink="http://www.w3.org/1999/xlink" height="361pt" style="width:375px;height:361px;" version="1.1" viewBox="0 0 375 361" width="375pt">
    <defs>
        <filter height="300%" id="f1" width="300%" x="-1" y="-1">
            <feGaussianBlur result="blurOut" stdDeviation="2.0"/>
            <feColorMatrix in="blurOut" result="blurOut2" type="matrix" values="0 0 0 0 0 0 0 0 0 0 0 0 0 0 0 0 0 0 .4 0"/>
            <feOffset dx="4.0" dy="4.0" in="blurOut2" result="blurOut3"/>
            <feBlend in="SourceGraphic" in2="blurOut3" mode="normal"/>
        </filter>
    </defs>
    <g>
        <polygon fill="#FFFFFF" filter="url(#f1)" points="166,270,314,270,321,293.6094,324,293.6094,324,354,166,354,166,270" style="stroke: #000000; stroke-width: 2.0;"/>
        <line style="stroke: #000000; stroke-width: 2.0;" x1="166" x2="321" y1="293.6094" y2="293.6094"/>
        <text fill="#000000" font-family="sans-serif" font-size="14" font-weight="bold" lengthAdjust="spacingAndGlyphs" textLength="142" x="169" y="287.5332">de.mash1t.chat.core</text>
        <polygon fill="#FFFFFF" filter="url(#f1)" points="14,54,183,54,190,77.6094,368,77.6094,368,246,14,246,14,54" style="stroke: #000000; stroke-width: 2.0;"/>
        <line style="stroke: #000000; stroke-width: 2.0;" x1="14" x2="190" y1="77.6094" y2="77.6094"/>
        <text fill="#000000" font-family="sans-serif" font-size="14" font-weight="bold" lengthAdjust="spacingAndGlyphs" textLength="163" x="17" y="71.5332">de.mash1t.chat.logging</text>
        <rect fill="#FEFECE" filter="url(#f1)" height="48" style="stroke: #A80036; stroke-width: 1.5;" width="84" x="203" y="298"/>
        <ellipse cx="218" cy="314" fill="#ADD1B2" rx="11" ry="11" style="stroke: #A80036; stroke-width: 1.0;"/>
        <path d="M220.7656,309.875 Q220.9219,309.6563 221.1094,309.5469 Q221.2969,309.4375 221.5156,309.4375 Q221.8906,309.4375 222.125,309.6953 Q222.3594,309.9531 222.3594,310.5625 L222.3594,312.0156 Q222.3594,312.625 222.125,312.8906 Q221.8906,313.1563 221.5156,313.1563 Q221.1719,313.1563 220.9688,312.9531 Q220.7656,312.7656 220.6563,312.25 Q220.6094,311.8906 220.4219,311.7031 Q220.0938,311.3281 219.4844,311.1094 Q218.875,310.8906 218.25,310.8906 Q217.4844,310.8906 216.8516,311.2188 Q216.2188,311.5469 215.7266,312.2969 Q215.2344,313.0469 215.2344,314.0781 L215.2344,315.1719 Q215.2344,316.4063 216.125,317.2266 Q217.0156,318.0469 218.6094,318.0469 Q219.5469,318.0469 220.2031,317.7969 Q220.5938,317.6406 221.0156,317.2031 Q221.2813,316.9375 221.4297,316.8594 Q221.5781,316.7813 221.7813,316.7813 Q222.1094,316.7813 222.3672,317.0391 Q222.625,317.2969 222.625,317.6406 Q222.625,317.9844 222.2813,318.3906 Q221.7813,318.9688 220.9844,319.2969 Q219.9063,319.75 218.6094,319.75 Q217.0938,319.75 215.8906,319.125 Q214.9063,318.625 214.2188,317.5547 Q213.5313,316.4844 213.5313,315.2031 L213.5313,314.0469 Q213.5313,312.7188 214.1484,311.5703 Q214.7656,310.4219 215.8594,309.8047 Q216.9531,309.1875 218.1875,309.1875 Q218.9219,309.1875 219.5703,309.3516 Q220.2188,309.5156 220.7656,309.875 Z "/>
        <text fill="#000000" font-family="sans-serif" font-size="12" lengthAdjust="spacingAndGlyphs" textLength="52" x="232" y="318.9102">RoleType</text>
        <line style="stroke: #A80036; stroke-width: 1.5;" x1="204" x2="286" y1="330" y2="330"/>
        <line style="stroke: #A80036; stroke-width: 1.5;" x1="204" x2="286" y1="338" y2="338"/>
        <rect fill="#FEFECE" filter="url(#f1)" height="48" style="stroke: #A80036; stroke-width: 1.5;" width="83" x="22.5" y="82"/>
        <ellipse cx="37.5" cy="98" fill="#ADD1B2" rx="11" ry="11" style="stroke: #A80036; stroke-width: 1.0;"/>
        <path d="M40.2656,93.875 Q40.4219,93.6563 40.6094,93.5469 Q40.7969,93.4375 41.0156,93.4375 Q41.3906,93.4375 41.625,93.6953 Q41.8594,93.9531 41.8594,94.5625 L41.8594,96.0156 Q41.8594,96.625 41.625,96.8906 Q41.3906,97.1563 41.0156,97.1563 Q40.6719,97.1563 40.4688,96.9531 Q40.2656,96.7656 40.1563,96.25 Q40.1094,95.8906 39.9219,95.7031 Q39.5938,95.3281 38.9844,95.1094 Q38.375,94.8906 37.75,94.8906 Q36.9844,94.8906 36.3516,95.2188 Q35.7188,95.5469 35.2266,96.2969 Q34.7344,97.0469 34.7344,98.0781 L34.7344,99.1719 Q34.7344,100.4063 35.625,101.2266 Q36.5156,102.0469 38.1094,102.0469 Q39.0469,102.0469 39.7031,101.7969 Q40.0938,101.6406 40.5156,101.2031 Q40.7813,100.9375 40.9297,100.8594 Q41.0781,100.7813 41.2813,100.7813 Q41.6094,100.7813 41.8672,101.0391 Q42.125,101.2969 42.125,101.6406 Q42.125,101.9844 41.7813,102.3906 Q41.2813,102.9688 40.4844,103.2969 Q39.4063,103.75 38.1094,103.75 Q36.5938,103.75 35.3906,103.125 Q34.4063,102.625 33.7188,101.5547 Q33.0313,100.4844 33.0313,99.2031 L33.0313,98.0469 Q33.0313,96.7188 33.6484,95.5703 Q34.2656,94.4219 35.3594,93.8047 Q36.4531,93.1875 37.6875,93.1875 Q38.4219,93.1875 39.0703,93.3516 Q39.7188,93.5156 40.2656,93.875 Z "/>
        <text fill="#000000" font-family="sans-serif" font-size="12" lengthAdjust="spacingAndGlyphs" textLength="51" x="51.5" y="102.9102">Counters</text>
        <line style="stroke: #A80036; stroke-width: 1.5;" x1="23.5" x2="104.5" y1="114" y2="114"/>
        <line style="stroke: #A80036; stroke-width: 1.5;" x1="23.5" x2="104.5" y1="122" y2="122"/>
        <rect fill="#FEFECE" filter="url(#f1)" height="48" style="stroke: #A80036; stroke-width: 1.5;" width="115" x="140.5" y="82"/>
        <ellipse cx="155.5" cy="98" fill="#ADD1B2" rx="11" ry="11" style="stroke: #A80036; stroke-width: 1.0;"/>
        <path d="M158.2656,93.875 Q158.4219,93.6563 158.6094,93.5469 Q158.7969,93.4375 159.0156,93.4375 Q159.3906,93.4375 159.625,93.6953 Q159.8594,93.9531 159.8594,94.5625 L159.8594,96.0156 Q159.8594,96.625 159.625,96.8906 Q159.3906,97.1563 159.0156,97.1563 Q158.6719,97.1563 158.4688,96.9531 Q158.2656,96.7656 158.1563,96.25 Q158.1094,95.8906 157.9219,95.7031 Q157.5938,95.3281 156.9844,95.1094 Q156.375,94.8906 155.75,94.8906 Q154.9844,94.8906 154.3516,95.2188 Q153.7188,95.5469 153.2266,96.2969 Q152.7344,97.0469 152.7344,98.0781 L152.7344,99.1719 Q152.7344,100.4063 153.625,101.2266 Q154.5156,102.0469 156.1094,102.0469 Q157.0469,102.0469 157.7031,101.7969 Q158.0938,101.6406 158.5156,101.2031 Q158.7813,100.9375 158.9297,100.8594 Q159.0781,100.7813 159.2813,100.7813 Q159.6094,100.7813 159.8672,101.0391 Q160.125,101.2969 160.125,101.6406 Q160.125,101.9844 159.7813,102.3906 Q159.2813,102.9688 158.4844,103.2969 Q157.4063,103.75 156.1094,103.75 Q154.5938,103.75 153.3906,103.125 Q152.4063,102.625 151.7188,101.5547 Q151.0313,100.4844 151.0313,99.2031 L151.0313,98.0469 Q151.0313,96.7188 151.6484,95.5703 Q152.2656,94.4219 153.3594,93.8047 Q154.4531,93.1875 155.6875,93.1875 Q156.4219,93.1875 157.0703,93.3516 Q157.7188,93.5156 158.2656,93.875 Z "/>
        <text fill="#000000" font-family="sans-serif" font-size="12" lengthAdjust="spacingAndGlyphs" textLength="83" x="169.5" y="102.9102">CustomLogger</text>
        <line style="stroke: #A80036; stroke-width: 1.5;" x1="141.5" x2="254.5" y1="114" y2="114"/>
        <line style="stroke: #A80036; stroke-width: 1.5;" x1="141.5" x2="254.5" y1="122" y2="122"/>
        <rect fill="#FEFECE" filter="url(#f1)" height="48" style="stroke: #A80036; stroke-width: 1.5;" width="131" x="135.5" y="190"/>
        <ellipse cx="150.5" cy="206" fill="#ADD1B2" rx="11" ry="11" style="stroke: #A80036; stroke-width: 1.0;"/>
        <path d="M153.2656,201.875 Q153.4219,201.6563 153.6094,201.5469 Q153.7969,201.4375 154.0156,201.4375 Q154.3906,201.4375 154.625,201.6953 Q154.8594,201.9531 154.8594,202.5625 L154.8594,204.0156 Q154.8594,204.625 154.625,204.8906 Q154.3906,205.1563 154.0156,205.1563 Q153.6719,205.1563 153.4688,204.9531 Q153.2656,204.7656 153.1563,204.25 Q153.1094,203.8906 152.9219,203.7031 Q152.5938,203.3281 151.9844,203.1094 Q151.375,202.8906 150.75,202.8906 Q149.9844,202.8906 149.3516,203.2188 Q148.7188,203.5469 148.2266,204.2969 Q147.7344,205.0469 147.7344,206.0781 L147.7344,207.1719 Q147.7344,208.4063 148.625,209.2266 Q149.5156,210.0469 151.1094,210.0469 Q152.0469,210.0469 152.7031,209.7969 Q153.0938,209.6406 153.5156,209.2031 Q153.7813,208.9375 153.9297,208.8594 Q154.0781,208.7813 154.2813,208.7813 Q154.6094,208.7813 154.8672,209.0391 Q155.125,209.2969 155.125,209.6406 Q155.125,209.9844 154.7813,210.3906 Q154.2813,210.9688 153.4844,211.2969 Q152.4063,211.75 151.1094,211.75 Q149.5938,211.75 148.3906,211.125 Q147.4063,210.625 146.7188,209.5547 Q146.0313,208.4844 146.0313,207.2031 L146.0313,206.0469 Q146.0313,204.7188 146.6484,203.5703 Q147.2656,202.4219 148.3594,201.8047 Q149.4531,201.1875 150.6875,201.1875 Q151.4219,201.1875 152.0703,201.3516 Q152.7188,201.5156 153.2656,201.875 Z "/>
        <text fill="#000000" font-family="sans-serif" font-size="12" lengthAdjust="spacingAndGlyphs" textLength="99" x="164.5" y="210.9102">LoggingController</text>
        <line style="stroke: #A80036; stroke-width: 1.5;" x1="136.5" x2="265.5" y1="222" y2="222"/>
        <line style="stroke: #A80036; stroke-width: 1.5;" x1="136.5" x2="265.5" y1="230" y2="230"/>
        <rect fill="#FEFECE" filter="url(#f1)" height="48" style="stroke: #A80036; stroke-width: 1.5;" width="69" x="290.5" y="82"/>
        <ellipse cx="305.5" cy="98" fill="#EB937F" rx="11" ry="11" style="stroke: #A80036; stroke-width: 1.0;"/>
        <path d="M304.3594,98.7969 L304.3594,101.2969 L308.6875,101.2969 L308.6875,100.375 Q308.6875,99.7656 308.9297,99.5 Q309.1719,99.2344 309.5469,99.2344 Q309.9219,99.2344 310.1563,99.5 Q310.3906,99.7656 310.3906,100.375 L310.3906,103 L302.3906,103 Q301.7656,103 301.5078,102.7656 Q301.25,102.5313 301.25,102.1406 Q301.25,101.7656 301.5156,101.5313 Q301.7813,101.2969 302.3906,101.2969 L302.6563,101.2969 L302.6563,94.6406 L302.3906,94.6406 Q301.7656,94.6406 301.5078,94.4063 Q301.25,94.1719 301.25,93.7813 Q301.25,93.4063 301.5078,93.1719 Q301.7656,92.9375 302.3906,92.9375 L310.0156,92.9375 L310.0156,95.5313 Q310.0156,96.1406 309.7891,96.3984 Q309.5625,96.6563 309.1719,96.6563 Q308.7969,96.6563 308.5625,96.3984 Q308.3281,96.1406 308.3281,95.5313 L308.3281,94.6406 L304.3594,94.6406 L304.3594,97.0938 L305.8438,97.0938 Q305.8438,96.4375 305.9688,96.25 Q306.2344,95.8438 306.7031,95.8438 Q307.0781,95.8438 307.3125,96.1016 Q307.5469,96.3594 307.5469,96.9688 L307.5469,98.9375 Q307.5469,99.4844 307.4219,99.6719 Q307.1563,100.0625 306.7031,100.0625 Q306.2344,100.0625 305.9688,99.6563 Q305.8438,99.4688 305.8438,98.7969 L304.3594,98.7969 Z "/>
        <text fill="#000000" font-family="sans-serif" font-size="12" lengthAdjust="spacingAndGlyphs" textLength="37" x="319.5" y="102.9102">LogDir</text>
        <line style="stroke: #A80036; stroke-width: 1.5;" x1="291.5" x2="358.5" y1="114" y2="114"/>
        <line style="stroke: #A80036; stroke-width: 1.5;" x1="291.5" x2="358.5" y1="122" y2="122"/>
        <rect fill="#FEFECE" filter="url(#f1)" height="48" style="stroke: #A80036; stroke-width: 1.5;" width="78" x="22" y="190"/>
        <ellipse cx="37" cy="206" fill="#EB937F" rx="11" ry="11" style="stroke: #A80036; stroke-width: 1.0;"/>
        <path d="M35.8594,206.7969 L35.8594,209.2969 L40.1875,209.2969 L40.1875,208.375 Q40.1875,207.7656 40.4297,207.5 Q40.6719,207.2344 41.0469,207.2344 Q41.4219,207.2344 41.6563,207.5 Q41.8906,207.7656 41.8906,208.375 L41.8906,211 L33.8906,211 Q33.2656,211 33.0078,210.7656 Q32.75,210.5313 32.75,210.1406 Q32.75,209.7656 33.0156,209.5313 Q33.2813,209.2969 33.8906,209.2969 L34.1563,209.2969 L34.1563,202.6406 L33.8906,202.6406 Q33.2656,202.6406 33.0078,202.4063 Q32.75,202.1719 32.75,201.7813 Q32.75,201.4063 33.0078,201.1719 Q33.2656,200.9375 33.8906,200.9375 L41.5156,200.9375 L41.5156,203.5313 Q41.5156,204.1406 41.2891,204.3984 Q41.0625,204.6563 40.6719,204.6563 Q40.2969,204.6563 40.0625,204.3984 Q39.8281,204.1406 39.8281,203.5313 L39.8281,202.6406 L35.8594,202.6406 L35.8594,205.0938 L37.3438,205.0938 Q37.3438,204.4375 37.4688,204.25 Q37.7344,203.8438 38.2031,203.8438 Q38.5781,203.8438 38.8125,204.1016 Q39.0469,204.3594 39.0469,204.9688 L39.0469,206.9375 Q39.0469,207.4844 38.9219,207.6719 Q38.6563,208.0625 38.2031,208.0625 Q37.7344,208.0625 37.4688,207.6563 Q37.3438,207.4688 37.3438,206.7969 L35.8594,206.7969 Z "/>
        <text fill="#000000" font-family="sans-serif" font-size="12" lengthAdjust="spacingAndGlyphs" textLength="46" x="51" y="210.9102">LogPath</text>
        <line style="stroke: #A80036; stroke-width: 1.5;" x1="23" x2="99" y1="222" y2="222"/>
        <line style="stroke: #A80036; stroke-width: 1.5;" x1="23" x2="99" y1="230" y2="230"/>
        <path d="M233.214,130.165 C252.119,144.803 273.619,165.553 284,190 C298.642,224.481 280.395,266.252 264.254,293.2095 " fill="none" style="stroke: #A80036; stroke-width: 1.0; stroke-dasharray: 7.0,7.0;"/>
        <polygon fill="#A80036" points="261.48,297.7351,269.5935,292.1519,264.0928,293.4721,262.7726,287.9714,261.48,297.7351" style="stroke: #A80036; stroke-width: 1.0;"/>
        <path d="M198.651,130 C199.104,146.003 199.711,167.446 200.194,184.528 " fill="none" style="stroke: #A80036; stroke-width: 1.0; stroke-dasharray: 7.0,7.0;"/>
        <polygon fill="#A80036" points="200.34,189.678,204.0839,180.5685,200.1986,184.68,196.0871,180.7947,200.34,189.678" style="stroke: #A80036; stroke-width: 1.0;"/>
        <path d="M210.547,238 C217.247,254.141 226.244,275.8162 233.364,292.9688 " fill="none" style="stroke: #A80036; stroke-width: 1.0; stroke-dasharray: 7.0,7.0;"/>
        <polygon fill="#A80036" points="235.319,297.6784,235.5632,287.8326,233.4022,293.0604,228.1744,290.8994,235.319,297.6784" style="stroke: #A80036; stroke-width: 1.0;"/>
    </g>
</svg>
