<?xml version="1.0" encoding="UTF-8"?><svg xmlns="http://www.w3.org/2000/svg" xmlns:xlink="http://www.w3.org/1999/xlink" height="365pt" style="width:669px;height:365px;" version="1.1" viewBox="0 0 669 365" width="669pt">
    <defs>
        <filter height="300%" id="f1" width="300%" x="-1" y="-1">
            <feGaussianBlur result="blurOut" stdDeviation="2.0"/>
            <feColorMatrix in="blurOut" result="blurOut2" type="matrix" values="0 0 0 0 0 0 0 0 0 0 0 0 0 0 0 0 0 0 .4 0"/>
            <feOffset dx="4.0" dy="4.0" in="blurOut2" result="blurOut3"/>
            <feBlend in="SourceGraphic" in2="blurOut3" mode="normal"/>
        </filter>
    </defs>
    <g>
        <polygon fill="#FFFFFF" filter="url(#f1)" points="14,58,235,58,242,81.6094,314,81.6094,314,142,14,142,14,58" style="stroke: #000000; stroke-width: 2.0;"/>
        <line style="stroke: #000000; stroke-width: 2.0;" x1="14" x2="242" y1="81.6094" y2="81.6094"/>
        <text fill="#000000" font-family="sans-serif" font-size="14" font-weight="bold" lengthAdjust="spacingAndGlyphs" textLength="215" x="17" y="75.5332">de.mash1t.chat.security.basics</text>
        <polygon fill="#FFFFFF" filter="url(#f1)" points="30,166,298,166,305,189.6094,308,189.6094,308,358,30,358,30,166" style="stroke: #000000; stroke-width: 2.0;"/>
        <line style="stroke: #000000; stroke-width: 2.0;" x1="30" x2="305" y1="189.6094" y2="189.6094"/>
        <text fill="#000000" font-family="sans-serif" font-size="14" font-weight="bold" lengthAdjust="spacingAndGlyphs" textLength="262" x="33" y="183.5332">de.mash1t.chat.security.cryptography</text>
        <polygon fill="#FFFFFF" filter="url(#f1)" points="327,58,652,58,659,81.6094,662,81.6094,662,142,327,142,327,58" style="stroke: #000000; stroke-width: 2.0;"/>
        <line style="stroke: #000000; stroke-width: 2.0;" x1="327" x2="659" y1="81.6094" y2="81.6094"/>
        <text fill="#000000" font-family="sans-serif" font-size="14" font-weight="bold" lengthAdjust="spacingAndGlyphs" textLength="319" x="330" y="75.5332">de.mash1t.chat.security.cryptography.method</text>
        <rect fill="#FEFECE" filter="url(#f1)" height="48" style="stroke: #A80036; stroke-width: 1.5;" width="105" x="22.5" y="86"/>
        <ellipse cx="37.5" cy="102" fill="#ADD1B2" rx="11" ry="11" style="stroke: #A80036; stroke-width: 1.0;"/>
        <path d="M40.2656,97.875 Q40.4219,97.6563 40.6094,97.5469 Q40.7969,97.4375 41.0156,97.4375 Q41.3906,97.4375 41.625,97.6953 Q41.8594,97.9531 41.8594,98.5625 L41.8594,100.0156 Q41.8594,100.625 41.625,100.8906 Q41.3906,101.1563 41.0156,101.1563 Q40.6719,101.1563 40.4688,100.9531 Q40.2656,100.7656 40.1563,100.25 Q40.1094,99.8906 39.9219,99.7031 Q39.5938,99.3281 38.9844,99.1094 Q38.375,98.8906 37.75,98.8906 Q36.9844,98.8906 36.3516,99.2188 Q35.7188,99.5469 35.2266,100.2969 Q34.7344,101.0469 34.7344,102.0781 L34.7344,103.1719 Q34.7344,104.4063 35.625,105.2266 Q36.5156,106.0469 38.1094,106.0469 Q39.0469,106.0469 39.7031,105.7969 Q40.0938,105.6406 40.5156,105.2031 Q40.7813,104.9375 40.9297,104.8594 Q41.0781,104.7813 41.2813,104.7813 Q41.6094,104.7813 41.8672,105.0391 Q42.125,105.2969 42.125,105.6406 Q42.125,105.9844 41.7813,106.3906 Q41.2813,106.9688 40.4844,107.2969 Q39.4063,107.75 38.1094,107.75 Q36.5938,107.75 35.3906,107.125 Q34.4063,106.625 33.7188,105.5547 Q33.0313,104.4844 33.0313,103.2031 L33.0313,102.0469 Q33.0313,100.7188 33.6484,99.5703 Q34.2656,98.4219 35.3594,97.8047 Q36.4531,97.1875 37.6875,97.1875 Q38.4219,97.1875 39.0703,97.3516 Q39.7188,97.5156 40.2656,97.875 Z "/>
        <text fill="#000000" font-family="sans-serif" font-size="12" lengthAdjust="spacingAndGlyphs" textLength="73" x="51.5" y="106.9102">CryptoBasics</text>
        <line style="stroke: #A80036; stroke-width: 1.5;" x1="23.5" x2="126.5" y1="118" y2="118"/>
        <line style="stroke: #A80036; stroke-width: 1.5;" x1="23.5" x2="126.5" y1="126" y2="126"/>
        <rect fill="#FEFECE" filter="url(#f1)" height="48" style="stroke: #A80036; stroke-width: 1.5;" width="143" x="162.5" y="86"/>
        <ellipse cx="177.5" cy="102" fill="#ADD1B2" rx="11" ry="11" style="stroke: #A80036; stroke-width: 1.0;"/>
        <path d="M180.2656,97.875 Q180.4219,97.6563 180.6094,97.5469 Q180.7969,97.4375 181.0156,97.4375 Q181.3906,97.4375 181.625,97.6953 Q181.8594,97.9531 181.8594,98.5625 L181.8594,100.0156 Q181.8594,100.625 181.625,100.8906 Q181.3906,101.1563 181.0156,101.1563 Q180.6719,101.1563 180.4688,100.9531 Q180.2656,100.7656 180.1563,100.25 Q180.1094,99.8906 179.9219,99.7031 Q179.5938,99.3281 178.9844,99.1094 Q178.375,98.8906 177.75,98.8906 Q176.9844,98.8906 176.3516,99.2188 Q175.7188,99.5469 175.2266,100.2969 Q174.7344,101.0469 174.7344,102.0781 L174.7344,103.1719 Q174.7344,104.4063 175.625,105.2266 Q176.5156,106.0469 178.1094,106.0469 Q179.0469,106.0469 179.7031,105.7969 Q180.0938,105.6406 180.5156,105.2031 Q180.7813,104.9375 180.9297,104.8594 Q181.0781,104.7813 181.2813,104.7813 Q181.6094,104.7813 181.8672,105.0391 Q182.125,105.2969 182.125,105.6406 Q182.125,105.9844 181.7813,106.3906 Q181.2813,106.9688 180.4844,107.2969 Q179.4063,107.75 178.1094,107.75 Q176.5938,107.75 175.3906,107.125 Q174.4063,106.625 173.7188,105.5547 Q173.0313,104.4844 173.0313,103.2031 L173.0313,102.0469 Q173.0313,100.7188 173.6484,99.5703 Q174.2656,98.4219 175.3594,97.8047 Q176.4531,97.1875 177.6875,97.1875 Q178.4219,97.1875 179.0703,97.3516 Q179.7188,97.5156 180.2656,97.875 Z "/>
        <text fill="#000000" font-family="sans-serif" font-size="12" lengthAdjust="spacingAndGlyphs" textLength="111" x="191.5" y="106.9102">SessionIdGenerator</text>
        <line style="stroke: #A80036; stroke-width: 1.5;" x1="163.5" x2="304.5" y1="118" y2="118"/>
        <line style="stroke: #A80036; stroke-width: 1.5;" x1="163.5" x2="304.5" y1="126" y2="126"/>
        <rect fill="#FEFECE" filter="url(#f1)" height="48" style="stroke: #A80036; stroke-width: 1.5;" width="129" x="169.5" y="194"/>
        <ellipse cx="184.5" cy="210" fill="#ADD1B2" rx="11" ry="11" style="stroke: #A80036; stroke-width: 1.0;"/>
        <path d="M187.2656,205.875 Q187.4219,205.6563 187.6094,205.5469 Q187.7969,205.4375 188.0156,205.4375 Q188.3906,205.4375 188.625,205.6953 Q188.8594,205.9531 188.8594,206.5625 L188.8594,208.0156 Q188.8594,208.625 188.625,208.8906 Q188.3906,209.1563 188.0156,209.1563 Q187.6719,209.1563 187.4688,208.9531 Q187.2656,208.7656 187.1563,208.25 Q187.1094,207.8906 186.9219,207.7031 Q186.5938,207.3281 185.9844,207.1094 Q185.375,206.8906 184.75,206.8906 Q183.9844,206.8906 183.3516,207.2188 Q182.7188,207.5469 182.2266,208.2969 Q181.7344,209.0469 181.7344,210.0781 L181.7344,211.1719 Q181.7344,212.4063 182.625,213.2266 Q183.5156,214.0469 185.1094,214.0469 Q186.0469,214.0469 186.7031,213.7969 Q187.0938,213.6406 187.5156,213.2031 Q187.7813,212.9375 187.9297,212.8594 Q188.0781,212.7813 188.2813,212.7813 Q188.6094,212.7813 188.8672,213.0391 Q189.125,213.2969 189.125,213.6406 Q189.125,213.9844 188.7813,214.3906 Q188.2813,214.9688 187.4844,215.2969 Q186.4063,215.75 185.1094,215.75 Q183.5938,215.75 182.3906,215.125 Q181.4063,214.625 180.7188,213.5547 Q180.0313,212.4844 180.0313,211.2031 L180.0313,210.0469 Q180.0313,208.7188 180.6484,207.5703 Q181.2656,206.4219 182.3594,205.8047 Q183.4531,205.1875 184.6875,205.1875 Q185.4219,205.1875 186.0703,205.3516 Q186.7188,205.5156 187.2656,205.875 Z "/>
        <text fill="#000000" font-family="sans-serif" font-size="12" lengthAdjust="spacingAndGlyphs" textLength="97" x="198.5" y="214.9102">EncryptionMethod</text>
        <line style="stroke: #A80036; stroke-width: 1.5;" x1="170.5" x2="297.5" y1="226" y2="226"/>
        <line style="stroke: #A80036; stroke-width: 1.5;" x1="170.5" x2="297.5" y1="234" y2="234"/>
        <rect fill="#FEFECE" filter="url(#f1)" height="48" style="stroke: #A80036; stroke-width: 1.5;" width="72" x="39" y="194"/>
        <ellipse cx="54" cy="210" fill="#EB937F" rx="11" ry="11" style="stroke: #A80036; stroke-width: 1.0;"/>
        <path d="M52.8594,210.7969 L52.8594,213.2969 L57.1875,213.2969 L57.1875,212.375 Q57.1875,211.7656 57.4297,211.5 Q57.6719,211.2344 58.0469,211.2344 Q58.4219,211.2344 58.6563,211.5 Q58.8906,211.7656 58.8906,212.375 L58.8906,215 L50.8906,215 Q50.2656,215 50.0078,214.7656 Q49.75,214.5313 49.75,214.1406 Q49.75,213.7656 50.0156,213.5313 Q50.2813,213.2969 50.8906,213.2969 L51.1563,213.2969 L51.1563,206.6406 L50.8906,206.6406 Q50.2656,206.6406 50.0078,206.4063 Q49.75,206.1719 49.75,205.7813 Q49.75,205.4063 50.0078,205.1719 Q50.2656,204.9375 50.8906,204.9375 L58.5156,204.9375 L58.5156,207.5313 Q58.5156,208.1406 58.2891,208.3984 Q58.0625,208.6563 57.6719,208.6563 Q57.2969,208.6563 57.0625,208.3984 Q56.8281,208.1406 56.8281,207.5313 L56.8281,206.6406 L52.8594,206.6406 L52.8594,209.0938 L54.3438,209.0938 Q54.3438,208.4375 54.4688,208.25 Q54.7344,207.8438 55.2031,207.8438 Q55.5781,207.8438 55.8125,208.1016 Q56.0469,208.3594 56.0469,208.9688 L56.0469,210.9375 Q56.0469,211.4844 55.9219,211.6719 Q55.6563,212.0625 55.2031,212.0625 Q54.7344,212.0625 54.4688,211.6563 Q54.3438,211.4688 54.3438,210.7969 L52.8594,210.7969 Z "/>
        <text fill="#000000" font-family="sans-serif" font-size="12" lengthAdjust="spacingAndGlyphs" textLength="40" x="68" y="214.9102">Method</text>
        <line style="stroke: #A80036; stroke-width: 1.5;" x1="40" x2="110" y1="226" y2="226"/>
        <line style="stroke: #A80036; stroke-width: 1.5;" x1="40" x2="110" y1="234" y2="234"/>
        <rect fill="#FEFECE" filter="url(#f1)" height="48" style="stroke: #A80036; stroke-width: 1.5;" width="69" x="214.5" y="302"/>
        <ellipse cx="229.5" cy="318" fill="#B4A7E5" rx="11" ry="11" style="stroke: #A80036; stroke-width: 1.0;"/>
        <path d="M230.4531,314.6406 L230.4531,321.2969 L232.1719,321.2969 Q232.7813,321.2969 233.0469,321.5313 Q233.3125,321.7656 233.3125,322.1563 Q233.3125,322.5313 233.0469,322.7656 Q232.7813,323 232.1719,323 L227.0313,323 Q226.4219,323 226.1563,322.7656 Q225.8906,322.5313 225.8906,322.1406 Q225.8906,321.7656 226.1563,321.5313 Q226.4219,321.2969 227.0313,321.2969 L228.75,321.2969 L228.75,314.6406 L227.0313,314.6406 Q226.4219,314.6406 226.1563,314.4063 Q225.8906,314.1719 225.8906,313.7813 Q225.8906,313.4063 226.1563,313.1719 Q226.4219,312.9375 227.0313,312.9375 L232.1719,312.9375 Q232.7813,312.9375 233.0469,313.1719 Q233.3125,313.4063 233.3125,313.7813 Q233.3125,314.1719 233.0469,314.4063 Q232.7813,314.6406 232.1719,314.6406 L230.4531,314.6406 Z "/>
        <text fill="#000000" font-family="sans-serif" font-size="12" font-style="italic" lengthAdjust="spacingAndGlyphs" textLength="37" x="243.5" y="322.9102">crypter</text>
        <line style="stroke: #A80036; stroke-width: 1.5;" x1="215.5" x2="282.5" y1="334" y2="334"/>
        <line style="stroke: #A80036; stroke-width: 1.5;" x1="215.5" x2="282.5" y1="342" y2="342"/>
        <rect fill="#FEFECE" filter="url(#f1)" height="48" style="stroke: #A80036; stroke-width: 1.5;" width="53" x="340.5" y="86"/>
        <ellipse cx="355.5" cy="102" fill="#ADD1B2" rx="11" ry="11" style="stroke: #A80036; stroke-width: 1.0;"/>
        <path d="M358.2656,97.875 Q358.4219,97.6563 358.6094,97.5469 Q358.7969,97.4375 359.0156,97.4375 Q359.3906,97.4375 359.625,97.6953 Q359.8594,97.9531 359.8594,98.5625 L359.8594,100.0156 Q359.8594,100.625 359.625,100.8906 Q359.3906,101.1563 359.0156,101.1563 Q358.6719,101.1563 358.4688,100.9531 Q358.2656,100.7656 358.1563,100.25 Q358.1094,99.8906 357.9219,99.7031 Q357.5938,99.3281 356.9844,99.1094 Q356.375,98.8906 355.75,98.8906 Q354.9844,98.8906 354.3516,99.2188 Q353.7188,99.5469 353.2266,100.2969 Q352.7344,101.0469 352.7344,102.0781 L352.7344,103.1719 Q352.7344,104.4063 353.625,105.2266 Q354.5156,106.0469 356.1094,106.0469 Q357.0469,106.0469 357.7031,105.7969 Q358.0938,105.6406 358.5156,105.2031 Q358.7813,104.9375 358.9297,104.8594 Q359.0781,104.7813 359.2813,104.7813 Q359.6094,104.7813 359.8672,105.0391 Q360.125,105.2969 360.125,105.6406 Q360.125,105.9844 359.7813,106.3906 Q359.2813,106.9688 358.4844,107.2969 Q357.4063,107.75 356.1094,107.75 Q354.5938,107.75 353.3906,107.125 Q352.4063,106.625 351.7188,105.5547 Q351.0313,104.4844 351.0313,103.2031 L351.0313,102.0469 Q351.0313,100.7188 351.6484,99.5703 Q352.2656,98.4219 353.3594,97.8047 Q354.4531,97.1875 355.6875,97.1875 Q356.4219,97.1875 357.0703,97.3516 Q357.7188,97.5156 358.2656,97.875 Z "/>
        <text fill="#000000" font-family="sans-serif" font-size="12" lengthAdjust="spacingAndGlyphs" textLength="21" x="369.5" y="106.9102">Aes</text>
        <line style="stroke: #A80036; stroke-width: 1.5;" x1="341.5" x2="392.5" y1="118" y2="118"/>
        <line style="stroke: #A80036; stroke-width: 1.5;" x1="341.5" x2="392.5" y1="126" y2="126"/>
        <path d="M109.501,134 C134.625,150.75 168.691,173.461 194.837,190.892 " fill="none" style="stroke: #A80036; stroke-width: 1.0; stroke-dasharray: 7.0,7.0;"/>
        <polygon fill="#A80036" points="199.293,193.862,194.0227,185.5419,195.1325,191.0888,189.5856,192.1987,199.293,193.862" style="stroke: #A80036; stroke-width: 1.0;"/>
        <path d="M92.3304,85.765 C108.075,66.01 133.265,39.558 162.5,28 C221.191,4.797 247.943,-0.005 304.5,28 C326.83,39.057 343.355,62.335 353.786,81.273 " fill="none" style="stroke: #A80036; stroke-width: 1.0; stroke-dasharray: 7.0,7.0;"/>
        <polygon fill="#A80036" points="356.307,85.985,355.5884,76.1624,353.9484,81.5763,348.5345,79.9362,356.307,85.985" style="stroke: #A80036; stroke-width: 1.0;"/>
        <path d="M356.307,85.985 C346.114,66.368 328.722,39.994 304.5,28 C247.943,-0.005 221.191,4.797 162.5,28 C135.321,38.745 111.638,62.364 95.7899,81.506 " fill="none" style="stroke: #A80036; stroke-width: 1.0; stroke-dasharray: 7.0,7.0;"/>
        <polygon fill="#A80036" points="92.3304,85.765,101.1099,81.3017,95.4831,81.8842,94.9006,76.2574,92.3304,85.765" style="stroke: #A80036; stroke-width: 1.0;"/>
        <path d="M75,134 C75,150.003 75,171.446 75,188.528 " fill="none" style="stroke: #A80036; stroke-width: 1.0; stroke-dasharray: 7.0,7.0;"/>
        <polygon fill="#A80036" points="75,193.678,79,184.678,75,188.678,71,184.678,75,193.678" style="stroke: #A80036; stroke-width: 1.0;"/>
        <path d="M234,193.678 C234,177.604 234,156.154 234,139.131 " fill="none" style="stroke: #A80036; stroke-width: 1.0; stroke-dasharray: 7.0,7.0;"/>
        <polygon fill="#A80036" points="234,134,230,143,234,139,238,143,234,134" style="stroke: #A80036; stroke-width: 1.0;"/>
        <path d="M237.255,242 C238.895,253.588 240.938,268.0294 242.859,281.6013 " fill="none" style="stroke: #A80036; stroke-width: 1.0;"/>
        <polygon fill="none" points="249.828,280.8949,245.7,301.6784,235.966,282.8565,249.828,280.8949" style="stroke: #A80036; stroke-width: 1.0;"/>
        <path d="M340.405,132.196 C322.906,146.142 299.558,164.751 279.191,180.983 " fill="none" style="stroke: #A80036; stroke-width: 1.0;"/>
        <polygon fill="none" points="283.326,186.639,263.322,193.63,274.6,175.691,283.326,186.639" style="stroke: #A80036; stroke-width: 1.0;"/>
        <path d="M360.352,134.22 C352.097,161.193 336.558,206.524 316,242 C307.023,257.492 295.269,273.1216 284.117,286.5747 " fill="none" style="stroke: #A80036; stroke-width: 1.0;"/>
        <polygon fill="none" points="289.399,291.1691,271.04,301.7498,278.793,282.0297,289.399,291.1691" style="stroke: #A80036; stroke-width: 1.0;"/>
    </g>
</svg>
